<?xml version="1.0" encoding="UTF-8" standalone="no"?>
<!-- Created with Inkscape (http://www.inkscape.org/) -->

<svg
   width="600"
   height="100"
   viewBox="0 0 158.75 26.458333"
   version="1.1"
   id="svg1"
   inkscape:version="1.4.2 (f4327f4, 2025-05-13)"
   sodipodi:docname="sample-feature-ss11.svg"
   xml:space="preserve"
   xmlns:inkscape="http://www.inkscape.org/namespaces/inkscape"
   xmlns:sodipodi="http://sodipodi.sourceforge.net/DTD/sodipodi-0.dtd"
   xmlns="http://www.w3.org/2000/svg"
   xmlns:svg="http://www.w3.org/2000/svg"><sodipodi:namedview
     id="namedview1"
     pagecolor="#505050"
     bordercolor="#eeeeee"
     borderopacity="1"
     inkscape:showpageshadow="0"
     inkscape:pageopacity="0"
     inkscape:pagecheckerboard="0"
     inkscape:deskcolor="#505050"
     inkscape:document-units="mm"
     showguides="true"
     inkscape:zoom="1.4378367"
     inkscape:cx="280.28218"
     inkscape:cy="39.990633"
     inkscape:window-width="1920"
     inkscape:window-height="1009"
     inkscape:window-x="-8"
     inkscape:window-y="-8"
     inkscape:window-maximized="1"
     inkscape:current-layer="layer1"><sodipodi:guide
       position="8.4666666,26.458333"
       orientation="-1,0"
       id="guide2"
       inkscape:locked="false"
       inkscape:label=""
       inkscape:color="rgb(0,134,229)" /><sodipodi:guide
       position="0,13.229167"
       orientation="0,1"
       id="guide3"
       inkscape:locked="false"
       inkscape:label=""
       inkscape:color="rgb(0,134,229)" /><sodipodi:guide
       position="26.458333,26.458333"
       orientation="-1,0"
       id="guide1"
       inkscape:locked="false"
       inkscape:label=""
       inkscape:color="rgb(0,134,229)" /><sodipodi:guide
       position="0,18.520833"
       orientation="0,1"
       id="guide4"
       inkscape:locked="false"
       inkscape:label=""
       inkscape:color="rgb(0,134,229)" /><sodipodi:guide
       position="0,7.9375"
       orientation="0,1"
       id="guide6"
       inkscape:locked="false"
       inkscape:label=""
       inkscape:color="rgb(0,134,229)" /></sodipodi:namedview><defs
     id="defs1"><rect
       x="73.721863"
       y="247.59418"
       width="570.44586"
       height="95.494965"
       id="rect1" /><rect
       x="73.721863"
       y="247.59418"
       width="40.686915"
       height="84.154117"
       id="rect7" /></defs><rect
     style="opacity:1;fill:#1b1b1b;fill-opacity:1;stroke-width:0.264583"
     id="rect2"
     width="158.75"
     height="26.458332"
     x="0"
     y="0" /><text
     xml:space="preserve"
     transform="matrix(0.26458333,0,0,0.26458333,6.9525473,-61.918983)"
     id="text1"
     style="font-style:normal;font-variant:normal;font-weight:normal;font-stretch:normal;font-size:32px;font-family:Firple;-inkscape-font-specification:Firple;text-align:start;letter-spacing:0px;writing-mode:lr-tb;direction:ltr;white-space:pre;shape-inside:url(#rect1);display:inline;opacity:1;fill:#a9b7c6"><tspan
       x="73.722656"
       y="275.59375"
       id="tspan4">ぱぴぷぺぽ パピプペポ
</tspan><tspan
       x="73.722656"
       y="315.59375"
       id="tspan7" style="font-feature-settings:'ss11';">ぱぴぷぺぽ パピプペポ</tspan></text><g
     inkscape:groupmode="layer"
     id="layer1"
     inkscape:label="Layer 1"><text
       xml:space="preserve"
       transform="matrix(0.26458333,0,0,0.26458333,-3.8123225,-61.836737)"
       id="text7"
       style="font-style:normal;font-variant:normal;font-weight:normal;font-stretch:normal;font-size:12px;line-height:40px;font-family:Firple;-inkscape-font-specification:Firple;text-align:start;letter-spacing:0px;writing-mode:lr-tb;direction:ltr;white-space:pre;shape-inside:url(#rect7);display:inline;opacity:1;fill:#a9b7c6"><tspan
         x="73.722656"
         y="270.59375"
         id="tspan9"><tspan
           style="font-weight:bold;-inkscape-font-specification:'Firple Bold';fill:#ff3860"
           id="tspan8">OFF</tspan></tspan><tspan
         x="73.722656"
         y="310.59375"
         id="tspan11"><tspan
           style="font-weight:bold;-inkscape-font-specification:'Firple Bold';fill:#23d160"
           id="tspan10">ON</tspan></tspan></text><g
       style="fill:#23d160;stroke-width:1.42857;fill-opacity:1"
       id="g4"
       transform="matrix(0.18520833,0,0,0.18520833,9.1545833,16.994788)"
       inkscape:label="g4"><path
         d="m 8,5 h 8 c 3.866,0 7,3.13401 7,7 0,3.866 -3.134,7 -7,7 H 8 C 4.13401,19 1,15.866 1,12 1,8.13401 4.13401,5 8,5 Z m 8,10 c 1.6569,0 3,-1.3431 3,-3 0,-1.6569 -1.3431,-3 -3,-3 -1.6569,0 -3,1.3431 -3,3 0,1.6569 1.3431,3 3,3 z"
         id="path1-4"
         style="fill:#23d160;stroke-width:1.42857;fill-opacity:1" /></g><g
       style="fill:#ff3860;stroke-width:1.42857;fill-opacity:1"
       id="g1"
       transform="matrix(0.18520833,0,0,0.18520833,9.1545833,6.1468749)"><path
         d="m 8,8.4312711 c -2.76142,0 -5,2.2385809 -5,4.9999999 0,2.7614 2.23858,5 5,5 h 8 c 2.7614,0 5,-2.2386 5,-5 0,-2.761419 -2.2386,-4.9999999 -5,-4.9999999 z M 8,6.4312712 h 8 c 3.866,0 7,3.1340099 7,6.9999998 0,3.866 -3.134,7 -7,7 H 8 c -3.86599,0 -7,-3.134 -7,-7 C 1,9.5652811 4.13401,6.4312712 8,6.4312712 Z m 0,9.9999998 c -1.65685,0 -3,-1.3431 -3,-3 0,-1.656899 1.34315,-2.999999 3,-2.999999 1.65685,0 3,1.3431 3,2.999999 0,1.6569 -1.34315,3 -3,3 z"
         id="path1"
         style="fill:#ff3860;stroke-width:1.42857;fill-opacity:1" /></g></g></svg>
