<?xml version="1.0" encoding="UTF-8" standalone="no"?>
<!DOCTYPE svg PUBLIC "-//W3C//DTD SVG 20010904//EN"
              "http://www.w3.org/TR/2001/REC-SVG-20010904/DTD/svg10.dtd">

<svg xmlns="http://www.w3.org/2000/svg"
     viewBox="0 0 2400 1950">
  <path d="M 1350.19,140.00
           C 1251.70,140.00 1147.84,140.00 1050.06,140.00
             1050.06,140.00 1049.74,254.00 1049.74,254.00
             1147.50,254.00 1251.31,254.00 1349.81,254.00
             1349.81,254.00 1350.19,140.00 1350.19,140.00 Z
           M 1924.26,392.19
           C 1924.26,308.67 1924.26,255.90 1924.26,255.90
             1924.26,222.97 1913.28,195.42 1891.34,173.25
             1869.39,151.08 1842.11,140.00 1809.50,140.00
             1809.50,140.00 1755.25,140.00 1669.81,140.00
             1669.81,140.00 1670.14,254.00 1670.14,254.00
             1756.49,254.00 1811.39,254.00 1811.39,254.00
             1811.39,254.00 1811.39,307.42 1811.39,391.87
             1811.39,391.87 1924.26,392.19 1924.26,392.19 Z
           M 607.43,392.10
           C 607.43,307.52 607.43,254.00 607.43,254.00
             607.43,254.00 654.56,254.00 730.18,254.00
             730.18,254.00 729.96,140.00 729.96,140.00
             655.58,140.00 609.31,140.00 609.31,140.00
             576.70,140.00 549.42,151.08 527.48,173.25
             505.53,195.42 494.55,222.97 494.55,255.90
             494.55,255.90 494.55,308.52 494.55,391.82
             494.55,391.82 607.43,392.10 607.43,392.10 Z
           M 607.43,1011.87
           C 607.43,913.83 607.43,810.24 607.43,712.20
             607.43,712.20 494.55,711.77 494.55,711.77
             494.55,810.02 494.55,913.89 494.55,1012.15
             494.55,1012.15 607.43,1011.87 607.43,1011.87 Z
           M 494.55,1331.81
           C 494.55,1415.33 494.55,1468.10 494.55,1468.10
             494.55,1501.03 505.53,1528.58 527.48,1550.75
             549.42,1572.92 576.70,1584.00 609.31,1584.00
             609.31,1584.00 655.58,1584.00 729.96,1584.00
             729.96,1584.00 730.18,1470.00 730.18,1470.00
             654.56,1470.00 607.43,1470.00 607.43,1470.00
             607.43,1470.00 607.43,1416.58 607.43,1332.13
             607.43,1332.13 494.55,1331.81 494.55,1331.81 Z
           M 1050.06,1584.00
           C 1147.84,1584.00 1251.70,1584.00 1350.19,1584.00
             1350.19,1584.00 1349.81,1470.00 1349.81,1470.00
             1251.31,1470.00 1147.50,1470.00 1049.74,1470.00
             1049.74,1470.00 1050.06,1584.00 1050.06,1584.00 Z
           M 1669.81,1584.00
           C 1755.25,1584.00 1809.50,1584.00 1809.50,1584.00
             1842.11,1584.00 1869.39,1572.92 1891.34,1550.75
             1913.28,1528.58 1924.26,1501.03 1924.26,1468.10
             1924.26,1468.10 1924.26,1415.48 1924.26,1332.18
             1924.26,1332.18 1811.39,1331.90 1811.39,1331.90
             1811.39,1416.48 1811.39,1470.00 1811.39,1470.00
             1811.39,1470.00 1756.49,1470.00 1670.14,1470.00
             1670.14,1470.00 1669.81,1584.00 1669.81,1584.00 Z
           M 1924.26,1012.23
           C 1924.26,913.98 1924.26,810.11 1924.26,711.85
             1924.26,711.85 1811.39,712.13 1811.39,712.13
             1811.39,810.17 1811.39,913.76 1811.39,1011.80
             1811.39,1011.80 1924.26,1012.23 1924.26,1012.23 Z" />
</svg>
