<?xml version="1.0" encoding="UTF-8" standalone="no"?>
<!DOCTYPE svg PUBLIC "-//W3C//DTD SVG 20010904//EN"
              "http://www.w3.org/TR/2001/REC-SVG-20010904/DTD/svg10.dtd">

<svg xmlns="http://www.w3.org/2000/svg"
     viewBox="0 0 1000 1000">
  <path d="M 579.93,120.00
           C 579.93,120.00 419.75,120.00 419.75,120.00
             419.75,120.00 419.86,180.00 419.86,180.00
             419.86,180.00 579.83,180.00 579.83,180.00
             579.83,180.00 579.93,120.00 579.93,120.00 Z
           M 881.19,250.15
           C 881.19,250.15 881.19,181.00 881.19,181.00
             881.19,163.67 875.41,149.17 863.86,137.50
             852.31,125.83 837.95,120.00 820.79,120.00
             820.79,120.00 749.97,120.00 749.97,120.00
             749.97,120.00 750.17,180.00 750.17,180.00
             750.17,180.00 821.78,180.00 821.78,180.00
             821.78,180.00 821.78,249.90 821.78,249.90
             821.78,249.90 881.19,250.15 881.19,250.15 Z
           M 821.78,749.84
           C 821.78,749.84 821.78,820.00 821.78,820.00
             821.78,820.00 750.11,820.00 750.11,820.00
             750.11,820.00 749.86,880.00 749.86,880.00
             749.86,880.00 820.79,880.00 820.79,880.00
             837.95,880.00 852.31,874.17 863.86,862.50
             875.41,850.83 881.19,836.33 881.19,819.00
             881.19,819.00 881.19,750.18 881.19,750.18
             881.19,750.18 821.78,749.84 821.78,749.84 Z
           M 881.19,580.16
           C 881.19,580.16 881.19,419.73 881.19,419.73
             881.19,419.73 821.78,419.74 821.78,419.74
             821.78,419.74 821.78,579.81 821.78,579.81
             821.78,579.81 881.19,580.16 881.19,580.16 Z
           M 579.84,820.00
           C 579.84,820.00 419.86,820.00 419.86,820.00
             419.86,820.00 419.85,880.00 419.85,880.00
             419.85,880.00 579.95,880.00 579.95,880.00
             579.95,880.00 579.84,820.00 579.84,820.00 Z
           M 250.04,820.00
           C 250.04,820.00 188.12,820.00 188.12,820.00
             188.12,820.00 188.12,750.10 188.12,750.10
             188.12,750.10 128.71,749.85 128.71,749.85
             128.71,749.85 128.71,819.00 128.71,819.00
             128.71,836.33 134.49,850.83 146.04,862.50
             157.59,874.17 171.95,880.00 189.11,880.00
             189.11,880.00 250.16,880.00 250.16,880.00
             250.16,880.00 250.04,820.00 250.04,820.00 Z
           M 188.12,580.26
           C 188.12,580.26 188.12,420.19 188.12,420.19
             188.12,420.19 128.71,419.84 128.71,419.84
             128.71,419.84 128.71,580.27 128.71,580.27
             128.71,580.27 188.12,580.26 188.12,580.26 Z
           M 188.12,250.16
           C 188.12,250.16 188.12,180.00 188.12,180.00
             188.12,180.00 250.01,180.00 250.01,180.00
             250.01,180.00 250.22,120.00 250.22,120.00
             250.22,120.00 189.11,120.00 189.11,120.00
             171.95,120.00 157.59,125.83 146.04,137.50
             134.49,149.17 128.71,163.67 128.71,181.00
             128.71,181.00 128.71,249.82 128.71,249.82
             128.71,249.82 188.12,250.16 188.12,250.16 Z" />
</svg>
