<?xml version="1.0" encoding="UTF-8" standalone="no"?>
<svg
   version="1.1"
   viewBox="-10 0 1010 1000"
   xmlns="http://www.w3.org/2000/svg"><path
     d="M 580,120 H 420 v 60 H 580 Z M 180,250 v -70 h 70 v -60 h -69 c -17.33333,0 -31.83333,5.83333 -43.5,17.5 C 125.83333,149.16667 120,163.66667 120,181 v 69 z m 0,330 V 420 h -60 v 160 z m 70,240 h -70 v -70 h -60 v 69 c 0,17.33333 5.83333,31.83333 17.5,43.5 11.66667,11.66667 26.16667,17.5 43.5,17.5 l 69,0 z m 330,0 H 420 v 60 H 580 Z M 880,250 v -69 c 0,-17.33333 -5.83333,-31.83333 -17.5,-43.5 C 850.83333,125.83333 836.33333,120 819,120 h -69 v 60 h 70 v 70 z m -60,170 v 160 h 60 V 420 Z m 0,330 v 70 h -70 v 60 h 69 c 17.33333,0 31.83333,-5.83333 43.5,-17.5 C 874.16667,850.83333 880,836.33333 880,819 l 0,-69 z" /></svg>
