<?xml version="1.0" encoding="UTF-8" standalone="no"?>
<svg
   version="1.1"
   viewBox="-10 0 1210 1950"
   xmlns="http://www.w3.org/2000/svg"><path
     d="m 769.66555,506.39229 c 59.91473,14.3 119.91729,36.4 185.33445,66.3 v 753.30001 c 0.4032,20.8 3.83131,35.1 4.95758,42.9001 3.37867,23.4 10.97537,42.25 22.7901,56.55 11.81475,14.3 30.72912,26 56.74302,35.1 l -32.962,122.85 c -55.53855,-6.5 -100.22871,-23.4 -134.07049,-50.7 -33.84177,-27.3 -57.86058,-67.6 -72.05642,-120.9 -33.90416,53.3 -72.65072,95.225 -120.23969,125.775 -47.58897,30.55 -98.63346,45.4326 -157.13346,45.4326 -104,0 -181.76184,-35.3576 -249.28553,-106.8576 -67.52369,-71.5 -109.9199,-167.05 -127.18862,-286.6501 -15.01627,-104 -10.85755,-232 12.47617,-336.00001 23.33373,-104 70.83567,-191.425 142.50583,-262.275 C 373.20666,520.36729 463.44174,485 588.24174,485 c 63.7,0 123.50737,7.09229 183.42211,21.39229 z m -340.77749,203.775 c -45.97261,55.25 -75.67432,124.15 -89.10515,206.7 -13.43083,82.55001 -14.04589,190.07501 -1.84516,274.57501 12.20072,84.5 36.20741,147.225 72.02008,188.1751 35.81265,40.95 73.66898,61.425 129.56898,61.425 53.3,0 96.72871,-16.25 134.28613,-48.75 C 711.37035,1359.7923 749.32206,1312.9923 786,1251.8923 V 660.44229 c -28.98933,-11.7 -59.351,-20.15 -85.45181,-25.35 -26.10081,-5.2 -54.05122,-7.8 -87.85122,-7.8 -81.9,0 -137.8363,27.625 -183.80891,82.875 z" /></svg>
