<?xml version="1.0" encoding="UTF-8" standalone="no"?>
<!DOCTYPE svg PUBLIC "-//W3C//DTD SVG 20010904//EN"
              "http://www.w3.org/TR/2001/REC-SVG-20010904/DTD/svg10.dtd">

<svg xmlns="http://www.w3.org/2000/svg"
     viewBox="0 0 1210 1950">
  <path d="M 1063.00,573.67
           C 846.00,466.00 643.50,457.50 478.00,529.00
             327.33,602.00 221.33,744.00 162.00,905.00
             106.00,1053.00 52.00,1318.50 176.67,1481.67
             211.00,1524.00 285.00,1595.50 453.50,1581.50
             527.00,1574.00 640.00,1526.00 739.50,1402.00
             737.00,1508.00 797.50,1569.50 903.50,1583.50
             903.50,1584.00 956.50,1468.00 956.50,1467.50
             899.50,1440.50 883.25,1410.50 907.25,1309.00
             907.25,1309.00 1063.00,574.17 1063.00,573.67 Z
           M 754.00,1246.00
           C 659.33,1376.00 536.67,1487.33 389.33,1438.67
             242.00,1390.00 262.75,1132.83 334.75,925.50
             384.08,780.17 488.00,668.67 589.33,634.00
             659.33,612.00 791.75,608.17 879.75,655.50
             879.75,656.17 754.67,1246.00 754.00,1246.00 Z" />
</svg>
