<?xml version="1.0" encoding="UTF-8" standalone="no"?>
<!DOCTYPE svg PUBLIC "-//W3C//DTD SVG 20010904//EN"
              "http://www.w3.org/TR/2001/REC-SVG-20010904/DTD/svg10.dtd">

<svg xmlns="http://www.w3.org/2000/svg"
     viewBox="0 0 1210 1950">
  <path d="M 417.33,81.00
           C 417.33,81.00 587.00,60.67 587.00,60.67
             587.00,60.67 468.17,616.33 468.50,616.00
             516.98,571.06 586.31,527.64 659.50,503.00
             720.66,482.41 784.27,475.81 843.00,484.00
             972.00,502.67 1057.33,588.67 1080.00,761.00
             1095.00,895.50 1060.00,1067.00 1020.00,1167.00
             975.00,1287.00 869.00,1466.00 677.00,1547.00
             493.33,1618.67 239.33,1563.33 112.67,1510.00
             112.67,1510.00 417.33,81.00 417.33,81.00 Z
           M 302.00,1410.50
           C 384.50,1447.50 517.00,1462.50 609.00,1426.50
             701.00,1390.50 789.00,1293.50 843.00,1160.50
             897.00,1027.50 917.00,883.50 908.00,789.00
             899.00,688.50 848.33,621.00 744.00,615.00
             690.67,612.67 622.50,623.00 541.50,682.50
             514.50,702.50 468.80,739.50 437.00,774.00
             437.33,774.33 302.00,1410.50 302.00,1410.50 Z" />
</svg>
