<?xml version="1.0" encoding="UTF-8" standalone="no"?>
<svg
   version="1.1"
   viewBox="-10 0 1210 1950"
   xmlns="http://www.w3.org/2000/svg"><path
     d="m 1055.2741,896.5961 c 15.0385,106.5999 8.9061,226.9249 -14.3972,328.9749 -23.3033,102.05 -71.41576,187.2 -144.33737,255.45 C 823.61789,1549.271 714.10707,1583 588.00707,1583 c -57.2,0 -113.83359,-4.804 -169.90077,-15.204 -56.06718,-10.4 -138.22175,-27.95 -217.1063,-52.65 V 83 L 369,62 v 579.7461 c 52.89165,-65.52071 108.56517,-102.8 153.73082,-123.6 45.16564,-20.8 95.04846,-33.2 149.64846,-33.2 97.5,0 197.19758,35.425 263.09271,106.275 65.89511,70.85 101.82921,177.975 119.80211,305.375 z m -549.43594,-242.3 c -38.58205,26 -90.69735,66.32369 -136.83816,133.2 v 622.3499 c 34.15058,11.7 91.37034,19.825 118.01223,24.375 26.64189,4.55 58.16284,6.825 94.56284,6.825 79.3,0 151.37781,-27.625 196.23342,-82.875 44.85562,-55.25 77.76472,-124.475 90.72729,-207.675 12.96257,-83.2 13.48345,-183.04997 1.56264,-267.5499 -23.29145,-165.1 -108.73718,-261.65 -228.33718,-261.65 -50.7,0 -97.34103,7 -135.92308,33 z" /></svg>
