<?xml version="1.0" encoding="UTF-8" standalone="no"?>
<!DOCTYPE svg PUBLIC "-//W3C//DTD SVG 20010904//EN"
              "http://www.w3.org/TR/2001/REC-SVG-20010904/DTD/svg10.dtd">

<svg xmlns="http://www.w3.org/2000/svg"
     viewBox="0 0 1200 1950">
  <path d="M 325.00,1158.00
           C 318.83,1260.50 332.50,1318.17 378.00,1367.00
             410.65,1399.20 464.34,1457.67 609.00,1441.00
             691.00,1431.00 799.02,1395.18 866.83,1347.33
             867.50,1347.33 924.66,1460.67 924.00,1460.00
             828.66,1526.00 689.67,1574.67 544.33,1582.67
             344.33,1592.67 205.67,1495.33 170.33,1334.00
             135.00,1172.67 174.00,999.00 225.50,870.50
             277.00,742.00 395.00,569.67 581.00,506.67
             674.62,479.13 795.98,475.93 895.00,508.00
             963.79,530.28 1021.06,574.89 1057.00,626.00
             1115.00,711.50 1091.00,846.17 1046.00,929.50
             993.00,1024.17 777.00,1121.33 325.00,1158.00 Z
           M 459.00,754.00
           C 409.67,826.00 370.54,914.68 348.00,1032.00
             576.67,1005.33 923.33,994.33 928.00,777.00
             929.04,739.06 910.83,696.67 880.00,668.00
             841.33,634.17 739.00,608.00 651.67,626.67
             595.00,640.00 508.34,682.00 459.00,754.00 Z" />
</svg>
