<?xml version="1.0" encoding="UTF-8" standalone="no"?>
<svg
   version="1.1"
   viewBox="-10 0 1210 1950"
   xmlns="http://www.w3.org/2000/svg"><path
     d="m 892.28178,1042.9673 c -119.08336,59.7823 -324.10043,101.6298 -551.0512,125.5427 30.47095,174.0327 156.69148,275.049 314.66159,275.049 52.65671,0 101.97861,-3.971 147.96571,-19.9129 45.98711,-15.9419 108.09729,-44.5191 154.33055,-77.7314 l 85.85557,109.5499 C 930.184,1540.4882 802.09629,1583 659.78087,1583 523.15807,1583 411.83855,1545.4701 325.82232,1470.4102 239.80609,1395.3503 186.69741,1290.7314 166.49626,1156.5536 150.69538,1051.6026 154.61287,947.64791 178.24872,844.68966 201.8846,741.73141 251.95845,656.04357 328.47026,587.62614 404.98209,519.20872 510.12625,485.00001 643.90274,485.00001 c 113.85234,0 205.63233,25.90562 275.33998,77.71687 69.70765,51.81125 110.16178,114.9147 121.36238,189.31035 20.2012,134.17786 -29.2399,231.15788 -148.32332,290.94007 z M 739.59077,943.33032 C 817.04498,904.804 867.37171,845.02904 854.57098,760.00545 849.77071,728.1216 833.27365,698.89474 805.07982,672.32487 776.88597,645.755 717.74911,624.47006 663.66925,624.47006 c -108.15972,0 -197.8667,16.17502 -266.36258,115.57895 -51.1374,74.21262 -67.54987,181.3757 -66.40362,292.96919 173.67097,-18.5989 331.23354,-51.16156 408.68772,-89.68788 z" /></svg>
