<?xml version="1.0" encoding="UTF-8" standalone="no"?>
<!DOCTYPE svg PUBLIC "-//W3C//DTD SVG 20010904//EN"
              "http://www.w3.org/TR/2001/REC-SVG-20010904/DTD/svg10.dtd">

<svg xmlns="http://www.w3.org/2000/svg"
     viewBox="0 0 1210 1950">
  <path d="M 322.67,1160.00
           C 316.50,1262.50 332.50,1334.50 378.00,1383.33
             410.65,1415.53 456.67,1452.67 601.33,1436.00
             683.33,1426.00 761.52,1389.18 829.33,1341.33
             830.00,1341.33 895.33,1456.00 894.67,1455.33
             799.33,1521.33 680.67,1574.67 535.33,1582.67
             335.33,1592.67 196.67,1495.33 161.33,1334.00
             126.00,1172.67 165.00,999.00 216.50,870.50
             268.00,742.00 386.00,569.67 572.00,506.67
             730.67,460.00 923.33,473.33 1011.00,598.00
             1078.00,690.00 1046.00,820.67 1001.00,904.00
             948.00,998.67 774.67,1123.33 322.67,1160.00 Z
           M 461.33,753.33
           C 412.00,825.33 364.04,915.68 341.50,1033.00
             570.17,1006.33 868.00,967.33 872.67,750.00
             873.71,712.06 863.50,678.00 832.67,649.33
             794.00,615.50 730.00,608.00 642.67,626.67
             586.00,640.00 510.67,681.33 461.33,753.33 Z" />
</svg>
