<?xml version="1.0" encoding="UTF-8" standalone="no"?>
<!DOCTYPE svg PUBLIC "-//W3C//DTD SVG 20010904//EN"
              "http://www.w3.org/TR/2001/REC-SVG-20010904/DTD/svg10.dtd">

<svg xmlns="http://www.w3.org/2000/svg"
     viewBox="0 0 1210 1950">
  <path d="M 438.33,1741.33
           C 401.67,1807.33 333.00,1866.00 299.00,1893.33
             242.00,1937.50 168.00,1972.00 97.00,1997.00
             97.00,1997.00 59.75,1872.00 59.50,1872.00
             146.17,1835.17 235.50,1788.00 277.64,1711.75
             306.00,1663.00 325.81,1618.22 340.25,1554.25
             340.50,1554.25 518.00,721.25 518.00,721.25
             518.00,721.25 267.25,721.00 267.25,721.00
             267.25,721.00 294.67,589.00 294.67,589.00
             294.67,589.00 545.67,588.67 545.67,588.67
             545.67,588.67 593.04,368.54 593.00,368.50
             609.67,276.67 684.33,186.67 750.00,146.00
             862.67,72.33 985.67,58.67 1068.67,62.00
             1151.67,65.33 1231.21,77.75 1314.33,119.00
             1314.67,119.33 1234.00,244.67 1234.00,244.33
             1197.06,222.45 1105.91,201.40 1023.30,199.53
             988.87,198.74 936.25,203.75 900.00,216.25
             863.75,228.75 782.67,258.67 758.00,379.50
             758.50,379.50 713.50,588.75 713.50,588.75
             713.50,588.75 1071.00,589.50 1071.00,589.50
             1071.00,589.50 1025.00,720.75 1025.00,720.75
             1025.00,720.75 685.50,721.00 685.50,721.00
             685.50,721.00 507.67,1558.67 507.00,1558.67
             482.33,1654.00 463.33,1692.33 438.33,1741.33 Z" />
</svg>
