<?xml version="1.0" encoding="UTF-8" standalone="no"?>
<svg
   version="1.1"
   viewBox="-10 0 1210 1950"
   xmlns="http://www.w3.org/2000/svg"><path
     d="M 823 62 C 750.33333 62 685 74.833333 627 100.5 C 569 126.16667 523.16667 162.66667 489.5 210 C 455.83333 257.33333 439 313.66667 439 379 L 439 589 L 188 589 L 188 721 L 439 721 L 439 1560 C 438.52847 1630.2 430.78913 1682.4566 415.22266 1724.0566 C 399.65619 1765.6566 373.60303 1798.1566 345.0625 1821.5566 C 316.52197 1844.9566 276.6984 1869.0051 225.5918 1893.7051 L 295.32227 2028.2559 C 374.67414 1991.8559 436.24154 1956.1059 480.02734 1921.0059 C 523.81314 1885.9059 552.98309 1840.0812 575.53516 1783.5312 C 598.08723 1726.9812 607.4218 1654.9 607 1560 L 607 721 L 946 721 L 964 589 L 607 589 L 607 375 C 607 258.33333 680.66667 200 828 200 C 868 200 907.16667 203.66667 945.5 211 C 983.83333 218.33333 1020 229.33333 1054 244 L 1108 119 C 1066.6667 101 1023 87 977 77 C 931 67 879.66667 62 823 62 z " /></svg>
