<?xml version="1.0" encoding="UTF-8" standalone="no"?>
<svg
   version="1.1"
   viewBox="-10 0 1210 1950"
   xmlns="http://www.w3.org/2000/svg"><path
     d="m 824.03005,505.45 c 60.01267,14.3 122.34807,36.4 187.96995,66.3 v 955.9001 c 0.3894,157.3 -34.17822,276.725 -104.25975,346.275 -70.0816,69.55 -189.4724,110.0749 -318.1724,110.0749 -61.1,0 -144.55123,-8.8499 -210.3537,-27.0499 -65.80247,-18.2 -125.6647,-42.25 -179.5867,-72.15 l 47.6064,-136.5 c 41.04233,22.1 87.16727,41.275 138.3748,57.525 51.2076,16.25 121.5114,24.375 170.9114,24.375 81.9,0 166.4526,-26.15 213.6578,-66.45 47.2052,-40.3 67.52355,-123.65 65.82215,-238.05 v -130.65 c -33.02553,48.1 -72.22522,86.125 -118.04815,114.075 -45.823,27.95 -116.0345,41.925 -170.6345,41.925 -102.7,0 -208.5592,-34.775 -277.5776,-104.325 -69.01847,-69.55 -112.4733,-163.475 -130.3645,-281.775 C 122.66372,1054.45 126.14028,932.49997 149.80495,831.1 c 23.66467,-101.4 72.18187,-184.6 145.5516,-249.6 73.36967,-65 193.7545,-97.5 321.1545,-97.5 65,0 147.50633,7.15 207.519,21.45 z M 423.81595,702.4 c -47.5824,50.7 -78.32793,116.025 -92.2366,195.975 -13.90873,79.95007 -14.17847,180.1251 -0.8092,268.5251 12.3862,81.9 37.17757,142.675 74.3741,182.325 37.19647,39.65 103.0947,59.475 157.6947,59.475 52,0 117.86913,-16.9 157.6074,-50.7 39.7382,-33.8 79.29418,-81.25 115.55365,-142.35 V 659.5 c -31.6694,-11.7 -60.29448,-20.15 -87.08095,-25.35 -26.7864,-5.2 -77.0796,-7.8 -110.8796,-7.8 -81.9,0 -166.64117,25.35 -214.2235,76.05 z" /></svg>
