<?xml version="1.0" encoding="UTF-8" standalone="no"?>
<!DOCTYPE svg PUBLIC "-//W3C//DTD SVG 20010904//EN"
              "http://www.w3.org/TR/2001/REC-SVG-20010904/DTD/svg10.dtd">

<svg xmlns="http://www.w3.org/2000/svg"
     viewBox="0 0 1210 1950">
  <path d="M 1123.58,570.00
           C 1124.52,571.00 927.45,1497.00 925.95,1497.00
             874.09,1735.50 810.91,1836.00 687.72,1914.00
             553.74,2004.00 288.47,2023.00 61.78,1883.00
             63.72,1884.00 134.03,1759.00 134.09,1758.00
             273.98,1845.00 516.92,1896.00 659.69,1749.00
             733.68,1666.50 751.16,1546.50 782.39,1392.50
             633.15,1556.67 488.57,1585.33 338.52,1536.00
             209.05,1495.50 92.01,1293.00 193.55,961.50
             295.09,630.00 491.07,525.00 634.00,496.00
             792.26,462.00 961.40,490.00 1123.58,570.00 Z
           M 941.50,654.00
           C 883.07,615.33 744.53,603.33 654.05,630.67
             572.80,656.55 495.85,715.59 433.66,817.00
             328.82,995.00 323.66,1223.00 347.48,1301.00
             379.83,1413.58 479.97,1444.00 594.36,1408.00
             655.69,1388.00 755.87,1306.91 817.93,1219.00
             817.93,1219.00 941.50,654.00 941.50,654.00 Z" />
</svg>
