<?xml version="1.0" encoding="UTF-8" standalone="no"?>
<!DOCTYPE svg PUBLIC "-//W3C//DTD SVG 20010904//EN"
              "http://www.w3.org/TR/2001/REC-SVG-20010904/DTD/svg10.dtd">

<svg xmlns="http://www.w3.org/2000/svg"
     viewBox="0 0 1210 1950">
  <path d="M 427.00,83.00
           C 427.00,83.00 599.00,63.00 599.00,63.00
             599.00,63.00 458.00,720.00 457.00,720.00
             592.00,550.00 755.00,493.00 878.00,496.50
             1001.00,500.00 1088.00,531.00 1129.00,604.00
             1170.00,677.00 1170.00,795.00 1105.00,894.00
             1040.00,993.00 940.50,1052.50 744.50,1084.50
             744.50,1084.50 1038.67,1560.00 1038.67,1560.00
             1038.67,1560.00 846.00,1560.00 846.00,1560.00
             846.00,1560.00 524.00,1047.00 524.00,1046.00
             738.00,1009.00 902.00,955.00 965.00,837.00
             986.00,798.00 997.00,728.00 980.00,683.00
             963.00,638.00 903.00,613.00 848.00,614.00
             687.50,615.00 512.00,744.00 410.00,939.00
             410.00,938.00 281.00,1560.00 281.00,1560.00
             281.00,1560.00 111.00,1560.00 111.00,1560.00
             111.00,1560.00 427.00,83.00 427.00,83.00 Z" />
</svg>
