<?xml version="1.0" encoding="UTF-8" standalone="no"?>
<svg
   version="1.1"
   viewBox="-10 0 1210 1950"
   xmlns="http://www.w3.org/2000/svg"><path
     d="m 380,695.11524 c 63.98422,-84.15635 108.31024,-113.3 174.35993,-152.1 55.6987,-32.71945 117.90923,-45.75471 184.02454,-50.7 75.62843,-5.65685 193.66033,21.775 246.581,65.325 52.92053,43.55 84.22243,99.775 93.90573,168.675 11.6929,83.2 -4.7257,156 -49.2559,218.4 -44.53036,62.39996 -143.07036,110.49996 -243.62003,144.29996 L 1138,1560 H 917 L 566.86797,1042.2152 c 116.14967,-33.8 223.63153,-73.77499 270.4456,-119.92496 46.814,-46.15 65.19667,-104.975 55.148,-176.475 -5.11567,-36.4 -19.19666,-59.5103 -40.8973,-78.875 -30.6492,-27.35 -111.50172,-34.39632 -133.8738,-32.275 -58.23878,5.5222 -124.78294,25.025 -178.84882,75.075 -54.06593,50.05 -116.57897,126.525 -158.84165,217.425 V 1560 H 212 V 83 L 380,62 Z" /></svg>
