<?xml version="1.0" encoding="UTF-8" standalone="no"?>
<svg
   version="1.1"
   viewBox="-10 0 1210 1950"
   xmlns="http://www.w3.org/2000/svg"><path
     d="m 831,1436.6677 c -27.5798,42.9 -73.80388,78.325 -120.45128,106.275 -46.64747,27.95 -98.5712,41.925 -155.7712,41.925 -102.7,0 -202.1585,-35.75 -270.3755,-107.25 -68.21699,-71.5 -110.99608,-167.05 -128.33725,-286.65 -15.07928,-103.9999 -10.98356,-233.99992 12.28715,-337.99995 23.27069,-104 70.71966,-191.425 142.3469,-262.275 71.62727,-70.85 183.8409,-106.275 308.6409,-106.275 63.7,0 125.09243,6.5 184.1773,19.5 59.08493,13 124.47073,35.75 195.48298,68.25 V 1961.2677 l -168,23.4 z m -123.55568,-42.9 c 37.53773,-32.5 86.91475,-79.3 123.55568,-140.4 V 659.91775 c -30.2964,-11.7 -71.16065,-20.15 -97.26458,-25.35 -26.104,-5.2 -56.056,-7.8 -89.856,-7.8 -81.9,0 -159.81957,27.625 -205.7587,82.875 -45.93913,55.25 -75.5991,124.15 -88.9799,206.7 -13.3808,82.54997 -13.94527,192.07495 -1.6934,276.57495 12.25193,84.5 36.29663,147.225 72.1341,188.175 35.83747,40.95 95.7062,61.425 151.6062,61.425 53.3,0 98.71887,-16.25 136.2566,-48.75 z" /></svg>
