<?xml version="1.0" encoding="UTF-8" standalone="no"?>
<!DOCTYPE svg PUBLIC "-//W3C//DTD SVG 20010904//EN"
              "http://www.w3.org/TR/2001/REC-SVG-20010904/DTD/svg10.dtd">

<svg xmlns="http://www.w3.org/2000/svg"
     viewBox="0 0 1210 1950">
  <path d="M 1109.80,580.00
           C 1109.80,580.00 812.53,1973.00 812.53,1973.00
             812.53,1973.00 641.00,1995.00 641.00,1995.00
             641.00,1995.00 760.47,1431.00 761.47,1431.00
             652.32,1563.00 517.60,1593.00 428.65,1591.00
             372.70,1589.00 309.44,1566.88 269.85,1541.00
             196.97,1494.00 137.56,1385.67 140.35,1227.00
             143.14,1068.33 191.37,870.00 329.17,690.00
             435.86,556.50 595.01,487.50 738.98,489.00
             882.94,490.50 1020.02,529.00 1109.80,580.00 Z
           M 925.83,662.50
           C 777.47,594.00 584.35,599.00 451.83,788.00
             329.53,968.00 313.59,1175.00 321.32,1270.00
             330.48,1400.30 398.47,1473.00 526.95,1453.00
             616.26,1440.00 702.73,1373.30 793.70,1254.00
             793.73,1253.00 925.34,662.00 925.83,662.50 Z" />
</svg>
