<?xml version="1.0" encoding="UTF-8" standalone="no"?>
<!DOCTYPE svg PUBLIC "-//W3C//DTD SVG 20010904//EN"
              "http://www.w3.org/TR/2001/REC-SVG-20010904/DTD/svg10.dtd">

<svg xmlns="http://www.w3.org/2000/svg"
     viewBox="0 0 1000 1000">
  <path d="M 933.90,145.82
           C 933.90,118.95 925.35,97.96 908.25,82.85
             891.16,67.74 867.17,60.18 836.29,60.18
             806.52,60.18 783.08,67.74 765.99,82.85
             748.89,97.96 740.35,118.95 740.35,145.82
             740.35,145.82 740.35,165.96 740.35,165.96
             740.35,192.83 748.62,214.10 765.16,229.77
             781.70,245.44 805.41,253.28 836.29,253.28
             867.17,253.28 891.16,245.72 908.25,230.61
             925.35,215.50 933.90,193.95 933.90,165.96
             933.90,165.96 933.90,145.82 933.90,145.82 Z
           M 340.57,593.00
           C 310.96,654.33 289.40,704.33 275.91,743.00
             262.42,781.67 254.03,817.67 250.74,851.00
             250.08,855.67 249.75,862.67 249.75,872.00
             249.75,880.00 250.41,890.67 251.73,904.00
             251.73,904.00 163.87,912.00 163.87,912.00
             142.15,794.67 131.29,684.33 131.29,581.00
             131.29,431.00 149.06,271.33 184.60,102.00
             184.60,102.00 266.54,113.00 266.54,113.00
             248.77,195.00 235.27,276.67 226.06,358.00
             216.85,439.33 212.24,514.33 212.24,583.00
             212.24,655.67 214.54,713.33 219.15,756.00
             219.15,756.00 225.07,756.00 225.07,756.00
             228.36,723.33 233.79,692.00 241.36,662.00
             248.93,632.00 261.60,598.33 279.37,561.00
             279.37,561.00 340.57,593.00 340.57,593.00 Z
           M 651.53,694.00
           C 615.33,680.67 579.80,674.00 544.92,674.00
             513.98,674.00 489.96,681.50 472.85,696.50
             455.74,711.50 447.19,732.00 447.19,758.00
             447.19,784.00 456.07,804.00 473.84,818.00
             491.61,832.00 516.62,839.00 548.86,839.00
             583.74,839.00 609.58,832.50 626.36,819.50
             643.14,806.50 651.53,786.00 651.53,758.00
             651.53,758.00 651.53,694.00 651.53,694.00 Z
           M 731.49,352.00
           C 786.11,350.67 839.42,347.67 891.41,343.00
             891.41,343.00 893.39,423.00 893.39,423.00
             824.94,427.00 770.98,429.67 731.49,431.00
             731.49,431.00 731.49,430.99 731.49,430.99
             731.49,430.99 731.49,645.00 731.49,645.00
             792.69,674.33 854.23,716.33 916.09,771.00
             916.09,771.00 870.68,836.00 870.68,836.00
             823.96,791.33 777.56,756.33 731.49,731.00
             731.49,731.00 731.49,767.00 731.49,767.00
             731.49,815.00 715.86,851.67 684.60,877.00
             653.34,902.33 607.77,915.00 547.88,915.00
             492.60,915.00 449.00,901.17 417.08,873.50
             385.16,845.83 369.20,808.00 369.20,760.00
             369.20,710.67 384.67,671.50 415.60,642.50
             446.53,613.50 490.62,599.00 547.88,599.00
             582.10,599.00 616.65,604.00 651.53,614.00
             651.53,614.00 651.53,432.00 651.53,432.00
             651.53,432.00 651.53,432.00 651.53,432.00
             564.66,432.00 471.21,430.33 371.17,427.00
             371.17,427.00 374.14,346.00 374.14,346.00
             454.43,350.67 546.89,353.00 651.53,353.00
             651.53,353.00 651.53,353.00 651.53,353.00
             651.53,353.00 651.53,100.00 651.53,100.00
             651.53,100.00 692.20,100.00 692.20,100.00
             692.20,100.00 692.19,100.01 692.19,100.01
             699.17,80.25 710.15,62.90 725.12,47.97
             753.17,19.99 790.27,6.00 836.42,6.00
             882.57,6.00 919.67,19.99 947.72,47.97
             975.78,75.95 989.80,112.42 989.80,157.38
             989.80,201.41 975.78,237.19 947.72,264.72
             919.67,292.24 882.57,306.00 836.42,306.00
             793.68,306.00 758.70,294.20 731.48,270.59
             731.48,270.59 731.49,270.59 731.49,270.59
             731.49,270.59 731.49,351.99 731.49,351.99
             731.49,351.99 731.49,352.00 731.49,352.00 Z" />
</svg>
