<?xml version="1.0" encoding="UTF-8" standalone="no"?>
<svg
   version="1.1"
   viewBox="-10 0 1010 1000"
   xmlns="http://www.w3.org/2000/svg"><path
     d="M 800.38477,59.5 C 754.50525,59.5 717.63863,73.204191 689.7832,100.61328 661.92778,128.02237 648,163.81818 648,208 c 0,44.18181 13.92778,79.97763 41.7832,107.38672 27.85542,27.40909 64.72205,41.11328 110.60157,41.11328 46.69879,0 83.9766,-13.70419 111.83203,-41.11328 C 940.07222,287.97763 954,252.18181 954,208 954,163.81818 940.07222,128.02237 912.2168,100.61328 884.36137,73.204191 847.08356,59.5 800.38477,59.5 Z m -0.084,50 c 31.70164,0 56.40938,8.0919 74.125,24.27734 C 892.14142,149.96279 901,171.46746 901,198.28906 v 19.42188 c 0,26.82159 -8.85859,48.32627 -26.57422,64.51172 C 856.71016,298.40811 832.00242,306.5 800.30078,306.5 768.59914,306.5 744.12441,298.40811 726.875,282.22266 709.62558,266.03721 701,244.53253 701,217.71094 v -19.42188 c 0,-26.8216 8.62558,-48.32627 25.875,-64.51172 C 744.12441,117.5919 768.59914,109.5 800.30078,109.5 Z M 412,251 c -18.66667,0 -36,4.83333 -52,14.5 -16,9.66667 -32.66667,25.5 -50,47.5 L 75,602 126,660 363,364 c 18,-23.33333 35.33333,-35 52,-35 15.33333,0 33,11 53,33 L 909,839 954,777 512,304 c -16.66667,-18 -33,-31.33333 -49,-40 -16,-8.66667 -33,-13 -51,-13 z" /></svg>
