<?xml version="1.0" encoding="UTF-8" standalone="no"?>
<svg
   version="1.1"
   viewBox="-10 0 1010 1000"
   xmlns="http://www.w3.org/2000/svg"><path
     d="M 838.38477,5 C 792.50525,5 755.63863,18.704191 727.7832,46.113281 699.92778,73.522371 686,109.31818 686,153.5 c 0,15.971 1.81909,30.84563 5.45898,44.625 C 673.76358,178.1862 655.61116,157.14492 637,135 l -61,40 c 34.66667,70 60.16667,135.5 76.5,196.5 16.33333,61 24.5,121.5 24.5,181.5 0,90 -21.66667,160 -65,210 -43.33333,50 -104,75 -182,75 C 355.33333,838 296.83333,817.16667 254.5,775.5 212.16667,733.83333 191,676.33333 191,603 191,465 261.66667,344 403,240 l 17,-13 35,-25 -5,-61 H 92 v 63 h 298 v 6 c -82,38.66667 -147.33333,93.5 -196,164.5 -48.66667,71 -73,147.83333 -73,230.5 0,61.33333 12.66667,114.66667 38,160 25.33333,45.33333 61.16667,80.16667 107.5,104.5 46.33333,24.33333 100.83333,36.5 163.5,36.5 62,0 116.83333,-13.16667 164.5,-39.5 47.66667,-26.33333 84.66667,-63.33333 111,-111 C 731.83333,707.83333 745,653 745,591 745,482.33333 713,369.66667 649,253 l 5,-3 c 69.33333,80 144.33333,155 225,225 l 45,-50 c -48,-40.66667 -94.66667,-83.5 -140,-128.5 -1.07057,-1.0627 -2.14409,-2.13057 -3.21875,-3.20312 17.29311,5.80194 36.49483,8.70312 57.60352,8.70312 46.69879,0 83.9766,-13.70419 111.83203,-41.11328 C 978.07222,233.47763 992,197.68181 992,153.5 992,109.31818 978.07222,73.522371 950.2168,46.113281 922.36137,18.704191 885.08356,5 838.38477,5 Z m -0.084,50 c 31.70164,0 56.40938,8.091904 74.125,24.277344 C 930.14142,95.462794 939,116.96746 939,143.78906 v 19.42188 c 0,26.82159 -8.85859,48.32627 -26.57422,64.51172 C 894.71016,243.90811 870.00242,252 838.30078,252 806.59914,252 782.12441,243.90811 764.875,227.72266 747.62558,211.53721 739,190.03253 739,163.21094 v -19.42188 c 0,-26.8216 8.62558,-48.326266 25.875,-64.511716 C 782.12441,63.091904 806.59914,55 838.30078,55 Z" /></svg>
