<?xml version="1.0" encoding="UTF-8" standalone="no"?>
<!DOCTYPE svg PUBLIC "-//W3C//DTD SVG 20010904//EN"
              "http://www.w3.org/TR/2001/REC-SVG-20010904/DTD/svg10.dtd">

<svg xmlns="http://www.w3.org/2000/svg"
     viewBox="0 0 1000 1000">
  <path d="M 900.90,197.82
           C 900.90,170.95 892.35,149.96 875.25,134.85
             858.16,119.74 834.17,112.18 803.29,112.18
             773.52,112.18 750.08,119.74 732.99,134.85
             715.89,149.96 707.35,170.95 707.35,197.82
             707.35,197.82 707.35,217.96 707.35,217.96
             707.35,244.83 715.62,266.10 732.16,281.77
             748.70,297.44 772.41,305.28 803.29,305.28
             834.17,305.28 858.16,297.72 875.25,282.61
             892.35,267.50 900.90,245.95 900.90,217.96
             900.90,217.96 900.90,197.82 900.90,197.82 Z
           M 914.72,99.97
           C 942.78,127.95 956.80,164.42 956.80,209.38
             956.80,253.41 942.78,289.19 914.72,316.72
             886.67,344.24 849.57,358.00 803.42,358.00
             757.27,358.00 720.17,344.24 692.12,316.72
             664.07,289.19 650.04,253.41 650.04,209.38
             650.04,164.42 664.07,127.95 692.12,99.97
             720.17,71.99 757.27,58.00 803.42,58.00
             849.57,58.00 886.67,71.99 914.72,99.97 Z
           M 469.31,372.00
           C 451.49,352.00 435.31,342.00 420.79,342.00
             406.27,342.00 390.76,352.67 374.26,374.00
             374.26,374.00 141.58,669.00 141.58,669.00
             141.58,669.00 79.21,595.00 79.21,595.00
             79.21,595.00 308.91,310.00 308.91,310.00
             327.39,287.33 345.21,270.67 362.38,260.00
             379.54,249.33 397.69,244.00 416.83,244.00
             453.80,244.00 488.78,262.33 521.78,299.00
             521.78,299.00 958.42,770.00 958.42,770.00
             958.42,770.00 903.96,848.00 903.96,848.00
             903.96,848.00 469.31,372.00 469.31,372.00 Z" />
</svg>
