<?xml version="1.0" encoding="UTF-8" standalone="no"?>
<svg
   version="1.1"
   viewBox="-10 0 1010 1000"
   xmlns="http://www.w3.org/2000/svg"><path
     d="M 838.38477,22 C 792.50525,22 755.63863,35.704191 727.7832,63.113281 701.79866,88.68147 687.93468,121.54736 686.18945,161.71094 675.82354,161.90346 667.09308,162 660,162 558.66667,162 464,160 376,156 l -2,63 c 85.33333,4 174,6 266,6 v 168 c -112,0 -204.66667,-2.33333 -278,-7 l -2,63 c 86.66667,4.66667 180,7 280,7 v 181 c -38,-12 -74.33333,-18 -109,-18 -56,0 -99,13.16667 -129,39.5 -30,26.33333 -45,62.5 -45,108.5 0,42.66667 15.66667,77.33333 47,104 31.33333,26.66667 72.33333,40 123,40 58.66667,0 103,-12.16667 133,-36.5 30,-24.33333 45,-59.83333 45,-106.5 v -37 c 58,32 113.66667,72.33333 167,121 l 36,-55 C 840,738.33333 772.33333,693.66667 705,663 V 455 c 65.33333,-0.66667 128.33333,-4 189,-10 l -3,-63 c -62,6 -124,9.33333 -186,10 V 248.43945 c 6.11727,10.70513 13.71165,20.52107 22.7832,29.44727 C 755.63862,305.29581 792.50525,319 838.38477,319 885.08356,319 922.36137,305.29581 950.2168,277.88672 978.07222,250.47763 992,214.68181 992,170.5 992,126.31818 978.07222,90.522371 950.2168,63.113281 922.36137,35.704191 885.08356,22 838.38477,22 Z m -0.084,50 c 31.70164,0 56.40938,8.091904 74.125,24.277344 C 930.14142,112.46279 939,133.96746 939,160.78906 v 19.42188 c 0,26.82159 -8.85859,48.32627 -26.57422,64.51172 C 894.71016,260.90811 870.00242,269 838.30078,269 806.59914,269 782.12441,260.90811 764.875,244.72266 747.62558,228.53721 739,207.03253 739,180.21094 v -19.42188 c 0,-26.8216 8.62558,-48.32627 25.875,-64.511716 C 782.12441,80.091904 806.59914,72 838.30078,72 Z M 171,106 c -18,86 -31.83333,171.5 -41.5,256.5 -9.66667,85 -14.5,163.83333 -14.5,236.5 0,101.33333 11,209 33,323 l 71,-6 c -1.33333,-12 -2,-22.33333 -2,-31 0,-6 0.66667,-15 2,-27 4.66667,-33.33333 13.83333,-69 27.5,-107 13.66667,-38 35.16667,-87 64.5,-147 l -56,-27 c -19.33333,41.33333 -33.16667,78 -41.5,110 -8.33333,32 -14.16667,63.66667 -17.5,95 h -6 c -5.33333,-46 -8,-106.66667 -8,-182 0,-71.33333 4.83333,-149.66667 14.5,-235 9.66667,-85.33333 23.5,-168.33333 41.5,-249 z m 357,573 c 34.66667,0 72,7.66667 112,23 v 56 c 0,32 -8.83333,55.33333 -26.5,70 -17.66667,14.66667 -45.83333,22 -84.5,22 -34,0 -60.16667,-7.33333 -78.5,-22 -18.33333,-14.66667 -27.5,-35.66667 -27.5,-63 0,-26.66667 8.66667,-47.66667 26,-63 17.33333,-15.33333 43.66667,-23 79,-23 z" /></svg>
