<?xml version="1.0" encoding="UTF-8" standalone="no"?>
<svg
   version="1.1"
   viewBox="-10 0 1010 1000"
   xmlns="http://www.w3.org/2000/svg"><path
     d="M 160.38477 5 C 114.50525 5 77.638626 18.70419 49.783203 46.113281 C 21.927781 73.522371 8 109.31818 8 153.5 C 8 197.68181 21.927781 233.47763 49.783203 260.88672 C 77.638625 288.29581 114.50525 302 160.38477 302 C 207.08356 302 244.36137 288.29581 272.2168 260.88672 C 300.07222 233.47763 314 197.68181 314 153.5 C 314 109.31818 300.07222 73.522371 272.2168 46.113281 C 244.36137 18.70419 207.08356 5 160.38477 5 z M 160.30078 55 C 192.00242 55 216.71016 63.091898 234.42578 79.277344 C 252.14141 95.46279 261 116.96746 261 143.78906 L 261 163.21094 C 261 190.03253 252.14141 211.53721 234.42578 227.72266 C 216.71016 243.90811 192.00242 252 160.30078 252 C 128.59914 252 104.12441 243.90811 86.875 227.72266 C 69.625583 211.53721 61 190.03253 61 163.21094 L 61 143.78906 C 61 116.96746 69.625583 95.46279 86.875 79.277344 C 104.12441 63.091898 128.59914 55 160.30078 55 z " /></svg>
