<?xml version="1.0" encoding="UTF-8" standalone="no"?>
<svg
   version="1.1"
   viewBox="-10 0 1010 1000"
   xmlns="http://www.w3.org/2000/svg"><path
     d="M 838.38477,5 C 792.50525,5 755.63863,18.70419 727.7832,46.113281 699.92778,73.522371 686,109.31818 686,153.5 c 0,9.19669 0.6036,18.03003 1.81055,26.5 H 110 v 70 h 607.8125 c 3.09728,3.76509 6.42111,7.394 9.9707,10.88672 0.1017,0.10006 0.20276,0.19913 0.30469,0.29883 C 719.44213,361.06835 698.24667,447.0071 664.5,519 629.5,593.66667 578.66667,656.5 512,707.5 445.33333,758.5 359.66667,800 255,832 l 31,71 C 449.33333,854.33333 572.5,778.66667 655.5,676 733.22165,579.86237 780.98389,453.91221 798.78711,298.14844 811.14183,300.71651 824.34116,302 838.38477,302 885.08356,302 922.36137,288.29581 950.2168,260.88672 978.07222,233.47763 992,197.68181 992,153.5 992,109.31818 978.07222,73.522371 950.2168,46.113281 922.36137,18.70419 885.08356,5 838.38477,5 Z m -0.084,50 c 31.70164,0 56.40938,8.091898 74.125,24.277344 C 930.14142,95.462788 939,116.96746 939,143.78906 v 19.42188 c 0,26.82159 -8.85859,48.32627 -26.57422,64.51172 C 894.71016,243.90811 870.00242,252 838.30078,252 806.59914,252 782.12441,243.90811 764.875,227.72266 747.62558,211.53721 739,190.03253 739,163.21094 v -19.42188 c 0,-26.8216 8.62558,-48.326272 25.875,-64.511716 C 782.12441,63.091898 806.59914,55 838.30078,55 Z" /></svg>
