<?xml version="1.0" encoding="UTF-8" standalone="no"?>
<!DOCTYPE svg PUBLIC "-//W3C//DTD SVG 20010904//EN"
              "http://www.w3.org/TR/2001/REC-SVG-20010904/DTD/svg10.dtd">

<svg xmlns="http://www.w3.org/2000/svg"
     viewBox="0 0 1000 1000">
  <path d="M 938.90,145.82
           C 938.90,118.95 930.35,97.96 913.25,82.85
             896.16,67.74 872.17,60.18 841.29,60.18
             811.52,60.18 788.08,67.74 770.99,82.85
             753.89,97.96 745.35,118.95 745.35,145.82
             745.35,145.82 745.35,165.96 745.35,165.96
             745.35,192.83 753.62,214.10 770.16,229.77
             786.70,245.44 810.41,253.28 841.29,253.28
             872.17,253.28 896.16,245.72 913.25,230.61
             930.35,215.50 938.90,193.95 938.90,165.96
             938.90,165.96 938.90,145.82 938.90,145.82 Z
           M 209.90,763.00
           C 213.20,731.67 218.81,700.83 226.73,670.50
             234.65,640.17 247.19,606.33 264.36,569.00
             264.36,569.00 325.74,601.00 325.74,601.00
             296.04,662.33 274.59,712.33 261.39,751.00
             248.18,789.67 239.93,825.67 236.63,859.00
             235.31,869.67 234.65,878.33 234.65,885.00
             234.65,893.00 235.31,903.00 236.63,915.00
             236.63,915.00 150.50,923.00 150.50,923.00
             128.05,807.67 116.83,696.00 116.83,588.00
             116.83,520.00 121.62,444.00 131.19,360.00
             140.76,276.00 154.79,190.00 173.27,102.00
             173.27,102.00 255.45,113.00 255.45,113.00
             236.96,195.67 222.77,279.50 212.87,364.50
             202.97,449.50 198.02,525.00 198.02,591.00
             198.02,669.00 200.00,726.33 203.96,763.00
             203.96,763.00 209.90,763.00 209.90,763.00 Z
           M 635.64,706.00
           C 599.34,692.67 565.02,686.00 532.67,686.00
             501.65,686.00 478.05,693.00 461.88,707.00
             445.71,721.00 437.62,740.00 437.62,764.00
             437.62,788.67 446.20,807.67 463.37,821.00
             480.53,834.33 504.62,841.00 535.64,841.00
             569.97,841.00 595.21,834.33 611.39,821.00
             627.56,807.67 635.64,787.00 635.64,759.00
             635.64,759.00 635.64,706.00 635.64,706.00 Z
           M 713.86,245.65
           C 713.86,283.33 713.86,386.00 713.86,386.00
             770.63,385.33 829.70,382.00 891.09,376.00
             891.09,376.00 895.05,453.00 895.05,453.00
             834.32,459.00 773.93,462.33 713.86,463.00
             713.86,463.00 713.86,658.00 713.86,658.00
             779.21,689.33 845.54,734.00 912.87,792.00
             912.87,792.00 869.31,858.00 869.31,858.00
             818.48,810.00 766.67,771.33 713.86,742.00
             713.86,742.00 713.86,773.00 713.86,773.00
             713.86,819.00 698.51,854.33 667.82,879.00
             637.13,903.67 592.08,916.00 532.67,916.00
             480.53,916.00 438.28,902.17 405.94,874.50
             373.60,846.83 357.43,810.67 357.43,766.00
             357.43,718.00 373.10,680.50 404.46,653.50
             435.81,626.50 479.87,613.00 536.63,613.00
             568.98,613.00 601.98,618.00 635.64,628.00
             635.64,628.00 635.64,464.00 635.64,464.00
             536.63,464.00 445.21,461.67 361.39,457.00
             361.39,457.00 364.36,380.00 364.36,380.00
             434.32,384.67 524.75,387.00 635.64,387.00
             635.64,387.00 635.64,233.00 635.64,233.00
             550.50,233.00 464.36,231.00 377.23,227.00
             377.23,227.00 379.21,151.00 379.21,151.00
             472.28,155.00 567.00,157.00 663.37,157.00
             669.70,157.00 677.92,156.90 688.05,156.71
             688.05,156.71 688.04,156.71 688.04,156.71
             688.18,112.06 702.21,75.81 730.12,47.97
             758.17,19.99 795.27,6.00 841.42,6.00
             887.57,6.00 924.67,19.99 952.72,47.97
             980.78,75.95 994.80,112.42 994.80,157.38
             994.80,201.41 980.78,237.19 952.72,264.72
             924.67,292.24 887.57,306.00 841.42,306.00
             795.27,306.00 758.17,292.24 730.12,264.72
             724.04,258.76 718.62,252.40 713.86,245.67
             713.86,245.67 713.86,245.65 713.86,245.65 Z" />
</svg>
