<?xml version="1.0" encoding="UTF-8" standalone="no"?>
<svg
   version="1.1"
   viewBox="-10 0 1010 1000"
   xmlns="http://www.w3.org/2000/svg"><path
     d="M 838.38477,37 C 792.50527,37 755.63863,50.704191 727.7832,78.113281 700.01455,105.437 686.0865,141.09577 686,185.08789 612.26266,168.39432 544.09626,155.19801 481.5,145.5 410.5,134.5 328.33333,124.33333 235,115 l -10,65 c 88.66667,9.33333 158.33333,17.5 209,24.5 50.66667,7 108,16.83333 172,29.5 l -1,5 c -5.33333,-0.66667 -14,-1 -26,-1 h -27 c -35.33333,0 -66,6.16667 -92,18.5 -26,12.33333 -46,28.5 -60,48.5 -14,20 -21,42 -21,66 0,28 4.66667,54.66667 14,80 9.33333,25.33333 23.33333,53.33333 42,84 l 78,127 c 27.33333,45.33333 41,82 41,110 0,26 -7.83333,45 -23.5,57 -15.66667,12 -39.83333,18 -72.5,18 -42,0 -91.66667,-10.66667 -149,-32 l -15,68 c 60,20 115.66667,30 167,30 51.33333,0 91.5,-11.5 120.5,-34.5 29,-23 43.5,-55.83333 43.5,-98.5 0,-45.33333 -17.33333,-96.33333 -52,-153 L 497,505 c -32,-51.33333 -48,-96 -48,-134 0.66667,-36.66667 18.16667,-64.5 52.5,-83.5 34.33333,-19 83.16667,-28.5 146.5,-28.5 10.66667,0 28.66667,0.66667 54,2 l 0.45312,-2.23242 c 6.51096,12.53679 14.95427,23.90958 25.33008,34.11914 C 755.63863,320.29582 792.50527,334 838.38477,334 885.08357,334 922.3614,320.29582 950.2168,292.88672 978.0722,265.47762 992,229.6818 992,185.5 992,141.31818 978.0722,105.52237 950.2168,78.113281 922.3614,50.704191 885.08357,37 838.38477,37 Z m -0.084,50 c 31.7016,0 56.4093,8.091904 74.125,24.27734 C 930.14138,127.46279 939,148.96746 939,175.78906 v 19.42188 c 0,26.8216 -8.85862,48.32622 -26.57422,64.51172 C 894.71018,275.90806 870.00238,284 838.30078,284 806.59908,284 782.12441,275.90806 764.875,259.72266 747.62558,243.53716 739,222.03254 739,195.21094 v -19.42188 c 0,-26.8216 8.62558,-48.32627 25.875,-64.51172 C 782.12441,95.091904 806.59908,87 838.30078,87 Z M 759,484 695,516 c 66.66667,99.33333 122.66667,214.66667 168,346 l 66,-30 C 881.66667,700.66667 825,584.66667 759,484 Z M 193,502 C 147.66667,635.33333 94.666667,744.33333 34,829 l 63,37 c 31.33333,-45.33333 61.16667,-98 89.5,-158 28.33333,-60 53.16667,-121.33333 74.5,-184 z" /></svg>
