<?xml version="1.0" encoding="UTF-8" standalone="no"?>
<!DOCTYPE svg PUBLIC "-//W3C//DTD SVG 20010904//EN"
              "http://www.w3.org/TR/2001/REC-SVG-20010904/DTD/svg10.dtd">

<svg xmlns="http://www.w3.org/2000/svg"
     viewBox="0 0 1000 1000">
  <path d="M 933.90,175.82
           C 933.90,148.95 925.35,127.96 908.25,112.85
             891.16,97.74 867.17,90.18 836.29,90.18
             806.52,90.18 783.08,97.74 765.99,112.85
             748.89,127.96 740.35,148.95 740.35,175.82
             740.35,175.82 740.35,195.96 740.35,195.96
             740.35,222.83 748.62,244.10 765.16,259.77
             781.70,275.44 805.41,283.28 836.29,283.28
             867.17,283.28 891.16,275.72 908.25,260.61
             925.35,245.50 933.90,223.95 933.90,195.96
             933.90,195.96 933.90,175.82 933.90,175.82 Z
           M 854.46,868.00
           C 807.59,730.00 752.81,613.00 690.10,517.00
             690.10,517.00 768.32,478.00 768.32,478.00
             833.00,578.00 888.45,695.33 934.65,830.00
             934.65,830.00 854.46,868.00 854.46,868.00 Z
           M 38.61,827.00
           C 97.36,743.00 149.50,633.00 195.05,497.00
             195.05,497.00 277.23,523.00 277.23,523.00
             256.77,586.33 232.67,648.67 204.95,710.00
             177.23,771.33 147.85,825.33 116.83,872.00
             116.83,872.00 38.61,827.00 38.61,827.00 Z
           M 704.08,268.41
           C 704.00,268.80 703.96,269.00 703.96,269.00
             681.52,267.67 666.01,267.00 657.43,267.00
             595.38,267.00 547.85,276.17 514.85,294.50
             481.85,312.83 465.02,339.67 464.36,375.00
             464.36,412.33 479.21,455.00 508.91,503.00
             508.91,503.00 580.20,620.00 580.20,620.00
             615.84,678.00 633.66,730.67 633.66,778.00
             633.66,822.67 618.81,857.17 589.11,881.50
             559.41,905.83 518.48,918.00 466.34,918.00
             418.15,918.00 362.71,908.67 300.00,890.00
             300.00,890.00 317.82,807.00 317.82,807.00
             371.95,826.33 419.14,836.00 459.41,836.00
             489.77,836.00 511.88,830.67 525.74,820.00
             539.60,809.33 546.53,791.67 546.53,767.00
             546.53,741.67 533.66,707.00 507.92,663.00
             507.92,663.00 433.66,540.00 433.66,540.00
             415.18,510.00 401.49,482.33 392.57,457.00
             383.66,431.67 379.21,405.00 379.21,377.00
             379.21,353.67 385.97,331.83 399.50,311.50
             413.04,291.17 432.67,275.00 458.42,263.00
             484.16,251.00 514.85,245.00 550.50,245.00
             550.50,245.00 578.22,245.00 578.22,245.00
             590.10,245.00 599.01,245.33 604.95,246.00
             604.95,246.00 605.94,241.00 605.94,241.00
             547.19,229.67 492.41,220.67 441.58,214.00
             390.76,207.33 320.13,199.33 229.70,190.00
             229.70,190.00 241.58,110.00 241.58,110.00
             335.31,118.67 418.15,128.33 490.10,139.00
             550.98,148.03 615.40,160.15 683.37,175.39
             683.37,175.39 683.38,175.41 683.38,175.41
             685.69,135.90 699.60,103.42 725.12,77.97
             753.17,49.99 790.27,36.00 836.42,36.00
             882.57,36.00 919.67,49.99 947.72,77.97
             975.78,105.95 989.80,142.42 989.80,187.38
             989.80,231.41 975.78,267.19 947.72,294.72
             919.67,322.24 882.57,336.00 836.42,336.00
             790.27,336.00 753.17,322.24 725.12,294.72
             716.90,286.65 709.88,277.88 704.07,268.39
             704.07,268.39 704.08,268.41 704.08,268.41 Z" />
</svg>
