<?xml version="1.0" encoding="UTF-8" standalone="no"?>
<svg
   version="1.1"
   viewBox="-10 0 1010 1000"
   xmlns="http://www.w3.org/2000/svg"><path
     d="M 838.38477,28 C 792.50525,28 755.63863,41.70419 727.7832,69.113281 699.92778,96.522371 686,132.31818 686,176.5 c 0,44.18181 13.92778,79.97763 41.7832,107.38672 C 755.63863,311.29581 792.50525,325 838.38477,325 885.08356,325 922.36137,311.29581 950.2168,283.88672 978.07222,256.47763 992,220.68181 992,176.5 992,132.31818 978.07222,96.522371 950.2168,69.113281 922.36137,41.70419 885.08356,28 838.38477,28 Z m -0.084,50 c 31.70164,0 56.40938,8.091902 74.125,24.27734 C 930.14142,118.46279 939,139.96746 939,166.78906 v 19.42188 c 0,26.82159 -8.85859,48.32627 -26.57422,64.51172 C 894.71016,266.90811 870.00242,275 838.30078,275 806.59914,275 782.12441,266.90811 764.875,250.72266 747.62558,234.53721 739,213.03253 739,186.21094 v -19.42188 c 0,-26.8216 8.62558,-48.32627 25.875,-64.51172 C 782.12441,86.091902 806.59914,78 838.30078,78 Z M 292,155 C 281.33333,303.66667 258.5,430.83333 223.5,536.5 188.5,642.16667 136,743 66,839 l 65,41 C 202.33333,779.33333 256.33333,672.66667 293,560 329.66667,447.33333 353.66667,314 365,160 Z m 376,0 -73,5 c 11.33333,152 35.5,284.5 72.5,397.5 37,113 90.83333,220.5 161.5,322.5 l 66,-41 C 826.33333,741.66667 774,639.66667 738,533 702,426.33333 678.66667,300.33333 668,155 Z" /></svg>
