<?xml version="1.0" encoding="UTF-8" standalone="no"?>
<!DOCTYPE svg PUBLIC "-//W3C//DTD SVG 20010904//EN"
              "http://www.w3.org/TR/2001/REC-SVG-20010904/DTD/svg10.dtd">

<svg xmlns="http://www.w3.org/2000/svg"
     viewBox="0 0 1000 1000">
  <path d="M 933.90,145.82
           C 933.90,118.95 925.35,97.96 908.25,82.85
             891.16,67.74 867.17,60.18 836.29,60.18
             806.52,60.18 783.08,67.74 765.99,82.85
             748.89,97.96 740.35,118.95 740.35,145.82
             740.35,145.82 740.35,165.96 740.35,165.96
             740.35,192.83 748.62,214.10 765.16,229.77
             781.70,245.44 805.41,253.28 836.29,253.28
             867.17,253.28 891.16,245.72 908.25,230.61
             925.35,215.50 933.90,193.95 933.90,165.96
             933.90,165.96 933.90,145.82 933.90,145.82 Z
           M 800.18,302.84
           C 841.38,344.84 884.55,385.56 929.70,425.00
             929.70,425.00 874.26,486.00 874.26,486.00
             797.03,417.33 727.39,345.33 665.35,270.00
             665.35,270.00 660.40,273.00 660.40,273.00
             721.78,382.33 752.48,488.67 752.48,592.00
             752.48,654.67 739.44,710.33 713.37,759.00
             687.29,807.67 650.17,845.33 601.98,872.00
             553.80,898.67 498.02,912.00 434.65,912.00
             371.29,912.00 316.17,899.67 269.31,875.00
             222.44,850.33 186.47,814.83 161.39,768.50
             136.30,722.17 123.76,667.67 123.76,605.00
             123.76,521.67 147.36,445.67 194.55,377.00
             241.75,308.33 304.62,256.00 383.17,220.00
             383.17,220.00 383.17,214.00 383.17,214.00
             383.17,214.00 99.01,214.00 99.01,214.00
             99.01,214.00 99.01,136.00 99.01,136.00
             99.01,136.00 453.47,136.00 453.47,136.00
             453.47,136.00 459.41,211.00 459.41,211.00
             444.88,221.00 426.73,234.67 404.95,252.00
             274.26,354.00 208.91,470.67 208.91,602.00
             208.91,673.33 228.88,728.83 268.81,768.50
             308.75,808.17 364.36,828.00 435.64,828.00
             510.89,828.00 568.98,803.00 609.90,753.00
             650.83,703.00 671.29,632.33 671.29,541.00
             671.29,431.00 638.94,310.00 574.26,178.00
             574.26,178.00 647.52,130.00 647.52,130.00
             659.78,145.12 671.85,159.74 683.73,173.86
             683.73,173.86 683.73,173.88 683.73,173.88
             683.27,168.51 683.04,163.01 683.04,157.38
             683.04,112.42 697.07,75.95 725.12,47.97
             753.17,19.99 790.27,6.00 836.42,6.00
             882.57,6.00 919.67,19.99 947.72,47.97
             975.78,75.95 989.80,112.42 989.80,157.38
             989.80,201.41 975.78,237.19 947.72,264.72
             919.67,292.24 882.57,306.00 836.42,306.00
             823.64,306.00 811.56,304.94 800.17,302.84
             800.17,302.84 800.18,302.84 800.18,302.84 Z" />
</svg>
