<?xml version="1.0" encoding="UTF-8" standalone="no"?>
<svg
   version="1.1"
   viewBox="-10 0 1011 1000"
   xmlns="http://www.w3.org/2000/svg"><path
     d="M 838.38477 5 C 792.50525 5 755.63863 18.70419 727.7832 46.113281 C 711.69431 61.944379 700.25128 80.573329 693.45508 102 L 660 102 L 660 334 L 659 334 C 550.33333 334 454.33333 331.66667 371 327 L 369 392 C 459.66667 396 555.66667 398 657 398 L 660 398 L 660 624 C 620 611.33333 582.33333 605 547 605 C 491 605 447.83333 619 417.5 647 C 387.16667 675 372 712.33333 372 759 C 372 805 387.5 841.5 418.5 868.5 C 449.5 895.5 492 909 546 909 C 604.66667 909 649.33333 896.5 680 871.5 C 710.66667 846.5 726 810.33333 726 763 L 726 719 C 778.66667 747.66667 829.33333 784.33333 878 829 L 916 776 C 850.66667 720 787.33333 678 726 650 L 726 397 C 778 396.33333 833.66667 393.66667 893 389 L 891 324 C 840.33333 328.66667 785.33333 331.66667 726 333 L 726 259.10156 C 726.58793 259.70063 727.18231 260.29545 727.7832 260.88672 C 755.63863 288.2958 792.50525 302 838.38477 302 C 885.08356 302 922.36137 288.29581 950.2168 260.88672 C 978.07222 233.47763 992 197.68181 992 153.5 C 992 109.31818 978.07222 73.522371 950.2168 46.113281 C 922.36137 18.70419 885.08356 5 838.38477 5 z M 838.30078 55 C 870.00242 55 894.71016 63.091898 912.42578 79.277344 C 930.14142 95.46279 939 116.96747 939 143.78906 L 939 163.21094 C 939 190.03253 930.14141 211.53721 912.42578 227.72266 C 894.71016 243.90811 870.00242 252 838.30078 252 C 806.59914 252 782.12441 243.90811 764.875 227.72266 C 747.62558 211.53721 739 190.03253 739 163.21094 L 739 143.78906 C 739 116.96747 747.62558 95.46279 764.875 79.277344 C 782.12441 63.091898 806.59914 55 838.30078 55 z M 184 105 C 148.66667 273.66667 131 435 131 589 C 131 687 142 793 164 907 L 236 901 C 234.66667 889 234 879.66667 234 873 C 234 868.33333 234.66667 860 236 848 C 240.66667 814.66667 249.83333 779 263.5 741 C 277.16667 703 298.66667 654 328 594 L 272 567 C 252.66667 608.33333 238.83333 645 230.5 677 C 222.16667 709 216.33333 740.66667 213 772 L 207 772 C 201.66667 726 199 665.33333 199 590 C 199 516.66667 203.33333 439 212 357 C 220.66667 275 234 194.33333 252 115 L 184 105 z M 545 667 C 581 667 619.33333 674.33333 660 689 L 660 757 C 660 787.66667 650.83333 810.33333 632.5 825 C 614.16667 839.66667 585.66667 847 547 847 C 511.66667 847 484.33333 839.33333 465 824 C 445.66667 808.66667 436 786.66667 436 758 C 436 730 445.33333 707.83333 464 691.5 C 482.66667 675.16667 509.66667 667 545 667 z " /></svg>
