<?xml version="1.0" encoding="UTF-8" standalone="no"?>
<svg
   version="1.1"
   viewBox="-10 0 1010 1000"
   xmlns="http://www.w3.org/2000/svg"><path
     d="M 838.38477,5 C 792.50527,5 755.6386,18.70419 727.7832,46.113281 699.9278,73.522371 686,109.31818 686,153.5 c 0,44.18181 13.9278,79.97763 41.7832,107.38672 1.07542,1.05819 2.16335,2.09595 3.26563,3.11328 H 524 V 97 H 454 V 264 H 92 v 66 H 454 V 849 H 293 l 16,65 h 141 c 25.33333,0 44,-5.66667 56,-17 12,-11.33333 18,-29.33333 18,-54 V 330 h 340 v -29.48633 c 34.91845,-4.22043 63.65762,-17.42923 86.2168,-39.62695 C 978.0722,233.47763 992,197.68181 992,153.5 992,109.31818 978.0722,73.522371 950.2168,46.113281 922.3614,18.70419 885.08357,5 838.38477,5 Z m -0.084,50 c 31.7016,0 56.4093,8.091898 74.125,24.277344 C 930.14138,95.46279 939,116.96746 939,143.78906 v 19.42188 c 0,26.82159 -8.85862,48.32627 -26.57422,64.51172 C 894.71018,243.90811 870.00238,252 838.30078,252 806.59908,252 782.1244,243.90811 764.875,227.72266 747.6256,211.53721 739,190.03253 739,163.21094 v -19.42188 c 0,-26.8216 8.6256,-48.32627 25.875,-64.511716 C 782.1244,63.091898 806.59908,55 838.30078,55 Z M 220,432 C 205.33333,494 184.83333,554.5 158.5,613.5 132.16667,672.5 101.33333,726 66,774 l 66,36 C 166.66667,758.66667 197.33333,701.83333 224,639.5 250.66667,577.16667 272,514 288,450 Z m 536,0 -69,19 c 40.66667,132 93.66667,251.66667 159,359 l 65,-36 C 844.33333,670.66667 792.66667,556.66667 756,432 Z" /></svg>
