<?xml version="1.0" encoding="UTF-8" standalone="no"?>
<svg
   version="1.1"
   viewBox="-10 0 1010 1000"
   xmlns="http://www.w3.org/2000/svg"><path
     d="M 816.38477,48.5 C 770.50527,48.5 733.6386,62.204191 705.7832,89.613281 677.9278,117.02237 664,152.81818 664,197 c 0,44.18181 13.9278,79.97763 41.7832,107.38672 3.77536,3.71486 7.71585,7.17731 11.82227,10.38867 C 653.06284,339.53354 584.86128,361.60886 513,381 429,403.66667 348.66667,421 272,433 V 114 h -72 v 589 c 0,61.33333 14.33333,105.66667 43,133 28.66667,27.33333 76,41 142,41 H 821 V 810 H 383 c -39.33333,0 -67.66667,-8.33333 -85,-25 -17.33333,-16.66667 -26,-43.66667 -26,-81 V 505 C 356,491 441.83333,472.16667 529.5,448.5 617.16667,424.83333 699,398 775,368 l -10.39648,-29.38086 c 15.75207,4.58682 33.0127,6.88086 51.78125,6.88086 46.6988,0 83.97663,-13.70419 111.83203,-41.11328 C 956.0722,276.97763 970,241.18181 970,197 970,152.81818 956.0722,117.02237 928.2168,89.613281 900.3614,62.204191 863.08357,48.5 816.38477,48.5 Z m -0.084,50 c 31.7016,0 56.4093,8.0919 74.125,24.27734 C 908.14138,138.96279 917,160.46746 917,187.28906 v 19.42188 c 0,26.82159 -8.85862,48.32627 -26.57422,64.51172 -17.7156,16.18545 -42.4234,24.27734 -74.125,24.27734 -31.7017,0 -56.17638,-8.09189 -73.42578,-24.27734 C 725.6256,255.03721 717,233.53253 717,206.71094 v -19.42188 c 0,-26.8216 8.6256,-48.32627 25.875,-64.51172 C 760.1244,106.5919 784.59908,98.500001 816.30078,98.5 Z" /></svg>
