<?xml version="1.0" encoding="UTF-8" standalone="no"?>
<!DOCTYPE svg PUBLIC "-//W3C//DTD SVG 20010904//EN"
              "http://www.w3.org/TR/2001/REC-SVG-20010904/DTD/svg10.dtd">

<svg xmlns="http://www.w3.org/2000/svg"
     viewBox="0 0 1000 1000">
  <path d="M 939.90,145.82
           C 939.90,118.95 931.35,97.96 914.25,82.85
             897.16,67.74 873.17,60.18 842.29,60.18
             812.52,60.18 789.08,67.74 771.99,82.85
             754.89,97.96 746.35,118.95 746.35,145.82
             746.35,145.82 746.35,165.96 746.35,165.96
             746.35,192.83 754.62,214.10 771.16,229.77
             787.70,245.44 811.41,253.28 842.29,253.28
             873.17,253.28 897.16,245.72 914.25,230.61
             931.35,215.50 939.90,193.95 939.90,165.96
             939.90,165.96 939.90,145.82 939.90,145.82 Z
           M 69.31,769.00
           C 102.97,721.00 132.51,667.67 157.92,609.00
             183.33,550.33 203.30,489.67 217.82,427.00
             217.82,427.00 300.99,449.00 300.99,449.00
             285.81,513.00 265.18,576.67 239.11,640.00
             213.04,703.33 183.50,761.00 150.50,813.00
             150.50,813.00 69.31,769.00 69.31,769.00 Z
           M 836.63,813.00
           C 771.95,700.33 720.46,579.67 682.18,451.00
             682.18,451.00 766.34,427.00 766.34,427.00
             800.66,547.67 850.83,661.67 916.83,769.00
             916.83,769.00 836.63,813.00 836.63,813.00 Z
           M 867.33,304.55
           C 867.33,304.55 867.33,335.00 867.33,335.00
             867.33,335.00 537.62,335.00 537.62,335.00
             537.62,335.00 537.62,832.00 537.62,832.00
             537.62,861.33 530.53,882.83 516.34,896.50
             502.15,910.17 479.87,917.00 449.50,917.00
             449.50,917.00 314.85,917.00 314.85,917.00
             314.85,917.00 295.05,836.00 295.05,836.00
             295.05,836.00 451.49,836.00 451.49,836.00
             451.49,836.00 451.49,335.00 451.49,335.00
             451.49,335.00 98.02,335.00 98.02,335.00
             98.02,335.00 98.02,254.00 98.02,254.00
             98.02,254.00 451.49,254.00 451.49,254.00
             451.49,254.00 451.49,91.00 451.49,91.00
             451.49,91.00 537.62,91.00 537.62,91.00
             537.62,91.00 537.62,254.00 537.62,254.00
             537.62,254.00 721.24,254.00 721.24,254.00
             721.24,254.00 721.25,254.00 721.25,254.00
             699.78,228.10 689.04,195.90 689.04,157.38
             689.04,112.42 703.07,75.95 731.12,47.97
             759.17,19.99 796.27,6.00 842.42,6.00
             888.57,6.00 925.67,19.99 953.72,47.97
             981.78,75.95 995.80,112.42 995.80,157.38
             995.80,201.41 981.78,237.19 953.72,264.72
             930.90,287.11 902.10,300.39 867.30,304.56
             867.30,304.56 867.33,304.55 867.33,304.55 Z" />
</svg>
