<?xml version="1.0" encoding="UTF-8" standalone="no"?>
<svg
   viewBox="0 0 1000 1000">
  <path
     d="m 933.9,199.96 c 0,27.99 -8.55,49.54 -25.65,64.65 -17.09,15.11 -41.08,22.67 -71.96,22.67 -30.88,0 -54.59,-7.84 -71.13,-23.51 -16.54,-15.67 -24.81,-36.94 -24.81,-63.81 v -20.14 c 0,-26.87 8.54,-47.86 25.64,-62.97 17.09,-15.11 40.53,-22.67 70.3,-22.67 30.88,0 54.87,7.56 71.96,22.67 17.1,15.11 25.65,36.1 25.65,62.97 z m -246.97,29.3 c 5.94,27.15 18.67,50.3 38.19,69.46 28.05,27.52 65.15,41.28 111.3,41.28 46.15,0 83.25,-13.76 111.3,-41.28 28.06,-27.53 42.08,-63.31 42.08,-107.34 0,-44.96 -14.02,-81.43 -42.08,-109.41 C 919.67,53.99 882.57,40 836.42,40 c -46.15,0 -83.25,13.99 -111.3,41.97 -27.54,27.47 -41.57,63.13 -42.07,106.97 v -0.01 c -1.04,-12.18 -2,-24.49 -2.85,-36.93 l -90.1,6 c 10.56,152.67 34.32,286.67 71.29,402 36.96,115.33 89.77,225 158.41,329 l 82.18,-51 C 835.31,740 784.16,637.17 748.51,529.5 719.4,441.55 698.87,341.47 686.93,229.27 Z M 69.31,838 C 137.29,742 188.61,640.67 223.27,534 257.92,427.33 280.2,300 290.1,152 l 90.1,6 C 368.98,313.33 345.38,448.5 309.41,563.5 273.43,678.5 220.46,787 150.5,889 Z" />
</svg>
