<?xml version="1.0" encoding="UTF-8" standalone="no"?>
<svg
   viewBox="0 0 1000 1000">
  <path
     d="m 914.9,202.96 c 0,27.99 -8.55,49.54 -25.65,64.65 -17.09,15.11 -41.08,22.67 -71.96,22.67 -30.88,0 -54.59,-7.84 -71.13,-23.51 -16.54,-15.67 -24.81,-36.94 -24.81,-63.81 v -20.14 c 0,-26.87 8.54,-47.86 25.64,-62.97 17.09,-15.11 40.53,-22.67 70.3,-22.67 30.88,0 54.87,7.56 71.96,22.67 17.1,15.11 25.65,36.1 25.65,62.97 z M 766.31,336.37 c 15.59,4.42 32.62,6.63 51.11,6.63 46.15,0 83.25,-13.76 111.3,-41.28 28.06,-27.53 42.08,-63.31 42.08,-107.34 0,-44.96 -14.02,-81.43 -42.08,-109.41 C 900.67,56.99 863.57,43 817.42,43 c -46.15,0 -83.25,13.99 -111.3,41.97 -28.05,27.98 -42.08,64.45 -42.08,109.41 0,44.03 14.03,79.81 42.08,107.34 2.44,2.4 4.95,4.69 7.53,6.87 l -0.01,0.02 C 648.86,333.15 581.61,354.95 511.88,374 431.35,396 356.11,412.33 286.14,423 V 111 h -87.13 v 594 c 0,64 14.19,109.67 42.57,137 28.39,27.33 76.24,41 143.57,41 H 826.73 V 799 H 382.18 c -33.67,0 -58.09,-7.17 -73.27,-21.5 C 293.73,763.17 286.14,739.67 286.14,707 V 511 c 83.17,-13.33 167.66,-31.33 253.46,-54 85.81,-22.67 166.34,-49.33 241.59,-80 0,0 -7.73,-21.11 -14.88,-40.63 z" />
</svg>
