<?xml version="1.0" encoding="UTF-8" standalone="no"?>
<svg
   version="1.1"
   viewBox="-10 0 510 1000"
   xmlns="http://www.w3.org/2000/svg"><path
     d="M 160.38477,5 C 114.50525,5 77.63863,18.70419 49.7832,46.11328 21.92778,73.52237 8,109.31818 8,153.5 8,197.68181 21.92778,233.47763 49.7832,260.88672 77.63862,288.29581 114.50525,302 160.38477,302 207.08356,302 244.36137,288.29581 272.2168,260.88672 300.07222,233.47763 314,197.68181 314,153.5 314,109.31818 300.07222,73.52237 272.2168,46.11328 244.36137,18.70419 207.08356,5 160.38477,5 Z m -0.084,50 c 31.70164,0 56.40938,8.0919 74.125,24.27734 C 252.14141,95.46279 261,116.96746 261,143.78906 v 19.42188 c 0,26.82159 -8.85859,48.32627 -26.57422,64.51172 C 216.71016,243.90811 192.00242,252 160.30078,252 128.59914,252 104.12441,243.90811 86.875,227.72266 69.62558,211.53721 61,190.03253 61,163.21094 V 143.78906 C 61,116.96746 69.62558,95.46279 86.875,79.27734 104.12441,63.0919 128.59914,55 160.30078,55 Z" /></svg>
