<?xml version="1.0" encoding="UTF-8" standalone="no"?>
<!DOCTYPE svg PUBLIC "-//W3C//DTD SVG 20010904//EN"
              "http://www.w3.org/TR/2001/REC-SVG-20010904/DTD/svg10.dtd">

<svg xmlns="http://www.w3.org/2000/svg"
     viewBox="0 0 500 1000">
  <path d="M 267.90,144.82
           C 267.90,117.95 259.35,96.96 242.25,81.85
             225.16,66.74 201.17,59.18 170.29,59.18
             140.52,59.18 117.08,66.74 99.99,81.85
             82.89,96.96 74.35,117.95 74.35,144.82
             74.35,144.82 74.35,164.96 74.35,164.96
             74.35,191.83 82.62,213.10 99.16,228.77
             115.70,244.44 139.41,252.28 170.29,252.28
             201.17,252.28 225.16,244.72 242.25,229.61
             259.35,214.50 267.90,192.95 267.90,164.96
             267.90,164.96 267.90,144.82 267.90,144.82 Z
           M 281.72,46.97
           C 309.78,74.95 323.80,111.42 323.80,156.38
             323.80,200.41 309.78,236.19 281.72,263.72
             253.67,291.24 216.57,305.00 170.42,305.00
             124.27,305.00 87.17,291.24 59.12,263.72
             31.07,236.19 17.04,200.41 17.04,156.38
             17.04,111.42 31.07,74.95 59.12,46.97
             87.17,18.99 124.27,5.00 170.42,5.00
             216.57,5.00 253.67,18.99 281.72,46.97 Z" />
</svg>
