<?xml version="1.0" encoding="UTF-8" standalone="no"?>
<!DOCTYPE svg PUBLIC "-//W3C//DTD SVG 20010904//EN"
              "http://www.w3.org/TR/2001/REC-SVG-20010904/DTD/svg10.dtd">

<svg xmlns="http://www.w3.org/2000/svg"
     viewBox="0 0 1210 1950">
  <path d="M 354.00,581.33
           C 587.00,400.00 936.00,460.00 1143.50,579.50
             1145.00,582.00 999.33,1264.67 998.67,1264.67
             988.67,1314.67 981.50,1365.00 1043.33,1386.67
             1043.50,1386.75 940.00,1590.75 940.00,1591.00
             811.33,1579.33 726.00,1521.33 704.67,1415.33
             634.00,1508.67 505.33,1622.00 316.00,1592.67
             126.67,1563.33 10.78,1401.81 82.50,1026.00
             124.50,829.50 237.33,666.67 354.00,581.33 Z
           M 810.00,710.67
           C 734.00,686.50 638.67,674.00 559.00,737.00
             476.67,802.00 412.67,943.33 389.50,1106.50
             371.77,1255.75 386.00,1331.33 443.67,1355.67
             520.33,1386.67 617.00,1339.50 703.00,1216.00
             703.33,1216.00 810.00,712.00 810.00,710.67 Z" />
</svg>
