<?xml version="1.0" encoding="UTF-8" standalone="no"?>
<svg
   version="1.1"
   viewBox="-10 0 1210 1950"
   xmlns="http://www.w3.org/2000/svg"><path
     d="M 1033.3472,573.08336 1034,1264.0834 c 0.772,23.4 0.9635,38.35 1.9002,44.85 2.9973,20.8 9.2858,37.375 18.8655,49.725 9.5797,12.35 25.3315,22.425 47.2554,30.225 l -59.088,198.9 c -60.54932,-5.2 -114.28781,-21.775 -161.21548,-49.725 -46.92767,-27.95 -81.3818,-68.575 -103.3624,-121.875 C 712.20249,1534.4834 618.02611,1594 495.82608,1594 c -107.9,0 -218.06715,-37.0916 -286.50146,-110.5416 -68.43431,-73.45 -111.83077,-173.875 -130.18938,-301.275 -15.735963,-109.2 -11.040927,-244.45001 14.08511,-349.75004 25.12603,-105.3 77.15606,-193.05 156.09009,-263.25 C 328.24447,498.98336 457.96149,463 594.46152,463 c 149.5,0 296.44789,37.28336 439.53848,110.08336 z m -581.84202,181.35 c -34.01869,48.1 -54.97638,107.9 -62.87307,179.4 -7.89669,71.50004 -6.50605,172.30004 4.17192,246.40004 9.92864,68.9 28.98179,117.325 53.15945,145.275 24.17765,27.95 69.11647,41.925 106.81644,41.925 68.90007,0 128.68275,-48.1 177.22008,-144.3 V 701.78336 c -39.57333,-13 -72.86678,-19.5 -111.86678,-19.5 -62.4,0 -132.60935,24.05 -166.62804,72.15 z" /></svg>
