<?xml version="1.0" encoding="UTF-8" standalone="no"?>
<svg
   version="1.1"
   viewBox="-10 0 1210 1950"
   xmlns="http://www.w3.org/2000/svg"><path
     d="m 980.16913,570.84888 c 66.31317,70.2 108.72267,169.65001 127.22877,298.35002 16.2628,113.1 12.8906,248.3 -10.1167,353.6 -23.0072,105.3 -75.597,193.375 -157.76897,264.225 -82.17206,70.85 -190.22451,106.275 -344.15735,106.275 -74.9586,0 -148.93749,-7.15 -221.93667,-21.45 -72.99917,-14.3 -154.34711,-35.75 -233.41821,-64.35 V 76 L 456,43 v 543.44888 c 34.73541,-37.7 76.31781,-67.275 124.09823,-88.725 47.78041,-21.45 98.44154,-32.175 151.9834,-32.175 105.74517,0 181.77434,35.1 248.0875,105.3 z M 456,810.69888 v 533.00002 c 47.94063,16.9 95.06258,25.35 139.23461,25.35 61.57314,0 99.31435,-24.05 133.22365,-72.15 33.90929,-48.1 54.71185,-108.225 62.40766,-180.375 7.69575,-72.15 6.40307,-169.975 -3.87807,-241.475 -9.72032,-67.60001 -27.92088,-115.05002 -54.60168,-142.35002 -26.6808,-27.3 -49.43012,-40.95 -88.24797,-40.95 -72.28151,0 -135.29067,39.65 -188.1382,118.95 z" /></svg>
