<?xml version="1.0" encoding="UTF-8" standalone="no"?>
<!DOCTYPE svg PUBLIC "-//W3C//DTD SVG 20010904//EN"
              "http://www.w3.org/TR/2001/REC-SVG-20010904/DTD/svg10.dtd">

<svg xmlns="http://www.w3.org/2000/svg"
     viewBox="0 0 1210 1950">
  <path d="M 357.50,75.00
           C 357.50,75.00 673.50,40.50 673.50,40.50
             673.50,40.50 558.50,586.50 558.50,586.50
             636.00,515.50 752.50,456.50 888.00,463.50
             1021.50,472.50 1105.00,542.50 1145.00,686.00
             1172.50,793.50 1153.67,964.83 1120.00,1079.33
             1088.50,1194.00 1040.00,1319.00 927.00,1427.00
             858.00,1494.00 744.00,1580.00 540.00,1591.00
             382.00,1598.00 225.33,1577.33 55.33,1505.33
             54.00,1506.00 357.50,75.00 357.50,75.00 Z
           M 779.00,709.00
           C 699.00,668.50 595.50,719.50 509.00,816.50
             509.50,817.00 400.00,1337.00 399.50,1337.00
             424.52,1345.53 538.00,1390.00 630.00,1338.00
             706.50,1296.00 773.67,1184.01 803.00,1068.00
             835.33,931.33 868.67,756.67 779.00,709.00 Z" />
</svg>
