<?xml version="1.0" encoding="UTF-8" standalone="no"?>
<svg
   version="1.1"
   viewBox="-10 0 1210 1950"
   xmlns="http://www.w3.org/2000/svg"><path
     d="m 953.5326,1051.9137 c -119.02557,61.1 -328.02901,101.4 -531.0103,120.9 24.66082,122.2 101.92956,191.3 223.80621,191.3 71.17176,0 131.89574,-15.8 173.62291,-31.4 41.72723,-15.6 85.26428,-39.65 130.61114,-72.15 l 140.58644,183.3 c -119.19755,92.3 -267.42671,150.45 -456.33069,150.45 -153.02291,0 -275.23994,-51.325 -366.65109,-129.975 -91.41118,-78.65 -147.01332,-185.575 -166.80642,-320.775 -15.225466,-104 -9.609289,-206.70003 16.84853,-308.10003 26.45781,-101.4 80.78073,-185.9 162.96876,-253.5 82.18806,-67.6 197.69971,-119.4 338.53496,-119.4 160.11166,0 271.68059,44.65 349.22414,97.95 77.54351,53.3 122.31031,120.9 134.30041,202.8 19.2221,131.3 -30.6795,227.50001 -149.705,288.60003 z M 721.42341,916.38867 c 51.26139,-38.35 72.8954,-84.825 64.90203,-139.425 -3.61609,-24.7 -15.6389,-45.39426 -33.79608,-64.35 -24.9556,-26.05316 -84.65356,-41.3 -121.21655,-41.3 -70.41762,0 -132.4293,42.6 -166.03503,99.8 -33.60573,57.2 -52.25321,128.7 -55.94243,214.5 124.79732,-7.8 260.82667,-30.875 312.08806,-69.225 z" /></svg>
