<?xml version="1.0" encoding="UTF-8" standalone="no"?>
<!DOCTYPE svg PUBLIC "-//W3C//DTD SVG 20010904//EN"
              "http://www.w3.org/TR/2001/REC-SVG-20010904/DTD/svg10.dtd">

<svg xmlns="http://www.w3.org/2000/svg"
     viewBox="0 0 1200 1950">
  <path d="M 787.20,463.68
           C 656.09,455.10 510.35,487.97 399.00,566.00
             260.06,660.73 164.72,821.73 121.00,988.00
             81.65,1137.65 82.00,1293.00 141.00,1405.50
             213.87,1540.11 337.00,1581.00 471.00,1593.00
             670.00,1605.00 826.50,1558.50 994.50,1449.00
             994.50,1449.67 902.50,1271.50 901.50,1271.50
             758.83,1370.17 581.85,1379.07 513.00,1348.50
             441.85,1318.41 404.25,1258.00 406.50,1174.00
             490.75,1165.50 753.00,1155.00 924.00,1077.00
             1118.00,995.00 1180.00,870.50 1164.00,715.50
             1148.00,582.50 1023.00,483.00 787.20,463.68 Z
           M 811.50,880.00
           C 760.67,938.67 616.67,969.67 434.67,981.67
             476.25,819.00 554.00,713.00 636.50,686.50
             747.00,651.00 827.50,681.50 847.00,732.00
             867.67,783.33 846.67,840.33 811.50,880.00 Z" />
</svg>
