<?xml version="1.0" encoding="UTF-8" standalone="no"?>
<!DOCTYPE svg PUBLIC "-//W3C//DTD SVG 20010904//EN"
              "http://www.w3.org/TR/2001/REC-SVG-20010904/DTD/svg10.dtd">

<svg xmlns="http://www.w3.org/2000/svg"
     viewBox="0 0 1210 1950">
  <path d="M 787.20,463.68
           C 656.09,455.10 510.35,487.97 399.00,566.00
             260.06,660.73 164.72,821.73 121.00,988.00
             81.65,1137.65 82.00,1293.00 141.00,1405.50
             213.87,1540.11 337.00,1581.00 471.00,1593.00
             670.00,1605.00 834.83,1534.30 957.33,1452.00
             957.33,1452.67 859.00,1264.00 858.00,1264.00
             715.33,1362.67 567.33,1379.33 498.48,1348.76
             427.33,1318.67 404.25,1258.00 406.50,1174.00
             490.75,1165.50 702.00,1143.00 873.00,1065.00
             1067.00,983.00 1132.00,848.00 1116.00,693.00
             1100.00,560.00 972.00,476.00 787.20,463.68 Z
           M 760.50,868.00
           C 709.67,926.67 616.67,969.67 434.67,981.67
             476.25,819.00 554.00,713.00 636.50,686.50
             705.00,664.00 776.50,669.50 796.00,720.00
             816.67,771.33 795.67,828.33 760.50,868.00 Z" />
</svg>
