<?xml version="1.0" encoding="UTF-8" standalone="no"?>
<!DOCTYPE svg PUBLIC "-//W3C//DTD SVG 20010904//EN"
              "http://www.w3.org/TR/2001/REC-SVG-20010904/DTD/svg10.dtd">

<svg xmlns="http://www.w3.org/2000/svg"
     viewBox="0 0 1210 1950">
  <path d="M 431.00,1804.67
           C 555.00,1682.00 595.67,1536.33 609.00,1470.00
             609.00,1470.00 755.00,784.00 755.00,784.00
             755.00,784.00 1066.50,784.00 1066.50,784.00
             1066.50,784.00 1147.33,564.67 1147.33,564.67
             1147.33,564.67 802.00,565.00 802.00,565.00
             802.00,565.00 828.00,439.00 828.00,438.50
             851.00,324.00 900.33,297.33 971.67,280.67
             985.50,277.50 1026.25,275.00 1046.00,276.00
             1111.57,277.22 1191.00,286.50 1258.33,316.67
             1259.00,317.33 1389.00,109.33 1388.00,109.00
             1208.00,31.00 965.67,16.67 792.33,88.67
             637.67,152.00 551.00,279.33 523.00,397.00
             524.00,396.00 487.00,565.33 487.00,565.33
             487.00,565.33 264.33,564.67 264.33,564.67
             264.33,564.67 218.33,784.00 218.33,784.00
             218.33,784.00 441.00,784.00 441.00,784.00
             441.00,784.00 297.67,1470.67 297.00,1470.00
             282.25,1540.22 258.35,1600.22 217.00,1649.33
             172.38,1702.34 101.67,1744.67 17.67,1774.67
             17.67,1775.33 77.67,2002.67 78.33,2002.67
             196.67,1962.33 337.00,1900.00 431.00,1804.67 Z" />
</svg>
