<?xml version="1.0" encoding="UTF-8" standalone="no"?>
<svg
   version="1.1"
   viewBox="-10 0 1210 1950"
   xmlns="http://www.w3.org/2000/svg"><path
     d="M 816,43 C 720,43 639.33333,59.166667 574,91.5 508.66667,123.83333 459.33333,167.66667 426,223 392.66667,278.33333 376,341 376,411 V 565 H 153 v 219 h 223 v 776 c 0,49.8964 -21.75876,108.6052 -47.75195,142.6602 -33.7366,44.2 -89.23948,81.2503 -166.50977,111.1503 L 272.13477,2036 c 91.42001,-33.8 166.89283,-71.3902 226.41992,-112.9902 59.52715,-41.6 114.3324,-97.1746 148.41601,-166.7246 C 673.38302,1702.389 690,1646.0948 690,1560 V 784 h 311 l 35,-219 H 690 V 423 c 0,-52.66667 13.5,-90.33333 40.5,-113 27,-22.66667 71.83333,-34 134.5,-34 38,0 76.33333,3.16667 115,9.5 38.6667,6.33333 76.3333,16.5 113,30.5 l 87,-206 C 1133.3333,90 1080.3333,73.833333 1021,61.5 961.66667,49.166667 893.33333,43 816,43 Z" /></svg>
