<?xml version="1.0" encoding="UTF-8" standalone="no"?>
<!DOCTYPE svg PUBLIC "-//W3C//DTD SVG 20010904//EN"
              "http://www.w3.org/TR/2001/REC-SVG-20010904/DTD/svg10.dtd">

<svg xmlns="http://www.w3.org/2000/svg"
     viewBox="0 0 1210 1950">
  <path d="M 584.09,721.27
           C 656.92,670.77 746.70,669.76 837.50,699.75
             837.75,700.00 734.00,1169.38 734.00,1169.38
             696.33,1221.00 649.44,1267.80 603.00,1293.33
             497.00,1348.00 369.00,1329.00 410.33,1073.00
             442.00,877.00 515.33,768.33 584.09,721.27 Z
           M 1170.00,567.50
           C 1067.13,505.43 794.33,398.67 522.00,490.50
             363.00,544.00 156.00,695.00 87.00,1072.50
             78.00,1123.00 45.50,1366.50 203.00,1492.00
             269.00,1544.00 361.00,1559.00 442.00,1549.00
             539.50,1539.00 629.00,1481.00 692.00,1412.50
             692.00,1413.00 670.50,1518.50 670.00,1519.00
             661.00,1567.33 631.00,1690.00 522.00,1735.00
             374.00,1795.50 197.33,1723.67 115.33,1674.00
             115.00,1674.50 -3.67,1879.33 -4.50,1879.50
             170.22,1991.31 413.00,2038.00 631.00,1960.00
             775.00,1910.67 915.00,1781.00 977.50,1483.00
             1040.00,1185.00 1171.17,567.83 1170.00,567.50 Z" />
</svg>
