<?xml version="1.0" encoding="UTF-8" standalone="no"?>
<svg
   version="1.1"
   viewBox="-10 0 1210 1950"
   xmlns="http://www.w3.org/2000/svg"><path
     d="m 1079,573.2 v 903.45 c 0.5223,180.7 -8.3213,285.9703 -111.17563,396.925 -99.92942,107.7995 -213.6867,129.875 -377.4867,129.875 -63.7,0 -147.85147,-10.4 -220.4544,-31.2 -72.60295,-20.8 -140.08034,-48.75 -202.43216,-83.85 l 73.87012,-200.85 c 106.81396,54.6 220.42094,81.9 308.82094,81.9 67.6,0 134.81194,-18.9829 179.5697,-56.75 47.38385,-39.983 55.83553,-98.9 55.28813,-191.2 v -99.45 c -30.29413,41.6 -65.63756,74.425 -108.25763,98.475 -42.62007,24.05 -126.5801,36.075 -179.8801,36.075 -109.2,0 -198.39263,-36.4 -267.57788,-109.2 C 160.09912,1374.6 116.5385,1277.1 98.60253,1154.9 83.147062,1049.6 88.405105,921.925 114.37666,819.875 140.34821,717.825 193.54798,633 273.97595,565.4 354.4039,497.8 480.16787,465 619.26787,465 768.76787,465 935.71471,500.4 1079,573.2 Z M 475.69117,750.65 c -34.92173,45.5 -56.8466,102.05 -65.7746,169.65 -8.92793,67.6 -8.4309,159.2 1.4911,226.8 17.7452,120.9 82.9178,181.35 163.5178,181.35 70.2,0 149.1944,-48.1 200.07453,-144.3 L 785,701.9 c -40.90807,-13 -104.42633,-19.5 -143.42633,-19.5 -65,0 -130.96083,22.75 -165.8825,68.25 z" /></svg>
