<?xml version="1.0" encoding="UTF-8" standalone="no"?>
<!DOCTYPE svg PUBLIC "-//W3C//DTD SVG 20010904//EN"
              "http://www.w3.org/TR/2001/REC-SVG-20010904/DTD/svg10.dtd">

<svg xmlns="http://www.w3.org/2000/svg"
     viewBox="0 0 1210 1950">
  <path d="M 1111.50,510.00
           C 979.55,432.98 744.47,443.07 552.00,634.00
             552.00,634.00 678.67,43.33 678.67,43.33
             678.67,43.33 355.33,76.00 355.33,76.00
             355.33,76.00 40.00,1559.33 40.00,1559.33
             40.00,1559.33 356.67,1560.00 356.67,1560.00
             356.67,1560.00 496.00,899.33 496.00,898.67
             629.00,680.50 892.00,618.00 882.00,764.00
             872.00,910.00 734.00,992.00 531.33,1047.33
             531.33,1048.00 716.00,1559.00 716.00,1559.00
             716.00,1559.00 1074.00,1559.00 1074.00,1559.00
             1074.00,1559.00 906.50,1094.00 908.00,1094.00
             1003.00,1055.00 1168.00,988.00 1215.00,775.00
             1237.19,671.89 1208.08,566.37 1111.50,510.00 Z" />
</svg>
