<?xml version="1.0" encoding="UTF-8" standalone="no"?>
<svg
   version="1.1"
   viewBox="-10 0 1210 1950"
   xmlns="http://www.w3.org/2000/svg"><path
     d="m 456,640.6566 c 89.37803,-111.8 204.88833,-167.7 348.26936,-167.7 92.27491,0 169.57309,22.75 231.89454,68.25 62.3214,45.5 99.1466,105.3 110.4757,179.4 12.3229,80.6 -2.3979,151.45 -44.1625,212.55 -41.7647,61.1 -111.58096,110.5 -209.44888,148.2 L 1177,1560 H 817 L 529.32286,1042.3566 c 113.88115,-35.1 192.33584,-74.42501 235.36405,-117.975 43.02814,-43.55 60.16958,-93.925 51.42433,-151.125 -8.74527,-57.2 -45.05922,-85.8 -108.94185,-85.8 -46.84727,0 -92.07603,17.55 -135.68628,52.65 -43.61033,35.1 -80.98706,88.4 -115.48311,159.9 V 1560 H 140 V 75 L 456,43 Z" /></svg>
