<?xml version="1.0" encoding="UTF-8" standalone="no"?>
<svg
   version="1.1"
   viewBox="-10 0 1210 1950"
   xmlns="http://www.w3.org/2000/svg"><path
     d="m 744,1466.2541 c -19.28167,33.3865 -47.39458,63.1004 -93.63095,89.1418 -46.23644,26.0414 -98.6099,39.0621 -157.12039,39.0621 -109.04227,0 -198.41063,-37.7267 -268.1051,-113.18 C 155.44907,1405.8247 111.47906,1302.6606 93.23352,1171.7857 77.222134,1056.9363 82.620287,945.42553 109.42798,837.25345 136.23567,729.08137 190.58331,639.6057 272.4709,568.82644 354.35851,498.04718 465.11596,462.65755 604.74325,462.65755 c 155.5847,0 310.52262,37.39282 455.25675,112.17845 V 1969.0603 L 744,2003 Z m 0,-252.4015 V 707.04632 c -40.42549,-13.35458 -76.06389,-20.03187 -115.9574,-20.03187 -65.1594,0 -115.23888,24.70597 -150.23845,74.11791 -34.99957,49.41193 -57.02038,110.84299 -66.06244,184.29317 -9.04198,73.45017 -8.25686,148.23587 2.35536,224.35697 9.86747,70.7793 27.44091,120.5251 52.7203,149.2374 25.27939,28.7123 57.86584,43.0685 97.75935,43.0685 70.47854,0 129.3709,-49.4119 179.42328,-148.2358 z" /></svg>
