<?xml version="1.0" encoding="UTF-8" standalone="no"?>
<!DOCTYPE svg PUBLIC "-//W3C//DTD SVG 20010904//EN"
              "http://www.w3.org/TR/2001/REC-SVG-20010904/DTD/svg10.dtd">

<svg xmlns="http://www.w3.org/2000/svg"
     viewBox="0 0 1210 1950">
  <path d="M 449.00,529.00
           C 627.00,433.00 923.00,436.00 1168.00,576.00
             1168.00,577.00 871.00,1971.67 871.00,1971.67
             871.00,1971.67 556.75,2005.75 556.75,2005.75
             556.75,2005.75 670.75,1467.25 670.75,1467.25
             587.08,1567.19 425.00,1622.00 285.05,1580.51
             145.09,1539.03 38.00,1392.25 86.00,1088.00
             131.00,817.00 271.00,625.00 449.00,529.00 Z
           M 832.00,707.00
           C 784.94,692.50 663.67,658.67 570.50,741.00
             506.50,798.00 441.00,904.67 410.00,1074.00
             381.67,1250.67 399.00,1332.67 472.00,1356.00
             557.00,1378.67 648.86,1320.69 722.00,1211.50
             723.00,1212.00 832.00,707.00 832.00,707.00 Z" />
</svg>
