<?xml version="1.0" encoding="UTF-8" standalone="no"?>
<!DOCTYPE svg PUBLIC "-//W3C//DTD SVG 20010904//EN"
              "http://www.w3.org/TR/2001/REC-SVG-20010904/DTD/svg10.dtd">

<svg xmlns="http://www.w3.org/2000/svg"
     width="4.26667in" height="0.8in"
     viewBox="0 0 1280 240">
  <path fill="#cacaca" d="M 0.00,0.00
           C 0.00,0.00 1123.00,0.00 1123.00,0.00
             1123.00,0.00 1123.00,239.00 1123.00,239.00
             1123.00,239.00 0.00,239.00 0.00,239.00
             0.00,239.00 0.00,0.00 0.00,0.00 Z
           M 59.00,2.00
           C 59.00,2.00 2.00,2.00 2.00,2.00
             2.00,2.00 2.00,119.00 2.00,119.00
             2.00,119.00 59.00,119.00 59.00,119.00
             59.00,119.00 59.00,2.00 59.00,2.00 Z
           M 118.00,2.00
           C 118.00,2.00 61.00,2.00 61.00,2.00
             61.00,2.00 61.00,119.00 61.00,119.00
             61.00,119.00 118.00,119.00 118.00,119.00
             118.00,119.00 118.00,2.00 118.00,2.00 Z
           M 177.00,2.00
           C 177.00,2.00 120.00,2.00 120.00,2.00
             120.00,2.00 120.00,119.00 120.00,119.00
             120.00,119.00 177.00,119.00 177.00,119.00
             177.00,119.00 177.00,2.00 177.00,2.00 Z
           M 236.00,2.00
           C 236.00,2.00 179.00,2.00 179.00,2.00
             179.00,2.00 179.00,119.00 179.00,119.00
             179.00,119.00 236.00,119.00 236.00,119.00
             236.00,119.00 236.00,2.00 236.00,2.00 Z
           M 295.00,2.00
           C 295.00,2.00 238.00,2.00 238.00,2.00
             238.00,2.00 238.00,119.00 238.00,119.00
             238.00,119.00 295.00,119.00 295.00,119.00
             295.00,119.00 295.00,2.00 295.00,2.00 Z
           M 354.00,2.00
           C 354.00,2.00 297.00,2.00 297.00,2.00
             297.00,2.00 297.00,119.00 297.00,119.00
             297.00,119.00 354.00,119.00 354.00,119.00
             354.00,119.00 354.00,2.00 354.00,2.00 Z
           M 413.00,2.00
           C 413.00,2.00 356.00,2.00 356.00,2.00
             356.00,2.00 356.00,119.00 356.00,119.00
             356.00,119.00 413.00,119.00 413.00,119.00
             413.00,119.00 413.00,2.00 413.00,2.00 Z
           M 472.00,2.00
           C 472.00,2.00 415.00,2.00 415.00,2.00
             415.00,2.00 415.00,119.00 415.00,119.00
             415.00,119.00 472.00,119.00 472.00,119.00
             472.00,119.00 472.00,2.00 472.00,2.00 Z
           M 531.00,2.00
           C 531.00,2.00 474.00,2.00 474.00,2.00
             474.00,2.00 474.00,119.00 474.00,119.00
             474.00,119.00 531.00,119.00 531.00,119.00
             531.00,119.00 531.00,2.00 531.00,2.00 Z
           M 590.00,2.00
           C 590.00,2.00 533.00,2.00 533.00,2.00
             533.00,2.00 533.00,119.00 533.00,119.00
             533.00,119.00 590.00,119.00 590.00,119.00
             590.00,119.00 590.00,2.00 590.00,2.00 Z
           M 649.00,2.00
           C 649.00,2.00 592.00,2.00 592.00,2.00
             592.00,2.00 592.00,119.00 592.00,119.00
             592.00,119.00 649.00,119.00 649.00,119.00
             649.00,119.00 649.00,2.00 649.00,2.00 Z
           M 708.00,2.00
           C 708.00,2.00 651.00,2.00 651.00,2.00
             651.00,2.00 651.00,119.00 651.00,119.00
             651.00,119.00 708.00,119.00 708.00,119.00
             708.00,119.00 708.00,2.00 708.00,2.00 Z
           M 767.00,2.00
           C 767.00,2.00 710.00,2.00 710.00,2.00
             710.00,2.00 710.00,119.00 710.00,119.00
             710.00,119.00 767.00,119.00 767.00,119.00
             767.00,119.00 767.00,2.00 767.00,2.00 Z
           M 826.00,2.00
           C 826.00,2.00 769.00,2.00 769.00,2.00
             769.00,2.00 769.00,119.00 769.00,119.00
             769.00,119.00 826.00,119.00 826.00,119.00
             826.00,119.00 826.00,2.00 826.00,2.00 Z
           M 885.00,2.00
           C 885.00,2.00 828.00,2.00 828.00,2.00
             828.00,2.00 828.00,119.00 828.00,119.00
             828.00,119.00 885.00,119.00 885.00,119.00
             885.00,119.00 885.00,2.00 885.00,2.00 Z
           M 944.00,2.00
           C 944.00,2.00 887.00,2.00 887.00,2.00
             887.00,2.00 887.00,119.00 887.00,119.00
             887.00,119.00 944.00,119.00 944.00,119.00
             944.00,119.00 944.00,2.00 944.00,2.00 Z
           M 1003.00,2.00
           C 1003.00,2.00 946.00,2.00 946.00,2.00
             946.00,2.00 946.00,119.00 946.00,119.00
             946.00,119.00 1003.00,119.00 1003.00,119.00
             1003.00,119.00 1003.00,2.00 1003.00,2.00 Z
           M 1062.00,2.00
           C 1062.00,2.00 1005.00,2.00 1005.00,2.00
             1005.00,2.00 1005.00,119.00 1005.00,119.00
             1005.00,119.00 1062.00,119.00 1062.00,119.00
             1062.00,119.00 1062.00,2.00 1062.00,2.00 Z
           M 1121.00,2.00
           C 1121.00,2.00 1064.00,2.00 1064.00,2.00
             1064.00,2.00 1064.00,119.00 1064.00,119.00
             1064.00,119.00 1121.00,119.00 1121.00,119.00
             1121.00,119.00 1121.00,2.00 1121.00,2.00 Z
           M 59.00,121.00
           C 59.00,121.00 2.00,121.00 2.00,121.00
             2.00,121.00 2.00,237.00 2.00,237.00
             2.00,237.00 59.00,237.00 59.00,237.00
             59.00,237.00 59.00,121.00 59.00,121.00 Z
           M 118.00,121.00
           C 118.00,121.00 61.00,121.00 61.00,121.00
             61.00,121.00 61.00,237.00 61.00,237.00
             61.00,237.00 118.00,237.00 118.00,237.00
             118.00,237.00 118.00,121.00 118.00,121.00 Z
           M 177.00,121.00
           C 177.00,121.00 120.00,121.00 120.00,121.00
             120.00,121.00 120.00,237.00 120.00,237.00
             120.00,237.00 177.00,237.00 177.00,237.00
             177.00,237.00 177.00,121.00 177.00,121.00 Z
           M 236.00,121.00
           C 236.00,121.00 179.00,121.00 179.00,121.00
             179.00,121.00 179.00,237.00 179.00,237.00
             179.00,237.00 236.00,237.00 236.00,237.00
             236.00,237.00 236.00,121.00 236.00,121.00 Z
           M 295.00,121.00
           C 295.00,121.00 238.00,121.00 238.00,121.00
             238.00,121.00 238.00,237.00 238.00,237.00
             238.00,237.00 295.00,237.00 295.00,237.00
             295.00,237.00 295.00,121.00 295.00,121.00 Z
           M 354.00,121.00
           C 354.00,121.00 297.00,121.00 297.00,121.00
             297.00,121.00 297.00,237.00 297.00,237.00
             297.00,237.00 354.00,237.00 354.00,237.00
             354.00,237.00 354.00,121.00 354.00,121.00 Z
           M 413.00,121.00
           C 413.00,121.00 356.00,121.00 356.00,121.00
             356.00,121.00 356.00,237.00 356.00,237.00
             356.00,237.00 413.00,237.00 413.00,237.00
             413.00,237.00 413.00,121.00 413.00,121.00 Z
           M 472.00,121.00
           C 472.00,121.00 415.00,121.00 415.00,121.00
             415.00,121.00 415.00,237.00 415.00,237.00
             415.00,237.00 472.00,237.00 472.00,237.00
             472.00,237.00 472.00,121.00 472.00,121.00 Z
           M 531.00,121.00
           C 531.00,121.00 474.00,121.00 474.00,121.00
             474.00,121.00 474.00,237.00 474.00,237.00
             474.00,237.00 531.00,237.00 531.00,237.00
             531.00,237.00 531.00,121.00 531.00,121.00 Z
           M 590.00,121.00
           C 590.00,121.00 533.00,121.00 533.00,121.00
             533.00,121.00 533.00,237.00 533.00,237.00
             533.00,237.00 590.00,237.00 590.00,237.00
             590.00,237.00 590.00,121.00 590.00,121.00 Z
           M 649.00,121.00
           C 649.00,121.00 592.00,121.00 592.00,121.00
             592.00,121.00 592.00,237.00 592.00,237.00
             592.00,237.00 649.00,237.00 649.00,237.00
             649.00,237.00 649.00,121.00 649.00,121.00 Z
           M 708.00,121.00
           C 708.00,121.00 651.00,121.00 651.00,121.00
             651.00,121.00 651.00,237.00 651.00,237.00
             651.00,237.00 708.00,237.00 708.00,237.00
             708.00,237.00 708.00,121.00 708.00,121.00 Z
           M 767.00,121.00
           C 767.00,121.00 710.00,121.00 710.00,121.00
             710.00,121.00 710.00,237.00 710.00,237.00
             710.00,237.00 767.00,237.00 767.00,237.00
             767.00,237.00 767.00,121.00 767.00,121.00 Z
           M 826.00,121.00
           C 826.00,121.00 769.00,121.00 769.00,121.00
             769.00,121.00 769.00,237.00 769.00,237.00
             769.00,237.00 826.00,237.00 826.00,237.00
             826.00,237.00 826.00,121.00 826.00,121.00 Z
           M 885.00,121.00
           C 885.00,121.00 828.00,121.00 828.00,121.00
             828.00,121.00 828.00,237.00 828.00,237.00
             828.00,237.00 885.00,237.00 885.00,237.00
             885.00,237.00 885.00,121.00 885.00,121.00 Z
           M 944.00,121.00
           C 944.00,121.00 887.00,121.00 887.00,121.00
             887.00,121.00 887.00,237.00 887.00,237.00
             887.00,237.00 944.00,237.00 944.00,237.00
             944.00,237.00 944.00,121.00 944.00,121.00 Z
           M 1003.00,121.00
           C 1003.00,121.00 946.00,121.00 946.00,121.00
             946.00,121.00 946.00,237.00 946.00,237.00
             946.00,237.00 1003.00,237.00 1003.00,237.00
             1003.00,237.00 1003.00,121.00 1003.00,121.00 Z
           M 1062.00,121.00
           C 1062.00,121.00 1005.00,121.00 1005.00,121.00
             1005.00,121.00 1005.00,237.00 1005.00,237.00
             1005.00,237.00 1062.00,237.00 1062.00,237.00
             1062.00,237.00 1062.00,121.00 1062.00,121.00 Z
           M 1121.00,121.00
           C 1121.00,121.00 1064.00,121.00 1064.00,121.00
             1064.00,121.00 1064.00,237.00 1064.00,237.00
             1064.00,237.00 1121.00,237.00 1121.00,237.00
             1121.00,237.00 1121.00,121.00 1121.00,121.00 Z" />
  <path fill="#6a6a6a" d="M 34.19,10.50
           C 34.19,10.50 34.19,100.00 34.19,100.00
             34.19,100.00 26.80,100.00 26.80,100.00
             26.80,100.00 26.80,10.50 26.80,10.50
             26.80,10.50 34.19,10.50 34.19,10.50 Z
           M 162.28,48.00
           C 162.28,48.00 162.28,67.00 162.28,67.00
             162.28,67.00 171.03,67.00 171.03,67.00
             171.03,67.00 171.03,73.75 171.03,73.75
             171.03,73.75 162.28,73.75 162.28,73.75
             162.28,73.75 162.28,90.00 162.28,90.00
             162.28,90.00 154.30,90.00 154.30,90.00
             154.30,90.00 154.25,73.75 154.25,73.75
             154.25,73.75 126.09,73.75 126.09,73.75
             126.09,73.75 126.09,67.64 126.09,67.64
             126.09,67.64 145.98,21.42 145.98,21.42
             145.98,21.42 152.88,24.33 152.88,24.33
             152.88,24.33 134.86,67.00 134.86,67.00
             134.86,67.00 154.30,67.00 154.30,67.00
             154.30,67.00 155.38,48.00 155.38,48.00
             155.38,48.00 162.28,48.00 162.28,48.00 Z
           M 207.64,14.62
           C 207.64,14.62 269.52,14.62 269.52,14.62
             269.52,14.62 269.52,87.48 269.52,87.48
             269.52,92.58 266.99,95.12 261.94,95.12
             261.94,95.12 241.36,95.12 241.36,95.12
             241.36,95.12 239.48,87.94 239.48,87.94
             239.48,87.94 261.94,87.94 261.94,87.94
             261.94,87.94 261.94,67.66 261.94,67.66
             261.94,67.66 213.80,67.66 213.80,67.66
             212.97,73.46 211.68,78.72 209.91,83.44
             208.13,88.15 205.69,92.73 202.56,97.19
             202.56,97.19 195.92,92.36 195.92,92.36
             199.04,88.03 201.44,83.61 203.12,79.09
             204.82,74.59 206.00,69.49 206.66,63.81
             207.31,58.14 207.64,51.09 207.64,42.69
             207.64,42.69 207.64,14.62 207.64,14.62 Z
           M 261.94,37.81
           C 261.94,37.81 261.94,21.42 261.94,21.42
             261.94,21.42 215.17,21.42 215.17,21.42
             215.17,21.42 215.17,37.81 215.17,37.81
             215.17,37.81 261.94,37.81 261.94,37.81 Z
           M 261.94,60.91
           C 261.94,60.91 261.94,44.56 261.94,44.56
             261.94,44.56 215.17,44.56 215.17,44.56
             215.17,50.84 214.96,56.28 214.53,60.91
             214.53,60.91 261.94,60.91 261.94,60.91 Z
           M 388.19,10.50
           C 388.19,10.50 388.19,100.00 388.19,100.00
             388.19,100.00 380.80,100.00 380.80,100.00
             380.80,100.00 380.80,10.50 380.80,10.50
             380.80,10.50 388.19,10.50 388.19,10.50 Z
           M 520.95,22.00
           C 520.95,22.00 519.72,28.75 519.72,28.75
             519.72,28.75 492.94,28.75 492.94,28.75
             492.94,28.75 492.94,50.05 492.94,50.05
             495.01,48.91 496.97,48.12 498.83,47.67
             500.68,47.23 502.62,47.00 504.66,47.00
             510.16,47.00 514.63,48.86 518.05,52.58
             521.46,56.30 523.17,61.55 523.17,68.33
             523.17,72.87 522.22,76.84 520.33,80.23
             518.44,83.63 515.79,86.28 512.36,88.17
             508.93,90.05 504.88,91.00 500.22,91.00
             496.16,91.00 492.52,90.29 489.31,88.86
             486.11,87.43 483.20,85.45 480.58,82.92
             480.58,82.92 485.70,78.06 485.70,78.06
             489.73,82.19 494.61,84.25 500.33,84.25
             504.79,84.25 508.26,82.90 510.75,80.19
             513.25,77.48 514.50,73.50 514.50,68.23
             514.50,64.59 513.96,61.71 512.88,59.61
             511.79,57.51 510.32,56.01 508.47,55.11
             506.61,54.20 504.55,53.75 502.30,53.75
             500.30,53.75 498.52,53.95 496.97,54.34
             495.43,54.73 493.67,55.28 491.70,56.00
             491.70,56.00 485.06,56.00 485.06,56.00
             485.06,56.00 485.06,22.00 485.06,22.00
             485.06,22.00 520.95,22.00 520.95,22.00 Z
           M 561.64,14.62
           C 561.64,14.62 623.52,14.62 623.52,14.62
             623.52,14.62 623.52,87.48 623.52,87.48
             623.52,92.58 620.99,95.12 615.94,95.12
             615.94,95.12 595.36,95.12 595.36,95.12
             595.36,95.12 593.48,87.94 593.48,87.94
             593.48,87.94 615.94,87.94 615.94,87.94
             615.94,87.94 615.94,67.66 615.94,67.66
             615.94,67.66 567.80,67.66 567.80,67.66
             566.97,73.46 565.68,78.72 563.91,83.44
             562.13,88.15 559.69,92.73 556.56,97.19
             556.56,97.19 549.92,92.36 549.92,92.36
             553.04,88.03 555.44,83.61 557.12,79.09
             558.82,74.59 560.00,69.49 560.66,63.81
             561.31,58.14 561.64,51.09 561.64,42.69
             561.64,42.69 561.64,14.62 561.64,14.62 Z
           M 615.94,37.81
           C 615.94,37.81 615.94,21.42 615.94,21.42
             615.94,21.42 569.17,21.42 569.17,21.42
             569.17,21.42 569.17,37.81 569.17,37.81
             569.17,37.81 615.94,37.81 615.94,37.81 Z
           M 615.94,60.91
           C 615.94,60.91 615.94,44.56 615.94,44.56
             615.94,44.56 569.17,44.56 569.17,44.56
             569.17,50.84 568.96,56.28 568.53,60.91
             568.53,60.91 615.94,60.91 615.94,60.91 Z
           M 742.19,10.50
           C 742.19,10.50 742.19,100.00 742.19,100.00
             742.19,100.00 734.80,100.00 734.80,100.00
             734.80,100.00 734.80,10.50 734.80,10.50
             734.80,10.50 742.19,10.50 742.19,10.50 Z
           M 860.03,21.00
           C 862.62,21.00 865.02,21.34 867.23,22.02
             869.45,22.70 871.52,23.68 873.42,24.97
             873.42,24.97 870.17,30.81 870.17,30.81
             867.02,28.77 863.60,27.75 859.89,27.75
             854.67,27.75 850.61,30.24 847.72,35.22
             844.83,40.19 843.29,46.86 843.09,55.22
             845.26,51.98 847.70,49.64 850.41,48.19
             853.11,46.73 856.12,46.00 859.44,46.00
             862.91,46.00 866.11,46.78 869.03,48.33
             871.96,49.87 874.29,52.21 876.03,55.34
             877.77,58.47 878.64,62.43 878.64,67.23
             878.64,72.18 877.68,76.44 875.77,80.00
             873.85,83.55 871.27,86.28 868.03,88.17
             864.80,90.05 861.23,91.00 857.33,91.00
             851.85,91.00 847.46,89.64 844.16,86.92
             840.85,84.20 838.47,80.34 837.02,75.38
             835.55,70.40 834.83,64.55 834.83,57.83
             834.83,50.34 835.82,43.84 837.80,38.33
             839.79,32.82 842.66,28.55 846.44,25.53
             850.22,22.51 854.75,21.00 860.03,21.00 Z
           M 858.16,52.75
           C 854.91,52.75 852.03,53.64 849.50,55.42
             846.97,57.20 844.87,59.51 843.20,62.36
             843.36,69.90 844.55,75.44 846.77,78.97
             848.98,82.49 852.49,84.25 857.28,84.25
             861.57,84.25 864.79,82.75 866.94,79.75
             869.09,76.74 870.17,72.62 870.17,67.38
             870.17,61.89 869.07,58.08 866.88,55.95
             864.68,53.82 861.77,52.75 858.16,52.75 Z
           M 915.64,14.62
           C 915.64,14.62 977.52,14.62 977.52,14.62
             977.52,14.62 977.52,87.48 977.52,87.48
             977.52,92.58 974.99,95.12 969.94,95.12
             969.94,95.12 949.36,95.12 949.36,95.12
             949.36,95.12 947.48,87.94 947.48,87.94
             947.48,87.94 969.94,87.94 969.94,87.94
             969.94,87.94 969.94,67.66 969.94,67.66
             969.94,67.66 921.80,67.66 921.80,67.66
             920.97,73.46 919.68,78.72 917.91,83.44
             916.13,88.15 913.69,92.73 910.56,97.19
             910.56,97.19 903.92,92.36 903.92,92.36
             907.04,88.03 909.44,83.61 911.12,79.09
             912.82,74.59 914.00,69.49 914.66,63.81
             915.31,58.14 915.64,51.09 915.64,42.69
             915.64,42.69 915.64,14.62 915.64,14.62 Z
           M 969.94,37.81
           C 969.94,37.81 969.94,21.42 969.94,21.42
             969.94,21.42 923.17,21.42 923.17,21.42
             923.17,21.42 923.17,37.81 923.17,37.81
             923.17,37.81 969.94,37.81 969.94,37.81 Z
           M 969.94,60.91
           C 969.94,60.91 969.94,44.56 969.94,44.56
             969.94,44.56 923.17,44.56 923.17,44.56
             923.17,50.84 922.96,56.28 922.53,60.91
             922.53,60.91 969.94,60.91 969.94,60.91 Z
           M 1096.19,10.50
           C 1096.19,10.50 1096.19,100.00 1096.19,100.00
             1096.19,100.00 1088.80,100.00 1088.80,100.00
             1088.80,100.00 1088.80,10.50 1088.80,10.50
             1088.80,10.50 1096.19,10.50 1096.19,10.50 Z
           M 34.19,129.50
           C 34.19,129.50 34.19,219.00 34.19,219.00
             34.19,219.00 26.80,219.00 26.80,219.00
             26.80,219.00 26.80,129.50 26.80,129.50
             26.80,129.50 34.19,129.50 34.19,129.50 Z
           M 161.69,191.75
           C 161.69,191.75 134.86,191.75 134.86,191.75
             134.86,191.75 129.44,209.00 129.44,209.00
             129.44,209.00 121.02,209.00 121.02,209.00
             121.02,209.00 143.08,141.00 143.08,141.00
             143.08,141.00 154.00,141.00 154.00,141.00
             154.00,141.00 176.06,209.00 176.06,209.00
             176.06,209.00 167.09,209.00 167.09,209.00
             167.09,209.00 161.69,191.75 161.69,191.75 Z
           M 137.06,185.00
           C 137.06,185.00 159.47,185.00 159.47,185.00
             159.47,185.00 148.34,148.72 148.34,148.72
             148.34,148.72 137.06,185.00 137.06,185.00 Z
           M 211.08,156.00
           C 215.67,156.00 219.34,157.12 222.08,159.34
             224.83,161.57 226.80,164.71 228.02,168.77
             229.23,172.82 229.84,177.55 229.84,182.95
             229.84,188.16 229.11,192.81 227.64,196.89
             226.18,200.98 223.97,204.18 221.02,206.52
             218.07,208.84 214.35,210.00 209.86,210.00
             204.17,210.00 199.61,208.07 196.17,204.20
             196.17,204.20 196.17,228.75 196.17,228.75
             196.17,228.75 187.89,229.78 187.89,229.78
             187.89,229.78 187.89,157.00 187.89,157.00
             187.89,157.00 194.94,157.00 194.94,157.00
             194.94,157.00 195.62,164.95 195.62,164.95
             197.53,162.09 199.80,159.88 202.42,158.33
             205.05,156.78 207.93,156.00 211.08,156.00 Z
           M 209.11,162.75
           C 206.25,162.75 203.73,163.66 201.53,165.48
             199.33,167.30 197.55,169.31 196.17,171.52
             196.17,171.52 196.17,196.84 196.17,196.84
             197.52,198.81 199.21,200.38 201.27,201.53
             203.32,202.68 205.57,203.25 208.03,203.25
             212.33,203.25 215.57,201.61 217.73,198.33
             219.90,195.05 220.98,189.95 220.98,183.03
             220.98,169.51 217.02,162.75 209.11,162.75 Z
           M 247.39,209.00
           C 247.39,209.00 247.39,202.25 247.39,202.25
             247.39,202.25 255.47,202.25 255.47,202.25
             255.47,202.25 255.47,163.00 255.47,163.00
             255.47,163.00 247.39,163.00 247.39,163.00
             247.39,163.00 247.39,157.00 247.39,157.00
             247.39,157.00 261.77,157.00 261.77,157.00
             261.77,157.00 263.30,168.94 263.30,168.94
             265.30,164.81 267.72,161.62 270.58,159.38
             273.43,157.12 277.21,156.00 281.91,156.00
             283.34,156.00 284.63,156.09 285.77,156.28
             286.90,156.47 288.05,156.71 289.23,157.00
             289.23,157.00 288.05,174.20 288.05,174.20
             288.05,174.20 281.27,174.20 281.27,174.20
             281.27,174.20 281.27,163.00 281.27,163.00
             281.13,163.00 280.98,163.00 280.81,163.00
             272.88,163.00 267.18,168.75 263.73,180.25
             263.73,180.25 263.73,202.25 263.73,202.25
             263.73,202.25 274.27,202.25 274.27,202.25
             274.27,202.25 274.27,209.00 274.27,209.00
             274.27,209.00 247.39,209.00 247.39,209.00 Z
           M 388.19,129.50
           C 388.19,129.50 388.19,219.00 388.19,219.00
             388.19,219.00 380.80,219.00 380.80,219.00
             380.80,219.00 380.80,129.50 380.80,129.50
             380.80,129.50 388.19,129.50 388.19,129.50 Z
           M 525.23,141.00
           C 525.23,141.00 529.08,209.00 529.08,209.00
             529.08,209.00 520.86,209.00 520.86,209.00
             520.86,209.00 518.73,173.55 518.73,173.55
             518.57,170.39 518.44,167.17 518.36,163.89
             518.29,160.60 518.23,157.62 518.19,154.94
             518.16,152.25 518.16,150.25 518.19,148.94
             518.19,148.94 506.77,196.81 506.77,196.81
             506.77,196.81 498.20,196.81 498.20,196.81
             498.20,196.81 485.95,148.94 485.95,148.94
             486.02,150.22 486.06,152.26 486.09,155.06
             486.12,157.86 486.12,160.91 486.09,164.23
             486.06,167.55 485.98,170.62 485.84,173.45
             485.84,173.45 484.03,209.00 484.03,209.00
             484.03,209.00 476.00,209.00 476.00,209.00
             476.00,209.00 479.84,141.00 479.84,141.00
             479.84,141.00 491.75,141.00 491.75,141.00
             491.75,141.00 502.73,187.59 502.73,187.59
             502.73,187.59 513.22,141.00 513.22,141.00
             513.22,141.00 525.23,141.00 525.23,141.00 Z
           M 579.02,197.27
           C 579.02,199.35 579.36,200.87 580.05,201.81
             580.73,202.75 581.80,203.43 583.25,203.86
             583.25,203.86 581.23,210.02 581.23,210.02
             579.00,209.70 577.05,208.95 575.38,207.75
             573.70,206.55 572.48,204.73 571.73,202.30
             569.86,204.83 567.52,206.75 564.70,208.05
             561.90,209.35 558.83,210.00 555.48,210.00
             550.30,210.00 546.21,208.52 543.22,205.56
             540.24,202.61 538.75,198.68 538.75,193.80
             538.75,188.38 540.83,184.23 545.00,181.34
             549.16,178.45 555.19,177.00 563.06,177.00
             563.06,177.00 570.70,177.00 570.70,177.00
             570.70,177.00 570.70,172.78 570.70,172.78
             570.70,169.14 569.61,166.55 567.42,165.03
             565.23,163.51 562.21,162.75 558.34,162.75
             556.63,162.75 554.63,162.95 552.33,163.36
             550.04,163.77 547.54,164.44 544.84,165.38
             544.84,165.38 542.69,159.22 542.69,159.22
             545.83,158.05 548.80,157.23 551.61,156.73
             554.42,156.25 557.09,156.00 559.62,156.00
             566.05,156.00 570.89,157.50 574.14,160.50
             577.39,163.49 579.02,167.53 579.02,172.61
             579.02,172.61 579.02,197.27 579.02,197.27 Z
           M 557.59,203.25
           C 560.16,203.25 562.59,202.62 564.91,201.38
             567.22,200.12 569.15,198.37 570.70,196.14
             570.70,196.14 570.70,183.00 570.70,183.00
             570.70,183.00 563.22,183.00 563.22,183.00
             557.50,183.00 553.47,183.96 551.12,185.89
             548.78,187.82 547.61,190.41 547.61,193.66
             547.61,200.05 550.94,203.25 557.59,203.25 Z
           M 644.02,157.00
           C 644.02,157.00 625.81,209.31 625.81,209.31
             624.59,212.83 623.05,216.05 621.20,218.98
             619.35,221.91 616.94,224.34 613.97,226.27
             611.00,228.19 607.23,229.38 602.67,229.84
             602.67,229.84 601.39,223.25 601.39,223.25
             604.96,222.66 607.78,221.75 609.84,220.53
             611.91,219.32 613.55,217.77 614.75,215.88
             615.95,213.99 617.00,211.70 617.92,209.00
             617.92,209.00 615.17,209.00 615.17,209.00
             615.17,209.00 597.06,157.00 597.06,157.00
             597.06,157.00 605.92,157.00 605.92,157.00
             605.92,157.00 620.78,202.70 620.78,202.70
             620.78,202.70 635.45,157.00 635.45,157.00
             635.45,157.00 644.02,157.00 644.02,157.00 Z
           M 742.19,129.50
           C 742.19,129.50 742.19,219.00 742.19,219.00
             742.19,219.00 734.80,219.00 734.80,219.00
             734.80,219.00 734.80,129.50 734.80,129.50
             734.80,129.50 742.19,129.50 742.19,129.50 Z
           M 875.89,141.00
           C 875.89,141.00 875.89,186.34 875.89,186.34
             875.89,189.17 875.51,191.98 874.75,194.77
             874.00,197.56 872.75,200.11 871.02,202.41
             869.27,204.71 866.91,206.55 863.92,207.94
             860.93,209.31 857.21,210.00 852.75,210.00
             845.82,210.00 839.62,208.09 834.14,204.25
             834.14,204.25 837.92,198.55 837.92,198.55
             840.85,200.43 843.53,201.69 845.97,202.31
             848.41,202.94 850.64,203.25 852.66,203.25
             857.34,203.25 860.97,201.73 863.53,198.67
             866.09,195.61 867.38,191.40 867.38,186.05
             867.38,186.05 867.38,147.75 867.38,147.75
             867.38,147.75 847.28,147.75 847.28,147.75
             847.28,147.75 847.28,141.00 847.28,141.00
             847.28,141.00 875.89,141.00 875.89,141.00 Z
           M 904.17,157.00
           C 904.17,157.00 904.17,193.62 904.17,193.62
             904.17,197.03 904.88,199.49 906.28,201.00
             907.70,202.50 909.89,203.25 912.88,203.25
             915.73,203.25 918.43,202.45 920.97,200.84
             923.52,199.24 925.50,197.34 926.91,195.14
             926.91,195.14 926.91,157.00 926.91,157.00
             926.91,157.00 935.19,157.00 935.19,157.00
             935.19,157.00 935.19,209.00 935.19,209.00
             935.19,209.00 928.14,209.00 928.14,209.00
             928.14,209.00 927.45,201.77 927.45,201.77
             925.42,204.43 922.90,206.48 919.89,207.89
             916.89,209.30 913.88,210.00 910.86,210.00
             905.84,210.00 902.09,208.66 899.61,205.98
             897.13,203.31 895.89,199.56 895.89,194.73
             895.89,194.73 895.89,157.00 895.89,157.00
             895.89,157.00 904.17,157.00 904.17,157.00 Z
           M 954.89,209.00
           C 954.89,209.00 954.89,157.00 954.89,157.00
             954.89,157.00 961.94,157.00 961.94,157.00
             961.94,157.00 962.58,164.98 962.58,164.98
             964.67,162.10 967.29,159.88 970.44,158.33
             973.59,156.78 976.68,156.00 979.70,156.00
             984.80,156.00 988.50,157.35 990.81,160.05
             993.12,162.73 994.28,166.48 994.28,171.28
             994.28,171.28 994.28,209.00 994.28,209.00
             994.28,209.00 986.02,209.00 986.02,209.00
             986.02,209.00 986.02,177.56 986.02,177.56
             986.02,174.03 985.82,171.19 985.42,169.03
             985.02,166.88 984.19,165.29 982.92,164.28
             981.66,163.26 979.73,162.75 977.14,162.75
             975.11,162.75 973.20,163.21 971.41,164.14
             969.62,165.06 968.04,166.21 966.64,167.59
             965.24,168.98 964.09,170.38 963.17,171.78
             963.17,171.78 963.17,209.00 963.17,209.00
             963.17,209.00 954.89,209.00 954.89,209.00 Z
           M 1096.19,129.50
           C 1096.19,129.50 1096.19,219.00 1096.19,219.00
             1096.19,219.00 1088.80,219.00 1088.80,219.00
             1088.80,219.00 1088.80,129.50 1088.80,129.50
             1088.80,129.50 1096.19,129.50 1096.19,129.50 Z" />
</svg>
