<?xml version="1.0" encoding="UTF-8" standalone="no"?>
<!DOCTYPE svg PUBLIC "-//W3C//DTD SVG 20010904//EN"
              "http://www.w3.org/TR/2001/REC-SVG-20010904/DTD/svg10.dtd">

<svg xmlns="http://www.w3.org/2000/svg"
     width="4.26667in" height="0.8in"
     viewBox="0 0 1280 240">
  <path fill="#6a6a6a" d="M 52.92,40.16
           C 52.92,45.28 51.33,49.43 48.14,52.59
             44.96,55.75 41.04,57.89 36.38,59.02
             36.38,59.02 56.47,89.00 56.47,89.00
             56.47,89.00 46.23,89.00 46.23,89.00
             46.23,89.00 27.72,60.00 27.72,60.00
             27.72,60.00 18.56,60.00 18.56,60.00
             18.56,60.00 18.56,89.00 18.56,89.00
             18.56,89.00 10.00,89.00 10.00,89.00
             10.00,89.00 10.00,21.00 10.00,21.00
             10.00,21.00 27.42,21.00 27.42,21.00
             35.79,21.00 42.12,22.62 46.44,25.84
             50.76,29.06 52.92,33.84 52.92,40.16 Z
           M 43.77,40.09
           C 43.77,35.72 42.51,32.57 40.00,30.64
             37.49,28.71 33.62,27.75 28.41,27.75
             28.41,27.75 18.56,27.75 18.56,27.75
             18.56,27.75 18.56,53.25 18.56,53.25
             18.56,53.25 28.41,53.25 28.41,53.25
             33.26,53.25 37.03,52.25 39.72,50.23
             42.41,48.23 43.77,44.84 43.77,40.09 Z
           M 75.39,65.00
           C 75.62,71.37 77.20,76.00 80.14,78.91
             83.08,81.80 86.55,83.25 90.56,83.25
             93.22,83.25 95.61,82.84 97.73,82.03
             99.87,81.22 102.09,80.02 104.39,78.44
             104.39,78.44 108.28,84.11 108.28,84.11
             105.88,85.95 103.12,87.39 100.00,88.44
             96.88,89.48 93.70,90.00 90.45,90.00
             85.40,90.00 81.11,88.87 77.58,86.61
             74.05,84.35 71.37,81.20 69.52,77.14
             67.66,73.09 66.73,68.39 66.73,63.05
             66.73,57.81 67.66,53.16 69.52,49.09
             71.37,45.02 73.99,41.82 77.39,39.50
             80.79,37.17 84.78,36.00 89.38,36.00
             95.91,36.00 101.05,38.26 104.81,42.78
             108.57,47.29 110.45,53.47 110.45,61.31
             110.45,62.20 110.43,63.04 110.38,63.83
             110.32,64.61 110.28,65.00 110.25,65.00
             110.25,65.00 75.39,65.00 75.39,65.00 Z
           M 89.47,42.75
           C 85.63,42.75 82.42,44.07 79.83,46.72
             77.23,49.37 75.77,53.46 75.44,59.00
             75.44,59.00 102.47,59.00 102.47,59.00
             102.38,53.62 101.16,49.56 98.83,46.84
             96.49,44.12 93.38,42.75 89.47,42.75 Z
           M 170.03,31.61
           C 170.03,31.61 172.59,39.36 172.59,39.36
             170.36,40.20 168.01,40.62 165.53,40.62
             163.05,40.62 160.35,40.62 157.44,40.62
             163.44,43.45 166.44,47.90 166.44,53.97
             166.44,59.21 164.72,63.53 161.30,66.92
             157.87,70.31 153.09,72.00 146.95,72.00
             145.21,72.00 143.76,71.91 142.59,71.73
             141.43,71.56 140.30,71.29 139.22,70.94
             138.43,71.49 137.77,72.22 137.27,73.12
             136.77,74.02 136.52,74.96 136.52,75.94
             136.52,77.18 137.00,78.21 137.98,79.03
             138.97,79.84 140.80,80.25 143.45,80.25
             143.45,80.25 152.81,80.25 152.81,80.25
             156.29,80.25 159.41,80.87 162.16,82.11
             164.91,83.35 167.10,85.03 168.70,87.14
             170.32,89.24 171.12,91.62 171.12,94.27
             171.12,99.33 168.96,103.21 164.64,105.92
             160.33,108.64 154.23,110.00 146.36,110.00
             140.85,110.00 136.50,109.43 133.31,108.28
             130.12,107.13 127.85,105.39 126.48,103.05
             125.13,100.71 124.45,97.77 124.45,94.22
             124.45,94.22 131.94,94.22 131.94,94.22
             131.94,96.26 132.33,97.95 133.11,99.28
             133.90,100.62 135.33,101.62 137.39,102.27
             139.46,102.92 142.44,103.25 146.31,103.25
             152.02,103.25 156.19,102.52 158.81,101.06
             161.44,99.61 162.75,97.45 162.75,94.58
             162.75,92.07 161.63,90.18 159.41,88.91
             157.18,87.64 154.38,87.00 151.03,87.00
             151.03,87.00 141.78,87.00 141.78,87.00
             137.28,87.00 133.98,86.03 131.88,84.09
             129.78,82.16 128.73,79.93 128.73,77.41
             128.73,73.93 130.63,70.96 134.44,68.50
             128.63,65.40 125.73,60.60 125.73,54.11
             125.73,50.58 126.60,47.45 128.34,44.73
             130.08,42.02 132.51,39.88 135.62,38.33
             138.74,36.78 142.33,36.00 146.41,36.00
             150.77,36.00 154.31,35.82 157.03,35.45
             159.76,35.09 162.10,34.58 164.05,33.92
             166.00,33.27 168.00,32.50 170.03,31.61 Z
           M 146.41,42.00
           C 142.24,42.00 139.16,43.13 137.17,45.39
             135.19,47.65 134.20,50.51 134.20,53.95
             134.20,57.46 135.21,60.35 137.22,62.61
             139.24,64.87 142.37,66.00 146.61,66.00
             150.24,66.00 153.03,64.94 154.97,62.81
             156.91,60.68 157.88,57.71 157.88,53.91
             157.88,45.97 154.05,42.00 146.41,42.00 Z
           M 195.17,37.00
           C 195.17,37.00 195.17,73.62 195.17,73.62
             195.17,77.03 195.88,79.49 197.28,81.00
             198.70,82.50 200.89,83.25 203.88,83.25
             206.73,83.25 209.43,82.45 211.97,80.84
             214.52,79.24 216.50,77.34 217.91,75.14
             217.91,75.14 217.91,37.00 217.91,37.00
             217.91,37.00 226.19,37.00 226.19,37.00
             226.19,37.00 226.19,89.00 226.19,89.00
             226.19,89.00 219.14,89.00 219.14,89.00
             219.14,89.00 218.45,81.77 218.45,81.77
             216.42,84.43 213.90,86.48 210.89,87.89
             207.89,89.30 204.88,90.00 201.86,90.00
             196.84,90.00 193.09,88.66 190.61,85.98
             188.13,83.31 186.89,79.56 186.89,74.73
             186.89,74.73 186.89,37.00 186.89,37.00
             186.89,37.00 195.17,37.00 195.17,37.00 Z
           M 266.08,16.00
           C 266.08,16.00 266.08,76.17 266.08,76.17
             266.08,78.75 266.88,80.57 268.47,81.64
             270.06,82.71 272.12,83.25 274.64,83.25
             276.18,83.25 277.66,83.09 279.09,82.77
             280.53,82.43 281.95,81.99 283.36,81.44
             283.36,81.44 285.58,87.44 285.58,87.44
             284.16,88.11 282.41,88.70 280.33,89.22
             278.24,89.74 275.89,90.00 273.27,90.00
             268.67,90.00 264.95,88.73 262.09,86.19
             259.24,83.65 257.81,80.13 257.81,75.64
             257.81,75.64 257.81,22.75 257.81,22.75
             257.81,22.75 241.91,22.75 241.91,22.75
             241.91,22.75 241.91,16.00 241.91,16.00
             241.91,16.00 266.08,16.00 266.08,16.00 Z
           M 342.02,77.27
           C 342.02,79.35 342.36,80.87 343.05,81.81
             343.73,82.75 344.80,83.43 346.25,83.86
             346.25,83.86 344.23,90.02 344.23,90.02
             342.00,89.70 340.05,88.95 338.38,87.75
             336.70,86.55 335.48,84.73 334.73,82.30
             332.86,84.83 330.52,86.75 327.70,88.05
             324.90,89.35 321.83,90.00 318.48,90.00
             313.30,90.00 309.21,88.52 306.22,85.56
             303.24,82.61 301.75,78.68 301.75,73.80
             301.75,68.38 303.83,64.23 308.00,61.34
             312.16,58.45 318.19,57.00 326.06,57.00
             326.06,57.00 333.70,57.00 333.70,57.00
             333.70,57.00 333.70,52.78 333.70,52.78
             333.70,49.14 332.61,46.55 330.42,45.03
             328.23,43.51 325.21,42.75 321.34,42.75
             319.63,42.75 317.63,42.95 315.33,43.36
             313.04,43.77 310.54,44.44 307.84,45.38
             307.84,45.38 305.69,39.22 305.69,39.22
             308.83,38.05 311.80,37.23 314.61,36.73
             317.42,36.25 320.09,36.00 322.62,36.00
             329.05,36.00 333.89,37.50 337.14,40.50
             340.39,43.49 342.02,47.53 342.02,52.61
             342.02,52.61 342.02,77.27 342.02,77.27 Z
           M 320.59,83.25
           C 323.16,83.25 325.59,82.62 327.91,81.38
             330.22,80.12 332.15,78.37 333.70,76.14
             333.70,76.14 333.70,63.00 333.70,63.00
             333.70,63.00 326.22,63.00 326.22,63.00
             320.50,63.00 316.47,63.96 314.12,65.89
             311.78,67.82 310.61,70.41 310.61,73.66
             310.61,80.05 313.94,83.25 320.59,83.25 Z
           M 364.39,89.00
           C 364.39,89.00 364.39,82.25 364.39,82.25
             364.39,82.25 372.47,82.25 372.47,82.25
             372.47,82.25 372.47,43.00 372.47,43.00
             372.47,43.00 364.39,43.00 364.39,43.00
             364.39,43.00 364.39,37.00 364.39,37.00
             364.39,37.00 378.77,37.00 378.77,37.00
             378.77,37.00 380.30,48.94 380.30,48.94
             382.30,44.81 384.72,41.62 387.58,39.38
             390.43,37.12 394.21,36.00 398.91,36.00
             400.34,36.00 401.63,36.09 402.77,36.28
             403.90,36.47 405.05,36.71 406.23,37.00
             406.23,37.00 405.05,54.20 405.05,54.20
             405.05,54.20 398.27,54.20 398.27,54.20
             398.27,54.20 398.27,43.00 398.27,43.00
             398.13,43.00 397.98,43.00 397.81,43.00
             389.88,43.00 384.18,48.75 380.73,60.25
             380.73,60.25 380.73,82.25 380.73,82.25
             380.73,82.25 391.27,82.25 391.27,82.25
             391.27,82.25 391.27,89.00 391.27,89.00
             391.27,89.00 364.39,89.00 364.39,89.00 Z
           M 542.84,45.67
           C 542.84,45.67 573.47,45.67 573.47,45.67
             573.47,45.67 573.47,51.98 573.47,51.98
             573.47,51.98 488.69,51.98 488.69,51.98
             488.69,51.98 488.69,45.67 488.69,45.67
             488.69,45.67 517.48,45.67 517.48,45.67
             517.48,45.67 517.48,26.72 517.48,26.72
             517.48,26.72 490.75,26.72 490.75,26.72
             490.75,26.72 490.75,20.52 490.75,20.52
             490.75,20.52 513.75,20.52 513.75,20.52
             512.13,17.54 510.39,14.90 508.53,12.59
             508.53,12.59 515.08,9.94 515.08,9.94
             516.75,12.00 518.75,14.87 521.08,18.55
             521.08,18.55 515.38,20.52 515.38,20.52
             515.38,20.52 538.47,20.52 538.47,20.52
             541.22,17.54 543.74,14.07 546.05,10.12
             546.05,10.12 552.89,12.39 552.89,12.39
             551.50,14.76 549.38,17.46 546.53,20.52
             546.53,20.52 571.39,20.52 571.39,20.52
             571.39,20.52 571.39,26.72 571.39,26.72
             571.39,26.72 542.84,26.72 542.84,26.72
             542.84,26.72 542.84,45.67 542.84,45.67 Z
           M 535.86,26.72
           C 535.86,26.72 524.53,26.72 524.53,26.72
             524.53,26.72 524.53,45.67 524.53,45.67
             524.53,45.67 535.86,45.67 535.86,45.67
             535.86,45.67 535.86,26.72 535.86,26.72 Z
           M 503.50,28.00
           C 506.23,31.74 508.72,36.20 510.98,41.39
             510.98,41.39 504.78,44.09 504.78,44.09
             502.43,38.84 499.97,34.42 497.41,30.81
             497.41,30.81 503.50,28.00 503.50,28.00 Z
           M 550.17,41.39
           C 553.30,37.09 555.84,32.66 557.81,28.09
             557.81,28.09 564.27,30.47 564.27,30.47
             563.27,32.70 562.08,35.05 560.69,37.52
             559.29,39.98 557.80,42.20 556.23,44.20
             556.23,44.20 550.17,41.39 550.17,41.39 Z
           M 506.47,96.09
           C 506.47,96.09 498.98,96.09 498.98,96.09
             498.98,96.09 498.98,58.42 498.98,58.42
             498.98,58.42 563.28,58.42 563.28,58.42
             563.28,58.42 563.28,96.09 563.28,96.09
             563.28,96.09 555.80,96.09 555.80,96.09
             555.80,96.09 555.80,91.41 555.80,91.41
             555.80,91.41 506.47,91.41 506.47,91.41
             506.47,91.41 506.47,96.09 506.47,96.09 Z
           M 555.80,71.67
           C 555.80,71.67 555.80,64.39 555.80,64.39
             555.80,64.39 506.47,64.39 506.47,64.39
             506.47,64.39 506.47,71.67 506.47,71.67
             506.47,71.67 555.80,71.67 555.80,71.67 Z
           M 506.47,77.58
           C 506.47,77.58 506.47,85.36 506.47,85.36
             506.47,85.36 555.80,85.36 555.80,85.36
             555.80,85.36 555.80,77.58 555.80,77.58
             555.80,77.58 506.47,77.58 506.47,77.58 Z
           M 623.72,35.88
           C 618.66,28.00 613.53,21.48 608.31,16.33
             608.31,16.33 613.92,11.81 613.92,11.81
             616.52,14.44 619.20,17.46 621.97,20.89
             624.75,24.32 627.30,27.82 629.62,31.41
             629.62,31.41 623.72,35.88 623.72,35.88 Z
           M 640.11,64.97
           C 640.11,64.97 640.11,81.31 640.11,81.31
             640.11,81.31 633.28,81.31 633.28,81.31
             633.28,81.31 633.28,32.33 633.28,32.33
             633.28,32.33 657.30,32.33 657.30,32.33
             653.33,30.53 648.34,28.43 642.33,26.03
             642.33,26.03 646.47,21.36 646.47,21.36
             651.20,23.23 655.97,25.29 660.80,27.56
             667.07,24.45 671.96,21.64 675.47,19.14
             675.47,19.14 634.31,19.14 634.31,19.14
             634.31,19.14 634.31,13.03 634.31,13.03
             634.31,13.03 686.09,13.03 686.09,13.03
             686.09,13.03 686.09,18.75 686.09,18.75
             681.80,22.92 675.60,26.94 667.48,30.81
             667.48,30.81 670.50,32.33 670.50,32.33
             670.50,32.33 688.66,32.33 688.66,32.33
             688.66,32.33 688.66,74.53 688.66,74.53
             688.66,76.82 688.20,78.42 687.30,79.33
             686.40,80.23 684.82,80.69 682.55,80.69
             682.55,80.69 672.06,80.69 672.06,80.69
             672.06,80.69 670.69,75.27 670.69,75.27
             670.69,75.27 681.72,75.27 681.72,75.27
             681.72,75.27 681.72,64.97 681.72,64.97
             681.72,64.97 663.84,64.97 663.84,64.97
             663.84,64.97 663.84,80.88 663.84,80.88
             663.84,80.88 657.05,80.88 657.05,80.88
             657.05,80.88 657.05,64.97 657.05,64.97
             657.05,64.97 640.11,64.97 640.11,64.97 Z
           M 657.05,45.88
           C 657.05,45.88 657.05,38.00 657.05,38.00
             657.05,38.00 640.11,38.00 640.11,38.00
             640.11,38.00 640.11,45.88 640.11,45.88
             640.11,45.88 657.05,45.88 657.05,45.88 Z
           M 663.84,45.88
           C 663.84,45.88 681.72,45.88 681.72,45.88
             681.72,45.88 681.72,38.00 681.72,38.00
             681.72,38.00 663.84,38.00 663.84,38.00
             663.84,38.00 663.84,45.88 663.84,45.88 Z
           M 692.75,87.03
           C 692.75,87.03 691.56,94.12 691.56,94.12
             691.56,94.12 645.88,94.12 645.88,94.12
             638.46,94.12 632.74,92.75 628.72,90.02
             624.70,87.28 622.50,83.72 622.14,79.34
             622.14,79.34 621.41,79.34 621.41,79.34
             621.34,82.93 620.20,86.03 617.98,88.64
             615.77,91.24 612.52,93.48 608.22,95.34
             608.22,95.34 605.66,88.36 605.66,88.36
             610.16,86.48 613.32,84.30 615.16,81.81
             616.99,79.32 617.91,75.93 617.91,71.62
             617.91,71.62 617.91,51.58 617.91,51.58
             617.91,51.58 606.69,51.58 606.69,51.58
             606.69,51.58 606.69,44.59 606.69,44.59
             606.69,44.59 625.30,44.59 625.30,44.59
             625.30,44.59 625.30,71.77 625.30,71.77
             625.30,76.82 627.09,80.62 630.69,83.19
             634.28,85.75 639.33,87.03 645.83,87.03
             645.83,87.03 692.75,87.03 692.75,87.03 Z
           M 640.11,51.48
           C 640.11,51.48 640.11,59.47 640.11,59.47
             640.11,59.47 657.05,59.47 657.05,59.47
             657.05,59.47 657.05,51.48 657.05,51.48
             657.05,51.48 640.11,51.48 640.11,51.48 Z
           M 663.84,51.48
           C 663.84,51.48 663.84,59.47 663.84,59.47
             663.84,59.47 681.72,59.47 681.72,59.47
             681.72,59.47 681.72,51.48 681.72,51.48
             681.72,51.48 663.84,51.48 663.84,51.48 Z
           M 816.62,47.34
           C 814.09,58.48 810.36,67.84 805.42,75.44
             800.48,83.03 794.85,88.45 788.52,91.70
             788.52,91.70 781.38,91.70 781.38,91.70
             781.38,91.70 781.38,14.70 781.38,14.70
             781.38,14.70 788.66,14.70 788.66,14.70
             788.66,14.70 788.66,83.30 788.66,83.30
             793.64,79.48 797.87,74.51 801.33,68.38
             804.80,62.24 807.63,54.43 809.83,44.94
             809.83,44.94 816.62,47.34 816.62,47.34 Z
           M 876.02,56.27
           C 876.02,56.27 877.25,63.45 877.25,63.45
             877.25,63.45 861.05,66.45 861.05,66.45
             861.05,66.45 864.50,92.00 864.50,92.00
             864.50,92.00 857.61,93.14 857.61,93.14
             857.61,93.14 854.16,67.78 854.16,67.78
             854.16,67.78 836.34,71.12 836.34,71.12
             836.34,71.12 835.25,63.94 835.25,63.94
             835.25,63.94 853.12,60.55 853.12,60.55
             853.12,60.55 850.42,40.75 850.42,40.75
             850.42,40.75 835.06,43.47 835.06,43.47
             835.06,43.47 833.92,36.22 833.92,36.22
             833.92,36.22 849.44,33.52 849.44,33.52
             849.44,33.52 846.72,13.97 846.72,13.97
             846.72,13.97 853.86,13.03 853.86,13.03
             853.86,13.03 856.47,32.23 856.47,32.23
             856.47,32.23 872.47,29.44 872.47,29.44
             872.47,29.44 873.50,36.62 873.50,36.62
             873.50,36.62 857.41,39.52 857.41,39.52
             857.41,39.52 860.11,59.27 860.11,59.27
             860.11,59.27 876.02,56.27 876.02,56.27 Z
           M 911.92,25.78
           C 908.80,19.09 905.91,13.63 903.22,9.39
             903.22,9.39 909.03,6.98 909.03,6.98
             912.38,12.40 915.21,17.85 917.55,23.33
             917.55,23.33 911.92,25.78 911.92,25.78 Z
           M 900.91,30.17
           C 898.57,24.76 895.73,19.26 892.39,13.67
             892.39,13.67 898.19,11.17 898.19,11.17
             901.74,17.11 904.56,22.64 906.66,27.75
             906.66,27.75 900.91,30.17 900.91,30.17 Z
           M 992.73,83.00
           C 992.73,83.00 992.73,89.73 992.73,89.73
             992.73,89.73 954.34,89.73 954.34,89.73
             954.34,89.73 954.34,83.00 954.34,83.00
             954.34,83.00 976.14,83.00 976.14,83.00
             977.04,77.36 977.79,70.79 978.41,63.31
             979.03,55.82 979.46,48.70 979.69,41.94
             979.69,41.94 957.83,41.94 957.83,41.94
             957.83,41.94 957.83,35.14 957.83,35.14
             957.83,35.14 986.92,35.14 986.92,35.14
             986.66,43.28 986.22,51.64 985.59,60.22
             984.98,68.80 984.24,76.40 983.39,83.00
             983.39,83.00 992.73,83.00 992.73,83.00 Z
           M 1016.25,17.27
           C 1016.25,17.27 1046.56,17.27 1046.56,17.27
             1046.56,17.27 1046.56,24.75 1046.56,24.75
             1046.56,24.75 1016.25,24.75 1016.25,24.75
             1016.25,24.75 1016.25,17.27 1016.25,17.27 Z
           M 1011.86,39.03
           C 1011.86,39.03 1050.11,39.03 1050.11,39.03
             1050.05,48.65 1049.22,56.76 1047.62,63.38
             1046.03,69.99 1043.44,75.69 1039.86,80.47
             1036.29,85.24 1031.41,89.46 1025.25,93.14
             1025.25,93.14 1020.67,86.39 1020.67,86.39
             1025.89,83.40 1030.04,80.09 1033.12,76.47
             1036.21,72.84 1038.49,68.64 1039.97,63.84
             1041.45,59.05 1042.30,53.23 1042.53,46.36
             1042.53,46.36 1011.86,46.36 1011.86,46.36
             1011.86,46.36 1011.86,39.03 1011.86,39.03 Z
           M 1110.34,57.59
           C 1110.34,57.59 1072.73,57.59 1072.73,57.59
             1072.73,57.59 1072.73,49.08 1072.73,49.08
             1072.73,49.08 1110.34,49.08 1110.34,49.08
             1110.34,49.08 1110.34,57.59 1110.34,57.59 Z
           M 115.22,187.95
           C 115.22,191.90 114.46,195.18 112.95,197.78
             111.44,200.38 109.38,202.42 106.75,203.91
             104.12,205.39 101.13,206.44 97.77,207.06
             94.40,207.69 90.86,208.00 87.16,208.00
             87.16,208.00 64.52,208.00 64.52,208.00
             64.52,208.00 64.52,139.58 64.52,139.58
             64.52,139.58 86.12,139.58 86.12,139.58
             90.82,139.58 95.14,140.11 99.09,141.16
             103.05,142.21 106.23,144.01 108.64,146.56
             111.05,149.12 112.27,152.61 112.27,157.05
             112.27,161.13 111.02,164.39 108.52,166.83
             106.02,169.26 103.11,170.90 99.77,171.75
             102.19,172.15 104.59,172.91 106.97,174.05
             109.35,175.18 111.32,176.87 112.88,179.11
             114.44,181.35 115.22,184.30 115.22,187.95 Z
           M 96.02,158.52
           C 96.02,155.87 95.17,153.96 93.48,152.78
             91.80,151.59 89.18,151.00 85.64,151.00
             85.64,151.00 80.66,151.00 80.66,151.00
             80.66,151.00 80.66,166.58 80.66,166.58
             80.66,166.58 86.12,166.58 86.12,166.58
             89.60,166.58 92.12,165.95 93.67,164.69
             95.23,163.43 96.02,161.37 96.02,158.52 Z
           M 98.58,187.64
           C 98.58,184.00 97.55,181.48 95.50,180.09
             93.45,178.70 90.72,178.00 87.31,178.00
             87.31,178.00 80.66,178.00 80.66,178.00
             80.66,178.00 80.66,196.58 80.66,196.58
             80.66,196.58 86.62,196.58 86.62,196.58
             88.72,196.58 90.68,196.36 92.50,195.91
             94.32,195.46 95.79,194.59 96.91,193.30
             98.02,192.01 98.58,190.12 98.58,187.64 Z
           M 147.53,154.58
           C 152.91,154.58 157.49,155.73 161.27,158.02
             165.05,160.30 167.94,163.51 169.94,167.64
             171.94,171.78 172.94,176.62 172.94,182.17
             172.94,190.86 170.70,197.67 166.23,202.61
             161.77,207.54 155.54,210.00 147.53,210.00
             139.53,210.00 133.30,207.57 128.83,202.70
             124.37,197.83 122.14,191.02 122.14,182.27
             122.14,176.75 123.14,171.91 125.16,167.77
             127.18,163.61 130.08,160.38 133.88,158.06
             137.66,155.74 142.22,154.58 147.53,154.58 Z
           M 147.53,166.00
           C 144.35,166.00 142.00,167.30 140.47,169.89
             138.95,172.48 138.19,176.60 138.19,182.23
             138.19,187.98 138.95,192.14 140.47,194.72
             142.00,197.29 144.35,198.58 147.53,198.58
             150.72,198.58 153.07,197.29 154.59,194.72
             156.12,192.14 156.89,187.95 156.89,182.14
             156.89,176.54 156.12,172.45 154.59,169.88
             153.07,167.29 150.72,166.00 147.53,166.00 Z
           M 211.17,135.00
           C 211.17,135.00 211.17,192.09 211.17,192.09
             211.17,194.21 211.77,195.73 212.97,196.64
             214.16,197.55 215.81,198.00 217.91,198.00
             219.25,198.00 220.55,197.84 221.80,197.53
             223.05,197.22 224.21,196.85 225.30,196.42
             225.30,196.42 229.03,206.69 229.03,206.69
             227.26,207.57 225.12,208.34 222.62,209.00
             220.13,209.66 217.23,210.00 213.92,210.00
             207.62,210.00 202.99,208.19 200.03,204.58
             197.08,200.95 195.61,196.09 195.61,190.00
             195.61,190.00 195.61,146.00 195.61,146.00
             195.61,146.00 180.20,146.00 180.20,146.00
             180.20,146.00 180.20,135.00 180.20,135.00
             180.20,135.00 211.17,135.00 211.17,135.00 Z
           M 272.62,133.89
           C 272.62,133.89 288.19,135.52 288.19,135.52
             288.19,135.52 288.19,208.34 288.19,208.34
             288.19,208.34 274.41,208.34 274.41,208.34
             274.41,208.34 273.61,202.58 273.61,202.58
             272.17,204.61 270.25,206.36 267.86,207.81
             265.46,209.27 262.55,210.00 259.14,210.00
             254.80,210.00 251.22,208.84 248.38,206.53
             245.54,204.21 243.43,200.96 242.03,196.80
             240.63,192.63 239.94,187.76 239.94,182.17
             239.94,176.81 240.77,172.05 242.44,167.91
             244.11,163.76 246.51,160.51 249.62,158.14
             252.75,155.77 256.46,154.58 260.77,154.58
             265.45,154.58 269.41,156.20 272.62,159.45
             272.62,159.45 272.62,133.89 272.62,133.89 Z
           M 264.95,166.00
           C 262.25,166.00 260.08,167.26 258.44,169.78
             256.80,172.30 255.98,176.47 255.98,182.28
             255.98,186.54 256.33,189.86 257.02,192.22
             257.71,194.57 258.66,196.23 259.88,197.17
             261.09,198.11 262.49,198.58 264.06,198.58
             265.80,198.58 267.38,198.05 268.81,196.98
             270.24,195.92 271.51,194.47 272.62,192.62
             272.62,192.62 272.62,170.44 272.62,170.44
             271.54,169.04 270.39,167.95 269.17,167.17
             267.96,166.39 266.55,166.00 264.95,166.00 Z
           M 537.33,163.30
           C 538.21,168.23 539.99,172.82 542.67,177.09
             545.35,181.36 549.26,185.68 554.41,190.08
             559.56,194.48 566.41,199.37 574.94,204.75
             574.94,204.75 567.86,215.48 567.86,215.48
             559.05,209.38 552.25,204.23 547.44,200.05
             542.63,195.86 538.84,191.36 536.06,186.53
             533.29,181.71 531.63,176.05 531.08,169.55
             531.08,169.55 530.14,169.55 530.14,169.55
             529.58,176.11 527.97,181.81 525.31,186.64
             522.66,191.46 518.99,195.97 514.31,200.16
             509.63,204.34 503.00,209.44 494.41,215.48
             494.41,215.48 487.22,204.66 487.22,204.66
             495.58,199.27 502.26,194.38 507.25,189.98
             512.24,185.59 515.98,181.29 518.47,177.09
             520.97,172.89 522.61,168.29 523.39,163.30
             523.39,163.30 489.38,163.30 489.38,163.30
             489.38,163.30 489.38,152.08 489.38,152.08
             489.38,152.08 524.14,152.08 524.14,152.08
             524.14,152.08 524.14,130.36 524.14,130.36
             524.14,130.36 536.50,130.36 536.50,130.36
             536.50,130.36 536.50,152.08 536.50,152.08
             536.50,152.08 572.88,152.08 572.88,152.08
             572.88,152.08 572.88,163.30 572.88,163.30
             572.88,163.30 537.33,163.30 537.33,163.30 Z
           M 530.34,190.42
           C 535.95,196.60 540.39,202.18 543.69,207.16
             543.69,207.16 534.08,214.16 534.08,214.16
             530.20,208.25 525.91,202.67 521.19,197.42
             521.19,197.42 530.34,190.42 530.34,190.42 Z
           M 679.20,148.44
           C 679.20,148.44 618.75,148.44 618.75,148.44
             618.75,148.44 618.75,160.20 618.75,160.20
             618.75,160.20 607.62,160.20 607.62,160.20
             607.62,160.20 607.62,138.14 607.62,138.14
             607.62,138.14 642.62,138.14 642.62,138.14
             642.62,138.14 642.62,129.33 642.62,129.33
             642.62,129.33 654.05,129.33 654.05,129.33
             654.05,129.33 654.05,138.14 654.05,138.14
             654.05,138.14 690.53,138.14 690.53,138.14
             690.53,138.14 690.53,160.20 690.53,160.20
             690.53,160.20 679.20,160.20 679.20,160.20
             679.20,160.20 679.20,148.44 679.20,148.44 Z
           M 691.61,178.06
           C 691.61,178.06 691.61,188.36 691.61,188.36
             691.61,188.36 655.42,188.36 655.42,188.36
             655.42,188.36 655.42,203.33 655.42,203.33
             655.42,207.20 654.54,210.02 652.77,211.83
             650.99,213.64 648.02,214.55 643.86,214.55
             643.86,214.55 628.11,214.55 628.11,214.55
             628.11,214.55 625.30,203.97 625.30,203.97
             625.30,203.97 644.11,203.97 644.11,203.97
             644.11,203.97 644.11,188.36 644.11,188.36
             644.11,188.36 606.55,188.36 606.55,188.36
             606.55,188.36 606.55,178.06 606.55,178.06
             606.55,178.06 644.11,178.06 644.11,178.06
             644.11,178.06 644.11,171.72 644.11,171.72
             650.67,169.45 656.35,166.92 661.14,164.14
             661.14,164.14 621.95,164.14 621.95,164.14
             621.95,164.14 621.95,154.23 621.95,154.23
             621.95,154.23 676.00,154.23 676.00,154.23
             676.00,154.23 676.00,164.03 676.00,164.03
             671.01,169.16 664.15,173.56 655.42,177.23
             655.42,177.23 655.42,178.06 655.42,178.06
             655.42,178.06 691.61,178.06 691.61,178.06 Z
           M 801.95,213.12
           C 801.95,213.12 792.30,213.12 792.30,213.12
             792.30,213.12 792.50,155.81 792.50,155.81
             792.50,155.81 776.25,155.81 776.25,155.81
             776.25,155.81 776.25,145.33 776.25,145.33
             776.25,145.33 792.06,145.33 792.06,145.33
             792.06,145.33 792.06,131.80 792.06,131.80
             792.06,131.80 802.16,131.80 802.16,131.80
             802.16,131.80 802.16,145.33 802.16,145.33
             802.16,145.33 818.05,145.33 818.05,145.33
             818.05,145.33 818.05,155.81 818.05,155.81
             818.05,155.81 802.16,155.81 802.16,155.81
             802.16,155.81 801.95,213.12 801.95,213.12 Z
           M 810.97,204.75
           C 808.27,191.59 806.36,178.34 805.25,164.97
             805.25,164.97 813.67,162.91 813.67,162.91
             814.92,175.38 816.86,187.67 819.48,199.78
             819.48,199.78 810.97,204.75 810.97,204.75 Z
           M 773.59,199.58
           C 775.16,194.46 776.54,188.75 777.72,182.44
             778.91,176.12 779.73,169.70 780.19,163.20
             780.19,163.20 788.95,164.67 788.95,164.67
             787.52,179.90 785.19,193.03 781.97,204.06
             781.97,204.06 773.59,199.58 773.59,199.58 Z
           M 852.30,144.50
           C 849.34,138.06 846.61,132.82 844.11,128.78
             844.11,128.78 851.70,125.69 851.70,125.69
             855.02,131.17 857.70,136.40 859.77,141.39
             859.77,141.39 852.30,144.50 852.30,144.50 Z
           M 840.28,149.17
           C 837.72,143.50 835.01,138.26 832.16,133.47
             832.16,133.47 839.73,130.36 839.73,130.36
             843.21,136.23 845.89,141.47 847.77,146.06
             847.77,146.06 840.28,149.17 840.28,149.17 Z
           M 933.44,179.00
           C 933.44,179.00 895.64,179.00 895.64,179.00
             895.64,179.00 895.64,165.52 895.64,165.52
             895.64,165.52 933.44,165.52 933.44,165.52
             933.44,165.52 933.44,179.00 933.44,179.00 Z
           M 996.72,168.08
           C 996.03,177.56 994.38,185.95 991.77,193.23
             989.16,200.52 985.79,206.52 981.66,211.25
             981.66,211.25 972.61,211.25 972.61,211.25
             972.61,211.25 972.61,133.66 972.61,133.66
             972.61,133.66 981.42,133.66 981.42,133.66
             981.42,133.66 981.42,196.23 981.42,196.23
             984.77,190.00 986.96,179.98 988.02,166.20
             988.02,166.20 996.72,168.08 996.72,168.08 Z
           M 959.11,134.11
           C 959.11,134.11 967.92,134.11 967.92,134.11
             967.92,134.11 967.92,166.34 967.92,166.34
             967.92,175.77 967.62,183.22 967.03,188.69
             966.45,194.15 965.45,198.65 964.03,202.19
             962.62,205.73 960.55,209.44 957.83,213.31
             957.83,213.31 950.59,205.64 950.59,205.64
             952.93,202.65 954.68,199.56 955.86,196.36
             957.05,193.16 957.88,189.28 958.38,184.72
             958.86,180.16 959.11,174.20 959.11,166.84
             959.11,166.84 959.11,134.11 959.11,134.11 Z
           M 1048.05,185.02
           C 1042.63,180.65 1036.24,176.22 1028.89,171.72
             1028.89,171.72 1028.89,211.73 1028.89,211.73
             1028.89,211.73 1018.06,211.73 1018.06,211.73
             1018.06,211.73 1018.06,133.17 1018.06,133.17
             1018.06,133.17 1028.89,133.17 1028.89,133.17
             1028.89,133.17 1028.89,158.03 1028.89,158.03
             1038.55,164.04 1046.79,169.64 1053.61,174.81
             1053.61,174.81 1048.05,185.02 1048.05,185.02 Z
           M 1088.30,144.50
           C 1085.34,138.06 1082.61,132.82 1080.11,128.78
             1080.11,128.78 1087.70,125.69 1087.70,125.69
             1091.02,131.17 1093.70,136.40 1095.77,141.39
             1095.77,141.39 1088.30,144.50 1088.30,144.50 Z
           M 1076.28,149.17
           C 1073.72,143.50 1071.01,138.26 1068.16,133.47
             1068.16,133.47 1075.73,130.36 1075.73,130.36
             1079.21,136.23 1081.89,141.47 1083.77,146.06
             1083.77,146.06 1076.28,149.17 1076.28,149.17 Z" />
</svg>
