<?xml version="1.0" encoding="UTF-8" standalone="no"?>
<!DOCTYPE svg PUBLIC "-//W3C//DTD SVG 20010904//EN"
              "http://www.w3.org/TR/2001/REC-SVG-20010904/DTD/svg10.dtd">

<svg xmlns="http://www.w3.org/2000/svg"
     width="4.26667in" height="0.8in"
     viewBox="0 0 1280 240">
  <path fill="#6a6a6a" d="M 47.02,77.27
           C 47.02,79.35 47.36,80.87 48.05,81.81
             48.73,82.75 49.80,83.43 51.25,83.86
             51.25,83.86 49.23,90.02 49.23,90.02
             47.00,89.70 45.05,88.95 43.38,87.75
             41.70,86.55 40.48,84.73 39.73,82.30
             37.86,84.83 35.52,86.75 32.70,88.05
             29.90,89.35 26.83,90.00 23.48,90.00
             18.30,90.00 14.21,88.52 11.22,85.56
             8.24,82.61 6.75,78.68 6.75,73.80
             6.75,68.38 8.83,64.23 13.00,61.34
             17.16,58.45 23.19,57.00 31.06,57.00
             31.06,57.00 38.70,57.00 38.70,57.00
             38.70,57.00 38.70,52.78 38.70,52.78
             38.70,49.14 37.61,46.55 35.42,45.03
             33.23,43.51 30.21,42.75 26.34,42.75
             24.63,42.75 22.63,42.95 20.33,43.36
             18.04,43.77 15.54,44.44 12.84,45.38
             12.84,45.38 10.69,39.22 10.69,39.22
             13.83,38.05 16.80,37.23 19.61,36.73
             22.42,36.25 25.09,36.00 27.62,36.00
             34.05,36.00 38.89,37.50 42.14,40.50
             45.39,43.49 47.02,47.53 47.02,52.61
             47.02,52.61 47.02,77.27 47.02,77.27 Z
           M 25.59,83.25
           C 28.16,83.25 30.59,82.62 32.91,81.38
             35.22,80.12 37.15,78.37 38.70,76.14
             38.70,76.14 38.70,63.00 38.70,63.00
             38.70,63.00 31.22,63.00 31.22,63.00
             25.50,63.00 21.47,63.96 19.12,65.89
             16.78,67.82 15.61,70.41 15.61,73.66
             15.61,80.05 18.94,83.25 25.59,83.25 Z
           M 77.17,44.28
           C 79.04,41.65 81.22,39.61 83.73,38.17
             86.24,36.73 88.98,36.00 91.94,36.00
             96.56,36.00 100.30,37.12 103.16,39.34
             106.01,41.57 108.09,44.71 109.41,48.77
             110.72,52.82 111.38,57.55 111.38,62.95
             111.38,68.16 110.59,72.81 109.03,76.89
             107.48,80.98 105.18,84.18 102.12,86.52
             99.07,88.84 95.32,90.00 90.86,90.00
             84.85,90.00 80.13,87.82 76.72,83.47
             76.72,83.47 76.12,89.00 76.12,89.00
             76.12,89.00 68.89,89.00 68.89,89.00
             68.89,89.00 68.89,16.17 68.89,16.17
             68.89,16.17 77.17,15.14 77.17,15.14
             77.17,15.14 77.17,44.28 77.17,44.28 Z
           M 88.89,83.25
           C 93.21,83.25 96.54,81.59 98.88,78.27
             101.21,74.93 102.38,69.82 102.38,62.92
             102.38,49.48 98.30,42.75 90.16,42.75
             87.27,42.75 84.73,43.64 82.53,45.41
             80.33,47.18 78.55,49.15 77.17,51.31
             77.17,51.31 77.17,76.64 77.17,76.64
             78.52,78.68 80.21,80.30 82.27,81.48
             84.32,82.66 86.52,83.25 88.89,83.25 Z
           M 151.33,83.25
           C 153.92,83.25 156.34,82.84 158.59,82.00
             160.84,81.16 162.91,80.06 164.81,78.72
             164.81,78.72 168.86,84.16 168.86,84.16
             166.59,85.97 163.86,87.40 160.67,88.44
             157.49,89.48 154.38,90.00 151.33,90.00
             146.17,90.00 141.78,88.90 138.16,86.69
             134.53,84.47 131.77,81.36 129.86,77.34
             127.96,73.32 127.02,68.61 127.02,63.20
             127.02,58.02 127.96,53.38 129.86,49.28
             131.77,45.18 134.54,41.94 138.19,39.56
             141.83,37.19 146.24,36.00 151.42,36.00
             158.02,36.00 163.80,37.96 168.75,41.89
             168.75,41.89 164.72,47.80 164.72,47.80
             160.22,44.43 155.75,42.75 151.33,42.75
             146.87,42.75 143.19,44.45 140.30,47.86
             137.41,51.27 135.97,56.42 135.97,63.33
             135.97,70.33 137.41,75.40 140.30,78.55
             143.19,81.68 146.87,83.25 151.33,83.25 Z
           M 217.91,15.14
           C 217.91,15.14 226.19,16.17 226.19,16.17
             226.19,16.17 226.19,89.00 226.19,89.00
             226.19,89.00 218.94,89.00 218.94,89.00
             218.94,89.00 218.16,81.98 218.16,81.98
             216.22,84.76 213.99,86.79 211.48,88.08
             208.97,89.36 206.29,90.00 203.44,90.00
             198.94,90.00 195.22,88.87 192.30,86.61
             189.38,84.35 187.22,81.20 185.81,77.14
             184.41,73.09 183.70,68.39 183.70,63.05
             183.70,57.87 184.50,53.24 186.11,49.16
             187.71,45.07 190.03,41.86 193.06,39.52
             196.10,37.17 199.76,36.00 204.03,36.00
             209.77,36.00 214.39,38.07 217.91,42.20
             217.91,42.20 217.91,15.14 217.91,15.14 Z
           M 206.19,42.75
           C 201.86,42.75 198.54,44.43 196.20,47.80
             193.87,51.16 192.70,56.26 192.70,63.08
             192.70,76.53 196.85,83.25 205.16,83.25
             208.08,83.25 210.59,82.43 212.69,80.80
             214.79,79.16 216.53,77.29 217.91,75.19
             217.91,75.19 217.91,49.67 217.91,49.67
             216.50,47.48 214.79,45.79 212.78,44.58
             210.78,43.36 208.58,42.75 206.19,42.75 Z
           M 252.39,65.00
           C 252.62,71.37 254.20,76.00 257.14,78.91
             260.08,81.80 263.55,83.25 267.56,83.25
             270.22,83.25 272.61,82.84 274.73,82.03
             276.87,81.22 279.09,80.02 281.39,78.44
             281.39,78.44 285.28,84.11 285.28,84.11
             282.88,85.95 280.12,87.39 277.00,88.44
             273.88,89.48 270.70,90.00 267.45,90.00
             262.40,90.00 258.11,88.87 254.58,86.61
             251.05,84.35 248.37,81.20 246.52,77.14
             244.66,73.09 243.73,68.39 243.73,63.05
             243.73,57.81 244.66,53.16 246.52,49.09
             248.37,45.02 250.99,41.82 254.39,39.50
             257.79,37.17 261.78,36.00 266.38,36.00
             272.91,36.00 278.05,38.26 281.81,42.78
             285.57,47.29 287.45,53.47 287.45,61.31
             287.45,62.20 287.43,63.04 287.38,63.83
             287.32,64.61 287.28,65.00 287.25,65.00
             287.25,65.00 252.39,65.00 252.39,65.00 Z
           M 266.47,42.75
           C 262.63,42.75 259.42,44.07 256.83,46.72
             254.23,49.37 252.77,53.46 252.44,59.00
             252.44,59.00 279.47,59.00 279.47,59.00
             279.38,53.62 278.16,49.56 275.83,46.84
             273.49,44.12 270.38,42.75 266.47,42.75 Z
           M 337.69,71.75
           C 337.69,71.75 310.86,71.75 310.86,71.75
             310.86,71.75 305.44,89.00 305.44,89.00
             305.44,89.00 297.02,89.00 297.02,89.00
             297.02,89.00 319.08,21.00 319.08,21.00
             319.08,21.00 330.00,21.00 330.00,21.00
             330.00,21.00 352.06,89.00 352.06,89.00
             352.06,89.00 343.09,89.00 343.09,89.00
             343.09,89.00 337.69,71.75 337.69,71.75 Z
           M 313.06,65.00
           C 313.06,65.00 335.47,65.00 335.47,65.00
             335.47,65.00 324.34,28.72 324.34,28.72
             324.34,28.72 313.06,65.00 313.06,65.00 Z
           M 407.12,69.69
           C 407.12,73.40 406.39,76.48 404.92,78.95
             403.46,81.42 401.51,83.40 399.06,84.88
             396.62,86.34 393.90,87.40 390.89,88.05
             387.89,88.68 384.83,89.00 381.72,89.00
             381.72,89.00 363.50,89.00 363.50,89.00
             363.50,89.00 363.50,21.00 363.50,21.00
             363.50,21.00 380.19,21.00 380.19,21.00
             383.14,21.00 386.05,21.28 388.91,21.83
             391.76,22.37 394.33,23.30 396.62,24.61
             398.93,25.91 400.76,27.67 402.12,29.89
             403.49,32.11 404.17,34.89 404.17,38.23
             404.17,41.18 403.57,43.68 402.38,45.72
             401.18,47.75 399.61,49.38 397.69,50.61
             395.77,51.83 393.73,52.69 391.56,53.19
             394.05,53.62 396.48,54.40 398.86,55.53
             401.24,56.66 403.22,58.35 404.78,60.61
             406.34,62.87 407.12,65.90 407.12,69.69 Z
           M 395.41,38.64
           C 395.41,34.71 394.21,31.92 391.83,30.25
             389.45,28.59 386.21,27.75 382.11,27.75
             382.11,27.75 372.02,27.75 372.02,27.75
             372.02,27.75 372.02,50.25 372.02,50.25
             372.02,50.25 382.95,50.25 382.95,50.25
             386.95,50.25 390.02,49.34 392.17,47.50
             394.33,45.67 395.41,42.71 395.41,38.64 Z
           M 398.11,70.05
           C 398.11,66.58 397.44,63.91 396.11,62.03
             394.79,60.15 393.02,58.84 390.83,58.11
             388.63,57.37 386.22,57.00 383.59,57.00
             383.59,57.00 372.02,57.00 372.02,57.00
             372.02,57.00 372.02,82.25 372.02,82.25
             372.02,82.25 383.19,82.25 383.19,82.25
             385.43,82.25 387.69,81.95 389.98,81.33
             392.29,80.71 394.21,79.53 395.77,77.78
             397.33,76.03 398.11,73.45 398.11,70.05 Z
           M 448.25,20.00
           C 452.68,20.00 456.38,20.53 459.38,21.58
             462.36,22.63 465.20,24.18 467.89,26.23
             467.89,26.23 463.11,31.86 463.11,31.86
             460.98,30.03 458.73,28.72 456.34,27.94
             453.97,27.15 451.48,26.75 448.89,26.75
             445.18,26.75 441.75,27.65 438.59,29.44
             435.45,31.22 432.91,34.17 430.98,38.30
             429.07,42.42 428.11,48.01 428.11,55.05
             428.11,61.89 429.02,67.39 430.84,71.53
             432.66,75.67 435.13,78.66 438.25,80.50
             441.38,82.34 444.85,83.25 448.69,83.25
             452.47,83.25 455.59,82.67 458.06,81.50
             460.54,80.32 462.67,78.98 464.45,77.48
             464.45,77.48 468.88,83.20 468.88,83.20
             466.81,85.05 464.12,86.64 460.80,87.98
             457.48,89.33 453.41,90.00 448.59,90.00
             443.08,90.00 438.11,88.66 433.67,85.98
             429.24,83.31 425.73,79.37 423.14,74.16
             420.55,68.94 419.25,62.54 419.25,54.95
             419.25,47.34 420.57,40.93 423.20,35.73
             425.85,30.53 429.37,26.61 433.77,23.97
             438.17,21.32 443.00,20.00 448.25,20.00 Z
           M 526.41,54.67
           C 526.41,61.79 525.48,67.59 523.64,72.09
             521.80,76.59 519.38,80.06 516.36,82.52
             513.34,84.96 510.03,86.66 506.44,87.59
             502.84,88.53 499.29,89.00 495.78,89.00
             495.78,89.00 480.22,89.00 480.22,89.00
             480.22,89.00 480.22,21.00 480.22,21.00
             480.22,21.00 494.70,21.00 494.70,21.00
             498.67,21.00 502.53,21.45 506.28,22.34
             510.04,23.23 513.44,24.87 516.47,27.25
             519.51,29.64 521.93,33.04 523.72,37.45
             525.51,41.86 526.41,47.60 526.41,54.67 Z
           M 517.30,54.61
           C 517.30,48.64 516.67,43.87 515.42,40.28
             514.17,36.70 512.53,34.02 510.50,32.23
             508.47,30.45 506.24,29.25 503.83,28.66
             501.41,28.05 499.04,27.75 496.72,27.75
             496.72,27.75 488.73,27.75 488.73,27.75
             488.73,27.75 488.73,82.25 488.73,82.25
             488.73,82.25 496.81,82.25 496.81,82.25
             499.24,82.25 501.66,81.86 504.09,81.08
             506.52,80.30 508.73,78.92 510.72,76.94
             512.71,74.95 514.30,72.15 515.50,68.53
             516.70,64.92 517.30,60.28 517.30,54.61 Z
           M 551.92,27.75
           C 551.92,27.75 551.92,51.25 551.92,51.25
             551.92,51.25 577.03,51.25 577.03,51.25
             577.03,51.25 577.03,58.00 577.03,58.00
             577.03,58.00 551.92,58.00 551.92,58.00
             551.92,58.00 551.92,82.25 551.92,82.25
             551.92,82.25 582.73,82.25 582.73,82.25
             582.73,82.25 582.73,89.00 582.73,89.00
             582.73,89.00 543.36,89.00 543.36,89.00
             543.36,89.00 543.36,21.00 543.36,21.00
             543.36,21.00 581.86,21.00 581.86,21.00
             581.86,21.00 580.88,27.75 580.88,27.75
             580.88,27.75 551.92,27.75 551.92,27.75 Z
           M 619.53,20.00
           C 626.82,20.00 632.34,23.02 636.09,29.06
             639.85,35.09 641.73,43.73 641.73,54.95
             641.73,66.20 639.85,74.86 636.09,80.92
             632.34,86.98 626.82,90.00 619.53,90.00
             612.25,90.00 606.73,86.98 602.97,80.92
             599.21,74.86 597.33,66.20 597.33,54.95
             597.33,43.73 599.21,35.09 602.97,29.06
             606.73,23.02 612.25,20.00 619.53,20.00 Z
           M 619.53,26.75
           C 615.36,26.75 612.08,28.96 609.69,33.38
             607.29,37.78 606.09,45.01 606.09,55.05
             606.09,62.56 606.67,68.46 607.83,72.77
             607.83,72.77 628.55,31.70 628.55,31.70
             626.48,28.40 623.48,26.75 619.53,26.75 Z
           M 633.03,55.30
           C 633.03,47.83 632.44,41.99 631.25,37.78
             631.25,37.78 610.62,78.98 610.62,78.98
             612.70,81.83 615.66,83.25 619.53,83.25
             623.74,83.25 627.04,81.07 629.44,76.70
             631.83,72.33 633.03,65.20 633.03,55.30 Z
           M 699.95,82.25
           C 699.95,82.25 699.95,89.00 699.95,89.00
             699.95,89.00 660.81,89.00 660.81,89.00
             660.81,89.00 660.81,82.25 660.81,82.25
             660.81,82.25 677.50,82.25 677.50,82.25
             677.50,82.25 677.50,30.09 677.50,30.09
             677.50,30.09 661.95,39.56 661.95,39.56
             661.95,39.56 658.36,33.64 658.36,33.64
             658.36,33.64 678.53,21.00 678.53,21.00
             678.53,21.00 685.78,21.00 685.78,21.00
             685.78,21.00 685.78,82.25 685.78,82.25
             685.78,82.25 699.95,82.25 699.95,82.25 Z
           M 734.53,20.00
           C 738.80,20.00 742.46,20.84 745.52,22.50
             748.57,24.17 750.91,26.44 752.53,29.31
             754.16,32.19 754.97,35.43 754.97,39.03
             754.97,42.17 754.43,45.23 753.34,48.22
             752.26,51.21 750.52,54.35 748.14,57.64
             745.77,60.93 742.64,64.58 738.77,68.58
             734.89,72.57 730.16,77.12 724.59,82.25
             724.59,82.25 756.55,82.25 756.55,82.25
             756.55,82.25 755.50,89.00 755.50,89.00
             755.50,89.00 715.19,89.00 715.19,89.00
             715.19,89.00 715.19,82.56 715.19,82.56
             721.58,76.37 726.80,71.12 730.86,66.84
             734.92,62.56 738.07,58.88 740.30,55.78
             742.52,52.68 744.07,49.84 744.94,47.25
             745.81,44.66 746.25,41.97 746.25,39.19
             746.25,35.34 745.18,32.31 743.05,30.09
             740.92,27.87 737.95,26.75 734.14,26.75
             730.80,26.75 728.05,27.37 725.92,28.59
             723.79,29.81 721.65,31.77 719.52,34.47
             719.52,34.47 713.81,30.05 713.81,30.05
             716.50,26.65 719.47,24.13 722.73,22.48
             726.00,20.83 729.94,20.00 734.53,20.00 Z
           M 793.44,20.00
           C 797.71,20.00 801.40,20.78 804.52,22.33
             807.63,23.88 810.03,25.95 811.72,28.52
             813.41,31.09 814.27,33.93 814.27,37.03
             814.27,39.81 813.66,42.32 812.44,44.55
             811.23,46.78 809.62,48.62 807.61,50.08
             805.61,51.53 803.41,52.48 801.02,52.94
             803.67,53.14 806.17,53.88 808.52,55.17
             810.87,56.45 812.77,58.29 814.23,60.67
             815.69,63.06 816.42,65.98 816.42,69.44
             816.42,73.32 815.44,76.82 813.47,79.94
             811.50,83.05 808.75,85.51 805.22,87.31
             801.70,89.10 797.59,90.00 792.89,90.00
             789.09,90.00 785.31,89.29 781.56,87.86
             777.82,86.43 774.66,84.17 772.08,81.06
             772.08,81.06 777.64,76.59 777.64,76.59
             779.57,78.84 781.87,80.51 784.55,81.61
             787.22,82.70 789.94,83.25 792.70,83.25
             797.42,83.25 801.11,82.02 803.77,79.56
             806.43,77.09 807.77,73.75 807.77,69.52
             807.77,64.73 806.43,61.40 803.75,59.55
             801.07,57.68 797.73,56.75 793.73,56.75
             793.73,56.75 788.02,56.75 788.02,56.75
             788.02,56.75 789.06,50.00 789.06,50.00
             789.06,50.00 793.05,50.00 793.05,50.00
             795.24,50.00 797.32,49.58 799.27,48.73
             801.22,47.88 802.82,46.59 804.06,44.86
             805.31,43.12 805.94,40.91 805.94,38.23
             805.94,34.51 804.69,31.66 802.19,29.70
             799.70,27.73 796.68,26.75 793.14,26.75
             790.18,26.75 787.60,27.28 785.41,28.34
             783.21,29.40 780.99,31.00 778.77,33.14
             778.77,33.14 774.19,28.16 774.19,28.16
             777.07,25.30 780.14,23.23 783.39,21.94
             786.64,20.65 789.99,20.00 793.44,20.00 Z
           M 869.28,47.00
           C 869.28,47.00 869.28,66.00 869.28,66.00
             869.28,66.00 878.03,66.00 878.03,66.00
             878.03,66.00 878.03,72.75 878.03,72.75
             878.03,72.75 869.28,72.75 869.28,72.75
             869.28,72.75 869.28,89.00 869.28,89.00
             869.28,89.00 861.30,89.00 861.30,89.00
             861.30,89.00 861.25,72.75 861.25,72.75
             861.25,72.75 833.09,72.75 833.09,72.75
             833.09,72.75 833.09,66.64 833.09,66.64
             833.09,66.64 852.98,20.42 852.98,20.42
             852.98,20.42 859.88,23.33 859.88,23.33
             859.88,23.33 841.86,66.00 841.86,66.00
             841.86,66.00 861.30,66.00 861.30,66.00
             861.30,66.00 862.38,47.00 862.38,47.00
             862.38,47.00 869.28,47.00 869.28,47.00 Z
           M 932.95,21.00
           C 932.95,21.00 931.72,27.75 931.72,27.75
             931.72,27.75 904.94,27.75 904.94,27.75
             904.94,27.75 904.94,49.05 904.94,49.05
             907.01,47.91 908.97,47.12 910.83,46.67
             912.68,46.23 914.62,46.00 916.66,46.00
             922.16,46.00 926.63,47.86 930.05,51.58
             933.46,55.30 935.17,60.55 935.17,67.33
             935.17,71.87 934.22,75.84 932.33,79.23
             930.44,82.63 927.79,85.28 924.36,87.17
             920.93,89.05 916.88,90.00 912.22,90.00
             908.16,90.00 904.52,89.29 901.31,87.86
             898.11,86.43 895.20,84.45 892.58,81.92
             892.58,81.92 897.70,77.06 897.70,77.06
             901.73,81.19 906.61,83.25 912.33,83.25
             916.79,83.25 920.26,81.90 922.75,79.19
             925.25,76.48 926.50,72.50 926.50,67.23
             926.50,63.59 925.96,60.71 924.88,58.61
             923.79,56.51 922.32,55.01 920.47,54.11
             918.61,53.20 916.55,52.75 914.30,52.75
             912.30,52.75 910.52,52.95 908.97,53.34
             907.43,53.73 905.67,54.28 903.70,55.00
             903.70,55.00 897.06,55.00 897.06,55.00
             897.06,55.00 897.06,21.00 897.06,21.00
             897.06,21.00 932.95,21.00 932.95,21.00 Z
           M 977.28,35.00
           C 977.28,35.00 977.28,55.00 977.28,55.00
             977.28,55.00 996.62,55.00 996.62,55.00
             996.62,55.00 996.62,61.75 996.62,61.75
             996.62,61.75 977.28,61.75 977.28,61.75
             977.28,61.75 977.28,81.00 977.28,81.00
             977.28,81.00 969.55,81.00 969.55,81.00
             969.55,81.00 969.55,61.75 969.55,61.75
             969.55,61.75 950.45,61.75 950.45,61.75
             950.45,61.75 950.45,55.00 950.45,55.00
             950.45,55.00 969.55,55.00 969.55,55.00
             969.55,55.00 969.55,35.00 969.55,35.00
             969.55,35.00 977.28,35.00 977.28,35.00 Z
           M 1012.80,62.00
           C 1012.80,62.00 1012.80,55.25 1012.80,55.25
             1012.80,55.25 1052.28,55.25 1052.28,55.25
             1052.28,55.25 1052.28,62.00 1052.28,62.00
             1052.28,62.00 1012.80,62.00 1012.80,62.00 Z
           M 1110.69,45.25
           C 1110.69,45.25 1110.69,52.00 1110.69,52.00
             1110.69,52.00 1072.39,52.00 1072.39,52.00
             1072.39,52.00 1072.39,45.25 1072.39,45.25
             1072.39,45.25 1110.69,45.25 1110.69,45.25 Z
           M 1110.69,64.25
           C 1110.69,64.25 1110.69,71.00 1110.69,71.00
             1110.69,71.00 1072.39,71.00 1072.39,71.00
             1072.39,71.00 1072.39,64.25 1072.39,64.25
             1072.39,64.25 1110.69,64.25 1110.69,64.25 Z
           M 1148.91,20.00
           C 1154.00,20.00 1158.29,20.77 1161.78,22.30
             1165.28,23.82 1168.13,25.91 1170.34,28.56
             1172.56,31.22 1174.27,34.29 1175.47,37.77
             1176.66,41.25 1177.49,44.95 1177.95,48.89
             1178.42,52.83 1178.66,56.81 1178.66,60.84
             1178.66,69.12 1178.27,75.98 1177.48,81.44
             1176.71,86.90 1175.29,90.98 1173.22,93.69
             1171.16,96.39 1168.14,97.75 1164.17,97.75
             1162.14,97.75 1160.38,97.23 1158.88,96.19
             1157.38,95.14 1156.17,93.83 1155.23,92.25
             1154.30,90.66 1153.63,89.03 1153.20,87.34
             1152.77,85.66 1152.58,84.19 1152.61,82.94
             1152.61,82.94 1152.22,82.94 1152.22,82.94
             1151.59,84.53 1150.74,86.10 1149.66,87.64
             1148.57,89.17 1147.14,90.45 1145.36,91.47
             1143.59,92.49 1141.39,93.00 1138.77,93.00
             1135.19,93.00 1132.31,92.02 1130.12,90.06
             1127.95,88.12 1126.36,85.45 1125.38,82.05
             1124.39,78.64 1123.91,74.77 1123.91,70.42
             1123.91,61.85 1125.60,55.47 1129.00,51.28
             1132.39,47.09 1137.13,45.00 1143.20,45.00
             1145.50,45.00 1147.70,45.25 1149.80,45.73
             1151.90,46.23 1154.33,47.20 1157.09,48.66
             1157.09,48.66 1157.09,77.95 1157.09,77.95
             1157.09,81.53 1157.40,84.25 1158.02,86.12
             1158.64,87.99 1159.48,89.27 1160.53,89.95
             1161.58,90.65 1162.75,91.00 1164.03,91.00
             1166.09,91.00 1167.55,89.65 1168.41,86.95
             1169.26,84.25 1169.77,80.60 1169.94,76.02
             1170.10,71.43 1170.19,66.32 1170.19,60.69
             1170.19,55.97 1169.92,51.56 1169.39,47.45
             1168.87,43.35 1167.87,39.75 1166.39,36.66
             1164.91,33.55 1162.77,31.12 1159.98,29.38
             1157.20,27.62 1153.55,26.75 1149.02,26.75
             1145.80,26.75 1142.32,27.34 1138.58,28.53
             1134.84,29.72 1130.86,32.16 1126.66,35.84
             1126.66,35.84 1121.94,30.31 1121.94,30.31
             1126.33,26.62 1130.83,23.98 1135.44,22.39
             1140.05,20.80 1144.54,20.00 1148.91,20.00 Z
           M 1143.59,51.00
           C 1139.13,51.00 1136.07,52.62 1134.41,55.84
             1132.75,59.07 1131.92,63.82 1131.92,70.08
             1131.92,74.86 1132.48,78.75 1133.59,81.75
             1134.72,84.75 1136.77,86.25 1139.75,86.25
             1142.05,86.25 1143.86,85.73 1145.19,84.70
             1146.52,83.66 1147.54,82.48 1148.25,81.14
             1148.96,79.80 1149.51,78.66 1149.91,77.72
             1149.91,77.72 1149.91,52.56 1149.91,52.56
             1148.00,51.52 1145.89,51.00 1143.59,51.00 Z
           M 36.62,146.06
           C 31.28,141.90 25.91,138.39 20.53,135.53
             20.53,135.53 24.47,129.62 24.47,129.62
             29.82,132.34 35.19,135.84 40.56,140.11
             40.56,140.11 36.62,146.06 36.62,146.06 Z
           M 88.17,140.36
           C 85.61,139.31 82.75,138.28 79.59,137.28
             76.45,136.28 73.53,135.47 70.84,134.84
             70.84,134.84 73.75,129.62 73.75,129.62
             76.51,130.25 79.45,131.06 82.56,132.06
             85.68,133.06 88.52,134.12 91.08,135.23
             91.08,135.23 88.17,140.36 88.17,140.36 Z
           M 96.59,192.09
           C 96.59,192.09 102.50,194.91 102.50,194.91
             102.50,194.91 100.62,209.03 100.62,209.03
             100.16,212.71 98.41,214.55 95.36,214.55
             94.38,214.55 93.27,214.36 92.02,214.00
             84.75,211.88 78.80,208.07 74.14,202.58
             64.65,207.87 53.88,212.10 41.84,215.28
             41.84,215.28 39.05,208.64 39.05,208.64
             50.60,205.91 60.91,202.02 70.00,196.97
             67.51,192.84 65.43,187.96 63.75,182.34
             63.75,182.34 40.77,184.91 40.77,184.91
             40.77,184.91 40.08,178.56 40.08,178.56
             40.08,178.56 62.08,176.09 62.08,176.09
             61.25,172.16 60.66,168.86 60.31,166.20
             60.31,166.20 42.53,167.88 42.53,167.88
             42.53,167.88 41.94,161.62 41.94,161.62
             41.94,161.62 59.56,159.91 59.56,159.91
             59.18,156.00 58.95,152.87 58.88,150.50
             58.88,150.50 39.97,152.08 39.97,152.08
             39.97,152.08 39.33,145.77 39.33,145.77
             39.33,145.77 58.58,144.20 58.58,144.20
             58.55,142.59 58.53,140.16 58.53,136.91
             58.53,136.91 58.53,129.83 58.53,129.83
             58.53,129.83 65.23,129.83 65.23,129.83
             65.23,129.83 65.23,137.30 65.23,137.30
             65.23,140.16 65.27,142.28 65.33,143.66
             65.33,143.66 96.98,140.95 96.98,140.95
             96.98,140.95 97.62,147.30 97.62,147.30
             97.62,147.30 65.53,149.91 65.53,149.91
             65.79,153.98 66.00,157.10 66.17,159.27
             66.17,159.27 96.78,156.36 96.78,156.36
             96.78,156.36 97.42,162.70 97.42,162.70
             97.42,162.70 66.95,165.61 66.95,165.61
             67.61,169.85 68.23,173.10 68.83,175.36
             68.83,175.36 99.94,171.91 99.94,171.91
             99.94,171.91 100.72,178.27 100.72,178.27
             100.72,178.27 70.50,181.61 70.50,181.61
             71.95,186.05 73.75,190.02 75.91,193.53
             81.03,190.28 86.12,186.38 91.17,181.81
             91.17,181.81 95.75,186.19 95.75,186.19
             90.70,191.12 85.46,195.37 80.05,198.94
             83.89,202.98 88.78,205.90 94.72,207.70
             94.72,207.70 96.59,192.09 96.59,192.09 Z
           M 33.83,170.05
           C 28.02,165.48 21.91,161.48 15.50,158.03
             15.50,158.03 19.50,152.17 19.50,152.17
             22.61,153.71 25.80,155.55 29.05,157.67
             32.30,159.79 35.27,161.95 37.95,164.14
             37.95,164.14 33.83,170.05 33.83,170.05 Z
           M 16.55,209.67
           C 22.58,201.51 27.61,191.46 31.66,179.55
             31.66,179.55 38.11,182.30 38.11,182.30
             36.37,187.71 34.13,193.32 31.39,199.11
             28.65,204.90 25.69,210.08 22.50,214.64
             22.50,214.64 16.55,209.67 16.55,209.67 Z
           M 175.50,204.55
           C 184.91,204.55 194.24,203.55 203.47,201.55
             203.47,201.55 204.75,208.64 204.75,208.64
             194.89,210.84 185.14,211.94 175.50,211.94
             165.95,211.94 158.77,210.54 153.95,207.73
             149.15,204.92 146.75,200.75 146.75,195.20
             146.75,190.15 148.80,186.12 152.92,183.12
             157.05,180.12 162.79,178.61 170.14,178.61
             179.88,178.61 188.02,181.20 194.55,186.39
             194.55,186.39 194.95,186.05 194.95,186.05
             192.10,181.55 189.12,176.02 186.03,169.45
             177.83,170.20 169.48,170.58 160.98,170.58
             153.20,170.58 147.03,170.45 142.47,170.19
             142.47,170.19 142.67,162.70 142.67,162.70
             148.41,163.04 154.45,163.20 160.78,163.20
             167.77,163.20 175.07,162.89 182.69,162.27
             181.01,158.39 179.52,154.80 178.20,151.48
             171.02,152.01 165.62,152.27 162.02,152.27
             155.71,152.27 150.00,152.17 144.88,151.97
             144.88,151.97 145.08,144.59 145.08,144.59
             148.52,144.79 154.10,144.89 161.81,144.89
             164.70,144.89 169.26,144.73 175.50,144.39
             174.41,141.34 173.17,137.66 171.77,133.36
             171.77,133.36 179.05,131.59 179.05,131.59
             180.16,135.21 181.55,139.30 183.23,143.86
             193.17,142.90 201.88,141.77 209.38,140.45
             209.38,140.45 210.27,147.73 210.27,147.73
             202.55,148.92 194.47,149.96 186.03,150.84
             187.74,154.95 189.29,158.54 190.67,161.62
             198.87,160.80 206.53,159.73 213.66,158.42
             213.66,158.42 214.59,165.70 214.59,165.70
             208.55,166.83 201.69,167.84 194.02,168.72
             197.69,176.20 201.19,182.68 204.50,188.16
             204.50,188.16 198.69,191.70 198.69,191.70
             191.27,187.73 182.13,185.75 171.27,185.75
             165.85,185.75 161.79,186.55 159.08,188.14
             156.37,189.73 155.02,192.04 155.02,195.09
             155.02,201.40 161.84,204.55 175.50,204.55 Z
           M 313.14,129.83
           C 313.14,129.83 313.14,135.14 313.14,135.14
             313.14,135.14 337.36,135.14 337.36,135.14
             337.36,135.14 337.36,141.30 337.36,141.30
             337.36,141.30 313.14,141.30 313.14,141.30
             313.14,141.30 313.14,146.47 313.14,146.47
             313.14,146.47 306.11,146.47 306.11,146.47
             306.11,146.47 306.11,141.30 306.11,141.30
             306.11,141.30 282.47,141.30 282.47,141.30
             282.47,141.30 282.47,146.47 282.47,146.47
             282.47,146.47 275.53,146.47 275.53,146.47
             275.53,146.47 275.53,141.30 275.53,141.30
             275.53,141.30 252.69,141.30 252.69,141.30
             252.69,141.30 252.69,135.14 252.69,135.14
             252.69,135.14 275.53,135.14 275.53,135.14
             275.53,135.14 275.53,129.83 275.53,129.83
             275.53,129.83 282.47,129.83 282.47,129.83
             282.47,129.83 282.47,135.14 282.47,135.14
             282.47,135.14 306.11,135.14 306.11,135.14
             306.11,135.14 306.11,129.83 306.11,129.83
             306.11,129.83 313.14,129.83 313.14,129.83 Z
           M 258.30,167.14
           C 258.30,167.14 258.30,148.78 258.30,148.78
             258.30,148.78 331.86,148.78 331.86,148.78
             331.86,148.78 331.86,167.14 331.86,167.14
             331.86,167.14 258.30,167.14 258.30,167.14 Z
           M 280.61,154.30
           C 280.61,154.30 265.14,154.30 265.14,154.30
             265.14,154.30 265.14,161.62 265.14,161.62
             265.14,161.62 280.61,161.62 280.61,161.62
             280.61,161.62 280.61,154.30 280.61,154.30 Z
           M 302.36,161.62
           C 302.36,161.62 302.36,154.30 302.36,154.30
             302.36,154.30 286.95,154.30 286.95,154.30
             286.95,154.30 286.95,161.62 286.95,161.62
             286.95,161.62 302.36,161.62 302.36,161.62 Z
           M 308.67,161.62
           C 308.67,161.62 325.02,161.62 325.02,161.62
             325.02,161.62 325.02,154.30 325.02,154.30
             325.02,154.30 308.67,154.30 308.67,154.30
             308.67,154.30 308.67,161.62 308.67,161.62 Z
           M 254.95,187.91
           C 254.95,187.91 254.95,172.66 254.95,172.66
             254.95,172.66 335.20,172.66 335.20,172.66
             335.20,172.66 335.20,187.91 335.20,187.91
             335.20,187.91 328.20,187.91 328.20,187.91
             328.20,187.91 328.20,178.47 328.20,178.47
             328.20,178.47 295.38,178.47 295.38,178.47
             293.73,180.70 291.69,182.81 289.27,184.81
             289.27,184.81 322.20,184.81 322.20,184.81
             322.20,184.81 322.20,189.59 322.20,189.59
             319.90,193.40 316.13,197.07 310.89,200.62
             305.66,204.17 298.86,207.28 290.48,209.97
             282.12,212.66 272.39,214.59 261.30,215.78
             261.30,215.78 259.33,209.67 259.33,209.67
             269.77,208.62 279.09,206.85 287.30,204.36
             284.18,201.43 280.82,198.59 277.20,195.84
             277.20,195.84 282.38,192.55 282.38,192.55
             286.22,195.37 290.07,198.55 293.94,202.09
             302.31,198.88 308.71,194.95 313.14,190.33
             313.14,190.33 281.48,190.33 281.48,190.33
             275.58,193.87 268.95,196.78 261.59,199.05
             261.59,199.05 258.80,193.42 258.80,193.42
             271.63,189.62 281.13,184.64 287.30,178.47
             287.30,178.47 261.94,178.47 261.94,178.47
             261.94,178.47 261.94,187.91 261.94,187.91
             261.94,187.91 254.95,187.91 254.95,187.91 Z
           M 446.84,192.55
           C 446.84,192.55 454.03,194.41 454.03,194.41
             454.03,194.41 454.03,205.19 454.03,205.19
             454.03,207.55 453.49,209.27 452.41,210.33
             451.32,211.40 449.57,211.94 447.14,211.94
             447.14,211.94 428.78,211.94 428.78,211.94
             425.16,211.94 422.63,211.27 421.17,209.92
             419.71,208.58 418.98,206.28 418.98,203.03
             418.98,203.03 418.98,186.58 418.98,186.58
             418.98,186.58 404.75,186.58 404.75,186.58
             404.06,192.07 402.52,196.54 400.12,200.00
             397.73,203.46 394.30,206.28 389.83,208.45
             385.37,210.64 379.40,212.60 371.92,214.34
             371.92,214.34 369.31,207.50 369.31,207.50
             376.30,205.90 381.65,204.27 385.36,202.61
             389.07,200.95 391.82,198.91 393.62,196.48
             395.44,194.06 396.66,190.76 397.28,186.58
             397.28,186.58 379.89,186.58 379.89,186.58
             379.89,186.58 379.89,132.33 379.89,132.33
             379.89,132.33 446.20,132.33 446.20,132.33
             446.20,132.33 446.20,186.58 446.20,186.58
             446.20,186.58 426.47,186.58 426.47,186.58
             426.47,186.58 426.47,201.36 426.47,201.36
             426.47,202.80 426.73,203.81 427.25,204.41
             427.78,205.00 428.85,205.30 430.45,205.30
             430.45,205.30 446.84,205.30 446.84,205.30
             446.84,205.30 446.84,192.55 446.84,192.55 Z
           M 438.78,148.23
           C 438.78,148.23 438.78,138.78 438.78,138.78
             438.78,138.78 387.28,138.78 387.28,138.78
             387.28,138.78 387.28,148.23 387.28,148.23
             387.28,148.23 438.78,148.23 438.78,148.23 Z
           M 387.28,163.64
           C 387.28,163.64 438.78,163.64 438.78,163.64
             438.78,163.64 438.78,154.30 438.78,154.30
             438.78,154.30 387.28,154.30 387.28,154.30
             387.28,154.30 387.28,163.64 387.28,163.64 Z
           M 438.78,169.84
           C 438.78,169.84 387.28,169.84 387.28,169.84
             387.28,169.84 387.28,180.14 387.28,180.14
             387.28,180.14 438.78,180.14 438.78,180.14
             438.78,180.14 438.78,169.84 438.78,169.84 Z
           M 507.98,133.27
           C 507.98,133.27 516.50,133.56 516.50,133.56
             516.50,133.56 513.94,181.81 513.94,181.81
             513.94,181.81 513.84,184.17 513.84,184.17
             513.84,190.41 515.24,195.01 518.05,197.97
             520.86,200.92 524.99,202.39 530.44,202.39
             537.43,202.39 543.18,199.98 547.69,195.16
             552.21,190.32 555.74,182.66 558.30,172.16
             558.30,172.16 566.23,174.52 566.23,174.52
             563.57,186.23 559.24,195.17 553.25,201.31
             547.26,207.45 539.69,210.52 530.53,210.52
             522.36,210.52 516.13,208.36 511.84,204.06
             507.56,199.76 505.42,193.21 505.42,184.42
             505.42,183.11 505.46,182.11 505.53,181.42
             505.53,181.42 507.98,133.27 507.98,133.27 Z
           M 558.41,152.27
           C 555.16,146.70 551.84,141.67 548.45,137.20
             548.45,137.20 554.02,134.30 554.02,134.30
             557.98,139.59 561.25,144.58 563.81,149.27
             563.81,149.27 558.41,152.27 558.41,152.27 Z
           M 547.91,157.69
           C 545.05,152.24 541.77,147.18 538.06,142.52
             538.06,142.52 543.62,139.52 543.62,139.52
             547.99,145.33 551.25,150.39 553.42,154.69
             553.42,154.69 547.91,157.69 547.91,157.69 Z
           M 686.98,152.81
           C 686.98,152.81 692.59,154.98 692.59,154.98
             692.59,154.98 692.59,167.05 692.59,167.05
             692.59,169.77 692.11,171.61 691.16,172.58
             690.21,173.55 688.47,174.03 685.95,174.03
             685.95,174.03 682.20,174.03 682.20,174.03
             679.19,174.03 677.16,173.43 676.11,172.22
             675.05,171.00 674.53,168.80 674.53,165.61
             674.53,165.61 674.53,145.53 674.53,145.53
             674.53,145.53 665.08,145.53 665.08,145.53
             664.71,152.75 663.38,158.67 661.06,163.28
             658.75,167.89 655.13,172.09 650.20,175.91
             650.20,175.91 646.38,169.55 646.38,169.55
             650.34,166.57 653.30,163.26 655.23,159.61
             657.17,155.96 658.30,151.27 658.62,145.53
             658.62,145.53 649.28,145.53 649.28,145.53
             649.28,145.53 649.28,139.17 649.28,139.17
             649.28,139.17 658.72,139.17 658.72,139.17
             658.72,139.17 658.72,129.62 658.72,129.62
             658.72,129.62 665.17,129.62 665.17,129.62
             665.17,129.62 665.17,139.17 665.17,139.17
             665.17,139.17 681.08,139.17 681.08,139.17
             681.08,139.17 681.08,164.58 681.08,164.58
             681.08,165.89 681.25,166.76 681.59,167.17
             681.94,167.58 682.73,167.78 683.98,167.78
             683.98,167.78 686.98,167.78 686.98,167.78
             686.98,167.78 686.98,152.81 686.98,152.81 Z
           M 618.84,138.69
           C 618.84,138.69 606.44,138.69 606.44,138.69
             606.44,138.69 606.44,132.53 606.44,132.53
             606.44,132.53 646.17,132.53 646.17,132.53
             646.17,132.53 646.17,138.69 646.17,138.69
             646.17,138.69 634.11,138.69 634.11,138.69
             634.11,138.69 634.11,149.36 634.11,149.36
             634.11,149.36 643.86,149.36 643.86,149.36
             643.86,149.36 643.86,209.58 643.86,209.58
             643.86,209.58 615.11,209.58 615.11,209.58
             615.11,209.58 615.11,215.39 615.11,215.39
             615.11,215.39 609.05,215.39 609.05,215.39
             609.05,215.39 609.05,149.36 609.05,149.36
             609.05,149.36 618.84,149.36 618.84,149.36
             618.84,149.36 618.84,138.69 618.84,138.69 Z
           M 624.47,149.36
           C 624.47,149.36 628.50,149.36 628.50,149.36
             628.50,149.36 628.50,138.69 628.50,138.69
             628.50,138.69 624.47,138.69 624.47,138.69
             624.47,138.69 624.47,149.36 624.47,149.36 Z
           M 634.20,178.61
           C 632.27,178.61 630.83,178.11 629.89,177.09
             628.96,176.07 628.50,174.46 628.50,172.27
             628.50,172.27 628.50,155.12 628.50,155.12
             628.50,155.12 624.47,155.12 624.47,155.12
             624.47,161.49 624.02,166.99 623.11,171.62
             622.20,176.25 620.60,180.27 618.31,183.69
             618.31,183.69 615.11,180.23 615.11,180.23
             615.11,180.23 615.11,187.72 615.11,187.72
             615.11,187.72 637.95,187.72 637.95,187.72
             637.95,187.72 637.95,178.61 637.95,178.61
             637.95,178.61 634.20,178.61 634.20,178.61 Z
           M 619.69,155.12
           C 619.69,155.12 615.11,155.12 615.11,155.12
             615.11,155.12 615.11,178.36 615.11,178.36
             616.82,175.67 618.00,172.43 618.67,168.62
             619.35,164.81 619.69,160.51 619.69,155.72
             619.69,155.72 619.69,155.12 619.69,155.12 Z
           M 637.95,173.00
           C 637.95,173.00 637.95,155.12 637.95,155.12
             637.95,155.12 633.28,155.12 633.28,155.12
             633.28,155.12 633.28,170.05 633.28,170.05
             633.28,171.23 633.45,172.01 633.80,172.41
             634.14,172.80 634.80,173.00 635.78,173.00
             635.78,173.00 637.95,173.00 637.95,173.00 Z
           M 664.78,169.55
           C 664.78,169.55 671.62,169.55 671.62,169.55
             671.62,169.55 671.62,183.78 671.62,183.78
             671.62,183.78 691.61,183.78 691.61,183.78
             691.61,183.78 691.61,190.62 691.61,190.62
             691.61,190.62 671.62,190.62 671.62,190.62
             671.62,190.62 671.62,215.28 671.62,215.28
             671.62,215.28 664.78,215.28 664.78,215.28
             664.78,215.28 664.78,190.62 664.78,190.62
             664.78,190.62 646.81,190.62 646.81,190.62
             646.81,190.62 646.81,183.78 646.81,183.78
             646.81,183.78 664.78,183.78 664.78,183.78
             664.78,183.78 664.78,169.55 664.78,169.55 Z
           M 615.11,193.53
           C 615.11,193.53 615.11,203.33 615.11,203.33
             615.11,203.33 637.95,203.33 637.95,203.33
             637.95,203.33 637.95,193.53 637.95,193.53
             637.95,193.53 615.11,193.53 615.11,193.53 Z
           M 761.86,210.06
           C 755.85,210.06 750.63,208.91 746.20,206.59
             741.77,204.28 738.38,200.96 736.02,196.62
             733.65,192.29 732.47,187.19 732.47,181.31
             732.47,173.54 734.70,166.45 739.16,160.03
             743.62,153.62 749.57,148.71 756.98,145.33
             756.98,145.33 756.98,144.78 756.98,144.78
             756.98,144.78 730.16,144.78 730.16,144.78
             730.16,144.78 730.16,137.45 730.16,137.45
             730.16,137.45 763.62,137.45 763.62,137.45
             763.62,137.45 764.17,144.50 764.17,144.50
             762.80,145.42 761.09,146.70 759.05,148.33
             746.68,157.85 740.50,168.77 740.50,181.08
             740.50,187.73 742.38,192.92 746.16,196.62
             749.93,200.34 755.19,202.19 761.95,202.19
             769.24,202.19 774.85,199.85 778.77,195.17
             782.69,190.50 784.66,183.86 784.66,175.27
             784.66,165.00 781.60,153.64 775.50,141.19
             775.50,141.19 782.44,136.81 782.44,136.81
             787.29,142.75 791.82,147.86 796.02,152.12
             800.22,156.39 804.58,160.45 809.08,164.33
             809.08,164.33 803.86,170.05 803.86,170.05
             796.54,163.61 789.95,156.87 784.11,149.81
             784.11,149.81 783.62,150.20 783.62,150.20
             789.43,160.41 792.33,170.32 792.33,179.94
             792.33,185.84 791.08,191.08 788.58,195.64
             786.09,200.20 782.55,203.75 777.97,206.28
             773.39,208.80 768.02,210.06 761.86,210.06 Z
           M 916.98,169.55
           C 918.16,172.48 919.08,175.48 919.73,178.56
             920.39,181.65 920.72,184.53 920.72,187.22
             920.72,194.91 918.36,200.71 913.66,204.64
             908.95,208.55 901.91,210.52 892.56,210.52
             883.70,210.52 877.05,208.85 872.61,205.52
             868.18,202.18 865.97,197.02 865.97,190.03
             865.97,188.36 866.04,187.04 866.17,186.09
             866.17,186.09 867.11,177.42 867.11,177.42
             859.89,177.04 853.93,176.46 849.23,175.70
             849.23,175.70 850.03,168.31 850.03,168.31
             856.00,169.27 861.94,169.85 867.84,170.05
             867.84,170.05 869.56,154.48 869.56,154.48
             862.51,154.20 855.86,153.57 849.62,152.61
             849.62,152.61 850.38,145.23 850.38,145.23
             856.05,146.12 862.73,146.78 870.41,147.20
             870.41,147.20 871.98,131.84 871.98,131.84
             871.98,131.84 879.95,132.53 879.95,132.53
             879.95,132.53 878.33,147.30 878.33,147.30
             890.24,147.16 899.32,146.72 905.56,145.97
             905.56,145.97 905.95,153.45 905.95,153.45
             899.85,154.14 890.39,154.55 877.59,154.69
             877.59,154.69 875.92,170.09 875.92,170.09
             885.70,169.99 894.16,169.66 901.28,169.11
             901.28,169.11 901.52,176.50 901.52,176.50
             894.66,177.05 885.85,177.40 875.08,177.53
             875.08,177.53 874.14,186.48 874.14,186.48
             874.02,187.86 873.95,188.83 873.95,189.39
             873.95,194.12 875.44,197.54 878.42,199.64
             881.41,201.73 886.12,202.78 892.56,202.78
             899.41,202.78 904.47,201.52 907.72,199.00
             910.97,196.47 912.59,192.45 912.59,186.92
             912.59,182.40 911.43,177.17 909.11,171.22
             909.11,171.22 916.98,169.55 916.98,169.55 Z
           M 1003.08,202.00
           C 1014.04,202.00 1024.26,201.13 1033.75,199.39
             1033.75,199.39 1034.58,207.06 1034.58,207.06
             1024.54,208.86 1014.04,209.77 1003.08,209.77
             995.27,209.77 989.60,208.33 986.09,205.47
             982.58,202.59 980.86,197.66 980.92,190.67
             980.92,190.67 981.02,161.72 981.02,161.72
             981.02,161.72 963.05,162.36 963.05,162.36
             963.05,162.36 962.75,154.58 962.75,154.58
             962.75,154.58 981.02,154.05 981.02,154.05
             981.02,154.05 981.12,134.75 981.12,134.75
             981.12,134.75 989.05,134.75 989.05,134.75
             989.05,134.75 988.95,153.84 988.95,153.84
             988.95,153.84 1018.53,153.11 1018.53,153.11
             1018.41,144.25 1018.27,137.76 1018.14,133.66
             1018.14,133.66 1025.83,133.56 1025.83,133.56
             1026.05,141.77 1026.20,148.22 1026.27,152.91
             1026.27,152.91 1044.44,152.42 1044.44,152.42
             1044.44,152.42 1044.53,160.00 1044.53,160.00
             1044.53,160.00 1026.36,160.50 1026.36,160.50
             1026.36,160.50 1026.36,163.30 1026.36,163.30
             1026.49,170.39 1026.56,174.97 1026.56,177.03
             1026.56,179.66 1026.25,181.67 1025.62,183.06
             1025.00,184.46 1023.98,185.45 1022.56,186.02
             1021.16,186.59 1019.19,186.88 1016.67,186.88
             1013.48,186.88 1008.08,186.43 1000.47,185.55
             1000.47,185.55 1000.81,178.06 1000.81,178.06
             1001.70,178.20 1002.35,178.27 1002.78,178.27
             1009.71,179.02 1013.93,179.39 1015.44,179.39
             1016.84,179.39 1017.75,179.19 1018.16,178.78
             1018.57,178.38 1018.78,177.38 1018.78,175.80
             1018.78,169.40 1018.75,164.37 1018.69,160.69
             1018.69,160.69 988.95,161.53 988.95,161.53
             988.95,161.53 988.84,190.33 988.84,190.33
             988.78,194.76 989.84,197.81 992.02,199.48
             994.20,201.16 997.89,202.00 1003.08,202.00 Z
           M 1159.72,125.59
           C 1162.38,130.51 1164.55,135.15 1166.27,139.52
             1166.27,139.52 1160.47,141.78 1160.47,141.78
             1158.16,135.98 1155.98,131.34 1153.91,127.86
             1153.91,127.86 1159.72,125.59 1159.72,125.59 Z
           M 1148.41,143.66
           C 1146.53,138.67 1144.38,134.06 1141.95,129.83
             1141.95,129.83 1147.91,127.56 1147.91,127.56
             1150.24,131.93 1152.36,136.57 1154.27,141.48
             1154.27,141.48 1148.41,143.66 1148.41,143.66 Z
           M 1130.72,132.88
           C 1130.72,132.88 1130.72,145.62 1130.72,145.62
             1130.72,145.62 1160.27,145.62 1160.27,145.62
             1160.27,145.62 1160.27,152.81 1160.27,152.81
             1160.27,152.81 1130.72,152.81 1130.72,152.81
             1130.72,152.81 1130.72,170.69 1130.72,170.69
             1132.27,174.86 1133.05,179.35 1133.05,184.17
             1133.05,202.20 1123.10,211.56 1103.20,212.28
             1103.20,212.28 1101.62,204.45 1101.62,204.45
             1109.94,204.13 1115.98,202.38 1119.77,199.19
             1123.55,196.00 1125.55,191.18 1125.75,184.72
             1125.75,184.72 1125.22,184.72 1125.22,184.72
             1124.20,187.01 1122.64,188.78 1120.56,190.03
             1118.48,191.28 1116.05,191.91 1113.30,191.91
             1110.67,191.91 1108.26,191.30 1106.06,190.09
             1103.86,188.88 1102.11,187.09 1100.80,184.72
             1099.48,182.36 1098.83,179.52 1098.83,176.20
             1098.83,172.88 1099.48,170.01 1100.80,167.58
             1102.11,165.15 1103.86,163.30 1106.06,162.02
             1108.26,160.73 1110.74,160.09 1113.50,160.09
             1115.36,160.09 1117.11,160.41 1118.73,161.03
             1120.36,161.66 1121.60,162.51 1122.45,163.59
             1122.45,163.59 1122.95,163.59 1122.95,163.59
             1122.95,163.59 1122.95,152.81 1122.95,152.81
             1122.95,152.81 1080.41,152.81 1080.41,152.81
             1080.41,152.81 1080.41,145.62 1080.41,145.62
             1080.41,145.62 1122.95,145.62 1122.95,145.62
             1122.95,145.62 1122.95,132.88 1122.95,132.88
             1122.95,132.88 1130.72,132.88 1130.72,132.88 Z
           M 1114.92,184.72
           C 1117.42,184.72 1119.52,183.89 1121.22,182.23
             1122.93,180.57 1123.91,178.42 1124.17,175.80
             1123.98,173.37 1123.02,171.32 1121.30,169.66
             1119.58,167.98 1117.50,167.14 1115.08,167.14
             1112.48,167.14 1110.43,167.92 1108.92,169.48
             1107.41,171.04 1106.66,173.21 1106.66,176.00
             1106.66,178.76 1107.41,180.91 1108.92,182.44
             1110.43,183.96 1112.43,184.72 1114.92,184.72 Z" />
</svg>
