<?xml version="1.0" encoding="UTF-8" standalone="no"?>
<!DOCTYPE svg PUBLIC "-//W3C//DTD SVG 20010904//EN"
              "http://www.w3.org/TR/2001/REC-SVG-20010904/DTD/svg10.dtd">

<svg xmlns="http://www.w3.org/2000/svg"
     width="4.26667in" height="0.8in"
     viewBox="0 0 1280 240">
  <path fill="#6a6a6a" d="M 92.20,27.75
           C 92.20,27.75 25.94,27.75 25.94,27.75
             25.94,27.75 25.94,41.09 25.94,41.09
             25.94,41.09 18.75,41.09 18.75,41.09
             18.75,41.09 18.75,21.02 18.75,21.02
             18.75,21.02 54.59,21.02 54.59,21.02
             54.59,21.02 54.59,10.72 54.59,10.72
             54.59,10.72 62.08,10.72 62.08,10.72
             62.08,10.72 62.08,21.02 62.08,21.02
             62.08,21.02 99.39,21.02 99.39,21.02
             99.39,21.02 99.39,41.09 99.39,41.09
             99.39,41.09 92.20,41.09 92.20,41.09
             92.20,41.09 92.20,27.75 92.20,27.75 Z
           M 101.17,60.73
           C 101.17,60.73 101.17,67.48 101.17,67.48
             101.17,67.48 63.22,67.48 63.22,67.48
             63.22,67.48 63.22,87.12 63.22,87.12
             63.22,89.75 62.62,91.69 61.42,92.94
             60.22,94.19 58.23,94.81 55.44,94.81
             55.44,94.81 38.20,94.81 38.20,94.81
             38.20,94.81 36.23,87.88 36.23,87.88
             36.23,87.88 55.83,87.88 55.83,87.88
             55.83,87.88 55.83,67.48 55.83,67.48
             55.83,67.48 16.98,67.48 16.98,67.48
             16.98,67.48 16.98,60.73 16.98,60.73
             16.98,60.73 55.83,60.73 55.83,60.73
             55.83,60.73 55.83,53.66 55.83,53.66
             64.36,50.47 71.05,46.91 75.91,42.97
             75.91,42.97 31.56,42.97 31.56,42.97
             31.56,42.97 31.56,36.52 31.56,36.52
             31.56,36.52 85.66,36.52 85.66,36.52
             85.66,36.52 85.66,42.88 85.66,42.88
             80.21,48.62 72.73,53.42 63.22,57.30
             63.22,57.30 63.22,60.73 63.22,60.73
             63.22,60.73 101.17,60.73 101.17,60.73 Z
           M 155.12,10.33
           C 155.12,10.33 155.12,25.30 155.12,25.30
             155.12,25.30 167.23,25.30 167.23,25.30
             167.23,25.30 167.23,72.91 167.23,72.91
             167.23,75.23 166.80,76.84 165.92,77.75
             165.05,78.66 163.44,79.11 161.08,79.11
             161.08,79.11 158.17,79.11 158.17,79.11
             158.17,79.11 156.59,72.16 156.59,72.16
             156.59,72.16 161.28,72.16 161.28,72.16
             161.28,72.16 161.28,31.75 161.28,31.75
             161.28,31.75 155.12,31.75 155.12,31.75
             155.12,31.75 155.12,96.58 155.12,96.58
             155.12,96.58 148.81,96.58 148.81,96.58
             148.81,96.58 148.81,31.75 148.81,31.75
             148.81,31.75 143.11,31.75 143.11,31.75
             143.11,31.75 143.11,80.14 143.11,80.14
             143.11,80.14 137.05,80.14 137.05,80.14
             137.05,80.14 137.05,25.30 137.05,25.30
             137.05,25.30 148.81,25.30 148.81,25.30
             148.81,25.30 148.81,10.33 148.81,10.33
             148.81,10.33 155.12,10.33 155.12,10.33 Z
           M 169.30,19.48
           C 169.30,19.48 169.30,13.53 169.30,13.53
             169.30,13.53 220.00,13.53 220.00,13.53
             220.00,13.53 220.00,19.48 220.00,19.48
             220.00,19.48 169.30,19.48 169.30,19.48 Z
           M 174.72,46.52
           C 174.72,46.52 174.72,25.50 174.72,25.50
             174.72,25.50 213.86,25.50 213.86,25.50
             213.86,25.50 213.86,46.52 213.86,46.52
             213.86,46.52 174.72,46.52 174.72,46.52 Z
           M 181.22,40.86
           C 181.22,40.86 207.31,40.86 207.31,40.86
             207.31,40.86 207.31,31.20 207.31,31.20
             207.31,31.20 181.22,31.20 181.22,31.20
             181.22,31.20 181.22,40.86 181.22,40.86 Z
           M 178.31,96.09
           C 178.31,96.09 171.95,96.09 171.95,96.09
             171.95,96.09 171.95,52.91 171.95,52.91
             171.95,52.91 216.86,52.91 216.86,52.91
             216.86,52.91 216.86,96.09 216.86,96.09
             216.86,96.09 210.36,96.09 210.36,96.09
             210.36,96.09 210.36,91.06 210.36,91.06
             210.36,91.06 178.31,91.06 178.31,91.06
             178.31,91.06 178.31,96.09 178.31,96.09 Z
           M 191.11,68.62
           C 191.11,68.62 191.11,58.58 191.11,58.58
             191.11,58.58 178.31,58.58 178.31,58.58
             178.31,58.58 178.31,68.62 178.31,68.62
             178.31,68.62 191.11,68.62 191.11,68.62 Z
           M 197.16,68.62
           C 197.16,68.62 210.36,68.62 210.36,68.62
             210.36,68.62 210.36,58.58 210.36,58.58
             210.36,58.58 197.16,58.58 197.16,58.58
             197.16,58.58 197.16,68.62 197.16,68.62 Z
           M 191.11,74.23
           C 191.11,74.23 178.31,74.23 178.31,74.23
             178.31,74.23 178.31,85.27 178.31,85.27
             178.31,85.27 191.11,85.27 191.11,85.27
             191.11,85.27 191.11,74.23 191.11,74.23 Z
           M 197.16,74.23
           C 197.16,74.23 197.16,85.27 197.16,85.27
             197.16,85.27 210.36,85.27 210.36,85.27
             210.36,85.27 210.36,74.23 210.36,74.23
             210.36,74.23 197.16,74.23 197.16,74.23 Z
           M 302.56,85.75
           C 311.03,85.75 319.66,85.03 328.45,83.58
             328.45,83.58 329.48,90.97 329.48,90.97
             319.90,92.34 310.96,93.03 302.66,93.03
             293.79,93.03 287.19,91.77 282.86,89.23
             278.54,86.71 276.38,82.83 276.38,77.58
             276.38,72.92 278.43,68.73 282.55,64.98
             286.66,61.23 293.30,57.85 302.47,54.83
             302.04,52.11 301.06,50.11 299.53,48.83
             298.01,47.55 295.90,46.91 293.20,46.91
             290.21,46.91 286.95,47.73 283.42,49.39
             279.90,51.05 276.37,53.44 272.83,56.56
             271.32,57.88 269.97,59.26 268.78,60.72
             267.60,62.18 265.55,64.88 262.64,68.81
             262.64,68.81 256.33,64.39 256.33,64.39
             260.63,58.67 264.37,53.13 267.55,47.77
             270.73,42.40 273.54,36.85 275.97,31.11
             269.18,31.04 262.97,30.84 257.36,30.52
             257.36,30.52 257.66,23.33 257.66,23.33
             264.26,23.73 271.33,23.92 278.88,23.92
             279.96,21.10 281.30,17.23 282.92,12.30
             282.92,12.30 290.80,13.67 290.80,13.67
             289.29,18.31 288.12,21.73 287.30,23.92
             300.46,23.65 312.44,23.03 323.23,22.05
             323.23,22.05 323.69,29.23 323.69,29.23
             311.21,30.35 298.14,30.98 284.50,31.11
             281.25,39.02 277.95,45.59 274.59,50.84
             274.59,50.84 275.14,51.19 275.14,51.19
             278.02,47.65 281.27,44.89 284.88,42.92
             288.49,40.95 292.16,39.97 295.91,39.97
             299.58,39.97 302.66,41.06 305.16,43.25
             307.66,45.43 309.32,48.55 310.14,52.62
             316.24,51.01 324.00,49.35 333.42,47.64
             333.42,47.64 334.66,54.83 334.66,54.83
             325.10,56.54 317.11,58.26 310.69,60.00
             310.69,67.29 310.54,73.09 310.23,77.38
             310.23,77.38 302.27,77.58 302.27,77.58
             302.66,73.08 302.86,67.99 302.86,62.31
             296.36,64.59 291.64,66.93 288.72,69.36
             285.80,71.79 284.34,74.41 284.34,77.23
             284.34,80.35 285.73,82.55 288.50,83.83
             291.28,85.11 295.97,85.75 302.56,85.75 Z
           M 456.41,83.78
           C 456.41,83.78 456.41,90.48 456.41,90.48
             456.41,90.48 417.02,90.48 417.02,90.48
             417.02,90.48 417.02,96.09 417.02,96.09
             417.02,96.09 410.38,96.09 410.38,96.09
             410.38,96.09 410.38,40.56 410.38,40.56
             409.61,41.74 408.43,43.37 406.83,45.44
             406.83,45.44 402.59,40.06 402.59,40.06
             405.97,36.09 409.01,31.45 411.72,26.11
             414.43,20.78 416.65,15.39 418.39,9.94
             418.39,9.94 424.59,11.91 424.59,11.91
             423.22,16.47 421.56,20.75 419.62,24.75
             419.62,24.75 432.08,24.75 432.08,24.75
             434.58,19.99 436.48,15.21 437.80,10.42
             437.80,10.42 444.14,12.09 444.14,12.09
             442.69,16.79 440.97,21.01 438.97,24.75
             438.97,24.75 455.56,24.75 455.56,24.75
             455.56,24.75 455.56,31.50 455.56,31.50
             455.56,31.50 437.69,31.50 437.69,31.50
             437.69,31.50 437.69,44.09 437.69,44.09
             437.69,44.09 453.30,44.09 453.30,44.09
             453.30,44.09 453.30,50.45 453.30,50.45
             453.30,50.45 437.69,50.45 437.69,50.45
             437.69,50.45 437.69,63.20 437.69,63.20
             437.69,63.20 453.30,63.20 453.30,63.20
             453.30,63.20 453.30,69.55 453.30,69.55
             453.30,69.55 437.69,69.55 437.69,69.55
             437.69,69.55 437.69,83.78 437.69,83.78
             437.69,83.78 456.41,83.78 456.41,83.78 Z
           M 400.28,40.16
           C 402.45,45.22 404.56,51.59 406.62,59.27
             406.62,59.27 401.11,61.44 401.11,61.44
             401.11,61.44 399.78,56.45 399.78,56.45
             397.98,56.76 395.34,57.11 391.86,57.50
             391.86,57.50 391.86,96.09 391.86,96.09
             391.86,96.09 385.11,96.09 385.11,96.09
             385.11,96.09 385.11,58.12 385.11,58.12
             379.14,58.62 373.74,58.98 368.92,59.17
             368.92,59.17 368.28,52.72 368.28,52.72
             372.51,52.59 375.69,52.45 377.83,52.33
             380.25,49.28 382.48,46.16 384.52,42.97
             380.97,38.67 376.15,33.75 370.05,28.20
             370.05,28.20 374.09,23.03 374.09,23.03
             374.22,23.17 375.55,24.41 378.08,26.77
             381.19,21.62 383.91,16.11 386.25,10.23
             386.25,10.23 392.30,12.84 392.30,12.84
             389.32,19.64 386.09,25.79 382.61,31.30
             382.61,31.30 388.11,37.36 388.11,37.36
             391.23,32.37 394.32,26.73 397.38,20.42
             397.38,20.42 403.23,23.62 403.23,23.62
             400.58,28.88 397.70,33.98 394.61,38.94
             391.52,43.89 388.51,48.20 385.56,51.88
             391.07,51.36 395.25,50.95 398.11,50.66
             397.13,47.53 396.10,44.76 395.02,42.33
             395.02,42.33 400.28,40.16 400.28,40.16 Z
           M 417.02,44.09
           C 417.02,44.09 431.14,44.09 431.14,44.09
             431.14,44.09 431.14,31.50 431.14,31.50
             431.14,31.50 417.02,31.50 417.02,31.50
             417.02,31.50 417.02,44.09 417.02,44.09 Z
           M 417.02,63.20
           C 417.02,63.20 431.14,63.20 431.14,63.20
             431.14,63.20 431.14,50.45 431.14,50.45
             431.14,50.45 417.02,50.45 417.02,50.45
             417.02,50.45 417.02,63.20 417.02,63.20 Z
           M 400.62,63.75
           C 402.95,70.28 404.79,77.32 406.14,84.86
             406.14,84.86 400.08,87.12 400.08,87.12
             399.10,79.65 397.50,72.41 395.30,65.42
             395.30,65.42 400.62,63.75 400.62,63.75 Z
           M 368.92,88.27
           C 372.10,81.08 374.24,73.01 375.36,64.05
             375.36,64.05 381.17,65.17 381.17,65.17
             379.86,75.87 377.68,84.71 374.62,91.70
             374.62,91.70 368.92,88.27 368.92,88.27 Z
           M 431.14,69.55
           C 431.14,69.55 417.02,69.55 417.02,69.55
             417.02,69.55 417.02,83.78 417.02,83.78
             417.02,83.78 431.14,83.78 431.14,83.78
             431.14,83.78 431.14,69.55 431.14,69.55 Z
           M 507.16,10.33
           C 507.16,10.33 507.16,27.17 507.16,27.17
             507.16,27.17 517.05,27.17 517.05,27.17
             517.05,27.17 517.05,33.91 517.05,33.91
             517.05,33.91 507.16,33.91 507.16,33.91
             507.16,33.91 507.16,54.09 507.16,54.09
             510.01,53.12 512.93,52.03 515.91,50.84
             515.91,50.84 516.95,57.30 516.95,57.30
             514.79,58.21 511.52,59.50 507.16,61.14
             507.16,61.14 507.16,87.77 507.16,87.77
             507.16,90.39 506.62,92.25 505.55,93.34
             504.48,94.45 502.60,95.00 499.91,95.00
             499.91,95.00 491.30,95.00 491.30,95.00
             491.30,95.00 489.38,87.77 489.38,87.77
             489.38,87.77 500.20,87.77 500.20,87.77
             500.20,87.77 500.20,63.34 500.20,63.34
             495.64,64.79 491.75,65.86 488.55,66.55
             488.55,66.55 487.31,59.70 487.31,59.70
             491.54,58.79 495.84,57.67 500.20,56.36
             500.20,56.36 500.20,33.91 500.20,33.91
             500.20,33.91 488.55,33.91 488.55,33.91
             488.55,33.91 488.55,27.17 488.55,27.17
             488.55,27.17 500.20,27.17 500.20,27.17
             500.20,27.17 500.20,10.33 500.20,10.33
             500.20,10.33 507.16,10.33 507.16,10.33 Z
           M 573.70,47.11
           C 573.70,47.11 561.31,47.11 561.31,47.11
             561.31,47.11 561.31,58.67 561.31,58.67
             561.31,58.67 572.78,58.67 572.78,58.67
             572.78,58.67 572.78,65.31 572.78,65.31
             572.78,65.31 561.31,65.31 561.31,65.31
             561.31,65.31 561.31,88.06 561.31,88.06
             561.31,90.62 560.74,92.48 559.61,93.62
             558.47,94.77 556.62,95.34 554.06,95.34
             554.06,95.34 540.23,95.34 540.23,95.34
             540.23,95.34 538.27,88.61 538.27,88.61
             538.27,88.61 554.27,88.61 554.27,88.61
             554.27,88.61 554.27,65.31 554.27,65.31
             554.27,65.31 518.62,65.31 518.62,65.31
             518.62,65.31 518.62,58.67 518.62,58.67
             518.62,58.67 554.27,58.67 554.27,58.67
             554.27,58.67 554.27,47.11 554.27,47.11
             554.27,47.11 517.69,47.11 517.69,47.11
             517.69,47.11 517.69,40.45 517.69,40.45
             517.69,40.45 541.27,40.45 541.27,40.45
             541.27,40.45 541.27,28.39 541.27,28.39
             541.27,28.39 520.05,28.39 520.05,28.39
             520.05,28.39 520.05,21.84 520.05,21.84
             520.05,21.84 541.27,21.84 541.27,21.84
             541.27,21.84 541.27,10.33 541.27,10.33
             541.27,10.33 548.31,10.33 548.31,10.33
             548.31,10.33 548.31,21.84 548.31,21.84
             548.31,21.84 571.59,21.84 571.59,21.84
             571.59,21.84 571.59,28.39 571.59,28.39
             571.59,28.39 548.31,28.39 548.31,28.39
             548.31,28.39 548.31,40.45 548.31,40.45
             548.31,40.45 573.70,40.45 573.70,40.45
             573.70,40.45 573.70,47.11 573.70,47.11 Z
           M 530.05,68.42
           C 531.98,70.03 534.05,72.01 536.27,74.36
             538.48,76.70 540.33,78.93 541.81,81.03
             541.81,81.03 536.69,85.45 536.69,85.45
             535.11,83.32 533.24,81.07 531.08,78.72
             528.91,76.36 526.88,74.35 524.97,72.70
             524.97,72.70 530.05,68.42 530.05,68.42 Z
           M 627.27,14.27
           C 627.27,14.27 635.78,14.56 635.78,14.56
             635.78,14.56 633.17,62.81 633.17,62.81
             633.17,62.81 633.08,65.17 633.08,65.17
             633.08,71.41 634.48,76.01 637.28,78.97
             640.09,81.92 644.24,83.39 649.72,83.39
             656.71,83.39 662.47,80.98 667.00,76.16
             671.53,71.32 675.04,63.66 677.53,53.16
             677.53,53.16 685.56,55.52 685.56,55.52
             682.86,67.23 678.52,76.17 672.53,82.31
             666.54,88.45 658.97,91.52 649.81,91.52
             641.64,91.52 635.43,89.36 631.16,85.06
             626.88,80.76 624.75,74.21 624.75,65.42
             624.75,64.11 624.79,63.11 624.86,62.42
             624.86,62.42 627.27,14.27 627.27,14.27 Z
           M 775.89,33.38
           C 769.82,34.09 762.79,34.68 754.81,35.14
             751.01,54.57 745.88,72.96 739.41,90.33
             739.41,90.33 731.44,87.67 731.44,87.67
             737.80,71.73 742.89,54.30 746.70,35.39
             746.70,35.39 737.89,35.48 737.89,35.48
             737.89,35.48 730.06,35.39 730.06,35.39
             730.06,35.39 730.06,28.00 730.06,28.00
             730.06,28.00 738.52,28.09 738.52,28.09
             738.52,28.09 748.08,28.00 748.08,28.00
             748.89,23.64 749.68,18.62 750.44,12.94
             750.44,12.94 758.27,13.88 758.27,13.88
             757.90,16.90 757.23,21.52 756.25,27.75
             762.84,27.49 769.16,26.95 775.20,26.12
             775.20,26.12 775.89,33.38 775.89,33.38 Z
           M 767.56,44.00
           C 779.84,42.26 791.66,41.12 803.02,40.56
             803.02,40.56 803.45,48.05 803.45,48.05
             791.24,48.66 779.56,49.84 768.41,51.58
             768.41,51.58 767.56,44.00 767.56,44.00 Z
           M 806.56,88.45
           C 803.05,89.08 799.25,89.55 795.16,89.88
             791.07,90.21 787.26,90.38 783.72,90.38
             776.43,90.38 770.91,89.12 767.17,86.61
             763.43,84.10 761.56,80.43 761.56,75.61
             761.56,71.08 762.84,66.40 765.41,61.58
             765.41,61.58 772.39,63.84 772.39,63.84
             770.42,68.01 769.44,71.51 769.44,74.33
             769.44,79.95 774.30,82.75 784.02,82.75
             790.74,82.75 797.95,82.09 805.62,80.78
             805.62,80.78 806.56,88.45 806.56,88.45 Z
           M 907.11,27.75
           C 907.11,27.75 907.11,52.00 907.11,52.00
             907.11,52.00 933.69,52.00 933.69,52.00
             933.69,52.00 933.69,58.75 933.69,58.75
             933.69,58.75 907.11,58.75 907.11,58.75
             907.11,58.75 907.11,89.00 907.11,89.00
             907.11,89.00 898.64,89.00 898.64,89.00
             898.64,89.00 898.64,21.00 898.64,21.00
             898.64,21.00 938.56,21.00 938.56,21.00
             938.56,21.00 937.53,27.75 937.53,27.75
             937.53,27.75 907.11,27.75 907.11,27.75 Z
           M 973.53,13.00
           C 975.38,13.00 976.84,13.57 977.94,14.72
             979.04,15.87 979.59,17.27 979.59,18.92
             979.59,20.64 979.04,22.09 977.94,23.25
             976.84,24.42 975.38,25.00 973.53,25.00
             971.79,25.00 970.36,24.42 969.25,23.25
             968.13,22.09 967.58,20.64 967.58,18.92
             967.58,17.27 968.13,15.87 969.25,14.72
             970.36,13.57 971.79,13.00 973.53,13.00 Z
           M 980.14,37.00
           C 980.14,37.00 980.14,82.25 980.14,82.25
             980.14,82.25 994.75,82.25 994.75,82.25
             994.75,82.25 994.75,89.00 994.75,89.00
             994.75,89.00 955.86,89.00 955.86,89.00
             955.86,89.00 955.86,82.25 955.86,82.25
             955.86,82.25 971.86,82.25 971.86,82.25
             971.86,82.25 971.86,43.75 971.86,43.75
             971.86,43.75 956.36,43.75 956.36,43.75
             956.36,43.75 956.36,37.00 956.36,37.00
             956.36,37.00 980.14,37.00 980.14,37.00 Z
           M 1013.39,89.00
           C 1013.39,89.00 1013.39,82.25 1013.39,82.25
             1013.39,82.25 1021.47,82.25 1021.47,82.25
             1021.47,82.25 1021.47,43.00 1021.47,43.00
             1021.47,43.00 1013.39,43.00 1013.39,43.00
             1013.39,43.00 1013.39,37.00 1013.39,37.00
             1013.39,37.00 1027.77,37.00 1027.77,37.00
             1027.77,37.00 1029.30,48.94 1029.30,48.94
             1031.30,44.81 1033.72,41.62 1036.58,39.38
             1039.43,37.12 1043.21,36.00 1047.91,36.00
             1049.34,36.00 1050.63,36.09 1051.77,36.28
             1052.90,36.47 1054.05,36.71 1055.23,37.00
             1055.23,37.00 1054.05,54.20 1054.05,54.20
             1054.05,54.20 1047.27,54.20 1047.27,54.20
             1047.27,54.20 1047.27,43.00 1047.27,43.00
             1047.13,43.00 1046.98,43.00 1046.81,43.00
             1038.88,43.00 1033.18,48.75 1029.73,60.25
             1029.73,60.25 1029.73,82.25 1029.73,82.25
             1029.73,82.25 1040.27,82.25 1040.27,82.25
             1040.27,82.25 1040.27,89.00 1040.27,89.00
             1040.27,89.00 1013.39,89.00 1013.39,89.00 Z
           M 1095.08,36.00
           C 1099.67,36.00 1103.34,37.12 1106.08,39.34
             1108.83,41.57 1110.80,44.71 1112.02,48.77
             1113.23,52.82 1113.84,57.55 1113.84,62.95
             1113.84,68.16 1113.11,72.81 1111.64,76.89
             1110.18,80.98 1107.97,84.18 1105.02,86.52
             1102.07,88.84 1098.35,90.00 1093.86,90.00
             1088.17,90.00 1083.61,88.07 1080.17,84.20
             1080.17,84.20 1080.17,108.75 1080.17,108.75
             1080.17,108.75 1071.89,109.78 1071.89,109.78
             1071.89,109.78 1071.89,37.00 1071.89,37.00
             1071.89,37.00 1078.94,37.00 1078.94,37.00
             1078.94,37.00 1079.62,44.95 1079.62,44.95
             1081.53,42.09 1083.80,39.88 1086.42,38.33
             1089.05,36.78 1091.93,36.00 1095.08,36.00 Z
           M 1093.11,42.75
           C 1090.25,42.75 1087.73,43.66 1085.53,45.48
             1083.33,47.30 1081.55,49.31 1080.17,51.52
             1080.17,51.52 1080.17,76.84 1080.17,76.84
             1081.52,78.81 1083.21,80.38 1085.27,81.53
             1087.32,82.68 1089.57,83.25 1092.03,83.25
             1096.33,83.25 1099.57,81.61 1101.73,78.33
             1103.90,75.05 1104.98,69.95 1104.98,63.03
             1104.98,49.51 1101.02,42.75 1093.11,42.75 Z
           M 1151.08,16.00
           C 1151.08,16.00 1151.08,76.17 1151.08,76.17
             1151.08,78.75 1151.88,80.57 1153.47,81.64
             1155.06,82.71 1157.12,83.25 1159.64,83.25
             1161.18,83.25 1162.66,83.09 1164.09,82.77
             1165.53,82.43 1166.95,81.99 1168.36,81.44
             1168.36,81.44 1170.58,87.44 1170.58,87.44
             1169.16,88.11 1167.41,88.70 1165.33,89.22
             1163.24,89.74 1160.89,90.00 1158.27,90.00
             1153.67,90.00 1149.95,88.73 1147.09,86.19
             1144.24,83.65 1142.81,80.13 1142.81,75.64
             1142.81,75.64 1142.81,22.75 1142.81,22.75
             1142.81,22.75 1126.91,22.75 1126.91,22.75
             1126.91,22.75 1126.91,16.00 1126.91,16.00
             1126.91,16.00 1151.08,16.00 1151.08,16.00 Z
           M 1196.39,65.00
           C 1196.62,71.37 1198.20,76.00 1201.14,78.91
             1204.08,81.80 1207.55,83.25 1211.56,83.25
             1214.22,83.25 1216.61,82.84 1218.73,82.03
             1220.87,81.22 1223.09,80.02 1225.39,78.44
             1225.39,78.44 1229.28,84.11 1229.28,84.11
             1226.88,85.95 1224.12,87.39 1221.00,88.44
             1217.88,89.48 1214.70,90.00 1211.45,90.00
             1206.40,90.00 1202.11,88.87 1198.58,86.61
             1195.05,84.35 1192.37,81.20 1190.52,77.14
             1188.66,73.09 1187.73,68.39 1187.73,63.05
             1187.73,57.81 1188.66,53.16 1190.52,49.09
             1192.37,45.02 1194.99,41.82 1198.39,39.50
             1201.79,37.17 1205.78,36.00 1210.38,36.00
             1216.91,36.00 1222.05,38.26 1225.81,42.78
             1229.57,47.29 1231.45,53.47 1231.45,61.31
             1231.45,62.20 1231.43,63.04 1231.38,63.83
             1231.32,64.61 1231.28,65.00 1231.25,65.00
             1231.25,65.00 1196.39,65.00 1196.39,65.00 Z
           M 1210.47,42.75
           C 1206.63,42.75 1203.42,44.07 1200.83,46.72
             1198.23,49.37 1196.77,53.46 1196.44,59.00
             1196.44,59.00 1223.47,59.00 1223.47,59.00
             1223.38,53.62 1222.16,49.56 1219.83,46.84
             1217.49,44.12 1214.38,42.75 1210.47,42.75 Z
           M 80.39,146.75
           C 80.39,146.75 14.12,146.75 14.12,146.75
             14.12,146.75 14.12,160.09 14.12,160.09
             14.12,160.09 6.94,160.09 6.94,160.09
             6.94,160.09 6.94,140.02 6.94,140.02
             6.94,140.02 42.78,140.02 42.78,140.02
             42.78,140.02 42.78,129.72 42.78,129.72
             42.78,129.72 50.27,129.72 50.27,129.72
             50.27,129.72 50.27,140.02 50.27,140.02
             50.27,140.02 87.58,140.02 87.58,140.02
             87.58,140.02 87.58,160.09 87.58,160.09
             87.58,160.09 80.39,160.09 80.39,160.09
             80.39,160.09 80.39,146.75 80.39,146.75 Z
           M 89.36,179.73
           C 89.36,179.73 89.36,186.48 89.36,186.48
             89.36,186.48 51.39,186.48 51.39,186.48
             51.39,186.48 51.39,206.12 51.39,206.12
             51.39,208.75 50.79,210.69 49.59,211.94
             48.39,213.19 46.41,213.81 43.62,213.81
             43.62,213.81 26.39,213.81 26.39,213.81
             26.39,213.81 24.42,206.88 24.42,206.88
             24.42,206.88 44.02,206.88 44.02,206.88
             44.02,206.88 44.02,186.48 44.02,186.48
             44.02,186.48 5.17,186.48 5.17,186.48
             5.17,186.48 5.17,179.73 5.17,179.73
             5.17,179.73 44.02,179.73 44.02,179.73
             44.02,179.73 44.02,172.66 44.02,172.66
             52.55,169.47 59.24,165.91 64.09,161.97
             64.09,161.97 19.73,161.97 19.73,161.97
             19.73,161.97 19.73,155.52 19.73,155.52
             19.73,155.52 73.84,155.52 73.84,155.52
             73.84,155.52 73.84,161.88 73.84,161.88
             68.39,167.62 60.91,172.42 51.39,176.30
             51.39,176.30 51.39,179.73 51.39,179.73
             51.39,179.73 89.36,179.73 89.36,179.73 Z
           M 120.30,129.33
           C 120.30,129.33 120.30,144.30 120.30,144.30
             120.30,144.30 132.42,144.30 132.42,144.30
             132.42,144.30 132.42,191.91 132.42,191.91
             132.42,194.23 131.98,195.84 131.11,196.75
             130.24,197.66 128.63,198.11 126.27,198.11
             126.27,198.11 123.36,198.11 123.36,198.11
             123.36,198.11 121.78,191.16 121.78,191.16
             121.78,191.16 126.45,191.16 126.45,191.16
             126.45,191.16 126.45,150.75 126.45,150.75
             126.45,150.75 120.30,150.75 120.30,150.75
             120.30,150.75 120.30,215.58 120.30,215.58
             120.30,215.58 114.00,215.58 114.00,215.58
             114.00,215.58 114.00,150.75 114.00,150.75
             114.00,150.75 108.30,150.75 108.30,150.75
             108.30,150.75 108.30,199.14 108.30,199.14
             108.30,199.14 102.23,199.14 102.23,199.14
             102.23,199.14 102.23,144.30 102.23,144.30
             102.23,144.30 114.00,144.30 114.00,144.30
             114.00,144.30 114.00,129.33 114.00,129.33
             114.00,129.33 120.30,129.33 120.30,129.33 Z
           M 134.48,138.48
           C 134.48,138.48 134.48,132.53 134.48,132.53
             134.48,132.53 185.19,132.53 185.19,132.53
             185.19,132.53 185.19,138.48 185.19,138.48
             185.19,138.48 134.48,138.48 134.48,138.48 Z
           M 139.91,165.52
           C 139.91,165.52 139.91,144.50 139.91,144.50
             139.91,144.50 179.03,144.50 179.03,144.50
             179.03,144.50 179.03,165.52 179.03,165.52
             179.03,165.52 139.91,165.52 139.91,165.52 Z
           M 146.39,159.86
           C 146.39,159.86 172.48,159.86 172.48,159.86
             172.48,159.86 172.48,150.20 172.48,150.20
             172.48,150.20 146.39,150.20 146.39,150.20
             146.39,150.20 146.39,159.86 146.39,159.86 Z
           M 143.50,215.09
           C 143.50,215.09 137.14,215.09 137.14,215.09
             137.14,215.09 137.14,171.91 137.14,171.91
             137.14,171.91 182.05,171.91 182.05,171.91
             182.05,171.91 182.05,215.09 182.05,215.09
             182.05,215.09 175.55,215.09 175.55,215.09
             175.55,215.09 175.55,210.06 175.55,210.06
             175.55,210.06 143.50,210.06 143.50,210.06
             143.50,210.06 143.50,215.09 143.50,215.09 Z
           M 156.30,187.62
           C 156.30,187.62 156.30,177.58 156.30,177.58
             156.30,177.58 143.50,177.58 143.50,177.58
             143.50,177.58 143.50,187.62 143.50,187.62
             143.50,187.62 156.30,187.62 156.30,187.62 Z
           M 162.34,187.62
           C 162.34,187.62 175.55,187.62 175.55,187.62
             175.55,187.62 175.55,177.58 175.55,177.58
             175.55,177.58 162.34,177.58 162.34,177.58
             162.34,177.58 162.34,187.62 162.34,187.62 Z
           M 156.30,193.23
           C 156.30,193.23 143.50,193.23 143.50,193.23
             143.50,193.23 143.50,204.27 143.50,204.27
             143.50,204.27 156.30,204.27 156.30,204.27
             156.30,204.27 156.30,193.23 156.30,193.23 Z
           M 162.34,193.23
           C 162.34,193.23 162.34,204.27 162.34,204.27
             162.34,204.27 175.55,204.27 175.55,204.27
             175.55,204.27 175.55,193.23 175.55,193.23
             175.55,193.23 162.34,193.23 162.34,193.23 Z
           M 244.75,204.75
           C 253.22,204.75 261.85,204.03 270.64,202.58
             270.64,202.58 271.67,209.97 271.67,209.97
             262.09,211.34 253.14,212.03 244.84,212.03
             235.98,212.03 229.38,210.77 225.05,208.23
             220.71,205.71 218.55,201.83 218.55,196.58
             218.55,191.92 220.60,187.73 224.72,183.98
             228.84,180.23 235.48,176.85 244.64,173.83
             244.21,171.11 243.23,169.11 241.70,167.83
             240.18,166.55 238.08,165.91 235.39,165.91
             232.40,165.91 229.14,166.73 225.61,168.39
             222.09,170.05 218.55,172.44 215.02,175.56
             213.50,176.88 212.16,178.26 210.97,179.72
             209.79,181.18 207.74,183.88 204.81,187.81
             204.81,187.81 198.52,183.39 198.52,183.39
             202.82,177.67 206.55,172.13 209.73,166.77
             212.92,161.40 215.73,155.85 218.16,150.11
             211.36,150.04 205.16,149.84 199.55,149.52
             199.55,149.52 199.84,142.33 199.84,142.33
             206.44,142.73 213.51,142.92 221.06,142.92
             222.14,140.10 223.49,136.23 225.11,131.30
             225.11,131.30 232.98,132.67 232.98,132.67
             231.47,137.31 230.30,140.73 229.48,142.92
             242.64,142.65 254.62,142.03 265.42,141.05
             265.42,141.05 265.86,148.23 265.86,148.23
             253.39,149.35 240.33,149.98 226.67,150.11
             223.42,158.02 220.12,164.59 216.78,169.84
             216.78,169.84 217.33,170.19 217.33,170.19
             220.21,166.65 223.46,163.89 227.06,161.92
             230.68,159.95 234.35,158.97 238.09,158.97
             241.77,158.97 244.85,160.06 247.34,162.25
             249.84,164.43 251.50,167.55 252.33,171.62
             258.43,170.01 266.19,168.35 275.61,166.64
             275.61,166.64 276.84,173.83 276.84,173.83
             267.29,175.54 259.30,177.26 252.88,179.00
             252.88,186.29 252.72,192.09 252.42,196.38
             252.42,196.38 244.45,196.58 244.45,196.58
             244.85,192.08 245.05,186.99 245.05,181.31
             238.55,183.59 233.83,185.93 230.91,188.36
             227.99,190.79 226.53,193.41 226.53,196.23
             226.53,199.35 227.91,201.55 230.69,202.83
             233.46,204.11 238.14,204.75 244.75,204.75 Z
           M 338.70,152.27
           C 337.39,156.86 335.83,161.28 334.03,165.52
             334.03,165.52 334.03,215.58 334.03,215.58
             334.03,215.58 327.88,215.58 327.88,215.58
             327.88,215.58 327.88,176.59 327.88,176.59
             326.30,179.71 324.48,182.66 322.42,185.45
             322.42,185.45 319.27,179.30 319.27,179.30
             319.27,179.30 317.20,180.14 317.20,180.14
             316.58,177.71 316.16,176.15 315.97,175.45
             312.85,175.95 310.34,176.30 308.44,176.50
             308.44,176.50 308.44,215.09 308.44,215.09
             308.44,215.09 302.03,215.09 302.03,215.09
             302.03,215.09 302.03,177.12 302.03,177.12
             298.91,177.43 294.19,177.78 287.86,178.17
             287.86,178.17 287.27,171.72 287.27,171.72
             287.27,171.72 289.72,171.62 289.72,171.62
             290.77,171.62 292.41,171.56 294.66,171.42
             296.66,168.80 298.97,165.43 301.59,161.33
             297.46,156.21 293.05,151.57 288.39,147.39
             288.39,147.39 292.33,142.33 292.33,142.33
             292.33,142.33 295.69,145.62 295.69,145.62
             298.38,141.00 300.93,135.54 303.36,129.23
             303.36,129.23 309.17,131.80 309.17,131.80
             306.18,138.82 303.11,144.92 299.97,150.11
             301.80,152.11 303.43,154.01 304.84,155.81
             307.96,150.34 310.77,144.90 313.27,139.52
             313.27,139.52 318.88,142.81 318.88,142.81
             312.89,154.53 307.25,163.92 301.94,170.98
             304.88,170.79 309.00,170.38 314.30,169.75
             313.30,166.64 312.27,163.86 311.19,161.42
             311.19,161.42 316.36,159.27 316.36,159.27
             318.36,163.95 320.16,169.35 321.78,175.45
             324.21,171.65 326.39,167.57 328.33,163.20
             330.27,158.84 331.79,154.48 332.91,150.11
             332.91,150.11 338.70,152.27 338.70,152.27 Z
           M 373.95,137.55
           C 373.95,137.55 373.95,153.36 373.95,153.36
             373.95,153.36 370.91,153.36 370.91,153.36
             370.91,153.36 370.91,158.33 370.91,158.33
             370.91,158.33 358.94,158.33 358.94,158.33
             358.35,160.62 357.44,164.02 356.19,168.52
             356.19,168.52 370.08,168.52 370.08,168.52
             370.08,168.52 370.08,215.58 370.08,215.58
             370.08,215.58 363.77,215.58 363.77,215.58
             363.77,215.58 363.77,209.88 363.77,209.88
             363.77,209.88 346.59,209.88 346.59,209.88
             346.59,209.88 346.59,215.58 346.59,215.58
             346.59,215.58 340.58,215.58 340.58,215.58
             340.58,215.58 340.58,168.52 340.58,168.52
             340.58,168.52 350.03,168.52 350.03,168.52
             351.28,164.41 352.22,161.02 352.84,158.33
             352.84,158.33 339.64,158.33 339.64,158.33
             339.64,158.33 339.64,152.38 339.64,152.38
             339.64,152.38 367.17,152.38 367.17,152.38
             367.17,152.38 367.17,143.66 367.17,143.66
             367.17,143.66 328.42,143.66 328.42,143.66
             328.42,143.66 328.42,153.36 328.42,153.36
             328.42,153.36 321.78,153.36 321.78,153.36
             321.78,153.36 321.78,137.55 321.78,137.55
             321.78,137.55 343.39,137.55 343.39,137.55
             343.39,137.55 343.39,129.33 343.39,129.33
             343.39,129.33 350.42,129.33 350.42,129.33
             350.42,129.33 350.42,137.55 350.42,137.55
             350.42,137.55 373.95,137.55 373.95,137.55 Z
           M 346.59,186.09
           C 346.59,186.09 363.77,186.09 363.77,186.09
             363.77,186.09 363.77,174.33 363.77,174.33
             363.77,174.33 346.59,174.33 346.59,174.33
             346.59,174.33 346.59,186.09 346.59,186.09 Z
           M 316.56,182.84
           C 318.56,190.06 319.92,197.11 320.64,203.97
             320.64,203.97 314.94,206.03 314.94,206.03
             314.14,197.43 312.89,190.19 311.19,184.31
             311.19,184.31 316.56,182.84 316.56,182.84 Z
           M 288.00,207.16
           C 290.62,199.48 292.28,191.48 292.97,183.14
             292.97,183.14 298.59,184.08 298.59,184.08
             297.71,194.67 296.00,203.45 293.47,210.41
             293.47,210.41 288.00,207.16 288.00,207.16 Z
           M 346.59,204.16
           C 346.59,204.16 363.77,204.16 363.77,204.16
             363.77,204.16 363.77,191.80 363.77,191.80
             363.77,191.80 346.59,191.80 346.59,191.80
             346.59,191.80 346.59,204.16 346.59,204.16 Z
           M 406.05,212.03
           C 406.05,212.03 404.17,204.27 404.17,204.27
             404.17,204.27 424.55,204.27 424.55,204.27
             424.55,204.27 424.55,129.83 424.55,129.83
             424.55,129.83 432.58,129.83 432.58,129.83
             432.58,129.83 432.58,203.33 432.58,203.33
             432.58,206.45 431.89,208.67 430.53,210.02
             429.18,211.36 426.91,212.03 423.72,212.03
             423.72,212.03 406.05,212.03 406.05,212.03 Z
           M 384.14,189.30
           C 393.19,177.81 399.36,163.81 402.64,147.30
             402.64,147.30 410.42,149.08 410.42,149.08
             406.82,166.83 400.37,181.94 391.08,194.41
             391.08,194.41 384.14,189.30 384.14,189.30 Z
           M 462.91,196.14
           C 460.60,188.73 457.84,180.95 454.62,172.81
             451.41,164.67 448.19,157.28 444.94,150.64
             444.94,150.64 452.22,147.94 452.22,147.94
             455.53,154.57 458.88,162.04 462.28,170.33
             465.69,178.61 468.39,186.12 470.39,192.84
             470.39,192.84 462.91,196.14 462.91,196.14 Z
           M 500.45,133.27
           C 500.45,133.27 508.97,133.56 508.97,133.56
             508.97,133.56 506.36,181.81 506.36,181.81
             506.36,181.81 506.27,184.17 506.27,184.17
             506.27,190.41 507.66,195.01 510.47,197.97
             513.28,200.92 517.43,202.39 522.91,202.39
             529.89,202.39 535.65,199.98 540.17,195.16
             544.70,190.32 548.22,182.66 550.72,172.16
             550.72,172.16 558.73,174.52 558.73,174.52
             556.05,186.23 551.71,195.17 545.72,201.31
             539.73,207.45 532.16,210.52 523.00,210.52
             514.82,210.52 508.60,208.36 504.33,204.06
             500.07,199.76 497.94,193.21 497.94,184.42
             497.94,183.11 497.97,182.11 498.05,181.42
             498.05,181.42 500.45,133.27 500.45,133.27 Z
           M 626.08,152.38
           C 620.00,153.09 612.98,153.68 605.00,154.14
             601.20,173.57 596.06,191.96 589.59,209.33
             589.59,209.33 581.62,206.67 581.62,206.67
             587.99,190.73 593.07,173.30 596.88,154.39
             596.88,154.39 588.06,154.48 588.06,154.48
             588.06,154.48 580.23,154.39 580.23,154.39
             580.23,154.39 580.23,147.00 580.23,147.00
             580.23,147.00 588.70,147.09 588.70,147.09
             588.70,147.09 598.27,147.00 598.27,147.00
             599.08,142.64 599.86,137.62 600.62,131.94
             600.62,131.94 608.45,132.88 608.45,132.88
             608.09,135.90 607.41,140.52 606.44,146.75
             613.03,146.49 619.35,145.95 625.39,145.12
             625.39,145.12 626.08,152.38 626.08,152.38 Z
           M 617.75,163.00
           C 630.03,161.26 641.85,160.12 653.20,159.56
             653.20,159.56 653.64,167.05 653.64,167.05
             641.43,167.66 629.75,168.84 618.59,170.58
             618.59,170.58 617.75,163.00 617.75,163.00 Z
           M 656.75,207.45
           C 653.24,208.08 649.44,208.55 645.34,208.88
             641.26,209.21 637.45,209.38 633.91,209.38
             626.61,209.38 621.10,208.12 617.36,205.61
             613.62,203.10 611.75,199.43 611.75,194.61
             611.75,190.08 613.03,185.40 615.59,180.58
             615.59,180.58 622.58,182.84 622.58,182.84
             620.61,187.01 619.62,190.51 619.62,193.33
             619.62,198.95 624.48,201.75 634.20,201.75
             640.93,201.75 648.13,201.09 655.81,199.78
             655.81,199.78 656.75,207.45 656.75,207.45 Z
           M 729.67,146.75
           C 729.67,146.75 729.67,171.00 729.67,171.00
             729.67,171.00 750.94,171.00 750.94,171.00
             750.94,171.00 750.94,177.75 750.94,177.75
             750.94,177.75 729.67,177.75 729.67,177.75
             729.67,177.75 729.67,208.00 729.67,208.00
             729.67,208.00 722.92,208.00 722.92,208.00
             722.92,208.00 722.92,140.00 722.92,140.00
             722.92,140.00 754.83,140.00 754.83,140.00
             754.83,140.00 754.05,146.75 754.05,146.75
             754.05,146.75 729.67,146.75 729.67,146.75 Z
           M 782.62,132.00
           C 784.10,132.00 785.27,132.57 786.14,133.72
             787.02,134.87 787.45,136.27 787.45,137.92
             787.45,139.64 787.02,141.09 786.14,142.25
             785.27,143.42 784.10,144.00 782.62,144.00
             781.25,144.00 780.11,143.42 779.20,142.25
             778.30,141.09 777.86,139.64 777.86,137.92
             777.86,136.27 778.30,134.87 779.20,133.72
             780.11,132.57 781.25,132.00 782.62,132.00 Z
           M 787.91,156.00
           C 787.91,156.00 787.91,201.25 787.91,201.25
             787.91,201.25 799.61,201.25 799.61,201.25
             799.61,201.25 799.61,208.00 799.61,208.00
             799.61,208.00 768.50,208.00 768.50,208.00
             768.50,208.00 768.50,201.25 768.50,201.25
             768.50,201.25 781.30,201.25 781.30,201.25
             781.30,201.25 781.30,162.75 781.30,162.75
             781.30,162.75 768.89,162.75 768.89,162.75
             768.89,162.75 768.89,156.00 768.89,156.00
             768.89,156.00 787.91,156.00 787.91,156.00 Z
           M 814.31,208.00
           C 814.31,208.00 814.31,201.25 814.31,201.25
             814.31,201.25 820.77,201.25 820.77,201.25
             820.77,201.25 820.77,162.00 820.77,162.00
             820.77,162.00 814.31,162.00 814.31,162.00
             814.31,162.00 814.31,156.00 814.31,156.00
             814.31,156.00 825.80,156.00 825.80,156.00
             825.80,156.00 827.02,167.94 827.02,167.94
             828.63,163.81 830.58,160.62 832.86,158.38
             835.14,156.12 838.16,155.00 841.94,155.00
             843.08,155.00 844.11,155.09 845.02,155.28
             845.92,155.47 846.85,155.71 847.80,156.00
             847.80,156.00 846.86,173.20 846.86,173.20
             846.86,173.20 841.39,173.20 841.39,173.20
             841.39,173.20 841.39,162.00 841.39,162.00
             841.30,162.00 841.18,162.00 841.05,162.00
             834.68,162.00 830.12,167.75 827.36,179.25
             827.36,179.25 827.36,201.25 827.36,201.25
             827.36,201.25 835.83,201.25 835.83,201.25
             835.83,201.25 835.83,208.00 835.83,208.00
             835.83,208.00 814.31,208.00 814.31,208.00 Z
           M 879.48,155.00
           C 883.16,155.00 886.09,156.12 888.27,158.34
             890.45,160.57 892.03,163.71 893.00,167.77
             893.97,171.82 894.45,176.55 894.45,181.95
             894.45,187.16 893.87,191.81 892.70,195.89
             891.54,199.98 889.77,203.18 887.41,205.52
             885.05,207.84 882.08,209.00 878.50,209.00
             873.94,209.00 870.27,207.07 867.52,203.20
             867.52,203.20 867.52,227.75 867.52,227.75
             867.52,227.75 860.92,228.78 860.92,228.78
             860.92,228.78 860.92,156.00 860.92,156.00
             860.92,156.00 866.53,156.00 866.53,156.00
             866.53,156.00 867.08,163.95 867.08,163.95
             868.62,161.09 870.44,158.88 872.55,157.33
             874.65,155.78 876.96,155.00 879.48,155.00 Z
           M 877.91,161.75
           C 875.61,161.75 873.59,162.66 871.83,164.48
             870.08,166.30 868.64,168.31 867.52,170.52
             867.52,170.52 867.52,195.84 867.52,195.84
             868.60,197.81 869.96,199.38 871.61,200.53
             873.25,201.68 875.06,202.25 877.03,202.25
             880.47,202.25 883.05,200.61 884.77,197.33
             886.49,194.05 887.36,188.95 887.36,182.03
             887.36,168.51 884.21,161.75 877.91,161.75 Z
           M 924.08,135.00
           C 924.08,135.00 924.08,195.17 924.08,195.17
             924.08,197.75 924.71,199.57 925.97,200.64
             927.23,201.71 928.88,202.25 930.92,202.25
             932.16,202.25 933.35,202.09 934.48,201.77
             935.62,201.43 936.76,200.99 937.91,200.44
             937.91,200.44 939.69,206.44 939.69,206.44
             938.53,207.11 937.12,207.70 935.47,208.22
             933.81,208.74 931.93,209.00 929.83,209.00
             926.15,209.00 923.16,207.73 920.86,205.19
             918.57,202.65 917.42,199.13 917.42,194.64
             917.42,194.64 917.42,141.75 917.42,141.75
             917.42,141.75 904.72,141.75 904.72,141.75
             904.72,141.75 904.72,135.00 904.72,135.00
             904.72,135.00 924.08,135.00 924.08,135.00 Z
           M 960.09,184.00
           C 960.29,190.37 961.56,195.00 963.91,197.91
             966.26,200.80 969.04,202.25 972.25,202.25
             974.38,202.25 976.30,201.84 978.02,201.03
             979.72,200.22 981.49,199.02 983.33,197.44
             983.33,197.44 986.44,203.11 986.44,203.11
             984.50,204.95 982.28,206.39 979.78,207.44
             977.29,208.48 974.75,209.00 972.16,209.00
             968.11,209.00 964.68,207.87 961.86,205.61
             959.05,203.35 956.90,200.20 955.42,196.14
             953.94,192.09 953.20,187.39 953.20,182.05
             953.20,176.81 953.94,172.16 955.42,168.09
             956.90,164.02 959.00,160.82 961.72,158.50
             964.45,156.17 967.64,155.00 971.31,155.00
             976.53,155.00 980.64,157.26 983.64,161.78
             986.65,166.29 988.16,172.47 988.16,180.31
             988.16,181.20 988.14,182.04 988.11,182.83
             988.08,183.61 988.05,184.00 988.02,184.00
             988.02,184.00 960.09,184.00 960.09,184.00 Z
           M 971.38,161.75
           C 968.32,161.75 965.75,163.07 963.66,165.72
             961.57,168.37 960.40,172.46 960.14,178.00
             960.14,178.00 981.75,178.00 981.75,178.00
             981.69,172.62 980.72,168.56 978.84,165.84
             976.98,163.12 974.49,161.75 971.38,161.75 Z
           M 1083.23,188.98
           C 1083.23,192.92 1082.46,196.39 1080.92,199.39
             1079.38,202.39 1077.13,204.75 1074.17,206.45
             1071.22,208.15 1067.65,209.00 1063.45,209.00
             1059.48,209.00 1055.89,208.29 1052.67,206.86
             1049.45,205.42 1046.71,203.40 1044.45,200.78
             1044.45,200.78 1048.48,195.05 1048.48,195.05
             1050.36,197.26 1052.52,199.01 1054.95,200.31
             1057.40,201.61 1060.27,202.25 1063.55,202.25
             1065.77,202.25 1067.84,201.80 1069.75,200.89
             1071.66,199.98 1073.20,198.60 1074.38,196.73
             1075.56,194.86 1076.16,192.48 1076.16,189.61
             1076.16,187.43 1075.82,185.56 1075.14,183.98
             1074.46,182.41 1073.25,181.03 1071.52,179.83
             1069.77,178.62 1067.36,177.44 1064.28,176.28
             1060.71,174.96 1057.61,173.46 1055.00,171.80
             1052.39,170.12 1050.38,168.07 1048.95,165.64
             1047.52,163.21 1046.81,160.18 1046.81,156.55
             1046.81,153.14 1047.55,150.12 1049.05,147.48
             1050.55,144.84 1052.61,142.77 1055.25,141.27
             1057.89,139.76 1060.92,139.00 1064.33,139.00
             1068.11,139.00 1071.38,139.70 1074.16,141.09
             1076.93,142.48 1079.43,144.48 1081.67,147.09
             1081.67,147.09 1077.67,152.66 1077.67,152.66
             1075.73,150.26 1073.65,148.51 1071.42,147.41
             1069.19,146.30 1066.91,145.75 1064.58,145.75
             1061.63,145.75 1059.09,146.58 1056.95,148.23
             1054.82,149.88 1053.75,152.40 1053.75,155.80
             1053.75,157.79 1054.16,159.48 1055.00,160.89
             1055.84,162.29 1057.27,163.58 1059.27,164.77
             1061.27,165.95 1063.99,167.18 1067.44,168.44
             1070.23,169.46 1072.83,170.74 1075.23,172.28
             1077.65,173.81 1079.59,175.89 1081.05,178.52
             1082.50,181.14 1083.23,184.63 1083.23,188.98 Z
           M 1112.08,135.00
           C 1112.08,135.00 1112.08,195.17 1112.08,195.17
             1112.08,197.75 1112.71,199.57 1113.97,200.64
             1115.23,201.71 1116.88,202.25 1118.92,202.25
             1120.16,202.25 1121.35,202.09 1122.48,201.77
             1123.62,201.43 1124.76,200.99 1125.91,200.44
             1125.91,200.44 1127.69,206.44 1127.69,206.44
             1126.53,207.11 1125.12,207.70 1123.47,208.22
             1121.81,208.74 1119.93,209.00 1117.83,209.00
             1114.15,209.00 1111.16,207.73 1108.86,205.19
             1106.57,202.65 1105.42,199.13 1105.42,194.64
             1105.42,194.64 1105.42,141.75 1105.42,141.75
             1105.42,141.75 1092.72,141.75 1092.72,141.75
             1092.72,141.75 1092.72,135.00 1092.72,135.00
             1092.72,135.00 1112.08,135.00 1112.08,135.00 Z
           M 1158.62,132.00
           C 1160.10,132.00 1161.27,132.57 1162.14,133.72
             1163.02,134.87 1163.45,136.27 1163.45,137.92
             1163.45,139.64 1163.02,141.09 1162.14,142.25
             1161.27,143.42 1160.10,144.00 1158.62,144.00
             1157.25,144.00 1156.11,143.42 1155.20,142.25
             1154.30,141.09 1153.86,139.64 1153.86,137.92
             1153.86,136.27 1154.30,134.87 1155.20,133.72
             1156.11,132.57 1157.25,132.00 1158.62,132.00 Z
           M 1163.91,156.00
           C 1163.91,156.00 1163.91,201.25 1163.91,201.25
             1163.91,201.25 1175.61,201.25 1175.61,201.25
             1175.61,201.25 1175.61,208.00 1175.61,208.00
             1175.61,208.00 1144.50,208.00 1144.50,208.00
             1144.50,208.00 1144.50,201.25 1144.50,201.25
             1144.50,201.25 1157.30,201.25 1157.30,201.25
             1157.30,201.25 1157.30,162.75 1157.30,162.75
             1157.30,162.75 1144.89,162.75 1144.89,162.75
             1144.89,162.75 1144.89,156.00 1144.89,156.00
             1144.89,156.00 1163.91,156.00 1163.91,156.00 Z
           M 1217.25,155.00
           C 1218.56,155.00 1219.83,155.37 1221.06,156.09
             1222.29,156.81 1223.30,158.21 1224.09,160.28
             1224.88,162.34 1225.28,165.37 1225.28,169.34
             1225.28,169.34 1225.28,208.00 1225.28,208.00
             1225.28,208.00 1219.12,208.00 1219.12,208.00
             1219.12,208.00 1219.12,170.91 1219.12,170.91
             1219.12,167.68 1218.97,165.34 1218.66,163.91
             1218.34,162.47 1217.45,161.75 1215.97,161.75
             1214.72,161.75 1213.48,162.27 1212.25,163.30
             1211.02,164.32 1209.83,165.99 1208.69,168.31
             1208.69,168.31 1208.69,208.00 1208.69,208.00
             1208.69,208.00 1202.53,208.00 1202.53,208.00
             1202.53,208.00 1202.53,170.91 1202.53,170.91
             1202.53,167.68 1202.38,165.34 1202.06,163.91
             1201.75,162.47 1200.84,161.75 1199.33,161.75
             1198.05,161.75 1196.80,162.27 1195.58,163.30
             1194.37,164.32 1193.21,165.99 1192.09,168.31
             1192.09,168.31 1192.09,208.00 1192.09,208.00
             1192.09,208.00 1185.98,208.00 1185.98,208.00
             1185.98,208.00 1185.98,156.00 1185.98,156.00
             1185.98,156.00 1191.16,156.00 1191.16,156.00
             1191.16,156.00 1191.55,162.83 1191.55,162.83
             1192.70,160.62 1193.97,158.77 1195.36,157.27
             1196.75,155.76 1198.50,155.00 1200.61,155.00
             1202.18,155.00 1203.66,155.52 1205.03,156.56
             1206.41,157.59 1207.44,159.60 1208.09,162.58
             1209.24,160.33 1210.52,158.51 1211.92,157.11
             1213.34,155.70 1215.11,155.00 1217.25,155.00 Z" />
</svg>
