<?xml version="1.0" encoding="UTF-8" standalone="no"?>
<!DOCTYPE svg PUBLIC "-//W3C//DTD SVG 20010904//EN"
              "http://www.w3.org/TR/2001/REC-SVG-20010904/DTD/svg10.dtd">

<svg xmlns="http://www.w3.org/2000/svg"
     width="4.26667in" height="0.8in"
     viewBox="0 0 1280 240">
  <path fill="#6a6a6a" d="M 47.02,77.27
           C 47.02,79.35 47.36,80.87 48.05,81.81
             48.73,82.75 49.80,83.43 51.25,83.86
             51.25,83.86 49.23,90.02 49.23,90.02
             47.00,89.70 45.05,88.95 43.38,87.75
             41.70,86.55 40.48,84.73 39.73,82.30
             37.86,84.83 35.52,86.75 32.70,88.05
             29.90,89.35 26.83,90.00 23.48,90.00
             18.30,90.00 14.21,88.52 11.22,85.56
             8.24,82.61 6.75,78.68 6.75,73.80
             6.75,68.38 8.83,64.23 13.00,61.34
             17.16,58.45 23.19,57.00 31.06,57.00
             31.06,57.00 38.70,57.00 38.70,57.00
             38.70,57.00 38.70,52.78 38.70,52.78
             38.70,49.14 37.61,46.55 35.42,45.03
             33.23,43.51 30.21,42.75 26.34,42.75
             24.63,42.75 22.63,42.95 20.33,43.36
             18.04,43.77 15.54,44.44 12.84,45.38
             12.84,45.38 10.69,39.22 10.69,39.22
             13.83,38.05 16.80,37.23 19.61,36.73
             22.42,36.25 25.09,36.00 27.62,36.00
             34.05,36.00 38.89,37.50 42.14,40.50
             45.39,43.49 47.02,47.53 47.02,52.61
             47.02,52.61 47.02,77.27 47.02,77.27 Z
           M 25.59,83.25
           C 28.16,83.25 30.59,82.62 32.91,81.38
             35.22,80.12 37.15,78.37 38.70,76.14
             38.70,76.14 38.70,63.00 38.70,63.00
             38.70,63.00 31.22,63.00 31.22,63.00
             25.50,63.00 21.47,63.96 19.12,65.89
             16.78,67.82 15.61,70.41 15.61,73.66
             15.61,80.05 18.94,83.25 25.59,83.25 Z
           M 136.17,44.28
           C 138.04,41.65 140.22,39.61 142.73,38.17
             145.24,36.73 147.98,36.00 150.94,36.00
             155.56,36.00 159.30,37.12 162.16,39.34
             165.01,41.57 167.09,44.71 168.41,48.77
             169.72,52.82 170.38,57.55 170.38,62.95
             170.38,68.16 169.59,72.81 168.03,76.89
             166.48,80.98 164.18,84.18 161.12,86.52
             158.07,88.84 154.32,90.00 149.86,90.00
             143.85,90.00 139.13,87.82 135.72,83.47
             135.72,83.47 135.12,89.00 135.12,89.00
             135.12,89.00 127.89,89.00 127.89,89.00
             127.89,89.00 127.89,16.17 127.89,16.17
             127.89,16.17 136.17,15.14 136.17,15.14
             136.17,15.14 136.17,44.28 136.17,44.28 Z
           M 147.89,83.25
           C 152.21,83.25 155.54,81.59 157.88,78.27
             160.21,74.93 161.38,69.82 161.38,62.92
             161.38,49.48 157.30,42.75 149.16,42.75
             146.27,42.75 143.73,43.64 141.53,45.41
             139.33,47.18 137.55,49.15 136.17,51.31
             136.17,51.31 136.17,76.64 136.17,76.64
             137.52,78.68 139.21,80.30 141.27,81.48
             143.32,82.66 145.52,83.25 147.89,83.25 Z
           M 195.17,37.00
           C 195.17,37.00 195.17,73.62 195.17,73.62
             195.17,77.03 195.88,79.49 197.28,81.00
             198.70,82.50 200.89,83.25 203.88,83.25
             206.73,83.25 209.43,82.45 211.97,80.84
             214.52,79.24 216.50,77.34 217.91,75.14
             217.91,75.14 217.91,37.00 217.91,37.00
             217.91,37.00 226.19,37.00 226.19,37.00
             226.19,37.00 226.19,89.00 226.19,89.00
             226.19,89.00 219.14,89.00 219.14,89.00
             219.14,89.00 218.45,81.77 218.45,81.77
             216.42,84.43 213.90,86.48 210.89,87.89
             207.89,89.30 204.88,90.00 201.86,90.00
             196.84,90.00 193.09,88.66 190.61,85.98
             188.13,83.31 186.89,79.56 186.89,74.73
             186.89,74.73 186.89,37.00 186.89,37.00
             186.89,37.00 195.17,37.00 195.17,37.00 Z
           M 288.03,31.61
           C 288.03,31.61 290.59,39.36 290.59,39.36
             288.36,40.20 286.01,40.62 283.53,40.62
             281.05,40.62 278.35,40.62 275.44,40.62
             281.44,43.45 284.44,47.90 284.44,53.97
             284.44,59.21 282.72,63.53 279.30,66.92
             275.87,70.31 271.09,72.00 264.95,72.00
             263.21,72.00 261.76,71.91 260.59,71.73
             259.43,71.56 258.30,71.29 257.22,70.94
             256.43,71.49 255.77,72.22 255.27,73.12
             254.77,74.02 254.52,74.96 254.52,75.94
             254.52,77.18 255.00,78.21 255.98,79.03
             256.97,79.84 258.80,80.25 261.45,80.25
             261.45,80.25 270.81,80.25 270.81,80.25
             274.29,80.25 277.41,80.87 280.16,82.11
             282.91,83.35 285.10,85.03 286.70,87.14
             288.32,89.24 289.12,91.62 289.12,94.27
             289.12,99.33 286.96,103.21 282.64,105.92
             278.33,108.64 272.23,110.00 264.36,110.00
             258.85,110.00 254.50,109.43 251.31,108.28
             248.12,107.13 245.85,105.39 244.48,103.05
             243.13,100.71 242.45,97.77 242.45,94.22
             242.45,94.22 249.94,94.22 249.94,94.22
             249.94,96.26 250.33,97.95 251.11,99.28
             251.90,100.62 253.33,101.62 255.39,102.27
             257.46,102.92 260.44,103.25 264.31,103.25
             270.02,103.25 274.19,102.52 276.81,101.06
             279.44,99.61 280.75,97.45 280.75,94.58
             280.75,92.07 279.63,90.18 277.41,88.91
             275.18,87.64 272.38,87.00 269.03,87.00
             269.03,87.00 259.78,87.00 259.78,87.00
             255.28,87.00 251.98,86.03 249.88,84.09
             247.78,82.16 246.73,79.93 246.73,77.41
             246.73,73.93 248.63,70.96 252.44,68.50
             246.63,65.40 243.73,60.60 243.73,54.11
             243.73,50.58 244.60,47.45 246.34,44.73
             248.08,42.02 250.51,39.88 253.62,38.33
             256.74,36.78 260.33,36.00 264.41,36.00
             268.77,36.00 272.31,35.82 275.03,35.45
             277.76,35.09 280.10,34.58 282.05,33.92
             284.00,33.27 286.00,32.50 288.03,31.61 Z
           M 264.41,42.00
           C 260.24,42.00 257.16,43.13 255.17,45.39
             253.19,47.65 252.20,50.51 252.20,53.95
             252.20,57.46 253.21,60.35 255.22,62.61
             257.24,64.87 260.37,66.00 264.61,66.00
             268.24,66.00 271.03,64.94 272.97,62.81
             274.91,60.68 275.88,57.71 275.88,53.91
             275.88,45.97 272.05,42.00 264.41,42.00 Z
           M 394.52,15.25
           C 397.30,15.25 399.83,15.50 402.09,16.00
             404.36,16.49 406.52,17.18 408.55,18.08
             408.55,18.08 405.89,24.25 405.89,24.25
             404.21,23.50 402.43,22.94 400.55,22.56
             398.66,22.19 396.73,22.00 394.77,22.00
             387.52,22.00 383.89,24.85 383.89,30.55
             383.89,30.55 383.89,41.00 383.89,41.00
             383.89,41.00 401.45,41.00 401.45,41.00
             401.45,41.00 400.58,47.75 400.58,47.75
             400.58,47.75 383.89,47.75 383.89,47.75
             383.89,47.75 383.89,89.00 383.89,89.00
             383.89,89.00 375.61,89.00 375.61,89.00
             375.61,89.00 375.61,47.75 375.61,47.75
             375.61,47.75 363.25,47.75 363.25,47.75
             363.25,47.75 363.25,41.00 363.25,41.00
             363.25,41.00 375.61,41.00 375.61,41.00
             375.61,41.00 375.61,30.73 375.61,30.73
             375.61,27.55 376.44,24.80 378.09,22.48
             379.75,20.17 382.00,18.39 384.86,17.14
             387.72,15.88 390.94,15.25 394.52,15.25 Z
           M 423.39,89.00
           C 423.39,89.00 423.39,82.25 423.39,82.25
             423.39,82.25 431.47,82.25 431.47,82.25
             431.47,82.25 431.47,43.00 431.47,43.00
             431.47,43.00 423.39,43.00 423.39,43.00
             423.39,43.00 423.39,37.00 423.39,37.00
             423.39,37.00 437.77,37.00 437.77,37.00
             437.77,37.00 439.30,48.94 439.30,48.94
             441.30,44.81 443.72,41.62 446.58,39.38
             449.43,37.12 453.21,36.00 457.91,36.00
             459.34,36.00 460.63,36.09 461.77,36.28
             462.90,36.47 464.05,36.71 465.23,37.00
             465.23,37.00 464.05,54.20 464.05,54.20
             464.05,54.20 457.27,54.20 457.27,54.20
             457.27,54.20 457.27,43.00 457.27,43.00
             457.13,43.00 456.98,43.00 456.81,43.00
             448.88,43.00 443.18,48.75 439.73,60.25
             439.73,60.25 439.73,82.25 439.73,82.25
             439.73,82.25 450.27,82.25 450.27,82.25
             450.27,82.25 450.27,89.00 450.27,89.00
             450.27,89.00 423.39,89.00 423.39,89.00 Z
           M 488.39,65.00
           C 488.62,71.37 490.20,76.00 493.14,78.91
             496.08,81.80 499.55,83.25 503.56,83.25
             506.22,83.25 508.61,82.84 510.73,82.03
             512.87,81.22 515.09,80.02 517.39,78.44
             517.39,78.44 521.28,84.11 521.28,84.11
             518.88,85.95 516.12,87.39 513.00,88.44
             509.88,89.48 506.70,90.00 503.45,90.00
             498.40,90.00 494.11,88.87 490.58,86.61
             487.05,84.35 484.37,81.20 482.52,77.14
             480.66,73.09 479.73,68.39 479.73,63.05
             479.73,57.81 480.66,53.16 482.52,49.09
             484.37,45.02 486.99,41.82 490.39,39.50
             493.79,37.17 497.78,36.00 502.38,36.00
             508.91,36.00 514.05,38.26 517.81,42.78
             521.57,47.29 523.45,53.47 523.45,61.31
             523.45,62.20 523.43,63.04 523.38,63.83
             523.32,64.61 523.28,65.00 523.25,65.00
             523.25,65.00 488.39,65.00 488.39,65.00 Z
           M 502.47,42.75
           C 498.63,42.75 495.42,44.07 492.83,46.72
             490.23,49.37 488.77,53.46 488.44,59.00
             488.44,59.00 515.47,59.00 515.47,59.00
             515.38,53.62 514.16,49.56 511.83,46.84
             509.49,44.12 506.38,42.75 502.47,42.75 Z
           M 547.39,65.00
           C 547.62,71.37 549.20,76.00 552.14,78.91
             555.08,81.80 558.55,83.25 562.56,83.25
             565.22,83.25 567.61,82.84 569.73,82.03
             571.87,81.22 574.09,80.02 576.39,78.44
             576.39,78.44 580.28,84.11 580.28,84.11
             577.88,85.95 575.12,87.39 572.00,88.44
             568.88,89.48 565.70,90.00 562.45,90.00
             557.40,90.00 553.11,88.87 549.58,86.61
             546.05,84.35 543.37,81.20 541.52,77.14
             539.66,73.09 538.73,68.39 538.73,63.05
             538.73,57.81 539.66,53.16 541.52,49.09
             543.37,45.02 545.99,41.82 549.39,39.50
             552.79,37.17 556.78,36.00 561.38,36.00
             567.91,36.00 573.05,38.26 576.81,42.78
             580.57,47.29 582.45,53.47 582.45,61.31
             582.45,62.20 582.43,63.04 582.38,63.83
             582.32,64.61 582.28,65.00 582.25,65.00
             582.25,65.00 547.39,65.00 547.39,65.00 Z
           M 561.47,42.75
           C 557.63,42.75 554.42,44.07 551.83,46.72
             549.23,49.37 547.77,53.46 547.44,59.00
             547.44,59.00 574.47,59.00 574.47,59.00
             574.38,53.62 573.16,49.56 570.83,46.84
             568.49,44.12 565.38,42.75 561.47,42.75 Z
           M 675.98,36.00
           C 679.10,36.00 681.84,36.63 684.22,37.89
             686.60,39.15 688.68,40.99 690.45,43.41
             690.45,43.41 691.14,37.00 691.14,37.00
             691.14,37.00 698.19,37.00 698.19,37.00
             698.19,37.00 698.19,109.78 698.19,109.78
             698.19,109.78 689.91,108.75 689.91,108.75
             689.91,108.75 689.91,82.48 689.91,82.48
             688.01,85.09 685.81,87.00 683.31,88.20
             680.82,89.40 678.16,90.00 675.34,90.00
             670.68,90.00 666.95,88.89 664.16,86.66
             661.38,84.43 659.36,81.29 658.11,77.23
             656.86,73.18 656.23,68.45 656.23,63.05
             656.23,57.87 656.99,53.24 658.50,49.16
             660.01,45.07 662.23,41.86 665.17,39.52
             668.11,37.17 671.71,36.00 675.98,36.00 Z
           M 678.05,42.75
           C 669.41,42.75 665.09,49.56 665.09,63.17
             665.09,76.56 669.08,83.25 677.06,83.25
             679.91,83.25 682.41,82.47 684.56,80.91
             686.72,79.34 688.50,77.50 689.91,75.39
             689.91,75.39 689.91,49.88 689.91,49.88
             688.56,47.62 686.85,45.88 684.78,44.62
             682.72,43.38 680.47,42.75 678.05,42.75 Z
           M 726.17,37.00
           C 726.17,37.00 726.17,73.62 726.17,73.62
             726.17,77.03 726.88,79.49 728.28,81.00
             729.70,82.50 731.89,83.25 734.88,83.25
             737.73,83.25 740.43,82.45 742.97,80.84
             745.52,79.24 747.50,77.34 748.91,75.14
             748.91,75.14 748.91,37.00 748.91,37.00
             748.91,37.00 757.19,37.00 757.19,37.00
             757.19,37.00 757.19,89.00 757.19,89.00
             757.19,89.00 750.14,89.00 750.14,89.00
             750.14,89.00 749.45,81.77 749.45,81.77
             747.42,84.43 744.90,86.48 741.89,87.89
             738.89,89.30 735.88,90.00 732.86,90.00
             727.84,90.00 724.09,88.66 721.61,85.98
             719.13,83.31 717.89,79.56 717.89,74.73
             717.89,74.73 717.89,37.00 717.89,37.00
             717.89,37.00 726.17,37.00 726.17,37.00 Z
           M 796.53,13.00
           C 798.38,13.00 799.84,13.57 800.94,14.72
             802.04,15.87 802.59,17.27 802.59,18.92
             802.59,20.64 802.04,22.09 800.94,23.25
             799.84,24.42 798.38,25.00 796.53,25.00
             794.79,25.00 793.36,24.42 792.25,23.25
             791.13,22.09 790.58,20.64 790.58,18.92
             790.58,17.27 791.13,15.87 792.25,14.72
             793.36,13.57 794.79,13.00 796.53,13.00 Z
           M 803.14,37.00
           C 803.14,37.00 803.14,82.25 803.14,82.25
             803.14,82.25 817.75,82.25 817.75,82.25
             817.75,82.25 817.75,89.00 817.75,89.00
             817.75,89.00 778.86,89.00 778.86,89.00
             778.86,89.00 778.86,82.25 778.86,82.25
             778.86,82.25 794.86,82.25 794.86,82.25
             794.86,82.25 794.86,43.75 794.86,43.75
             794.86,43.75 779.36,43.75 779.36,43.75
             779.36,43.75 779.36,37.00 779.36,37.00
             779.36,37.00 803.14,37.00 803.14,37.00 Z
           M 859.33,83.25
           C 861.92,83.25 864.34,82.84 866.59,82.00
             868.84,81.16 870.91,80.06 872.81,78.72
             872.81,78.72 876.86,84.16 876.86,84.16
             874.59,85.97 871.86,87.40 868.67,88.44
             865.49,89.48 862.38,90.00 859.33,90.00
             854.17,90.00 849.78,88.90 846.16,86.69
             842.53,84.47 839.77,81.36 837.86,77.34
             835.96,73.32 835.02,68.61 835.02,63.20
             835.02,58.02 835.96,53.38 837.86,49.28
             839.77,45.18 842.54,41.94 846.19,39.56
             849.83,37.19 854.24,36.00 859.42,36.00
             866.02,36.00 871.80,37.96 876.75,41.89
             876.75,41.89 872.72,47.80 872.72,47.80
             868.22,44.43 863.75,42.75 859.33,42.75
             854.87,42.75 851.19,44.45 848.30,47.86
             845.41,51.27 843.97,56.42 843.97,63.33
             843.97,70.33 845.41,75.40 848.30,78.55
             851.19,81.68 854.87,83.25 859.33,83.25 Z
           M 903.70,15.06
           C 903.70,15.06 903.70,89.00 903.70,89.00
             903.70,89.00 895.44,89.00 895.44,89.00
             895.44,89.00 895.44,16.09 895.44,16.09
             895.44,16.09 903.70,15.06 903.70,15.06 Z
           M 938.31,37.00
           C 938.31,37.00 914.98,60.47 914.98,60.47
             914.98,60.47 941.03,89.00 941.03,89.00
             941.03,89.00 930.14,89.00 930.14,89.00
             930.14,89.00 904.64,60.66 904.64,60.66
             904.64,60.66 927.58,37.00 927.58,37.00
             927.58,37.00 938.31,37.00 938.31,37.00 Z
           M 1030.52,83.25
           C 1034.52,83.25 1037.68,82.51 1039.97,81.03
             1042.27,79.55 1043.42,77.55 1043.42,75.02
             1043.42,73.48 1043.13,72.13 1042.56,70.98
             1041.99,69.83 1040.81,68.79 1039.03,67.86
             1037.26,66.92 1034.54,65.99 1030.86,65.06
             1027.29,64.18 1024.18,63.15 1021.53,61.98
             1018.89,60.82 1016.84,59.30 1015.38,57.44
             1013.91,55.56 1013.19,53.13 1013.19,50.14
             1013.19,45.78 1015.01,42.33 1018.66,39.80
             1022.30,37.27 1027.05,36.00 1032.89,36.00
             1037.05,36.00 1040.69,36.56 1043.78,37.69
             1046.88,38.81 1049.52,40.17 1051.69,41.77
             1051.69,41.77 1048.05,47.88 1048.05,47.88
             1046.11,46.39 1043.95,45.16 1041.56,44.20
             1039.19,43.23 1036.33,42.75 1032.98,42.75
             1028.91,42.75 1026.02,43.38 1024.31,44.64
             1022.60,45.90 1021.75,47.53 1021.75,49.53
             1021.75,51.07 1022.16,52.34 1023.00,53.34
             1023.84,54.34 1025.27,55.23 1027.27,56.02
             1029.27,56.80 1032.04,57.66 1035.55,58.61
             1038.92,59.53 1041.87,60.61 1044.39,61.86
             1046.92,63.10 1048.88,64.73 1050.28,66.75
             1051.68,68.76 1052.38,71.37 1052.38,74.58
             1052.38,78.25 1051.32,81.22 1049.22,83.50
             1047.12,85.77 1044.41,87.42 1041.08,88.45
             1037.74,89.48 1034.22,90.00 1030.52,90.00
             1025.83,90.00 1021.83,89.33 1018.53,87.98
             1015.23,86.64 1012.46,85.01 1010.23,83.09
             1010.23,83.09 1014.97,77.70 1014.97,77.70
             1017.00,79.36 1019.33,80.70 1021.97,81.72
             1024.61,82.74 1027.46,83.25 1030.52,83.25 Z
           M 1091.64,36.00
           C 1098.95,36.00 1104.48,38.45 1108.22,43.33
             1111.97,48.21 1113.84,54.76 1113.84,62.95
             1113.84,68.23 1112.99,72.91 1111.28,76.97
             1109.57,81.03 1107.06,84.22 1103.75,86.53
             1100.44,88.84 1096.36,90.00 1091.53,90.00
             1084.22,90.00 1078.67,87.54 1074.89,82.62
             1071.12,77.71 1069.23,71.18 1069.23,63.05
             1069.23,57.73 1070.09,53.04 1071.80,48.97
             1073.50,44.89 1076.02,41.70 1079.34,39.42
             1082.68,37.14 1086.77,36.00 1091.64,36.00 Z
           M 1091.64,42.75
           C 1087.17,42.75 1083.80,44.41 1081.52,47.72
             1079.23,51.03 1078.09,56.15 1078.09,63.08
             1078.09,69.93 1079.22,75.01 1081.47,78.31
             1083.72,81.61 1087.07,83.25 1091.53,83.25
             1096.00,83.25 1099.36,81.59 1101.61,78.28
             1103.86,74.97 1104.98,69.87 1104.98,62.97
             1104.98,56.09 1103.86,51.00 1101.62,47.70
             1099.39,44.40 1096.07,42.75 1091.64,42.75 Z
           M 1131.39,89.00
           C 1131.39,89.00 1131.39,82.25 1131.39,82.25
             1131.39,82.25 1139.47,82.25 1139.47,82.25
             1139.47,82.25 1139.47,43.00 1139.47,43.00
             1139.47,43.00 1131.39,43.00 1131.39,43.00
             1131.39,43.00 1131.39,37.00 1131.39,37.00
             1131.39,37.00 1145.77,37.00 1145.77,37.00
             1145.77,37.00 1147.30,48.94 1147.30,48.94
             1149.30,44.81 1151.72,41.62 1154.58,39.38
             1157.43,37.12 1161.21,36.00 1165.91,36.00
             1167.34,36.00 1168.63,36.09 1169.77,36.28
             1170.90,36.47 1172.05,36.71 1173.23,37.00
             1173.23,37.00 1172.05,54.20 1172.05,54.20
             1172.05,54.20 1165.27,54.20 1165.27,54.20
             1165.27,54.20 1165.27,43.00 1165.27,43.00
             1165.13,43.00 1164.98,43.00 1164.81,43.00
             1156.88,43.00 1151.18,48.75 1147.73,60.25
             1147.73,60.25 1147.73,82.25 1147.73,82.25
             1147.73,82.25 1158.27,82.25 1158.27,82.25
             1158.27,82.25 1158.27,89.00 1158.27,89.00
             1158.27,89.00 1131.39,89.00 1131.39,89.00 Z
           M 1231.05,86.33
           C 1229.27,87.48 1227.12,88.39 1224.59,89.03
             1222.07,89.68 1219.60,90.00 1217.17,90.00
             1211.59,90.00 1207.29,88.55 1204.27,85.66
             1201.24,82.75 1199.73,79.02 1199.73,74.45
             1199.73,74.45 1199.73,43.75 1199.73,43.75
             1199.73,43.75 1187.83,43.75 1187.83,43.75
             1187.83,43.75 1187.83,37.00 1187.83,37.00
             1187.83,37.00 1199.73,37.00 1199.73,37.00
             1199.73,37.00 1199.73,25.22 1199.73,25.22
             1199.73,25.22 1208.02,24.22 1208.02,24.22
             1208.02,24.22 1208.02,37.00 1208.02,37.00
             1208.02,37.00 1225.94,37.00 1225.94,37.00
             1225.94,37.00 1224.95,43.75 1224.95,43.75
             1224.95,43.75 1208.02,43.75 1208.02,43.75
             1208.02,43.75 1208.02,74.42 1208.02,74.42
             1208.02,77.30 1208.77,79.49 1210.30,81.00
             1211.83,82.50 1214.36,83.25 1217.91,83.25
             1219.84,83.25 1221.63,83.03 1223.27,82.58
             1224.91,82.12 1226.44,81.54 1227.86,80.83
             1227.86,80.83 1231.05,86.33 1231.05,86.33 Z
           M 52.33,159.45
           C 52.33,159.45 44.66,195.64 44.66,195.64
             44.12,198.17 44.03,199.93 44.38,200.92
             44.73,201.90 45.62,202.75 47.06,203.47
             47.06,203.47 46.85,203.95 46.42,204.91
             45.99,205.86 45.57,206.81 45.14,207.77
             44.71,208.71 44.50,209.19 44.50,209.19
             41.84,208.82 39.82,207.89 38.42,206.38
             37.02,204.87 36.36,202.81 36.44,200.22
             34.16,203.01 31.77,205.13 29.23,206.58
             26.71,208.02 24.41,208.85 22.34,209.08
             16.31,209.58 11.77,207.94 8.72,204.16
             7.24,202.25 6.19,200.01 5.58,197.44
             4.97,194.87 4.77,192.25 4.98,189.59
             5.20,186.93 5.57,184.46 6.08,182.20
             6.59,179.95 7.22,177.79 7.97,175.75
             9.48,171.62 11.55,167.93 14.20,164.70
             16.85,161.48 19.96,158.99 23.53,157.25
             27.50,155.44 31.98,154.70 36.97,155.03
             41.96,155.36 47.08,156.83 52.33,159.45 Z
           M 37.12,192.55
           C 37.12,192.55 38.16,187.71 40.22,178.03
             42.29,168.34 43.33,163.50 43.33,163.50
             41.94,162.74 40.32,162.23 38.47,161.95
             36.61,161.67 34.88,161.59 33.25,161.69
             31.62,161.78 30.21,162.02 29.00,162.41
             26.47,163.29 24.05,165.03 21.73,167.62
             19.42,170.22 17.68,173.27 16.50,176.78
             15.57,179.45 14.87,182.09 14.39,184.72
             13.92,187.34 13.71,189.87 13.75,192.28
             13.80,194.69 14.28,196.77 15.19,198.53
             16.09,200.28 17.41,201.45 19.16,202.05
             25.09,203.98 31.08,200.82 37.12,192.55 Z
           M 138.53,135.19
           C 138.53,135.19 146.91,134.20 146.91,134.20
             146.63,135.35 146.30,136.87 145.91,138.77
             145.52,140.65 144.90,143.59 144.05,147.58
             143.19,151.56 142.48,154.88 141.91,157.55
             141.33,160.20 141.05,161.53 141.05,161.53
             143.77,159.03 146.91,157.18 150.50,155.97
             153.55,154.92 156.55,154.61 159.50,155.03
             166.20,156.01 170.09,160.56 171.17,168.67
             171.52,171.79 171.39,175.23 170.77,178.98
             170.15,182.73 169.30,185.96 168.22,188.66
             167.59,190.29 166.83,191.92 165.92,193.55
             165.02,195.17 163.89,196.88 162.53,198.67
             161.16,200.46 159.52,202.12 157.58,203.66
             155.64,205.18 153.55,206.41 151.33,207.36
             149.19,208.18 146.79,208.71 144.11,208.94
             141.44,209.16 138.84,209.11 136.31,208.77
             133.78,208.42 131.44,207.98 129.30,207.44
             127.15,206.90 125.24,206.26 123.56,205.53
             123.56,205.53 138.53,135.19 138.53,135.19 Z
           M 132.88,200.61
           C 135.03,201.60 137.49,202.20 140.25,202.39
             143.01,202.59 145.59,202.26 147.98,201.41
             150.27,200.52 152.44,198.93 154.47,196.64
             156.51,194.34 158.19,191.56 159.50,188.31
             160.78,185.19 161.69,181.97 162.23,178.66
             162.77,175.34 162.93,172.48 162.70,170.05
             162.21,164.63 159.52,161.78 154.62,161.48
             151.21,161.32 147.89,162.42 144.69,164.78
             142.58,166.36 140.86,167.86 139.52,169.30
             139.52,169.30 132.88,200.61 132.88,200.61 Z
           M 201.27,156.00
           C 201.27,156.00 193.44,192.62 193.44,192.62
             192.72,196.03 192.91,198.49 194.00,200.00
             195.10,201.50 197.15,202.25 200.14,202.25
             202.99,202.25 205.86,201.45 208.75,199.84
             211.64,198.24 214.02,196.34 215.89,194.14
             215.89,194.14 224.02,156.00 224.02,156.00
             224.02,156.00 232.28,156.00 232.28,156.00
             232.28,156.00 221.27,208.00 221.27,208.00
             221.27,208.00 214.22,208.00 214.22,208.00
             214.22,208.00 215.00,200.77 215.00,200.77
             212.41,203.43 209.46,205.48 206.16,206.89
             202.86,208.30 199.71,209.00 196.69,209.00
             191.66,209.00 188.20,207.66 186.30,204.98
             184.40,202.31 183.96,198.56 184.97,193.73
             184.97,193.73 193.00,156.00 193.00,156.00
             193.00,156.00 201.27,156.00 201.27,156.00 Z
           M 291.33,159.27
           C 291.33,159.30 289.71,166.91 286.48,182.11
             283.25,197.31 281.62,204.91 281.59,204.91
             280.34,210.68 278.85,215.05 277.11,218.02
             275.37,220.98 272.96,223.45 269.88,225.42
             268.20,226.54 266.18,227.39 263.81,228.00
             261.45,228.61 258.91,228.92 256.20,228.92
             253.49,228.92 250.63,228.50 247.61,227.66
             244.60,226.82 241.74,225.57 239.05,223.91
             239.08,223.94 239.68,222.93 240.84,220.88
             242.01,218.82 242.59,217.78 242.59,217.75
             244.39,218.86 246.39,219.77 248.59,220.47
             250.80,221.18 253.08,221.63 255.44,221.83
             257.80,222.02 260.15,221.75 262.48,221.02
             264.82,220.27 266.82,219.04 268.50,217.30
             268.91,216.80 269.32,216.25 269.72,215.62
             270.11,215.01 270.45,214.45 270.73,213.95
             271.02,213.46 271.30,212.78 271.59,211.91
             271.88,211.04 272.11,210.38 272.28,209.92
             272.45,209.46 272.66,208.66 272.92,207.52
             273.18,206.36 273.35,205.58 273.44,205.17
             273.52,204.76 273.70,203.86 273.98,202.47
             274.27,201.07 274.44,200.16 274.50,199.73
             272.13,202.39 269.71,204.39 267.23,205.73
             264.75,207.08 262.33,207.79 259.97,207.88
             257.61,207.96 255.19,207.61 252.69,206.81
             251.38,206.43 250.14,205.73 249.00,204.70
             247.85,203.68 246.84,202.34 245.97,200.67
             245.10,199.00 244.46,197.10 244.05,194.98
             243.64,192.86 243.54,190.37 243.75,187.52
             243.97,184.66 244.57,181.68 245.55,178.56
             246.50,175.41 247.67,172.57 249.05,170.05
             250.42,167.52 251.83,165.44 253.28,163.81
             254.73,162.19 256.30,160.79 257.98,159.61
             259.67,158.42 261.24,157.54 262.70,156.97
             264.17,156.40 265.68,155.95 267.22,155.62
             274.99,153.95 283.02,155.16 291.33,159.27 Z
           M 282.38,163.39
           C 280.89,162.45 278.72,161.85 275.84,161.61
             272.98,161.36 270.43,161.58 268.20,162.27
             263.87,163.64 260.25,166.70 257.36,171.42
             256.15,173.48 255.15,175.77 254.36,178.27
             253.58,180.76 253.07,183.08 252.84,185.23
             252.61,187.38 252.52,189.34 252.56,191.09
             252.61,192.84 252.79,194.23 253.08,195.25
             253.61,197.05 254.49,198.46 255.72,199.48
             256.95,200.51 258.36,201.07 259.97,201.19
             261.58,201.30 263.34,201.08 265.25,200.52
             266.82,200.03 268.67,198.88 270.80,197.08
             272.93,195.27 274.75,193.31 276.27,191.22
             276.27,191.22 282.38,163.39 282.38,163.39 Z
           M 375.56,216.91
           C 374.25,219.30 371.97,221.80 368.72,224.39
             366.19,226.36 362.88,228.07 358.78,229.52
             357.56,225.41 356.95,223.36 356.95,223.36
             359.52,222.27 361.71,221.12 363.53,219.89
             365.35,218.66 366.74,217.19 367.69,215.48
             369.13,212.98 370.15,210.39 370.73,207.70
             370.73,207.70 379.50,166.70 379.50,166.70
             379.50,166.70 367.14,166.70 367.14,166.70
             367.14,166.70 368.52,160.20 368.52,160.20
             368.52,160.20 380.88,160.20 380.88,160.20
             380.88,160.20 383.19,149.31 383.19,149.31
             383.58,147.18 384.54,145.09 386.05,143.06
             387.55,141.03 389.18,139.48 390.92,138.39
             395.48,135.40 400.72,134.02 406.62,134.25
             411.29,134.45 415.31,135.39 418.69,137.06
             418.69,137.06 418.36,137.58 417.70,138.61
             417.05,139.64 416.39,140.68 415.73,141.72
             415.08,142.75 414.75,143.25 414.75,143.22
             413.83,142.66 412.37,142.16 410.36,141.73
             408.36,141.31 406.36,141.08 404.36,141.05
             402.07,140.98 400.05,141.25 398.31,141.83
             397.78,142.03 397.33,142.20 396.97,142.36
             396.61,142.51 396.11,142.79 395.45,143.22
             394.80,143.65 394.23,144.12 393.75,144.64
             393.28,145.16 392.81,145.89 392.34,146.81
             391.88,147.73 391.54,148.76 391.31,149.91
             391.31,149.91 391.13,150.76 390.77,152.47
             390.41,154.18 390.05,155.89 389.69,157.59
             389.69,157.59 389.16,160.20 389.16,160.20
             389.16,160.20 406.72,160.25 406.72,160.25
             406.72,160.25 404.47,166.70 404.47,166.70
             404.47,166.70 387.77,166.70 387.77,166.70
             381.93,194.20 378.99,207.95 378.95,207.95
             378.57,209.43 378.18,210.74 377.78,211.89
             377.38,213.04 377.05,213.91 376.77,214.52
             376.48,215.13 376.08,215.93 375.56,216.91 Z
           M 418.47,208.00
           C 418.47,208.00 419.80,201.25 419.80,201.25
             419.80,201.25 427.88,201.25 427.88,201.25
             427.88,201.25 436.19,162.00 436.19,162.00
             436.19,162.00 428.11,162.00 428.11,162.00
             428.11,162.00 429.50,156.00 429.50,156.00
             429.50,156.00 443.88,156.00 443.88,156.00
             443.88,156.00 442.78,167.94 442.78,167.94
             445.71,163.81 448.84,160.62 452.19,158.38
             455.53,156.12 459.55,155.00 464.25,155.00
             465.70,155.00 466.96,155.09 468.05,155.28
             469.13,155.47 470.23,155.71 471.34,156.00
             471.34,156.00 466.42,173.20 466.42,173.20
             466.42,173.20 459.62,173.20 459.62,173.20
             459.62,173.20 461.98,162.00 461.98,162.00
             461.85,162.00 461.70,162.00 461.55,162.00
             453.60,162.00 446.69,167.75 440.81,179.25
             440.81,179.25 436.14,201.25 436.14,201.25
             436.14,201.25 446.67,201.25 446.67,201.25
             446.67,201.25 445.34,208.00 445.34,208.00
             445.34,208.00 418.47,208.00 418.47,208.00 Z
           M 487.91,188.31
           C 487.57,193.37 488.47,197.02 490.61,199.28
             490.93,199.62 491.22,199.89 491.48,200.11
             491.75,200.32 492.12,200.56 492.58,200.84
             493.04,201.12 493.52,201.34 494.05,201.50
             494.58,201.67 495.20,201.82 495.92,201.95
             496.65,202.08 497.49,202.14 498.44,202.12
             499.38,202.11 500.44,202.03 501.59,201.89
             505.33,201.43 509.07,199.88 512.81,197.22
             512.84,197.22 513.13,197.70 513.67,198.66
             514.21,199.61 514.74,200.55 515.27,201.48
             515.80,202.41 516.06,202.86 516.06,202.83
             510.51,206.67 504.60,208.77 498.34,209.12
             493.48,209.36 489.41,208.38 486.14,206.19
             482.88,203.98 480.80,200.88 479.92,196.88
             479.52,194.97 479.31,192.98 479.28,190.89
             479.25,188.81 479.39,186.78 479.70,184.81
             480.02,182.84 480.41,180.98 480.91,179.23
             481.41,177.48 481.98,175.74 482.64,174.03
             483.33,172.36 484.19,170.67 485.22,168.98
             486.25,167.30 487.48,165.61 488.91,163.92
             490.33,162.23 492.02,160.69 493.95,159.31
             495.89,157.94 497.96,156.89 500.16,156.16
             502.88,155.34 505.59,154.91 508.28,154.88
             510.97,154.84 513.54,155.31 516.00,156.27
             518.47,157.21 520.39,158.67 521.77,160.64
             522.79,162.05 523.38,163.71 523.56,165.64
             523.75,167.56 523.62,169.34 523.17,170.98
             522.73,172.62 522.10,174.20 521.28,175.70
             520.72,176.73 519.94,177.71 518.95,178.67
             517.97,179.62 516.58,180.61 514.78,181.64
             512.98,182.67 510.89,183.61 508.53,184.45
             506.16,185.29 503.20,186.05 499.64,186.73
             496.08,187.42 492.16,187.95 487.91,188.31 Z
           M 494.70,168.27
           C 491.68,172.67 489.73,177.27 488.84,182.06
             490.41,181.87 491.70,181.70 492.70,181.56
             493.70,181.43 495.00,181.24 496.59,181.00
             498.19,180.75 499.52,180.50 500.58,180.23
             501.64,179.98 502.86,179.64 504.23,179.23
             505.62,178.82 506.77,178.38 507.69,177.91
             508.61,177.43 509.57,176.86 510.55,176.20
             511.54,175.55 512.32,174.84 512.89,174.06
             513.46,173.28 513.94,172.39 514.33,171.38
             514.72,170.36 514.94,169.27 514.98,168.12
             515.02,166.09 514.36,164.44 513.02,163.16
             511.11,161.48 507.99,161.12 503.66,162.06
             502.08,162.43 500.48,163.15 498.86,164.22
             497.23,165.28 495.85,166.63 494.70,168.27 Z
           M 546.91,188.31
           C 546.57,193.37 547.47,197.02 549.61,199.28
             549.93,199.62 550.22,199.89 550.48,200.11
             550.75,200.32 551.12,200.56 551.58,200.84
             552.04,201.12 552.52,201.34 553.05,201.50
             553.58,201.67 554.20,201.82 554.92,201.95
             555.65,202.08 556.49,202.14 557.44,202.12
             558.38,202.11 559.44,202.03 560.59,201.89
             564.33,201.43 568.07,199.88 571.81,197.22
             571.84,197.22 572.13,197.70 572.67,198.66
             573.21,199.61 573.74,200.55 574.27,201.48
             574.80,202.41 575.06,202.86 575.06,202.83
             569.51,206.67 563.60,208.77 557.34,209.12
             552.48,209.36 548.41,208.38 545.14,206.19
             541.88,203.98 539.80,200.88 538.92,196.88
             538.52,194.97 538.31,192.98 538.28,190.89
             538.25,188.81 538.39,186.78 538.70,184.81
             539.02,182.84 539.41,180.98 539.91,179.23
             540.41,177.48 540.98,175.74 541.64,174.03
             542.33,172.36 543.19,170.67 544.22,168.98
             545.25,167.30 546.48,165.61 547.91,163.92
             549.33,162.23 551.02,160.69 552.95,159.31
             554.89,157.94 556.96,156.89 559.16,156.16
             561.88,155.34 564.59,154.91 567.28,154.88
             569.97,154.84 572.54,155.31 575.00,156.27
             577.47,157.21 579.39,158.67 580.77,160.64
             581.79,162.05 582.38,163.71 582.56,165.64
             582.75,167.56 582.62,169.34 582.17,170.98
             581.73,172.62 581.10,174.20 580.28,175.70
             579.72,176.73 578.94,177.71 577.95,178.67
             576.97,179.62 575.58,180.61 573.78,181.64
             571.98,182.67 569.89,183.61 567.53,184.45
             565.16,185.29 562.20,186.05 558.64,186.73
             555.08,187.42 551.16,187.95 546.91,188.31 Z
           M 553.70,168.27
           C 550.68,172.67 548.73,177.27 547.84,182.06
             549.41,181.87 550.70,181.70 551.70,181.56
             552.70,181.43 554.00,181.24 555.59,181.00
             557.19,180.75 558.52,180.50 559.58,180.23
             560.64,179.98 561.86,179.64 563.23,179.23
             564.62,178.82 565.77,178.38 566.69,177.91
             567.61,177.43 568.57,176.86 569.55,176.20
             570.54,175.55 571.32,174.84 571.89,174.06
             572.46,173.28 572.94,172.39 573.33,171.38
             573.72,170.36 573.94,169.27 573.98,168.12
             574.02,166.09 573.36,164.44 572.02,163.16
             570.11,161.48 566.99,161.12 562.66,162.06
             561.08,162.43 559.48,163.15 557.86,164.22
             556.23,165.28 554.85,166.63 553.70,168.27 Z
           M 703.64,159.75
           C 703.64,159.75 689.03,228.33 689.03,228.33
             689.03,228.33 680.56,229.42 680.56,229.42
             684.47,210.91 686.44,201.66 686.47,201.66
             685.22,203.20 683.84,204.52 682.33,205.62
             680.82,206.72 679.33,207.54 677.88,208.08
             676.41,208.62 675.05,209.00 673.78,209.23
             672.52,209.46 671.30,209.56 670.12,209.53
             668.77,209.50 667.38,209.24 665.95,208.77
             664.52,208.29 663.30,207.72 662.30,207.06
             660.36,205.81 658.79,203.86 657.59,201.19
             656.39,198.51 655.83,195.32 655.89,191.61
             655.99,187.28 656.78,182.82 658.25,178.25
             659.73,173.67 662.05,169.31 665.20,165.17
             667.75,161.98 670.84,159.53 674.47,157.81
             678.10,156.09 681.74,155.24 685.38,155.28
             688.79,155.31 692.11,155.74 695.34,156.56
             698.58,157.38 701.35,158.44 703.64,159.75 Z
           M 694.59,163.80
           C 692.69,162.95 690.73,162.37 688.72,162.08
             686.72,161.78 684.69,161.80 682.64,162.14
             680.60,162.48 678.58,163.32 676.59,164.66
             674.60,165.98 672.82,167.76 671.25,170.00
             670.10,171.67 669.09,173.47 668.22,175.41
             667.35,177.34 666.70,179.15 666.25,180.83
             665.81,182.50 665.45,184.18 665.17,185.89
             664.89,187.60 664.75,189.07 664.75,190.30
             664.75,191.53 664.77,192.67 664.80,193.72
             665.02,197.00 666.00,199.45 667.72,201.06
             669.45,202.67 671.85,203.23 674.94,202.73
             679.18,202.11 683.56,198.84 688.09,192.94
             688.09,192.91 688.63,190.47 689.72,185.62
             690.80,180.78 691.88,175.93 692.97,171.08
             694.05,166.23 694.59,163.80 694.59,163.80 Z
           M 732.27,156.00
           C 732.27,156.00 724.44,192.62 724.44,192.62
             723.72,196.03 723.91,198.49 725.00,200.00
             726.10,201.50 728.15,202.25 731.14,202.25
             733.99,202.25 736.86,201.45 739.75,199.84
             742.64,198.24 745.02,196.34 746.89,194.14
             746.89,194.14 755.02,156.00 755.02,156.00
             755.02,156.00 763.28,156.00 763.28,156.00
             763.28,156.00 752.27,208.00 752.27,208.00
             752.27,208.00 745.22,208.00 745.22,208.00
             745.22,208.00 746.00,200.77 746.00,200.77
             743.41,203.43 740.46,205.48 737.16,206.89
             733.86,208.30 730.71,209.00 727.69,209.00
             722.66,209.00 719.20,207.66 717.30,204.98
             715.40,202.31 714.96,198.56 715.97,193.73
             715.97,193.73 724.00,156.00 724.00,156.00
             724.00,156.00 732.27,156.00 732.27,156.00 Z
           M 807.81,132.00
           C 809.64,132.00 810.99,132.57 811.84,133.72
             812.70,134.87 812.96,136.27 812.64,137.92
             812.27,139.64 811.42,141.09 810.08,142.25
             808.73,143.42 807.14,144.00 805.30,144.00
             803.55,144.00 802.25,143.42 801.38,142.25
             800.51,141.09 800.26,139.64 800.62,137.92
             800.95,136.27 801.79,134.87 803.16,133.72
             804.52,132.57 806.07,132.00 807.81,132.00 Z
           M 809.23,156.00
           C 809.23,156.00 799.59,201.25 799.59,201.25
             799.59,201.25 814.22,201.25 814.22,201.25
             814.22,201.25 812.83,208.00 812.83,208.00
             812.83,208.00 773.94,208.00 773.94,208.00
             773.94,208.00 775.31,201.25 775.31,201.25
             775.31,201.25 791.31,201.25 791.31,201.25
             791.31,201.25 799.59,162.75 799.59,162.75
             799.59,162.75 784.08,162.75 784.08,162.75
             784.08,162.75 785.47,156.00 785.47,156.00
             785.47,156.00 809.23,156.00 809.23,156.00 Z
           M 855.69,202.25
           C 858.28,202.25 860.79,201.84 863.22,201.00
             865.64,200.16 867.94,199.06 870.11,197.72
             870.11,197.72 873.02,203.16 873.02,203.16
             870.36,204.97 867.31,206.40 863.88,207.44
             860.45,208.48 857.21,209.00 854.16,209.00
             849.01,209.00 844.86,207.90 841.70,205.69
             838.55,203.47 836.46,200.36 835.41,196.34
             834.35,192.32 834.40,187.61 835.55,182.20
             836.66,177.02 838.60,172.38 841.38,168.28
             844.16,164.18 847.61,160.94 851.75,158.56
             855.88,156.19 860.55,155.00 865.73,155.00
             872.33,155.00 877.69,156.96 881.83,160.89
             881.83,160.89 876.61,166.80 876.61,166.80
             872.77,163.43 868.63,161.75 864.20,161.75
             859.73,161.75 855.69,163.45 852.08,166.86
             848.47,170.27 845.95,175.42 844.52,182.33
             843.04,189.33 843.41,194.40 845.64,197.55
             847.87,200.68 851.22,202.25 855.69,202.25 Z
           M 906.02,135.28
           C 906.02,135.28 914.48,134.30 914.48,134.30
             909.86,155.86 907.53,166.64 907.50,166.64
             909.60,163.98 911.93,161.80 914.47,160.08
             917.01,158.35 919.39,157.17 921.62,156.53
             923.85,155.89 926.05,155.59 928.22,155.62
             934.59,155.81 938.71,157.59 940.58,160.94
             941.66,162.65 942.12,164.87 941.95,167.61
             941.80,170.35 940.95,172.89 939.41,175.22
             937.76,177.71 935.57,179.70 932.83,181.20
             930.09,182.70 926.35,183.81 921.62,184.56
             921.62,184.56 936.16,208.00 936.16,208.00
             936.16,208.00 926.66,208.00 926.66,208.00
             916.08,191.17 910.80,182.73 910.80,182.70
             916.61,181.68 921.32,180.40 924.92,178.84
             928.54,177.28 931.06,175.14 932.50,172.41
             933.06,171.39 933.43,170.16 933.59,168.72
             933.76,167.27 933.64,165.98 933.25,164.83
             932.85,163.78 932.02,162.94 930.75,162.31
             929.49,161.69 928.16,161.39 926.75,161.42
             922.78,161.46 918.82,162.95 914.86,165.86
             910.90,168.78 907.68,172.63 905.19,177.42
             905.19,177.42 903.61,185.06 903.61,185.06
             902.55,190.15 901.50,195.23 900.45,200.31
             900.45,200.31 898.83,208.00 898.83,208.00
             898.83,208.00 890.47,208.00 890.47,208.00
             890.47,208.00 906.02,135.28 906.02,135.28 Z
           M 1026.83,202.25
           C 1030.83,202.25 1034.13,201.51 1036.73,200.03
             1039.35,198.55 1040.92,196.55 1041.45,194.02
             1041.77,192.48 1041.77,191.13 1041.44,189.98
             1041.11,188.83 1040.16,187.79 1038.59,186.86
             1037.02,185.92 1034.49,184.99 1031.02,184.06
             1027.63,183.18 1024.74,182.15 1022.34,180.98
             1019.95,179.82 1018.21,178.30 1017.14,176.44
             1016.08,174.56 1015.86,172.13 1016.48,169.14
             1017.44,164.78 1020.00,161.33 1024.17,158.80
             1028.34,156.27 1033.34,155.00 1039.19,155.00
             1043.35,155.00 1046.87,155.56 1049.73,156.69
             1052.61,157.81 1054.97,159.17 1056.81,160.77
             1056.81,160.77 1051.98,166.88 1051.98,166.88
             1050.30,165.39 1048.38,164.16 1046.19,163.20
             1044.01,162.23 1041.25,161.75 1037.91,161.75
             1033.83,161.75 1030.80,162.38 1028.81,163.64
             1026.83,164.90 1025.63,166.53 1025.20,168.53
             1024.87,170.07 1025.02,171.34 1025.64,172.34
             1026.27,173.34 1027.49,174.23 1029.33,175.02
             1031.17,175.80 1033.75,176.66 1037.06,177.61
             1040.25,178.53 1042.97,179.61 1045.23,180.86
             1047.50,182.10 1049.12,183.73 1050.09,185.75
             1051.06,187.76 1051.20,190.37 1050.50,193.58
             1049.72,197.25 1048.04,200.22 1045.45,202.50
             1042.88,204.77 1039.81,206.42 1036.25,207.45
             1032.69,208.48 1029.05,209.00 1025.34,209.00
             1020.66,209.00 1016.80,208.33 1013.80,206.98
             1010.80,205.64 1008.38,204.01 1006.55,202.09
             1006.55,202.09 1012.45,196.70 1012.45,196.70
             1014.13,198.36 1016.18,199.70 1018.61,200.72
             1021.04,201.74 1023.77,202.25 1026.83,202.25 Z
           M 1097.94,155.00
           C 1105.26,155.00 1110.27,157.45 1112.98,162.33
             1115.69,167.21 1116.18,173.76 1114.44,181.95
             1113.31,187.23 1111.46,191.91 1108.89,195.97
             1106.32,200.03 1103.12,203.22 1099.31,205.53
             1095.51,207.84 1091.20,209.00 1086.38,209.00
             1079.05,209.00 1074.02,206.54 1071.30,201.62
             1068.58,196.71 1068.09,190.18 1069.83,182.05
             1070.94,176.73 1072.79,172.04 1075.36,167.97
             1077.94,163.89 1081.13,160.70 1084.94,158.42
             1088.75,156.14 1093.08,155.00 1097.94,155.00 Z
           M 1096.52,161.75
           C 1092.05,161.75 1088.32,163.41 1085.33,166.72
             1082.35,170.03 1080.13,175.15 1078.69,182.08
             1077.21,188.93 1077.24,194.01 1078.78,197.31
             1080.32,200.61 1083.33,202.25 1087.80,202.25
             1092.27,202.25 1095.97,200.59 1098.92,197.28
             1101.88,193.97 1104.09,188.87 1105.56,181.97
             1107.04,175.09 1107.01,170.00 1105.47,166.70
             1103.93,163.40 1100.94,161.75 1096.52,161.75 Z
           M 1126.47,208.00
           C 1126.47,208.00 1127.80,201.25 1127.80,201.25
             1127.80,201.25 1135.88,201.25 1135.88,201.25
             1135.88,201.25 1144.19,162.00 1144.19,162.00
             1144.19,162.00 1136.11,162.00 1136.11,162.00
             1136.11,162.00 1137.50,156.00 1137.50,156.00
             1137.50,156.00 1151.88,156.00 1151.88,156.00
             1151.88,156.00 1150.78,167.94 1150.78,167.94
             1153.71,163.81 1156.84,160.62 1160.19,158.38
             1163.53,156.12 1167.55,155.00 1172.25,155.00
             1173.70,155.00 1174.96,155.09 1176.05,155.28
             1177.13,155.47 1178.23,155.71 1179.34,156.00
             1179.34,156.00 1174.42,173.20 1174.42,173.20
             1174.42,173.20 1167.62,173.20 1167.62,173.20
             1167.62,173.20 1169.98,162.00 1169.98,162.00
             1169.85,162.00 1169.70,162.00 1169.55,162.00
             1161.60,162.00 1154.69,167.75 1148.81,179.25
             1148.81,179.25 1144.14,201.25 1144.14,201.25
             1144.14,201.25 1154.67,201.25 1154.67,201.25
             1154.67,201.25 1153.34,208.00 1153.34,208.00
             1153.34,208.00 1126.47,208.00 1126.47,208.00 Z
           M 1226.67,205.33
           C 1224.67,206.48 1222.33,207.39 1219.66,208.03
             1216.98,208.68 1214.43,209.00 1212.00,209.00
             1206.41,209.00 1202.43,207.55 1200.03,204.66
             1197.63,201.75 1196.93,198.02 1197.92,193.45
             1197.92,193.45 1204.47,162.75 1204.47,162.75
             1204.47,162.75 1192.55,162.75 1192.55,162.75
             1192.55,162.75 1193.94,156.00 1193.94,156.00
             1193.94,156.00 1205.84,156.00 1205.84,156.00
             1205.84,156.00 1208.36,144.22 1208.36,144.22
             1208.36,144.22 1216.83,143.22 1216.83,143.22
             1216.83,143.22 1214.11,156.00 1214.11,156.00
             1214.11,156.00 1232.03,156.00 1232.03,156.00
             1232.03,156.00 1229.67,162.75 1229.67,162.75
             1229.67,162.75 1212.73,162.75 1212.73,162.75
             1212.73,162.75 1206.19,193.42 1206.19,193.42
             1205.56,196.30 1205.86,198.49 1207.08,200.00
             1208.30,201.50 1210.68,202.25 1214.22,202.25
             1216.16,202.25 1217.99,202.03 1219.73,201.58
             1221.47,201.12 1223.11,200.54 1224.66,199.83
             1224.66,199.83 1226.67,205.33 1226.67,205.33 Z" />
</svg>
