<?xml version="1.0" encoding="UTF-8" standalone="no"?>
<!DOCTYPE svg PUBLIC "-//W3C//DTD SVG 20010904//EN"
              "http://www.w3.org/TR/2001/REC-SVG-20010904/DTD/svg10.dtd">

<svg xmlns="http://www.w3.org/2000/svg"
     width="4.26667in" height="0.8in"
     viewBox="0 0 1280 240">
  <path fill="#6a6a6a" d="M 402.69,45.25
           C 402.69,45.25 402.69,52.00 402.69,52.00
             402.69,52.00 364.39,52.00 364.39,52.00
             364.39,52.00 364.39,45.25 364.39,45.25
             364.39,45.25 402.69,45.25 402.69,45.25 Z
           M 402.69,64.25
           C 402.69,64.25 402.69,71.00 402.69,71.00
             402.69,71.00 364.39,71.00 364.39,71.00
             364.39,71.00 364.39,64.25 364.39,64.25
             364.39,64.25 402.69,64.25 402.69,64.25 Z
           M 564.28,35.00
           C 564.28,35.00 564.28,55.00 564.28,55.00
             564.28,55.00 583.62,55.00 583.62,55.00
             583.62,55.00 583.62,61.75 583.62,61.75
             583.62,61.75 564.28,61.75 564.28,61.75
             564.28,61.75 564.28,81.00 564.28,81.00
             564.28,81.00 556.55,81.00 556.55,81.00
             556.55,81.00 556.55,61.75 556.55,61.75
             556.55,61.75 537.45,61.75 537.45,61.75
             537.45,61.75 537.45,55.00 537.45,55.00
             537.45,55.00 556.55,55.00 556.55,55.00
             556.55,55.00 556.55,35.00 556.55,35.00
             556.55,35.00 564.28,35.00 564.28,35.00 Z
           M 756.69,45.25
           C 756.69,45.25 756.69,52.00 756.69,52.00
             756.69,52.00 718.39,52.00 718.39,52.00
             718.39,52.00 718.39,45.25 718.39,45.25
             718.39,45.25 756.69,45.25 756.69,45.25 Z
           M 756.69,64.25
           C 756.69,64.25 756.69,71.00 756.69,71.00
             756.69,71.00 718.39,71.00 718.39,71.00
             718.39,71.00 718.39,64.25 718.39,64.25
             718.39,64.25 756.69,64.25 756.69,64.25 Z
           M 933.69,45.25
           C 933.69,45.25 933.69,52.00 933.69,52.00
             933.69,52.00 895.39,52.00 895.39,52.00
             895.39,52.00 895.39,45.25 895.39,45.25
             895.39,45.25 933.69,45.25 933.69,45.25 Z
           M 933.69,64.25
           C 933.69,64.25 933.69,71.00 933.69,71.00
             933.69,71.00 895.39,71.00 895.39,71.00
             895.39,71.00 895.39,64.25 895.39,64.25
             895.39,64.25 933.69,64.25 933.69,64.25 Z
           M 1095.92,21.00
           C 1095.92,21.00 1095.08,67.00 1095.08,67.00
             1095.08,67.00 1087.66,67.00 1087.66,67.00
             1087.66,67.00 1086.67,21.00 1086.67,21.00
             1086.67,21.00 1095.92,21.00 1095.92,21.00 Z
           M 1091.44,77.00
           C 1093.34,77.00 1094.93,77.63 1096.19,78.89
             1097.46,80.15 1098.09,81.67 1098.09,83.45
             1098.09,85.27 1097.46,86.81 1096.19,88.09
             1094.93,89.36 1093.34,90.00 1091.44,90.00
             1089.57,90.00 1088.02,89.36 1086.77,88.09
             1085.52,86.81 1084.89,85.27 1084.89,83.45
             1084.89,81.67 1085.52,80.15 1086.77,78.89
             1088.02,77.63 1089.57,77.00 1091.44,77.00 Z
           M 1189.80,62.00
           C 1189.80,62.00 1189.80,55.25 1189.80,55.25
             1189.80,55.25 1229.28,55.25 1229.28,55.25
             1229.28,55.25 1229.28,62.00 1229.28,62.00
             1229.28,62.00 1189.80,62.00 1189.80,62.00 Z
           M 54.50,55.05
           C 54.50,61.91 53.56,67.97 51.69,73.22
             49.82,78.47 47.04,82.58 43.34,85.55
             39.66,88.52 35.05,90.00 29.53,90.00
             24.02,90.00 19.41,88.55 15.72,85.64
             12.03,82.73 9.25,78.68 7.38,73.47
             5.51,68.25 4.58,62.14 4.58,55.14
             4.58,48.29 5.51,42.22 7.38,36.94
             9.25,31.66 12.03,27.52 15.72,24.52
             19.41,21.51 24.02,20.00 29.53,20.00
             35.05,20.00 39.66,21.46 43.34,24.39
             47.04,27.31 49.82,31.40 51.69,36.67
             53.56,41.93 54.50,48.06 54.50,55.05 Z
           M 45.53,55.08
           C 45.53,45.92 44.29,38.91 41.81,34.05
             39.34,29.18 35.25,26.75 29.53,26.75
             23.82,26.75 19.73,29.20 17.25,34.09
             14.77,38.99 13.53,46.02 13.53,55.17
             13.53,64.33 14.81,71.30 17.38,76.08
             19.94,80.86 23.99,83.25 29.53,83.25
             35.25,83.25 39.34,80.84 41.81,76.03
             44.29,71.22 45.53,64.23 45.53,55.08 Z
           M 81.11,27.75
           C 81.11,27.75 81.11,52.00 81.11,52.00
             81.11,52.00 107.69,52.00 107.69,52.00
             107.69,52.00 107.69,58.75 107.69,58.75
             107.69,58.75 81.11,58.75 81.11,58.75
             81.11,58.75 81.11,89.00 81.11,89.00
             81.11,89.00 72.64,89.00 72.64,89.00
             72.64,89.00 72.64,21.00 72.64,21.00
             72.64,21.00 112.56,21.00 112.56,21.00
             112.56,21.00 111.53,27.75 111.53,27.75
             111.53,27.75 81.11,27.75 81.11,27.75 Z
           M 140.11,27.75
           C 140.11,27.75 140.11,52.00 140.11,52.00
             140.11,52.00 166.69,52.00 166.69,52.00
             166.69,52.00 166.69,58.75 166.69,58.75
             166.69,58.75 140.11,58.75 140.11,58.75
             140.11,58.75 140.11,89.00 140.11,89.00
             140.11,89.00 131.64,89.00 131.64,89.00
             131.64,89.00 131.64,21.00 131.64,21.00
             131.64,21.00 171.56,21.00 171.56,21.00
             171.56,21.00 170.53,27.75 170.53,27.75
             170.53,27.75 140.11,27.75 140.11,27.75 Z
           M 198.52,37.95
           C 198.52,35.75 199.27,33.87 200.80,32.33
             202.33,30.78 204.21,30.00 206.44,30.00
             208.74,30.00 210.65,30.78 212.17,32.33
             213.70,33.87 214.47,35.75 214.47,37.95
             214.47,40.16 213.70,42.06 212.17,43.64
             210.65,45.21 208.74,46.00 206.44,46.00
             204.21,46.00 202.33,45.21 200.80,43.64
             199.27,42.06 198.52,40.16 198.52,37.95 Z
           M 198.52,73.95
           C 198.52,71.81 199.27,69.95 200.80,68.38
             202.33,66.79 204.21,66.00 206.44,66.00
             208.74,66.00 210.65,66.79 212.17,68.38
             213.70,69.95 214.47,71.81 214.47,73.95
             214.47,76.20 213.70,78.09 212.17,79.66
             210.65,81.22 208.74,82.00 206.44,82.00
             204.21,82.00 202.33,81.22 200.80,79.66
             199.27,78.09 198.52,76.20 198.52,73.95 Z
           M 328.92,21.00
           C 328.92,21.00 328.08,67.00 328.08,67.00
             328.08,67.00 320.66,67.00 320.66,67.00
             320.66,67.00 319.67,21.00 319.67,21.00
             319.67,21.00 328.92,21.00 328.92,21.00 Z
           M 324.44,77.00
           C 326.34,77.00 327.93,77.63 329.19,78.89
             330.46,80.15 331.09,81.67 331.09,83.45
             331.09,85.27 330.46,86.81 329.19,88.09
             327.93,89.36 326.34,90.00 324.44,90.00
             322.57,90.00 321.02,89.36 319.77,88.09
             318.52,86.81 317.89,85.27 317.89,83.45
             317.89,81.67 318.52,80.15 319.77,78.89
             321.02,77.63 322.57,77.00 324.44,77.00 Z
           M 505.28,35.00
           C 505.28,35.00 505.28,55.00 505.28,55.00
             505.28,55.00 524.62,55.00 524.62,55.00
             524.62,55.00 524.62,61.75 524.62,61.75
             524.62,61.75 505.28,61.75 505.28,61.75
             505.28,61.75 505.28,81.00 505.28,81.00
             505.28,81.00 497.55,81.00 497.55,81.00
             497.55,81.00 497.55,61.75 497.55,61.75
             497.55,61.75 478.45,61.75 478.45,61.75
             478.45,61.75 478.45,55.00 478.45,55.00
             478.45,55.00 497.55,55.00 497.55,55.00
             497.55,55.00 497.55,35.00 497.55,35.00
             497.55,35.00 505.28,35.00 505.28,35.00 Z
           M 695.52,30.52
           C 695.52,30.52 699.52,36.86 699.52,36.86
             699.52,36.86 664.75,58.19 664.75,58.19
             664.75,58.19 699.52,79.70 699.52,79.70
             699.52,79.70 695.08,85.75 695.08,85.75
             695.08,85.75 657.67,62.36 657.67,62.36
             657.67,62.36 657.67,53.89 657.67,53.89
             657.67,53.89 695.52,30.52 695.52,30.52 Z
           M 847.52,46.95
           C 847.52,44.75 848.27,42.87 849.80,41.33
             851.33,39.78 853.21,39.00 855.44,39.00
             857.74,39.00 859.65,39.78 861.17,41.33
             862.70,42.87 863.47,44.75 863.47,46.95
             863.47,49.16 862.70,51.06 861.17,52.64
             859.65,54.21 857.74,55.00 855.44,55.00
             853.21,55.00 851.33,54.21 849.80,52.64
             848.27,51.06 847.52,49.16 847.52,46.95 Z
           M 847.52,81.95
           C 847.52,79.81 848.27,77.95 849.80,76.38
             851.33,74.79 853.21,74.00 855.44,74.00
             857.74,74.00 859.65,74.79 861.17,76.38
             862.70,77.95 863.47,79.81 863.47,81.95
             863.47,84.20 862.70,86.09 861.17,87.66
             859.65,89.22 857.74,90.00 855.44,90.00
             853.21,90.00 851.33,89.22 849.80,87.66
             848.27,86.09 847.52,84.20 847.52,81.95 Z
           M 1049.52,30.52
           C 1049.52,30.52 1053.52,36.86 1053.52,36.86
             1053.52,36.86 1018.75,58.19 1018.75,58.19
             1018.75,58.19 1053.52,79.70 1053.52,79.70
             1053.52,79.70 1049.08,85.75 1049.08,85.75
             1049.08,85.75 1011.67,62.36 1011.67,62.36
             1011.67,62.36 1011.67,53.89 1011.67,53.89
             1011.67,53.89 1049.52,30.52 1049.52,30.52 Z
           M 1130.80,62.00
           C 1130.80,62.00 1130.80,55.25 1130.80,55.25
             1130.80,55.25 1170.28,55.25 1170.28,55.25
             1170.28,55.25 1170.28,62.00 1170.28,62.00
             1170.28,62.00 1130.80,62.00 1130.80,62.00 Z
           M 113.50,174.05
           C 113.50,180.91 112.56,186.97 110.69,192.22
             108.82,197.47 106.04,201.58 102.34,204.55
             98.66,207.52 94.05,209.00 88.53,209.00
             83.02,209.00 78.41,207.55 74.72,204.64
             71.03,201.73 68.25,197.68 66.38,192.47
             64.51,187.25 63.58,181.14 63.58,174.14
             63.58,167.29 64.51,161.22 66.38,155.94
             68.25,150.66 71.03,146.52 74.72,143.52
             78.41,140.51 83.02,139.00 88.53,139.00
             94.05,139.00 98.66,140.46 102.34,143.39
             106.04,146.31 108.82,150.40 110.69,155.67
             112.56,160.93 113.50,167.06 113.50,174.05 Z
           M 104.53,174.08
           C 104.53,164.92 103.29,157.91 100.81,153.05
             98.34,148.18 94.25,145.75 88.53,145.75
             82.82,145.75 78.73,148.20 76.25,153.09
             73.77,157.99 72.53,165.02 72.53,174.17
             72.53,183.33 73.81,190.30 76.38,195.08
             78.94,199.86 82.99,202.25 88.53,202.25
             94.25,202.25 98.34,199.84 100.81,195.03
             103.29,190.22 104.53,183.23 104.53,174.08 Z
           M 156.89,208.00
           C 156.89,208.00 133.02,148.30 133.02,148.30
             133.05,149.29 133.16,151.16 133.36,153.91
             133.55,156.65 133.73,159.80 133.89,163.36
             134.05,166.92 134.14,170.46 134.14,173.98
             134.14,173.98 134.14,208.00 134.14,208.00
             134.14,208.00 126.22,208.00 126.22,208.00
             126.22,208.00 126.22,140.00 126.22,140.00
             126.22,140.00 137.80,140.00 137.80,140.00
             137.80,140.00 162.06,200.08 162.06,200.08
             162.03,199.12 161.91,197.37 161.72,194.81
             161.52,192.26 161.34,189.18 161.17,185.58
             161.00,181.98 160.92,178.13 160.92,174.05
             160.92,174.05 160.92,140.00 160.92,140.00
             160.92,140.00 168.86,140.00 168.86,140.00
             168.86,140.00 168.86,208.00 168.86,208.00
             168.86,208.00 156.89,208.00 156.89,208.00 Z
           M 198.52,156.95
           C 198.52,154.75 199.27,152.87 200.80,151.33
             202.33,149.78 204.21,149.00 206.44,149.00
             208.74,149.00 210.65,149.78 212.17,151.33
             213.70,152.87 214.47,154.75 214.47,156.95
             214.47,159.16 213.70,161.06 212.17,162.64
             210.65,164.21 208.74,165.00 206.44,165.00
             204.21,165.00 202.33,164.21 200.80,162.64
             199.27,161.06 198.52,159.16 198.52,156.95 Z
           M 198.52,192.95
           C 198.52,190.81 199.27,188.95 200.80,187.38
             202.33,185.79 204.21,185.00 206.44,185.00
             208.74,185.00 210.65,185.79 212.17,187.38
             213.70,188.95 214.47,190.81 214.47,192.95
             214.47,195.20 213.70,197.09 212.17,198.66
             210.65,200.22 208.74,201.00 206.44,201.00
             204.21,201.00 202.33,200.22 200.80,198.66
             199.27,197.09 198.52,195.20 198.52,192.95 Z
           M 334.55,216.50
           C 334.55,216.50 327.95,213.20 327.95,213.20
             327.95,213.20 341.80,190.00 341.80,190.00
             341.80,190.00 305.31,190.00 305.31,190.00
             305.31,190.00 305.31,183.25 305.31,183.25
             305.31,183.25 346.08,183.25 346.08,183.25
             346.08,183.25 352.97,171.00 352.97,171.00
             352.97,171.00 305.31,171.00 305.31,171.00
             305.31,171.00 305.31,164.25 305.31,164.25
             305.31,164.25 357.25,164.25 357.25,164.25
             357.25,164.25 373.64,136.75 373.64,136.75
             373.64,136.75 380.05,139.94 380.05,139.94
             380.05,139.94 365.62,164.25 365.62,164.25
             365.62,164.25 402.69,164.25 402.69,164.25
             402.69,164.25 402.69,171.00 402.69,171.00
             402.69,171.00 361.39,171.00 361.39,171.00
             361.39,171.00 354.55,183.25 354.55,183.25
             354.55,183.25 402.69,183.25 402.69,183.25
             402.69,183.25 402.69,190.00 402.69,190.00
             402.69,190.00 350.31,190.00 350.31,190.00
             350.31,190.00 334.55,216.50 334.55,216.50 Z
           M 510.12,180.75
           C 510.12,180.75 510.12,200.00 510.12,200.00
             510.12,200.00 502.39,200.00 502.39,200.00
             502.39,200.00 502.39,180.75 502.39,180.75
             502.39,180.75 483.30,180.75 483.30,180.75
             483.30,180.75 483.30,174.00 483.30,174.00
             483.30,174.00 502.39,174.00 502.39,174.00
             502.39,174.00 502.39,154.00 502.39,154.00
             502.39,154.00 510.12,154.00 510.12,154.00
             510.12,154.00 510.12,174.00 510.12,174.00
             510.12,174.00 551.62,174.00 551.62,174.00
             551.62,174.00 551.62,154.00 551.62,154.00
             551.62,154.00 559.36,154.00 559.36,154.00
             559.36,154.00 559.36,174.00 559.36,174.00
             559.36,174.00 578.70,174.00 578.70,174.00
             578.70,174.00 578.70,180.75 578.70,180.75
             578.70,180.75 559.36,180.75 559.36,180.75
             559.36,180.75 559.36,200.00 559.36,200.00
             559.36,200.00 551.62,200.00 551.62,200.00
             551.62,200.00 551.62,180.75 551.62,180.75
             551.62,180.75 510.12,180.75 510.12,180.75 Z
           M 736.41,187.86
           C 736.41,187.86 687.91,166.59 687.91,166.59
             687.91,166.59 736.41,145.33 736.41,145.33
             736.41,145.33 733.45,138.64 733.45,138.64
             733.45,138.64 679.50,162.66 679.50,162.66
             679.50,162.66 679.50,170.58 679.50,170.58
             679.50,170.58 733.45,194.56 733.45,194.56
             733.45,194.56 736.41,187.86 736.41,187.86 Z
           M 734.58,210.70
           C 734.58,210.70 680.58,187.03 680.58,187.03
             680.58,187.03 677.67,193.42 677.67,193.42
             677.67,193.42 731.69,217.41 731.69,217.41
             731.69,217.41 734.58,210.70 734.58,210.70 Z
           M 847.19,165.95
           C 847.19,163.75 847.95,161.87 849.45,160.33
             850.96,158.78 852.85,158.00 855.11,158.00
             857.41,158.00 859.32,158.78 860.83,160.33
             862.34,161.87 863.09,163.75 863.09,165.95
             863.09,168.16 862.34,170.06 860.83,171.64
             859.32,173.21 857.41,174.00 855.11,174.00
             852.85,174.00 850.96,173.21 849.45,171.64
             847.95,170.06 847.19,168.16 847.19,165.95 Z
           M 933.69,165.00
           C 933.69,165.00 933.69,171.75 933.69,171.75
             933.69,171.75 879.19,171.75 879.19,171.75
             879.19,171.75 879.19,165.00 879.19,165.00
             879.19,165.00 933.69,165.00 933.69,165.00 Z
           M 847.19,189.95
           C 847.19,187.81 847.95,185.95 849.45,184.38
             850.96,182.79 852.85,182.00 855.11,182.00
             857.41,182.00 859.32,182.79 860.83,184.38
             862.34,185.95 863.09,187.81 863.09,189.95
             863.09,192.20 862.34,194.09 860.83,195.66
             859.32,197.22 857.41,198.00 855.11,198.00
             852.85,198.00 850.96,197.22 849.45,195.66
             847.95,194.09 847.19,192.20 847.19,189.95 Z
           M 933.69,184.00
           C 933.69,184.00 933.69,190.75 933.69,190.75
             933.69,190.75 879.19,190.75 879.19,190.75
             879.19,190.75 879.19,184.00 879.19,184.00
             879.19,184.00 933.69,184.00 933.69,184.00 Z
           M 1066.23,140.00
           C 1066.23,140.00 1065.39,186.00 1065.39,186.00
             1065.39,186.00 1057.95,186.00 1057.95,186.00
             1057.95,186.00 1056.97,140.00 1056.97,140.00
             1056.97,140.00 1066.23,140.00 1066.23,140.00 Z
           M 1031.77,147.56
           C 1031.77,147.56 1037.88,152.78 1037.88,152.78
             1037.88,152.78 1023.84,168.50 1023.84,168.50
             1022.50,170.00 1021.47,171.11 1020.75,171.83
             1020.02,172.55 1018.95,173.36 1017.53,174.25
             1017.53,174.25 1047.22,174.25 1047.22,174.25
             1047.22,174.25 1047.22,181.00 1047.22,181.00
             1047.22,181.00 1017.48,181.00 1017.48,181.00
             1018.70,181.78 1019.82,182.65 1020.84,183.61
             1021.86,184.57 1022.86,185.57 1023.84,186.61
             1023.84,186.61 1037.88,201.94 1037.88,201.94
             1037.88,201.94 1031.77,207.08 1031.77,207.08
             1031.77,207.08 1004.98,177.64 1004.98,177.64
             1004.98,177.64 1031.77,147.56 1031.77,147.56 Z
           M 1077.25,181.00
           C 1077.25,181.00 1077.25,174.25 1077.25,174.25
             1077.25,174.25 1226.81,174.25 1226.81,174.25
             1226.81,174.25 1226.81,181.00 1226.81,181.00
             1226.81,181.00 1077.25,181.00 1077.25,181.00 Z
           M 1061.75,196.00
           C 1063.66,196.00 1065.24,196.63 1066.50,197.89
             1067.76,199.15 1068.39,200.67 1068.39,202.45
             1068.39,204.27 1067.76,205.81 1066.50,207.09
             1065.24,208.36 1063.66,209.00 1061.75,209.00
             1059.88,209.00 1058.32,208.36 1057.08,207.09
             1055.83,205.81 1055.20,204.27 1055.20,202.45
             1055.20,200.67 1055.83,199.15 1057.08,197.89
             1058.32,196.63 1059.88,196.00 1061.75,196.00 Z" />
</svg>
