<?xml version="1.0" encoding="UTF-8" standalone="no"?>
<!DOCTYPE svg PUBLIC "-//W3C//DTD SVG 20010904//EN"
              "http://www.w3.org/TR/2001/REC-SVG-20010904/DTD/svg10.dtd">

<svg xmlns="http://www.w3.org/2000/svg"
     viewBox="0 0 2400 1950">
  <path d="M 1910.67,1330.00
           C 1910.67,1330.00 1831.00,1330.00 1831.00,1330.00
             1831.00,1330.00 1830.20,1487.00 1830.20,1487.00
             1830.20,1487.00 1670.00,1487.00 1670.00,1487.00
             1670.00,1487.00 1670.20,1568.70 1670.20,1568.70
             1670.20,1568.70 1818.91,1568.70 1818.91,1568.70
             1846.50,1568.70 1868.76,1560.15 1885.69,1543.05
             1902.62,1525.95 1911.09,1503.47 1911.09,1475.60
             1911.09,1475.60 1910.67,1330.00 1910.67,1330.00 Z
           M 1670.20,151.30
           C 1670.20,151.30 1818.91,151.30 1818.91,151.30
             1846.50,151.30 1868.76,159.85 1885.69,176.95
             1902.62,194.05 1911.09,216.53 1911.09,244.40
             1911.09,244.40 1912.00,390.00 1912.00,390.00
             1912.00,390.00 1830.20,390.17 1830.20,390.17
             1830.20,390.17 1830.20,233.00 1830.20,233.00
             1830.20,233.00 1669.77,233.00 1669.77,233.00
             1669.77,233.00 1670.20,151.30 1670.20,151.30 Z
           M 588.61,233.00
           C 588.61,233.00 588.61,389.79 588.61,389.79
             588.61,389.79 507.72,389.90 507.72,389.90
             507.72,301.67 507.72,244.40 507.72,244.40
             507.72,216.53 516.19,194.05 533.12,176.95
             550.05,159.85 572.31,151.30 599.90,151.30
             599.90,151.30 730.00,151.00 730.00,151.00
             730.00,151.00 730.00,233.00 730.00,233.00
             730.00,233.00 588.61,233.00 588.61,233.00 Z
           M 507.72,1330.22
           C 507.72,1330.22 507.72,1475.60 507.72,1475.60
             507.72,1503.47 516.19,1525.95 533.12,1543.05
             550.05,1560.15 572.31,1568.70 599.90,1568.70
             599.90,1568.70 730.00,1569.00 730.00,1569.00
             730.00,1569.00 730.00,1487.00 730.00,1487.00
             730.00,1487.00 588.61,1487.00 588.61,1487.00
             588.61,1487.00 588.61,1329.83 588.61,1329.83
             588.61,1329.83 507.72,1330.22 507.72,1330.22 Z
           M 588.00,710.00
           C 588.00,710.00 507.00,710.00 507.00,710.00
             507.00,710.00 507.00,1010.00 507.00,1010.00
             507.00,1010.00 588.00,1010.00 588.00,1010.00
             588.00,1010.00 588.00,710.00 588.00,710.00 Z
           M 1050.00,1487.00
           C 1050.00,1487.00 1050.00,1569.00 1050.00,1569.00
             1050.00,1569.00 1350.00,1569.00 1350.00,1569.00
             1350.00,1569.00 1350.00,1487.00 1350.00,1487.00
             1350.00,1487.00 1050.00,1487.00 1050.00,1487.00 Z
           M 1831.00,710.00
           C 1831.00,710.00 1831.00,1010.00 1831.00,1010.00
             1831.00,1010.00 1912.00,1010.00 1912.00,1010.00
             1912.00,1010.00 1912.00,710.00 1912.00,710.00
             1912.00,710.00 1831.00,710.00 1831.00,710.00 Z
           M 1050.00,151.00
           C 1050.00,151.00 1050.00,233.00 1050.00,233.00
             1050.00,233.00 1350.00,233.00 1350.00,233.00
             1350.00,233.00 1350.00,151.00 1350.00,151.00
             1350.00,151.00 1050.00,151.00 1050.00,151.00 Z" />
</svg>
