<?xml version="1.0" encoding="UTF-8" standalone="no"?>
<svg
   version="1.1"
   viewBox="-10 0 1010 1000"
   xmlns="http://www.w3.org/2000/svg"><path
     d="M 580,129 H 420 v 39 h 160 z m 291,121 v -75 c 0,-14 -4.16667,-25.16667 -12.5,-33.5 C 850.16667,133.16667 839,129 825,129 h -75 v 39 h 82 v 82 z m 0,330 V 420 H 832 V 580 Z M 168,250 v -82 h 82 v -39 h -75 c -14,0 -25.16667,4.16667 -33.5,12.5 C 133.16667,149.83333 129,161 129,175 v 75 z m -39,170 v 160 h 39 V 420 Z m 0,330 v 75 c 0,14 4.16667,25.16667 12.5,33.5 8.33333,8.33333 19.5,12.5 33.5,12.5 h 75 V 832 H 168 V 750 Z M 420,871 H 580 V 832 H 420 Z m 330,0 h 75 c 14,0 25.16667,-4.16667 33.5,-12.5 C 866.83333,850.16667 871,839 871,825 v -75 h -39 v 82 h -82 z" /></svg>
