<?xml version="1.0" encoding="UTF-8" standalone="no"?>
<!DOCTYPE svg PUBLIC "-//W3C//DTD SVG 20010904//EN"
              "http://www.w3.org/TR/2001/REC-SVG-20010904/DTD/svg10.dtd">

<svg xmlns="http://www.w3.org/2000/svg"
     viewBox="0 0 1000 1000">
  <path d="M 580.14,127.00
           C 580.14,127.00 419.72,127.00 419.72,127.00
             419.72,127.00 419.88,170.00 419.88,170.00
             419.88,170.00 579.80,170.00 579.80,170.00
             579.80,170.00 580.14,127.00 580.14,127.00 Z
           M 874.26,249.76
           C 874.26,249.76 874.26,176.00 874.26,176.00
             874.26,161.33 869.80,149.50 860.89,140.50
             851.98,131.50 840.26,127.00 825.74,127.00
             825.74,127.00 749.80,127.00 749.80,127.00
             749.80,127.00 750.22,170.00 750.22,170.00
             750.22,170.00 831.68,170.00 831.68,170.00
             831.68,170.00 831.68,249.87 831.68,249.87
             831.68,249.87 874.26,249.76 874.26,249.76 Z
           M 831.68,749.97
           C 831.68,749.97 831.68,830.00 831.68,830.00
             831.68,830.00 750.08,830.00 750.08,830.00
             750.08,830.00 750.24,873.00 750.24,873.00
             750.24,873.00 825.74,873.00 825.74,873.00
             840.26,873.00 851.98,868.50 860.89,859.50
             869.80,850.50 874.26,838.67 874.26,824.00
             874.26,824.00 874.26,750.05 874.26,750.05
             874.26,750.05 831.68,749.97 831.68,749.97 Z
           M 874.26,579.79
           C 874.26,579.79 874.26,420.24 874.26,420.24
             874.26,420.24 831.68,419.73 831.68,419.73
             831.68,419.73 831.68,579.79 831.68,579.79
             831.68,579.79 874.26,579.79 874.26,579.79 Z
           M 579.85,830.00
           C 579.85,830.00 419.87,830.00 419.87,830.00
             419.87,830.00 419.86,873.00 419.86,873.00
             419.86,873.00 580.06,873.00 580.06,873.00
             580.06,873.00 579.85,830.00 579.85,830.00 Z
           M 249.83,830.00
           C 249.83,830.00 178.22,830.00 178.22,830.00
             178.22,830.00 178.22,750.13 178.22,750.13
             178.22,750.13 135.64,750.24 135.64,750.24
             135.64,750.24 135.64,824.00 135.64,824.00
             135.64,838.67 140.10,850.50 149.01,859.50
             157.92,868.50 169.64,873.00 184.16,873.00
             184.16,873.00 249.81,873.00 249.81,873.00
             249.81,873.00 249.83,830.00 249.83,830.00 Z
           M 178.22,580.27
           C 178.22,580.27 178.22,420.21 178.22,420.21
             178.22,420.21 135.64,420.21 135.64,420.21
             135.64,420.21 135.64,579.76 135.64,579.76
             135.64,579.76 178.22,580.27 178.22,580.27 Z
           M 178.22,250.03
           C 178.22,250.03 178.22,170.00 178.22,170.00
             178.22,170.00 249.81,170.00 249.81,170.00
             249.81,170.00 249.78,127.00 249.78,127.00
             249.78,127.00 184.16,127.00 184.16,127.00
             169.64,127.00 157.92,131.50 149.01,140.50
             140.10,149.50 135.64,161.33 135.64,176.00
             135.64,176.00 135.64,249.95 135.64,249.95
             135.64,249.95 178.22,250.03 178.22,250.03 Z" />
</svg>
