<?xml version="1.0" encoding="UTF-8" standalone="no"?>
<svg
   version="1.1"
   viewBox="-10 0 1010 1000"
   xmlns="http://www.w3.org/2000/svg"><path
     d="M 838.3926,0 C 790.5989,0 751.9189,14.360085 722.3516,43.078125 692.7843,71.796175 678,108.80571 678,154.10742 678,180.65546 683.078,204.28646 693.2324,225 H 557 V 75 H 423 V 225 H 80 V 350 H 424 V 801 H 275 l 32,124 h 122 c 44.6667,0 77.1667,-10.16667 97.5,-30.5 C 546.8333,874.16667 557,842.66667 557,800 V 350 h 313 v -45.18555 c 34.2392,-4.96594 62.7884,-18.39444 85.6484,-40.28515 C 985.2157,236.21573 1000,199.40913 1000,154.10742 1000,108.80571 985.2157,71.796175 955.6484,43.078125 926.0811,14.360085 886.9964,0 838.3926,0 Z m -0.7403,68.607422 c 28.5938,0 50.5316,6.27856 65.8145,18.83789 15.283,12.559338 22.9258,30.432698 22.9258,53.619138 v 26.08399 c 0,23.18644 -7.6428,41.05981 -22.9258,53.61914 -15.2829,12.55932 -37.2207,18.83984 -65.8145,18.83984 -27.6079,0 -49.0529,-6.28052 -64.3359,-18.83984 -15.2829,-12.55933 -22.9238,-30.4327 -22.9238,-53.61914 v -26.08399 c 0,-23.18644 7.6409,-41.0598 22.9238,-53.619138 15.283,-12.55933 36.728,-18.83789 64.3359,-18.83789 z M 184,414 C 169.3333,476.66667 150.1667,537.33333 126.5,596 102.8333,654.66667 75.6667,708 45,756 l 125,66 c 30,-52 57.3333,-110.83333 82,-176.5 24.6667,-65.66667 44.6667,-131.83333 60,-198.5 z m 603,0 -131,37 c 32.6667,116 82,239.66667 148,371 L 928,757 C 863.3333,635 816.3333,520.66667 787,414 Z" /></svg>
