<?xml version="1.0" encoding="UTF-8" standalone="no"?>
<svg
   viewBox="0 0 1000 1000">
  <path
     d="m 871.28,309.35 c 30.05,-5.86 55.39,-18.81 76.04,-38.82 29.2,-28.31 43.8,-65.12 43.8,-110.42 0,-45.3 -14.6,-82.31 -43.8,-111.03 C 918.12,20.36 879.51,6 831.51,6 784.3,6 746.1,20.36 716.9,49.08 c -29.21,28.72 -43.81,65.73 -43.81,111.03 0,24.01 4.1,45.64 12.31,64.88 L 561.39,225 V 75 H 428.71 V 225 H 89.11 V 350 H 429.7 V 801 H 282.18 l 31.68,124 h 120.79 c 44.23,0 76.41,-10.17 96.54,-30.5 20.13,-20.33 30.2,-51.83 30.2,-94.5 V 350 h 309.9 z m -39.9,-59.73 c -28,0 -49.75,-6.57 -65.25,-19.71 -15.5,-13.15 -23.25,-31.86 -23.25,-56.13 v -27.3 c 0,-24.27 7.75,-42.97 23.25,-56.12 15.5,-13.14 37.25,-19.72 65.25,-19.72 29.01,0 51.26,6.58 66.76,19.72 15.5,13.15 23.25,31.85 23.25,56.12 v 27.3 c 0,24.27 -7.75,42.98 -23.25,56.13 -15.5,13.14 -37.75,19.71 -66.76,19.71 z M 318.81,447 C 303.63,513.67 283.83,579.83 259.41,645.5 234.98,711.17 207.92,770 178.22,822 L 54.46,756 c 30.36,-48 57.26,-101.33 80.69,-160 23.43,-58.67 42.41,-119.33 56.93,-182 z m 470.3,-33 c 29.04,106.67 75.58,221 139.6,343 L 805.94,822 C 740.59,690.67 691.75,567 659.41,451 Z" />
</svg>
