<?xml version="1.0" encoding="UTF-8" standalone="no"?>
<svg
   version="1.1"
   viewBox="-10 0 1010 1000"
   xmlns="http://www.w3.org/2000/svg"><path
     d="m 801.3926,48.5 c -47.7937,0 -86.4737,14.360085 -116.041,43.078125 C 655.7843,120.29618 641,157.30571 641,202.60742 c 0,45.30171 14.7843,82.10831 44.3516,110.42188 29.5673,28.31357 68.2473,42.4707 116.041,42.4707 48.6038,0 87.6885,-14.15713 117.2558,-42.4707 C 948.2157,284.71573 963,247.90913 963,202.60742 963,157.30571 948.2157,120.29617 918.6484,91.578125 889.0811,62.860085 849.9964,48.5 801.3926,48.5 Z m -0.7403,68.60742 c 28.5938,0 50.5316,6.27856 65.8145,18.83789 15.2829,12.55934 22.9258,30.4327 22.9258,53.61914 v 26.08399 c 0,23.18644 -7.6429,41.05981 -22.9258,53.61914 -15.2829,12.55932 -37.2207,18.83984 -65.8145,18.83984 -27.6078,0 -49.053,-6.28052 -64.3359,-18.83984 -15.2829,-12.55933 -22.9238,-30.4327 -22.9238,-53.61914 v -26.08399 c 0,-23.18644 7.6409,-41.0598 22.9238,-53.61914 15.2829,-12.55933 36.7281,-18.83789 64.3359,-18.83789 z M 407,226 c -23.3333,0 -45,6.33333 -65,19 -20,12.66667 -40.6667,31.66667 -62,57 L 55,576 152,693 382,401 c 6.6667,-8 12.5,-13.66667 17.5,-17 5,-3.33333 10.5,-5 16.5,-5 12,0 23.6667,6.66667 35,20 L 885,872 970,749 532,287 C 492.6667,246.33333 451,226 407,226 Z" /></svg>
