<?xml version="1.0" encoding="UTF-8" standalone="no"?>
<svg
   version="1.1"
   viewBox="-10 0 1010 1000"
   xmlns="http://www.w3.org/2000/svg"><path
     d="M 838.3926,0 C 790.5989,0 751.9189,14.360085 722.3516,43.078125 692.7843,71.796175 678,108.80571 678,154.10742 c 0,1.64202 0.02,3.27288 0.059,4.89258 H 95 v 129 h 586 c -7.3333,92.66667 -27.8333,171.16667 -61.5,235.5 -33.6667,64.33333 -82.1667,118.33333 -145.5,162 -63.3333,43.66667 -145,79.83333 -245,108.5 l 58,135 C 455.6667,879.66667 583.1667,802.66667 669.5,698 750.8856,599.33173 800.1308,468.6717 817.2363,306.01953 824.0779,306.6733 831.1302,307 838.3926,307 886.9963,307 926.0812,292.84287 955.6484,264.5293 985.2157,236.21573 1000,199.40913 1000,154.10742 1000,108.80571 985.2157,71.796175 955.6484,43.078125 926.0812,14.360085 886.9963,0 838.3926,0 Z m -0.7403,68.607422 c 28.5939,0 50.5316,6.27856 65.8145,18.83789 15.2829,12.559338 22.9258,30.432698 22.9258,53.619138 v 26.08399 c 0,23.18644 -7.6429,41.05981 -22.9258,53.61914 -15.2829,12.55932 -37.2206,18.83984 -65.8145,18.83984 -27.6078,0 -49.053,-6.28052 -64.3359,-18.83984 -15.2829,-12.55933 -22.9238,-30.4327 -22.9238,-53.61914 v -26.08399 c 0,-23.18644 7.6409,-41.0598 22.9238,-53.619138 15.2829,-12.55933 36.7281,-18.83789 64.3359,-18.83789 z" /></svg>
