<?xml version="1.0" encoding="UTF-8" standalone="no"?>
<svg
   viewBox="0 0 1000 1000">
  <path
     d="m 831.38,280.62 c -28,0 -49.75,-6.57 -65.25,-19.71 -15.5,-13.15 -23.25,-31.86 -23.25,-56.13 v -27.3 c 0,-24.27 7.75,-42.97 23.25,-56.12 15.5,-13.14 37.25,-19.72 65.25,-19.72 29.01,0 51.26,6.58 66.76,19.72 15.5,13.15 23.25,31.85 23.25,56.12 v 27.3 c 0,24.27 -7.75,42.98 -23.25,56.13 -15.5,13.14 -37.75,19.71 -66.76,19.71 z M 52.48,834 c 66,-96.67 116,-199.17 150,-307.5 33.99,-108.33 54.95,-235.83 62.87,-382.5 l 139.6,9 c -9.9,159.33 -32.51,299.67 -67.82,421 -35.31,121.33 -86.96,234.67 -154.95,340 z M 678.7,145.69 C 638.26,148.3 565.35,153 565.35,153 c 9.9,155.33 33.16,293.67 69.8,415 36.63,121.33 87.95,236.33 153.96,345 l 129.7,-79 C 855.45,735.33 805.94,630.67 770.3,520 748.96,453.76 732.59,382.27 721.19,305.52 v 0.01 c 28.62,25.64 65.39,38.47 110.32,38.47 48,0 86.61,-14.16 115.81,-42.47 29.2,-28.31 43.8,-65.12 43.8,-110.42 0,-45.3 -14.6,-82.31 -43.8,-111.03 C 918.12,51.36 879.51,37 831.51,37 784.3,37 746.1,51.36 716.9,80.08 698.13,98.53 685.4,120.41 678.69,145.7 Z" />
</svg>
