<?xml version="1.0" encoding="UTF-8" standalone="no"?>
<svg
   viewBox="0 0 1000 1000">
  <path
     d="m 831.38,249.62 c -28,0 -49.75,-6.57 -65.25,-19.71 -15.5,-13.15 -23.25,-31.86 -23.25,-56.13 v -27.3 c 0,-24.27 7.74753,-42.97291 23.25,-56.12 15.49753,-13.142909 37.25,-19.72 65.25,-19.72 29.01,0 51.26,6.58 66.76,19.72 15.5,13.15 23.25,31.85 23.25,56.12 v 27.3 c 0,24.27 -7.75,42.98 -23.25,56.13 -15.5,13.14 -37.75,19.71 -66.76,19.71 z m -4.94,63.32 c 1.68,0.04 3.37,0.06 5.07,0.06 48,0 86.61,-14.16 115.81,-42.47 29.2,-28.31 43.8,-65.12 43.8,-110.42 0,-45.3 -14.6,-82.31 -43.8,-111.03 C 918.12,20.36 879.51,6 831.51,6 784.3,6 746.1,20.36 716.9,49.08 c -23.48,23.08 -37.51,51.52 -42.12,85.3 l 0.14,0.05 c -4.26,-5.42 -8.54,-10.89 -12.85,-16.43 l -106.4,67 c 26.27,55.33 47.45,111.67 63.54,169 16.09,57.33 24.14,108.67 24.14,154 0,96 -17.57,168.5 -52.71,217.5 C 555.5,774.5 502.79,799 432.51,799 368.8,799 319.7,781.67 285.22,747 250.74,712.33 233.5,663.33 233.5,600 c 0,-113.33 52.87,-218.33 158.62,-315 19.7,-18 41.05,-34.33 64.04,-49 L 447.29,124 H 93.6 v 118 h 253.2 v 7 C 275.21,277 217.24,321.83 172.91,383.5 128.57,445.17 106.4,518.67 106.4,604 c 0,102 28.74,181.67 86.21,239 57.47,57.33 137.11,86 238.92,86 66.99,0 125.45,-14.17 175.37,-42.5 49.91,-28.33 88.34,-68 115.27,-119 26.93,-51 40.39,-108.83 40.39,-173.5 0,-43.33 -7.22,-87.67 -21.67,-133 -14.45,-45.33 -35.47,-89.67 -63.06,-133 l 6.9,-4 c 28.9,38 56.32,71.5 82.27,100.5 25.94,29 55.33,59.17 88.17,90.5 l 83.75,-91 C 899.49,387.72 862.06,350.68 826.63,312.9 Z" />
</svg>
