<?xml version="1.0" encoding="UTF-8" standalone="no"?>
<svg
   version="1.1"
   viewBox="-10 0 1010 1000"
   xmlns="http://www.w3.org/2000/svg"><path
     d="M 838.3926,32 C 790.5988,32 751.9189,46.36008 722.3516,75.078125 700.5057,96.296508 686.7306,122.04115 681.0254,152.3125 621.0762,140.93767 561.2339,131.50023 501.5,124 427.1667,114.66667 337.3333,105 232,95 l -19,124 c 92.6667,8 166.5,14.83333 221.5,20.5 55,5.66667 106.8333,12.5 155.5,20.5 l -1,7 c -22,-2 -42,-3 -60,-3 -56,0 -98.6667,12.5 -128,37.5 -29.3333,25 -44,55.83333 -44,92.5 0,29.33333 4.3333,55.83333 13,79.5 8.6667,23.66667 21.6667,50.5 39,80.5 l 66,111 c 22,37.33333 33,67.33333 33,90 0,20 -5,33.5 -15,40.5 -10,7 -27.3333,10.5 -52,10.5 -36,0 -77.6667,-7.33333 -125,-22 l -24,124 c 36,8.66667 66.1667,15 90.5,19 24.3333,4 50.5,6 78.5,6 56,0 100.3333,-13.83333 133,-41.5 32.6667,-27.66667 49,-66.83333 49,-117.5 0,-28.66667 -4.5,-56.5 -13.5,-83.5 -9,-27 -23.8333,-57.5 -44.5,-91.5 L 523,498 c -24,-40 -36,-75.66667 -36,-107 0,-35.33333 16.5,-61.33333 49.5,-78 33,-16.66667 86.8333,-24 161.5,-22 l 3.9121,-18.83984 c 5.769,8.72289 12.5828,16.84563 20.4395,24.36914 C 751.9189,324.8429 790.5988,339 838.3926,339 886.9963,339 926.0811,324.8429 955.6484,296.5293 985.2157,268.2157 1000,231.4091 1000,186.10742 1000,140.80571 985.2157,103.79617 955.6484,75.078125 926.0811,46.36008 886.9963,32 838.3926,32 Z m -0.7403,68.60742 c 28.5939,0 50.5316,6.27856 65.8145,18.83789 15.2829,12.55934 22.9258,30.4327 22.9258,53.61914 v 26.08399 c 0,23.18644 -7.6429,41.05984 -22.9258,53.61914 -15.2829,12.5593 -37.2206,18.83984 -65.8145,18.83984 -27.6078,0 -49.053,-6.28054 -64.3359,-18.83984 -15.2829,-12.5593 -22.9238,-30.4327 -22.9238,-53.61914 v -26.08399 c 0,-23.18644 7.6409,-41.0598 22.9238,-53.61914 15.2829,-12.55933 36.7281,-18.83789 64.3359,-18.83789 z M 784,462 662,518 c 64.6667,104.66667 118.6667,226 162,364 L 950,824 C 907.3333,692.66667 852,572 784,462 Z M 168,482 C 126,618.66667 75,733 15,825 l 126,62 c 28.6667,-49.33333 56.6667,-106.83333 84,-172.5 27.3333,-65.66667 50.6667,-129.16667 70,-190.5 z" /></svg>
