<?xml version="1.0" encoding="UTF-8" standalone="no"?>
<svg
   viewBox="0 0 1000 1000"
   version="1.1">
  <path
     d="m 817.38,282.62 c -28,0 -49.75,-6.57 -65.25,-19.71 -15.5,-13.15 -23.25,-31.86 -23.25,-56.13 v -27.3 c 0,-24.27 7.75,-42.97 23.25,-56.12 15.5,-13.14 37.25,-19.72 65.25,-19.72 29.01,0 51.26,6.58 66.76,19.72 15.5,13.15 23.25,31.85 23.25,56.12 v 27.3 c 0,24.27 -7.75,42.98 -23.25,56.13 -15.5,13.14 -37.75,19.71 -66.76,19.71 z m -123.93,10.9 C 631.57,316.46 569.56,335.95 507.43,352 435.15,370.67 367.99,384.67 305.94,394 V 104 H 173.27 v 608 c 0,47.33 6.27,84.5 18.81,111.5 12.54,27 33,46.5 61.39,58.5 28.38,12 67.32,18 116.83,18 H 836.63 V 770 H 364.36 c -20.47,0 -35.32,-4.17 -44.56,-12.5 -9.24,-8.33 -13.86,-22.83 -13.86,-43.5 V 531 c 181.52,-29.33 343.89,-73 487.13,-131 0,0 -11.77,-32.53 -21.4,-59.11 l 0.02,0.01 c 14.19,3.4 29.46,5.1 45.82,5.1 48,0 86.61,-14.16 115.81,-42.47 29.2,-28.31 43.8,-65.12 43.8,-110.42 0,-45.3 -14.6,-82.31 -43.8,-111.03 C 904.12,53.36 865.51,39 817.51,39 770.3,39 732.1,53.36 702.9,82.08 c -29.21,28.72 -43.81,65.73 -43.81,111.03 0,40.13 11.46,73.6 34.38,100.4 z" />
</svg>
