<?xml version="1.0" encoding="UTF-8" standalone="no"?>
<!DOCTYPE svg PUBLIC "-//W3C//DTD SVG 20010904//EN"
              "http://www.w3.org/TR/2001/REC-SVG-20010904/DTD/svg10.dtd">

<svg xmlns="http://www.w3.org/2000/svg"
     viewBox="0 0 1000 1000">
  <path d="M 898.14,267.91
           C 913.64,254.76 921.39,236.05 921.39,211.78
             921.39,211.78 921.39,184.48 921.39,184.48
             921.39,160.21 913.64,141.51 898.14,128.36
             882.64,115.22 860.39,108.64 831.38,108.64
             803.38,108.64 781.63,115.22 766.13,128.36
             750.63,141.51 742.88,160.21 742.88,184.48
             742.88,184.48 742.88,211.78 742.88,211.78
             742.88,236.05 750.63,254.76 766.13,267.91
             781.63,281.05 803.38,287.62 831.38,287.62
             860.39,287.62 882.64,281.05 898.14,267.91 Z
           M 701.09,290.49
           C 701.03,290.83 700.99,291.00 700.99,291.00
             627.06,289.00 573.76,296.33 541.09,313.00
             508.42,329.67 492.08,355.67 492.08,391.00
             492.08,422.33 503.96,458.00 527.72,498.00
             527.72,498.00 589.11,599.00 589.11,599.00
             609.57,633.00 624.26,663.50 633.17,690.50
             642.08,717.50 646.53,745.33 646.53,774.00
             646.53,824.67 630.36,863.83 598.02,891.50
             565.68,919.17 521.78,933.00 466.34,933.00
             438.61,933.00 412.71,931.00 388.61,927.00
             364.52,923.00 334.65,916.67 299.01,908.00
             299.01,908.00 322.77,784.00 322.77,784.00
             369.64,798.67 410.89,806.00 446.53,806.00
             470.96,806.00 488.12,802.50 498.02,795.50
             507.92,788.50 512.87,775.00 512.87,755.00
             512.87,732.33 501.98,702.33 480.20,665.00
             480.20,665.00 414.85,554.00 414.85,554.00
             397.69,524.00 384.82,497.17 376.24,473.50
             367.66,449.83 363.37,423.33 363.37,394.00
             363.37,357.33 377.89,326.50 406.93,301.50
             435.97,276.50 478.22,264.00 533.66,264.00
             551.49,264.00 571.29,265.00 593.07,267.00
             593.07,267.00 594.06,260.00 594.06,260.00
             545.87,252.00 494.55,245.17 440.10,239.50
             385.64,233.83 312.54,227.00 220.79,219.00
             220.79,219.00 239.60,95.00 239.60,95.00
             343.89,105.00 432.84,114.67 506.44,124.00
             563.88,131.28 621.43,140.40 679.07,151.34
             679.07,151.34 679.05,151.35 679.05,151.35
             685.85,126.63 698.47,105.20 716.90,87.08
             746.10,58.36 784.30,44.00 831.51,44.00
             879.51,44.00 918.12,58.36 947.32,87.08
             976.52,115.80 991.12,152.81 991.12,198.11
             991.12,243.41 976.52,280.22 947.32,308.53
             918.12,336.84 879.51,351.00 831.51,351.00
             784.30,351.00 746.10,336.84 716.90,308.53
             711.04,302.85 705.77,296.83 701.09,290.47
             701.09,290.47 701.09,290.49 701.09,290.49 Z
           M 825.74,882.00
           C 782.84,744.00 729.37,622.67 665.35,518.00
             665.35,518.00 786.14,462.00 786.14,462.00
             853.47,572.00 908.25,692.67 950.50,824.00
             950.50,824.00 825.74,882.00 825.74,882.00 Z
           M 24.75,825.00
           C 84.16,733.00 134.65,618.67 176.24,482.00
             176.24,482.00 301.98,524.00 301.98,524.00
             282.84,585.33 259.74,648.83 232.67,714.50
             205.61,780.17 177.89,837.67 149.50,887.00
             149.50,887.00 24.75,825.00 24.75,825.00 Z" />
</svg>
