<?xml version="1.0" encoding="UTF-8" standalone="no"?>
<!DOCTYPE svg PUBLIC "-//W3C//DTD SVG 20010904//EN"
              "http://www.w3.org/TR/2001/REC-SVG-20010904/DTD/svg10.dtd">

<svg xmlns="http://www.w3.org/2000/svg"
     viewBox="0 0 1000 1000">
  <path d="M 898.14,229.91
           C 913.64,216.76 921.39,198.05 921.39,173.78
             921.39,173.78 921.39,146.48 921.39,146.48
             921.39,122.21 913.64,103.51 898.14,90.36
             882.64,77.22 860.39,70.64 831.38,70.64
             803.38,70.64 781.63,77.22 766.13,90.36
             750.63,103.51 742.88,122.21 742.88,146.48
             742.88,146.48 742.88,173.78 742.88,173.78
             742.88,198.05 750.63,216.76 766.13,229.91
             781.63,243.05 803.38,249.62 831.38,249.62
             860.39,249.62 882.64,243.05 898.14,229.91 Z
           M 348.51,591.00
           C 316.83,656.33 294.55,709.50 281.68,750.50
             268.81,791.50 262.38,828.00 262.38,860.00
             262.38,878.00 263.37,895.33 265.35,912.00
             265.35,912.00 133.66,925.00 133.66,925.00
             110.56,808.33 99.01,685.67 99.01,557.00
             99.01,499.67 103.80,430.17 113.37,348.50
             122.94,266.83 137.29,181.00 156.44,91.00
             156.44,91.00 282.18,105.00 282.18,105.00
             261.72,195.00 246.04,281.67 235.15,365.00
             224.26,448.33 218.81,515.00 218.81,565.00
             218.81,643.00 219.47,691.33 220.79,710.00
             220.79,710.00 227.72,710.00 227.72,710.00
             231.02,677.33 235.97,648.83 242.57,624.50
             249.17,600.17 258.42,574.00 270.30,546.00
             270.30,546.00 348.51,591.00 348.51,591.00 Z
           M 614.85,718.00
           C 587.13,709.33 559.41,705.00 531.68,705.00
             511.22,705.00 494.72,710.17 482.18,720.50
             469.64,730.83 463.37,744.00 463.37,760.00
             463.37,778.00 470.13,792.00 483.66,802.00
             497.19,812.00 515.84,817.00 539.60,817.00
             564.69,817.00 583.50,812.67 596.04,804.00
             608.58,795.33 614.85,781.67 614.85,763.00
             614.85,763.00 614.85,718.00 614.85,718.00 Z
           M 731.68,283.05
           C 731.68,317.10 731.68,370.00 731.68,370.00
             788.45,368.00 840.59,364.67 888.12,360.00
             888.12,360.00 895.05,475.00 895.05,475.00
             845.54,479.67 791.09,482.67 731.68,484.00
             731.68,484.00 731.68,646.00 731.68,646.00
             793.07,675.33 857.76,719.33 925.74,778.00
             925.74,778.00 859.41,875.00 859.41,875.00
             816.50,833.67 773.93,799.67 731.68,773.00
             731.68,773.00 731.68,788.00 731.68,788.00
             731.68,833.33 714.52,868.33 680.20,893.00
             645.87,917.67 597.69,930.00 535.64,930.00
             478.22,930.00 431.68,914.83 396.04,884.50
             360.40,854.17 342.57,814.00 342.57,764.00
             342.57,710.67 360.40,669.50 396.04,640.50
             431.68,611.50 479.54,597.00 539.60,597.00
             562.05,597.00 586.47,599.67 612.87,605.00
             612.87,605.00 612.87,485.00 612.87,485.00
             517.82,483.67 429.70,481.67 348.51,479.00
             348.51,479.00 352.48,364.00 352.48,364.00
             430.36,368.67 517.16,371.00 612.87,371.00
             612.87,371.00 612.87,256.00 612.87,256.00
             544.22,256.00 462.71,254.00 368.32,250.00
             368.32,250.00 372.28,138.00 372.28,138.00
             460.07,142.00 556.77,144.00 662.38,144.00
             662.38,144.00 666.84,143.95 673.77,143.87
             673.77,143.87 673.74,143.89 673.74,143.89
             676.87,105.90 691.25,74.29 716.90,49.08
             746.10,20.36 784.30,6.00 831.51,6.00
             879.51,6.00 918.12,20.36 947.32,49.08
             976.52,77.80 991.12,114.81 991.12,160.11
             991.12,205.41 976.52,242.22 947.32,270.53
             918.12,298.84 879.51,313.00 831.51,313.00
             791.90,313.00 758.63,303.03 731.69,283.10
             731.69,283.10 731.68,283.05 731.68,283.05 Z" />
</svg>
