<?xml version="1.0" encoding="UTF-8" standalone="no"?>
<svg
   version="1.1"
   viewBox="-10 0 1010 1000"
   xmlns="http://www.w3.org/2000/svg"><path
     d="M 838.3926,17 C 790.5989,17 751.9189,31.360081 722.3516,60.078125 698.9685,82.78953 684.8304,110.68632 679.9395,143.76953 L 659,144 c -106.6667,0 -204.3333,-2 -293,-6 l -4,112 c 95.3333,4 177.6667,6 247,6 v 115 c -96.6667,0 -184.3333,-2.33333 -263,-7 l -4,115 c 82,2.66667 171,4.66667 267,6 v 120 c -26.6667,-5.33333 -51.3333,-8 -74,-8 -60.6667,0 -109,14.5 -145,43.5 -36,29 -54,70.16667 -54,123.5 0,50 18,90.16667 54,120.5 36,30.33333 83,45.5 141,45.5 62.6667,0 111.3333,-12.33333 146,-37 34.6667,-24.66667 52,-59.66667 52,-105 v -15 c 42.6667,26.66667 85.6667,60.66667 129,102 l 67,-97 C 856.3333,719.33333 791,675.33333 729,646 V 484 c 60,-1.33333 115,-4.33333 165,-9 l -7,-115 c -48,4.66667 -100.6667,8 -158,10 V 287.52734 C 757.6381,311.8425 794.102,324 838.3926,324 886.9963,324 926.0812,309.84287 955.6484,281.5293 985.2157,253.21573 1000,216.40913 1000,171.10742 1000,125.80572 985.2157,88.796175 955.6484,60.078125 926.0812,31.360081 886.9963,17 838.3926,17 Z m -0.7403,68.607422 c 28.5939,0 50.5316,6.278567 65.8145,18.837888 15.2829,12.55934 22.9258,30.4327 22.9258,53.61914 v 26.08399 c 0,23.18644 -7.6429,41.05981 -22.9258,53.61914 -15.2829,12.55932 -37.2206,18.83984 -65.8145,18.83984 -27.6078,0 -49.053,-6.28052 -64.3359,-18.83984 -15.283,-12.55933 -22.9238,-30.4327 -22.9238,-53.61914 v -26.08399 c 0,-23.18644 7.6408,-41.0598 22.9238,-53.61914 15.2829,-12.559323 36.7281,-18.837888 64.3359,-18.837888 z M 148,91 C 128.6667,181 114.1667,266.83333 104.5,348.5 94.8333,430.16667 90,499.66667 90,557 c 0,128.66667 11.6667,251.33333 35,368 l 133,-13 c -2,-16.66667 -3,-34 -3,-52 0,-32 6.5,-68.5 19.5,-109.5 13,-41 35.5,-94.16667 67.5,-159.5 l -79,-45 c -12,28 -21.3333,54.16667 -28,78.5 -6.6667,24.33333 -11.6667,52.83333 -15,85.5 h -7 c -1.3333,-18.66667 -2,-67 -2,-145 0,-50 5.5,-116.66667 16.5,-200 11,-83.33333 26.8333,-170 47.5,-260 z m 379,614 c 28,0 56,4.33333 84,13 v 45 c 0,18.66667 -6.3333,32.33333 -19,41 -12.6667,8.66667 -31.6667,13 -57,13 -24,0 -42.8333,-5 -56.5,-15 -13.6667,-10 -20.5,-24 -20.5,-42 0,-16 6.3333,-29.16667 19,-39.5 12.6667,-10.33333 29.3333,-15.5 50,-15.5 z" /></svg>
