<?xml version="1.0" encoding="UTF-8" standalone="no"?>
<!DOCTYPE svg PUBLIC "-//W3C//DTD SVG 20010904//EN"
              "http://www.w3.org/TR/2001/REC-SVG-20010904/DTD/svg10.dtd">

<svg xmlns="http://www.w3.org/2000/svg"
     viewBox="0 0 1000 1000">
  <path d="M 689.90,313.53
           C 660.69,285.22 646.09,248.41 646.09,203.11
             646.09,157.81 660.69,120.80 689.90,92.08
             719.10,63.36 757.30,49.00 804.51,49.00
             852.51,49.00 891.12,63.36 920.32,92.08
             949.52,120.80 964.12,157.81 964.12,203.11
             964.12,248.41 949.52,285.22 920.32,313.53
             891.12,341.84 852.51,356.00 804.51,356.00
             757.30,356.00 719.10,341.84 689.90,313.53 Z
           M 871.14,272.91
           C 886.64,259.76 894.39,241.05 894.39,216.78
             894.39,216.78 894.39,189.48 894.39,189.48
             894.39,165.21 886.64,146.51 871.14,133.36
             855.64,120.22 833.39,113.64 804.38,113.64
             776.38,113.64 754.63,120.22 739.13,133.36
             723.63,146.51 715.88,165.21 715.88,189.48
             715.88,189.48 715.88,216.78 715.88,216.78
             715.88,241.05 723.63,259.76 739.13,272.91
             754.63,286.05 776.38,292.62 804.38,292.62
             833.39,292.62 855.64,286.05 871.14,272.91 Z
           M 456.44,399.00
           C 445.21,385.67 433.66,379.00 421.78,379.00
             415.84,379.00 410.40,380.67 405.45,384.00
             400.50,387.33 394.72,393.00 388.12,401.00
             388.12,401.00 160.40,693.00 160.40,693.00
             160.40,693.00 64.36,576.00 64.36,576.00
             64.36,576.00 287.13,302.00 287.13,302.00
             308.25,276.67 328.71,257.67 348.51,245.00
             368.32,232.33 389.77,226.00 412.87,226.00
             456.44,226.00 497.69,246.33 536.63,287.00
             536.63,287.00 970.30,749.00 970.30,749.00
             970.30,749.00 886.14,872.00 886.14,872.00
             886.14,872.00 456.44,399.00 456.44,399.00 Z" />
</svg>
