<?xml version="1.0" encoding="UTF-8" standalone="no"?>
<svg
   version="1.1"
   viewBox="-10 0 1020 1000"
   xmlns="http://www.w3.org/2000/svg"><path
     d="M 838.39258 0 C 790.59887 0 751.91886 14.360076 722.35156 43.078125 C 706.87225 58.112836 695.44398 75.420096 688.06836 95 L 621 95 L 621 333 C 522.33333 331.66667 436 329.66667 362 327 L 359 451 C 445 453 532.33333 454 621 454 L 621 591 C 592.33333 585.66667 565 583 539 583 C 477 583 428.5 598.83333 393.5 630.5 C 358.5 662.16667 341 705.66667 341 761 C 341 813.66667 359 855.33333 395 886 C 431 916.66667 480.33333 932 543 932 C 606.33333 932 655.5 918.66667 690.5 892 C 725.5 865.33333 743 828 743 780 L 743 765 C 779 788.33333 816 818 854 854 L 925 756 C 865 703.33333 804.33333 662 743 632 L 743 453 L 871 447 L 902 445 L 898 324 C 851.33333 328 799.66667 330.66667 743 332 L 743 281.03516 C 769.22632 298.3443 801.0237 307 838.39258 307 C 886.99635 307 926.08115 292.84287 955.64844 264.5293 C 985.21573 236.21573 1000 199.40913 1000 154.10742 C 1000 108.80571 985.21573 71.796174 955.64844 43.078125 C 926.08115 14.360076 886.99635 0 838.39258 0 z M 837.65234 68.607422 C 866.24618 68.607422 888.18389 74.885982 903.4668 87.445312 C 918.74972 100.00466 926.39258 117.87801 926.39258 141.06445 L 926.39258 167.14844 C 926.39258 190.33488 918.74972 208.20825 903.4668 220.76758 C 888.18389 233.3269 866.24618 239.60742 837.65234 239.60742 C 810.0445 239.60742 788.59933 233.3269 773.31641 220.76758 C 758.0335 208.20825 750.39258 190.33488 750.39258 167.14844 L 750.39258 141.06445 C 750.39258 117.87801 758.0335 100.00466 773.31641 87.445312 C 788.59933 74.885982 810.0445 68.607422 837.65234 68.607422 z M 156 95 C 118.66667 261 100 415 100 557 C 100 685.66667 111.66667 808.33333 135 925 L 270 912 C 268 895.33333 267 878 267 860 C 267 828 273.66667 791.5 287 750.5 C 300.33333 709.5 323 655.66667 355 589 L 275 545 C 263 573.66667 253.66667 600.16667 247 624.5 C 240.33333 648.83333 235.33333 677.33333 232 710 L 225 710 C 223.66667 691.33333 223 643 223 565 C 223 507.66667 228.16667 439 238.5 359 C 248.83333 279 264 195.66667 284 109 L 156 95 z M 534 695 C 562.66667 695 591.66667 699 621 707 L 621 760 C 621 780 614.66667 794.5 602 803.5 C 589.33333 812.5 569.66667 817 543 817 C 517.66667 817 498 811.83333 484 801.5 C 470 791.16667 463 776.33333 463 757 C 463 738.33333 469.33333 723.33333 482 712 C 494.66667 700.66667 512 695 534 695 z " /></svg>
