<?xml version="1.0" encoding="UTF-8" standalone="no"?>
<svg
   version="1.1"
   viewBox="-10 0 1010 1000"
   xmlns="http://www.w3.org/2000/svg"><path
     d="m 838.3926,20 c -47.7937,0 -86.4737,14.360085 -116.041,43.078125 -23.0584,22.396036 -37.125,49.834605 -42.2012,82.316405 L 561,153 c 10,155.33333 33.5,293.66667 70.5,415 37,121.33333 88.8333,236.33333 155.5,345 L 918,834 C 854,735.33333 804,630.66667 768,520 743.73,445.39213 725.8233,364.11766 714.2793,276.17773 c 2.5558,2.86126 5.2463,5.64547 8.0723,8.35157 C 751.9189,312.84287 790.5989,327 838.3926,327 886.9963,327 926.0812,312.84287 955.6484,284.5293 985.2157,256.21573 1000,219.40913 1000,174.10742 1000,128.80571 985.2157,91.796174 955.6484,63.078125 926.0812,34.360085 886.9963,20 838.3926,20 Z m -0.7403,68.607422 c 28.5938,0 50.5316,6.278559 65.8145,18.837888 15.2829,12.55934 22.9258,30.4327 22.9258,53.61914 v 26.08399 c 0,23.18644 -7.6429,41.05981 -22.9258,53.61914 -15.2829,12.55932 -37.2207,18.83984 -65.8145,18.83984 -27.6079,0 -49.0529,-6.28052 -64.3359,-18.83984 -15.2829,-12.55933 -22.9238,-30.4327 -22.9238,-53.61914 v -26.08399 c 0,-23.18644 7.6409,-41.0598 22.9238,-53.61914 15.283,-12.559329 36.728,-18.837888 64.3359,-18.837888 z M 258,144 C 250,290.66667 228.8333,418.16667 194.5,526.5 160.1667,634.83333 109.6667,737.33333 43,834 l 131,80 C 242.6667,808.66667 294.8333,695.33333 330.5,574 366.1667,452.66667 389,312.33333 399,153 Z" /></svg>
