<?xml version="1.0" encoding="UTF-8" standalone="no"?>
<svg
   viewBox="0 0 1000 1000">
  <path
     d="m 738.18,287.63 c 25.73,16.91 56.84,25.37 93.33,25.37 48,0 86.61,-14.16 115.81,-42.47 29.2,-28.31 43.8,-65.12 43.8,-110.42 0,-45.3 -14.6,-82.31 -43.8,-111.03 C 918.12,20.36 879.51,6 831.51,6 784.3,6 746.1,20.36 716.9,49.08 703.14,62.61 692.62,77.98 685.34,95.19 L 618.63,95 v 242 c -96.73,-1.33 -181.38,-3.33 -253.92,-6 l -2.95,124 c 84.32,2 169.94,3 256.87,3 v 133 c -28.11,-5.33 -54.9,-8 -80.39,-8 -60.79,0 -108.34,15.83 -142.65,47.5 -34.32,31.67 -51.47,75.17 -51.47,130.5 0,52.67 17.64,94.33 52.94,125 35.29,30.67 83.66,46 145.1,46 62.09,0 110.29,-13.33 144.6,-40 34.32,-26.67 51.48,-64 51.48,-112 v -15 c 35.29,23.33 71.56,53 108.82,89 l 69.61,-98 C 857.84,703.33 798.37,662 738.24,632 V 457 l 125.49,-6 30.39,-2 -3.92,-121 c -45.76,4 -96.41,6.67 -151.96,8 z m 93.2,-38.01 c -28,0 -49.75,-6.57 -65.25,-19.71 -15.5,-13.15 -23.25,-31.86 -23.25,-56.13 v -27.3 c 0,-24.27 7.75,-42.97 23.25,-56.12 15.5,-13.14 37.25,-19.72 65.25,-19.72 29.01,0 51.26,6.58 66.76,19.72 15.5,13.15 23.25,31.85 23.25,56.12 v 27.3 c 0,24.27 -7.75,42.98 -23.25,56.13 -15.5,13.14 -37.75,19.71 -66.76,19.71 z M 357.84,589 c -31.37,66.67 -53.59,120.5 -66.66,161.5 -13.08,41 -19.61,77.5 -19.61,109.5 0,18 0.98,35.33 2.94,52 L 142.16,925 C 119.28,808.33 107.84,685.67 107.84,557 c 0,-142 18.3,-296 54.91,-462 l 125.49,14 c -19.61,86.67 -34.48,170 -44.61,250 -10.13,80 -15.2,148.67 -15.2,206 0,78 0.65,126.33 1.96,145 h 6.86 c 3.27,-32.67 8.17,-61.17 14.71,-85.5 6.54,-24.33 15.69,-50.83 27.45,-79.5 z m 260.79,171 c 0,20 -6.21,34.5 -18.63,43.5 -12.42,9 -31.7,13.5 -57.84,13.5 -24.84,0 -44.12,-5.17 -57.85,-15.5 -13.72,-10.33 -20.58,-25.17 -20.58,-44.5 0,-18.67 6.2,-33.67 18.62,-45 12.42,-11.33 29.41,-17 50.98,-17 28.11,0 56.54,4 85.3,12 z" />
</svg>
