<?xml version="1.0" encoding="UTF-8" standalone="no"?>
<!DOCTYPE svg PUBLIC "-//W3C//DTD SVG 20010904//EN"
              "http://www.w3.org/TR/2001/REC-SVG-20010904/DTD/svg10.dtd">

<svg xmlns="http://www.w3.org/2000/svg"
     viewBox="0 0 1000 1000">
  <path d="M 53.90,264.53
           C 24.69,236.22 10.09,199.41 10.09,154.11
             10.09,108.81 24.69,71.80 53.90,43.08
             83.10,14.36 121.30,-0.00 168.51,-0.00
             216.51,-0.00 255.12,14.36 284.32,43.08
             313.52,71.80 328.12,108.81 328.12,154.11
             328.12,199.41 313.52,236.22 284.32,264.53
             255.12,292.84 216.51,307.00 168.51,307.00
             121.30,307.00 83.10,292.84 53.90,264.53 Z
           M 235.14,223.91
           C 250.64,210.76 258.39,192.05 258.39,167.78
             258.39,167.78 258.39,140.48 258.39,140.48
             258.39,116.21 250.64,97.51 235.14,84.36
             219.64,71.22 197.39,64.64 168.38,64.64
             140.38,64.64 118.63,71.22 103.13,84.36
             87.63,97.51 79.88,116.21 79.88,140.48
             79.88,140.48 79.88,167.78 79.88,167.78
             79.88,192.05 87.63,210.76 103.13,223.91
             118.63,237.05 140.38,243.62 168.38,243.62
             197.39,243.62 219.64,237.05 235.14,223.91 Z" />
</svg>
