<?xml version="1.0" encoding="UTF-8" standalone="no"?>
<svg
   viewBox="0 0 1000 1000">
  <path
     d="m 831.38,249.62 c -28,0 -49.75,-6.57 -65.25,-19.71 -15.5,-13.15 -23.25,-31.86 -23.25,-56.13 v -27.3 c 0,-24.27 7.75,-42.97 23.25,-56.12 15.5,-13.14 37.25,-19.72 65.25,-19.72 29.01,0 51.26,6.58 66.76,19.72 15.5,13.15 23.25,31.85 23.25,56.12 v 27.3 c 0,24.27 -7.75,42.98 -23.25,56.13 -15.5,13.14 -37.75,19.71 -66.76,19.71 z M 673.09,159 H 103.96 v 129 h 580.2 C 676.9,380.67 656.6,459.17 623.27,523.5 589.93,587.83 541.91,641.83 479.21,685.5 416.5,729.17 335.64,765.33 236.63,794 l 57.43,135 c 167,-49.33 293.23,-126.33 378.71,-231 79.49,-97.33 128.01,-225.79 145.57,-385.38 h -0.02 c 4.32,0.25 8.71,0.38 13.19,0.38 48,0 86.61,-14.16 115.81,-42.47 29.2,-28.31 43.8,-65.12 43.8,-110.42 0,-45.3 -14.6,-82.31 -43.8,-111.03 C 918.12,20.36 879.51,6 831.51,6 784.3,6 746.1,20.36 716.9,49.08 687.93,77.57 673.33,114.21 673.09,159.01 Z" />
</svg>
