<?xml version="1.0" encoding="UTF-8" standalone="no"?>
<svg
   version="1.1"
   viewBox="-10 0 1015 1000"
   xmlns="http://www.w3.org/2000/svg"><path
     d="M 838.3926,0 C 790.5989,0 751.9189,14.360085 722.3516,43.078125 696.1721,68.505681 681.5818,100.43274 678.582,138.86133 673.0939,132.00439 667.5667,125.05113 662,118 l -108,67 c 26.6667,55.33333 48.1667,111.66667 64.5,169 16.3333,57.33333 24.5,108.66667 24.5,154 0,96 -17.8333,168.5 -53.5,217.5 C 553.8333,774.5 500.3333,799 429,799 364.3333,799 314.5,781.66667 279.5,747 244.5,712.33333 227,663.33333 227,600 c 0,-113.33333 53.6667,-218.33333 161,-315 20,-18 41.6667,-34.33333 65,-49 L 444,124 H 85 v 118 h 257 v 7 C 269.3333,277 210.5,321.83333 165.5,383.5 120.5,445.16667 98,518.66667 98,604 c 0,102 29.1667,181.66667 87.5,239 58.3333,57.33333 139.1667,86 242.5,86 68,0 127.3333,-14.16667 178,-42.5 50.6667,-28.33333 89.6667,-68 117,-119 27.3333,-51 41,-108.83333 41,-173.5 0,-43.33333 -7.3333,-87.66667 -22,-133 -14.6667,-45.33333 -36,-89.66667 -64,-133 l 7,-4 c 29.3333,38 57.1667,71.5 83.5,100.5 26.3333,29 56.1667,59.16667 89.5,90.5 l 85,-91 C 900.7164,385.66287 860.6976,346.49217 822.9434,306.48633 827.9828,306.82931 833.1324,307 838.3926,307 886.9963,307 926.0812,292.84287 955.6484,264.5293 985.2157,236.21573 1000,199.40913 1000,154.10742 1000,108.80571 985.2157,71.796175 955.6484,43.078125 926.0812,14.360085 886.9963,0 838.3926,0 Z m -0.7403,68.607422 c 28.5939,0 50.5316,6.27856 65.8145,18.83789 15.2829,12.559338 22.9258,30.432698 22.9258,53.619138 v 26.08399 c 0,23.18644 -7.6429,41.05981 -22.9258,53.61914 -15.2829,12.55932 -37.2206,18.83984 -65.8145,18.83984 -27.6078,0 -49.053,-6.28052 -64.3359,-18.83984 -15.2829,-12.55933 -22.9238,-30.4327 -22.9238,-53.61914 v -26.08399 c 0,-23.18644 7.6409,-41.0598 22.9238,-53.619138 15.2829,-12.55933 36.7281,-18.83789 64.3359,-18.83789 z" /></svg>
