<?xml version="1.0" encoding="UTF-8" standalone="no"?>
<svg
   version="1.1"
   viewBox="-10 0 1010 1000"
   xmlns="http://www.w3.org/2000/svg"><path
     d="m 816.3926,38.5 c -47.7938,0 -86.4737,14.360085 -116.041,43.078125 C 670.7843,110.29618 656,147.30571 656,192.60742 c 0,40.26753 11.6818,73.82291 35.043,100.66797 C 628.3196,316.32275 565.4714,335.89772 502.5,352 429.5,370.66667 361.6667,384.66667 299,394 V 104 H 165 v 608 c 0,47.33333 6.3333,84.5 19,111.5 12.6667,27 33.3333,46.5 62,58.5 28.6667,12 68,18 118,18 H 835 V 770 H 358 c -20.6667,0 -35.6667,-4.16667 -45,-12.5 -9.3333,-8.33333 -14,-22.83333 -14,-43.5 V 531 C 482.3333,501.66667 646.3333,458 791,400 l -21.8633,-59.80469 c 14.614,3.53622 30.3655,5.30469 47.2559,5.30469 48.6037,0 87.6885,-14.15713 117.2558,-42.4707 C 963.2157,274.71573 978,237.90913 978,192.60742 978,147.30571 963.2157,110.29618 933.6484,81.578125 904.0811,52.860085 864.9963,38.5 816.3926,38.5 Z m -0.7403,68.60742 c 28.5939,0 50.5316,6.27856 65.8145,18.83789 15.2829,12.55934 22.9258,30.4327 22.9258,53.61914 v 26.08399 c 0,23.18644 -7.6429,41.05981 -22.9258,53.61914 -15.2829,12.55932 -37.2206,18.83984 -65.8145,18.83984 -27.6078,0 -49.053,-6.28052 -64.3359,-18.83984 -15.2829,-12.55933 -22.9238,-30.4327 -22.9238,-53.61914 v -26.08399 c 0,-23.18644 7.6409,-41.0598 22.9238,-53.61914 15.2829,-12.55933 36.7281,-18.83789 64.3359,-18.83789 z" /></svg>
