<?xml version="1.0" encoding="UTF-8" standalone="no"?>
<svg
   version="1.1"
   viewBox="-10 0 510 1000"
   xmlns="http://www.w3.org/2000/svg"><path
     d="M 160.39258,0 C 112.59887,0 73.91886,14.360076 44.35156,43.07813 14.78427,71.79617 0,108.80571 0,154.10742 0,199.40913 14.78427,236.21573 44.35156,264.5293 73.91886,292.84287 112.59887,307 160.39258,307 208.99635,307 248.08115,292.84287 277.64844,264.5293 307.21573,236.21573 322,199.40913 322,154.10742 322,108.80571 307.21573,71.79617 277.64844,43.07813 248.08115,14.360076 208.99635,0 160.39258,0 Z m -0.74024,68.60742 c 28.59384,0 50.53155,6.27856 65.81446,18.83789 15.28292,12.55934 22.92578,30.4327 22.92578,53.61914 v 26.08399 c 0,23.18644 -7.64286,41.05981 -22.92578,53.61914 -15.28291,12.55932 -37.22062,18.83984 -65.81446,18.83984 -27.60784,0 -49.05301,-6.28052 -64.33593,-18.83984 C 80.0335,208.20825 72.39258,190.33488 72.39258,167.14844 v -26.08399 c 0,-23.18644 7.64092,-41.0598 22.92383,-53.61914 15.28292,-12.55933 36.72809,-18.83789 64.33593,-18.83789 z" /></svg>
